M48
; DRILL file {KiCad (5.1.10)-1} date 11/17/21 13:28:22
; FORMAT={-:-/ absolute / metric / decimal}
; #@! TF.CreationDate,2021-11-17T13:28:22+00:00
; #@! TF.GenerationSoftware,Kicad,Pcbnew,(5.1.10)-1
; #@! TF.FileFunction,Plated,1,2,PTH
FMAT,2
METRIC
T1C0.300
T2C0.400
T3C1.000
%
G90
G05
T1
X112.5Y-92.7
T2
X102.2Y-81.4
X102.2Y-83.4
X105.5Y-81.4
X105.5Y-83.4
X111.5Y-75.5
X116.4Y-87.8
X118.062Y-80.837
X119.0Y-88.5
X122.8Y-86.4
X125.4Y-84.0
X126.4Y-80.4
X128.8Y-83.4
X129.6Y-85.8
X130.0Y-82.7
X131.6Y-91.2
X132.4Y-85.5
X132.5Y-88.1
X132.8Y-92.7
X133.9Y-88.054
X135.5Y-89.7
X137.9Y-82.5
T3
X98.0Y-75.46
X98.0Y-78.0
X98.0Y-83.58
X98.0Y-86.12
X98.0Y-88.66
X98.0Y-91.2
X129.6Y-74.46
X129.6Y-77.0
X132.14Y-74.46
X132.14Y-77.0
X134.68Y-74.46
X134.68Y-77.0
X140.3Y-82.46
X140.3Y-85.0
X140.3Y-87.54
X140.3Y-90.08
T0
M30
