G04 #@! TF.GenerationSoftware,KiCad,Pcbnew,(5.1.5)-3*
G04 #@! TF.CreationDate,2021-06-29T15:52:26+01:00*
G04 #@! TF.ProjectId,LightMinderSMD,4c696768-744d-4696-9e64-6572534d442e,rev?*
G04 #@! TF.SameCoordinates,Original*
G04 #@! TF.FileFunction,Legend,Top*
G04 #@! TF.FilePolarity,Positive*
%FSLAX46Y46*%
G04 Gerber Fmt 4.6, Leading zero omitted, Abs format (unit mm)*
G04 Created by KiCad (PCBNEW (5.1.5)-3) date 2021-06-29 15:52:26*
%MOMM*%
%LPD*%
G04 APERTURE LIST*
%ADD10C,0.100000*%
%ADD11C,0.150000*%
%ADD12C,0.300000*%
%ADD13C,0.400000*%
%ADD14C,0.254000*%
%ADD15C,0.200000*%
%ADD16C,0.120000*%
%ADD17R,1.627000X0.752000*%
%ADD18R,1.302000X1.502000*%
%ADD19O,1.802000X1.802000*%
%ADD20R,1.802000X1.802000*%
%ADD21R,1.002000X0.902000*%
%ADD22R,0.602000X0.602000*%
%ADD23R,1.282000X2.912000*%
%ADD24C,1.502000*%
%ADD25R,0.652000X1.702000*%
%ADD26R,1.702000X0.652000*%
G04 APERTURE END LIST*
D10*
D11*
X177002200Y-166007200D02*
X177002200Y-198007200D01*
X285002200Y-198007200D01*
X285002200Y-166007200D01*
X177002200Y-166007200D01*
D10*
D11*
X10000000Y-10000000D02*
X10000000Y-200007200D01*
X287002200Y-200007200D01*
X287002200Y-10000000D01*
X10000000Y-10000000D01*
D10*
D11*
X12000000Y-12000000D02*
X12000000Y-198007200D01*
X285002200Y-198007200D01*
X285002200Y-12000000D01*
X12000000Y-12000000D01*
D10*
D11*
X60000000Y-12000000D02*
X60000000Y-10000000D01*
D10*
D11*
X110000000Y-12000000D02*
X110000000Y-10000000D01*
D10*
D11*
X160000000Y-12000000D02*
X160000000Y-10000000D01*
D10*
D11*
X210000000Y-12000000D02*
X210000000Y-10000000D01*
D10*
D11*
X260000000Y-12000000D02*
X260000000Y-10000000D01*
D10*
D11*
X36065476Y-11588095D02*
X35322619Y-11588095D01*
X35694047Y-11588095D02*
X35694047Y-10288095D01*
X35570238Y-10473809D01*
X35446428Y-10597619D01*
X35322619Y-10659523D01*
D10*
D11*
X85322619Y-10411904D02*
X85384523Y-10350000D01*
X85508333Y-10288095D01*
X85817857Y-10288095D01*
X85941666Y-10350000D01*
X86003571Y-10411904D01*
X86065476Y-10535714D01*
X86065476Y-10659523D01*
X86003571Y-10845238D01*
X85260714Y-11588095D01*
X86065476Y-11588095D01*
D10*
D11*
X135260714Y-10288095D02*
X136065476Y-10288095D01*
X135632142Y-10783333D01*
X135817857Y-10783333D01*
X135941666Y-10845238D01*
X136003571Y-10907142D01*
X136065476Y-11030952D01*
X136065476Y-11340476D01*
X136003571Y-11464285D01*
X135941666Y-11526190D01*
X135817857Y-11588095D01*
X135446428Y-11588095D01*
X135322619Y-11526190D01*
X135260714Y-11464285D01*
D10*
D11*
X185941666Y-10721428D02*
X185941666Y-11588095D01*
X185632142Y-10226190D02*
X185322619Y-11154761D01*
X186127380Y-11154761D01*
D10*
D11*
X236003571Y-10288095D02*
X235384523Y-10288095D01*
X235322619Y-10907142D01*
X235384523Y-10845238D01*
X235508333Y-10783333D01*
X235817857Y-10783333D01*
X235941666Y-10845238D01*
X236003571Y-10907142D01*
X236065476Y-11030952D01*
X236065476Y-11340476D01*
X236003571Y-11464285D01*
X235941666Y-11526190D01*
X235817857Y-11588095D01*
X235508333Y-11588095D01*
X235384523Y-11526190D01*
X235322619Y-11464285D01*
D10*
D11*
X285941666Y-10288095D02*
X285694047Y-10288095D01*
X285570238Y-10350000D01*
X285508333Y-10411904D01*
X285384523Y-10597619D01*
X285322619Y-10845238D01*
X285322619Y-11340476D01*
X285384523Y-11464285D01*
X285446428Y-11526190D01*
X285570238Y-11588095D01*
X285817857Y-11588095D01*
X285941666Y-11526190D01*
X286003571Y-11464285D01*
X286065476Y-11340476D01*
X286065476Y-11030952D01*
X286003571Y-10907142D01*
X285941666Y-10845238D01*
X285817857Y-10783333D01*
X285570238Y-10783333D01*
X285446428Y-10845238D01*
X285384523Y-10907142D01*
X285322619Y-11030952D01*
D10*
D11*
X60000000Y-198007200D02*
X60000000Y-200007200D01*
D10*
D11*
X110000000Y-198007200D02*
X110000000Y-200007200D01*
D10*
D11*
X160000000Y-198007200D02*
X160000000Y-200007200D01*
D10*
D11*
X210000000Y-198007200D02*
X210000000Y-200007200D01*
D10*
D11*
X260000000Y-198007200D02*
X260000000Y-200007200D01*
D10*
D11*
X36065476Y-199595295D02*
X35322619Y-199595295D01*
X35694047Y-199595295D02*
X35694047Y-198295295D01*
X35570238Y-198481009D01*
X35446428Y-198604819D01*
X35322619Y-198666723D01*
D10*
D11*
X85322619Y-198419104D02*
X85384523Y-198357200D01*
X85508333Y-198295295D01*
X85817857Y-198295295D01*
X85941666Y-198357200D01*
X86003571Y-198419104D01*
X86065476Y-198542914D01*
X86065476Y-198666723D01*
X86003571Y-198852438D01*
X85260714Y-199595295D01*
X86065476Y-199595295D01*
D10*
D11*
X135260714Y-198295295D02*
X136065476Y-198295295D01*
X135632142Y-198790533D01*
X135817857Y-198790533D01*
X135941666Y-198852438D01*
X136003571Y-198914342D01*
X136065476Y-199038152D01*
X136065476Y-199347676D01*
X136003571Y-199471485D01*
X135941666Y-199533390D01*
X135817857Y-199595295D01*
X135446428Y-199595295D01*
X135322619Y-199533390D01*
X135260714Y-199471485D01*
D10*
D11*
X185941666Y-198728628D02*
X185941666Y-199595295D01*
X185632142Y-198233390D02*
X185322619Y-199161961D01*
X186127380Y-199161961D01*
D10*
D11*
X236003571Y-198295295D02*
X235384523Y-198295295D01*
X235322619Y-198914342D01*
X235384523Y-198852438D01*
X235508333Y-198790533D01*
X235817857Y-198790533D01*
X235941666Y-198852438D01*
X236003571Y-198914342D01*
X236065476Y-199038152D01*
X236065476Y-199347676D01*
X236003571Y-199471485D01*
X235941666Y-199533390D01*
X235817857Y-199595295D01*
X235508333Y-199595295D01*
X235384523Y-199533390D01*
X235322619Y-199471485D01*
D10*
D11*
X285941666Y-198295295D02*
X285694047Y-198295295D01*
X285570238Y-198357200D01*
X285508333Y-198419104D01*
X285384523Y-198604819D01*
X285322619Y-198852438D01*
X285322619Y-199347676D01*
X285384523Y-199471485D01*
X285446428Y-199533390D01*
X285570238Y-199595295D01*
X285817857Y-199595295D01*
X285941666Y-199533390D01*
X286003571Y-199471485D01*
X286065476Y-199347676D01*
X286065476Y-199038152D01*
X286003571Y-198914342D01*
X285941666Y-198852438D01*
X285817857Y-198790533D01*
X285570238Y-198790533D01*
X285446428Y-198852438D01*
X285384523Y-198914342D01*
X285322619Y-199038152D01*
D10*
D11*
X10000000Y-60000000D02*
X12000000Y-60000000D01*
D10*
D11*
X10000000Y-110000000D02*
X12000000Y-110000000D01*
D10*
D11*
X10000000Y-160000000D02*
X12000000Y-160000000D01*
D10*
D11*
X10690476Y-35216666D02*
X11309523Y-35216666D01*
X10566666Y-35588095D02*
X11000000Y-34288095D01*
X11433333Y-35588095D01*
D10*
D11*
X11092857Y-84907142D02*
X11278571Y-84969047D01*
X11340476Y-85030952D01*
X11402380Y-85154761D01*
X11402380Y-85340476D01*
X11340476Y-85464285D01*
X11278571Y-85526190D01*
X11154761Y-85588095D01*
X10659523Y-85588095D01*
X10659523Y-84288095D01*
X11092857Y-84288095D01*
X11216666Y-84350000D01*
X11278571Y-84411904D01*
X11340476Y-84535714D01*
X11340476Y-84659523D01*
X11278571Y-84783333D01*
X11216666Y-84845238D01*
X11092857Y-84907142D01*
X10659523Y-84907142D01*
D10*
D11*
X11402380Y-135464285D02*
X11340476Y-135526190D01*
X11154761Y-135588095D01*
X11030952Y-135588095D01*
X10845238Y-135526190D01*
X10721428Y-135402380D01*
X10659523Y-135278571D01*
X10597619Y-135030952D01*
X10597619Y-134845238D01*
X10659523Y-134597619D01*
X10721428Y-134473809D01*
X10845238Y-134350000D01*
X11030952Y-134288095D01*
X11154761Y-134288095D01*
X11340476Y-134350000D01*
X11402380Y-134411904D01*
D10*
D11*
X10659523Y-185588095D02*
X10659523Y-184288095D01*
X10969047Y-184288095D01*
X11154761Y-184350000D01*
X11278571Y-184473809D01*
X11340476Y-184597619D01*
X11402380Y-184845238D01*
X11402380Y-185030952D01*
X11340476Y-185278571D01*
X11278571Y-185402380D01*
X11154761Y-185526190D01*
X10969047Y-185588095D01*
X10659523Y-185588095D01*
D10*
D11*
X287002200Y-60000000D02*
X285002200Y-60000000D01*
D10*
D11*
X287002200Y-110000000D02*
X285002200Y-110000000D01*
D10*
D11*
X287002200Y-160000000D02*
X285002200Y-160000000D01*
D10*
D11*
X285692676Y-35216666D02*
X286311723Y-35216666D01*
X285568866Y-35588095D02*
X286002200Y-34288095D01*
X286435533Y-35588095D01*
D10*
D11*
X286095057Y-84907142D02*
X286280771Y-84969047D01*
X286342676Y-85030952D01*
X286404580Y-85154761D01*
X286404580Y-85340476D01*
X286342676Y-85464285D01*
X286280771Y-85526190D01*
X286156961Y-85588095D01*
X285661723Y-85588095D01*
X285661723Y-84288095D01*
X286095057Y-84288095D01*
X286218866Y-84350000D01*
X286280771Y-84411904D01*
X286342676Y-84535714D01*
X286342676Y-84659523D01*
X286280771Y-84783333D01*
X286218866Y-84845238D01*
X286095057Y-84907142D01*
X285661723Y-84907142D01*
D10*
D11*
X286404580Y-135464285D02*
X286342676Y-135526190D01*
X286156961Y-135588095D01*
X286033152Y-135588095D01*
X285847438Y-135526190D01*
X285723628Y-135402380D01*
X285661723Y-135278571D01*
X285599819Y-135030952D01*
X285599819Y-134845238D01*
X285661723Y-134597619D01*
X285723628Y-134473809D01*
X285847438Y-134350000D01*
X286033152Y-134288095D01*
X286156961Y-134288095D01*
X286342676Y-134350000D01*
X286404580Y-134411904D01*
D10*
D11*
X285661723Y-185588095D02*
X285661723Y-184288095D01*
X285971247Y-184288095D01*
X286156961Y-184350000D01*
X286280771Y-184473809D01*
X286342676Y-184597619D01*
X286404580Y-184845238D01*
X286404580Y-185030952D01*
X286342676Y-185278571D01*
X286280771Y-185402380D01*
X286156961Y-185526190D01*
X285971247Y-185588095D01*
X285661723Y-185588095D01*
D10*
D11*
X200434342Y-193785771D02*
X200434342Y-192285771D01*
X200791485Y-192285771D01*
X201005771Y-192357200D01*
X201148628Y-192500057D01*
X201220057Y-192642914D01*
X201291485Y-192928628D01*
X201291485Y-193142914D01*
X201220057Y-193428628D01*
X201148628Y-193571485D01*
X201005771Y-193714342D01*
X200791485Y-193785771D01*
X200434342Y-193785771D01*
X202577200Y-193785771D02*
X202577200Y-193000057D01*
X202505771Y-192857200D01*
X202362914Y-192785771D01*
X202077200Y-192785771D01*
X201934342Y-192857200D01*
X202577200Y-193714342D02*
X202434342Y-193785771D01*
X202077200Y-193785771D01*
X201934342Y-193714342D01*
X201862914Y-193571485D01*
X201862914Y-193428628D01*
X201934342Y-193285771D01*
X202077200Y-193214342D01*
X202434342Y-193214342D01*
X202577200Y-193142914D01*
X203077200Y-192785771D02*
X203648628Y-192785771D01*
X203291485Y-192285771D02*
X203291485Y-193571485D01*
X203362914Y-193714342D01*
X203505771Y-193785771D01*
X203648628Y-193785771D01*
X204720057Y-193714342D02*
X204577200Y-193785771D01*
X204291485Y-193785771D01*
X204148628Y-193714342D01*
X204077200Y-193571485D01*
X204077200Y-193000057D01*
X204148628Y-192857200D01*
X204291485Y-192785771D01*
X204577200Y-192785771D01*
X204720057Y-192857200D01*
X204791485Y-193000057D01*
X204791485Y-193142914D01*
X204077200Y-193285771D01*
X205434342Y-193642914D02*
X205505771Y-193714342D01*
X205434342Y-193785771D01*
X205362914Y-193714342D01*
X205434342Y-193642914D01*
X205434342Y-193785771D01*
X205434342Y-192857200D02*
X205505771Y-192928628D01*
X205434342Y-193000057D01*
X205362914Y-192928628D01*
X205434342Y-192857200D01*
X205434342Y-193000057D01*
D10*
D11*
X177002200Y-194507200D02*
X285002200Y-194507200D01*
D10*
D11*
X178434342Y-196585771D02*
X178434342Y-195085771D01*
X179291485Y-196585771D02*
X178648628Y-195728628D01*
X179291485Y-195085771D02*
X178434342Y-195942914D01*
X179934342Y-196585771D02*
X179934342Y-195585771D01*
X179934342Y-195085771D02*
X179862914Y-195157200D01*
X179934342Y-195228628D01*
X180005771Y-195157200D01*
X179934342Y-195085771D01*
X179934342Y-195228628D01*
X181505771Y-196442914D02*
X181434342Y-196514342D01*
X181220057Y-196585771D01*
X181077200Y-196585771D01*
X180862914Y-196514342D01*
X180720057Y-196371485D01*
X180648628Y-196228628D01*
X180577200Y-195942914D01*
X180577200Y-195728628D01*
X180648628Y-195442914D01*
X180720057Y-195300057D01*
X180862914Y-195157200D01*
X181077200Y-195085771D01*
X181220057Y-195085771D01*
X181434342Y-195157200D01*
X181505771Y-195228628D01*
X182791485Y-196585771D02*
X182791485Y-195800057D01*
X182720057Y-195657200D01*
X182577200Y-195585771D01*
X182291485Y-195585771D01*
X182148628Y-195657200D01*
X182791485Y-196514342D02*
X182648628Y-196585771D01*
X182291485Y-196585771D01*
X182148628Y-196514342D01*
X182077200Y-196371485D01*
X182077200Y-196228628D01*
X182148628Y-196085771D01*
X182291485Y-196014342D01*
X182648628Y-196014342D01*
X182791485Y-195942914D01*
X184148628Y-196585771D02*
X184148628Y-195085771D01*
X184148628Y-196514342D02*
X184005771Y-196585771D01*
X183720057Y-196585771D01*
X183577200Y-196514342D01*
X183505771Y-196442914D01*
X183434342Y-196300057D01*
X183434342Y-195871485D01*
X183505771Y-195728628D01*
X183577200Y-195657200D01*
X183720057Y-195585771D01*
X184005771Y-195585771D01*
X184148628Y-195657200D01*
X186005771Y-195800057D02*
X186505771Y-195800057D01*
X186720057Y-196585771D02*
X186005771Y-196585771D01*
X186005771Y-195085771D01*
X186720057Y-195085771D01*
X187362914Y-196442914D02*
X187434342Y-196514342D01*
X187362914Y-196585771D01*
X187291485Y-196514342D01*
X187362914Y-196442914D01*
X187362914Y-196585771D01*
X188077200Y-196585771D02*
X188077200Y-195085771D01*
X188434342Y-195085771D01*
X188648628Y-195157200D01*
X188791485Y-195300057D01*
X188862914Y-195442914D01*
X188934342Y-195728628D01*
X188934342Y-195942914D01*
X188862914Y-196228628D01*
X188791485Y-196371485D01*
X188648628Y-196514342D01*
X188434342Y-196585771D01*
X188077200Y-196585771D01*
X189577200Y-196442914D02*
X189648628Y-196514342D01*
X189577200Y-196585771D01*
X189505771Y-196514342D01*
X189577200Y-196442914D01*
X189577200Y-196585771D01*
X190220057Y-196157200D02*
X190934342Y-196157200D01*
X190077200Y-196585771D02*
X190577200Y-195085771D01*
X191077200Y-196585771D01*
X191577200Y-196442914D02*
X191648628Y-196514342D01*
X191577200Y-196585771D01*
X191505771Y-196514342D01*
X191577200Y-196442914D01*
X191577200Y-196585771D01*
X194577200Y-196585771D02*
X194577200Y-195085771D01*
X194720057Y-196014342D02*
X195148628Y-196585771D01*
X195148628Y-195585771D02*
X194577200Y-196157200D01*
X195791485Y-196585771D02*
X195791485Y-195585771D01*
X195791485Y-195085771D02*
X195720057Y-195157200D01*
X195791485Y-195228628D01*
X195862914Y-195157200D01*
X195791485Y-195085771D01*
X195791485Y-195228628D01*
X197148628Y-196514342D02*
X197005771Y-196585771D01*
X196720057Y-196585771D01*
X196577200Y-196514342D01*
X196505771Y-196442914D01*
X196434342Y-196300057D01*
X196434342Y-195871485D01*
X196505771Y-195728628D01*
X196577200Y-195657200D01*
X196720057Y-195585771D01*
X197005771Y-195585771D01*
X197148628Y-195657200D01*
X198434342Y-196585771D02*
X198434342Y-195800057D01*
X198362914Y-195657200D01*
X198220057Y-195585771D01*
X197934342Y-195585771D01*
X197791485Y-195657200D01*
X198434342Y-196514342D02*
X198291485Y-196585771D01*
X197934342Y-196585771D01*
X197791485Y-196514342D01*
X197720057Y-196371485D01*
X197720057Y-196228628D01*
X197791485Y-196085771D01*
X197934342Y-196014342D01*
X198291485Y-196014342D01*
X198434342Y-195942914D01*
X199791485Y-196585771D02*
X199791485Y-195085771D01*
X199791485Y-196514342D02*
X199648628Y-196585771D01*
X199362914Y-196585771D01*
X199220057Y-196514342D01*
X199148628Y-196442914D01*
X199077200Y-196300057D01*
X199077200Y-195871485D01*
X199148628Y-195728628D01*
X199220057Y-195657200D01*
X199362914Y-195585771D01*
X199648628Y-195585771D01*
X199791485Y-195657200D01*
X202077200Y-197157200D02*
X202005771Y-197085771D01*
X201862914Y-196871485D01*
X201791485Y-196728628D01*
X201720057Y-196514342D01*
X201648628Y-196157200D01*
X201648628Y-195871485D01*
X201720057Y-195514342D01*
X201791485Y-195300057D01*
X201862914Y-195157200D01*
X202005771Y-194942914D01*
X202077200Y-194871485D01*
X203362914Y-195085771D02*
X202648628Y-195085771D01*
X202577200Y-195800057D01*
X202648628Y-195728628D01*
X202791485Y-195657200D01*
X203148628Y-195657200D01*
X203291485Y-195728628D01*
X203362914Y-195800057D01*
X203434342Y-195942914D01*
X203434342Y-196300057D01*
X203362914Y-196442914D01*
X203291485Y-196514342D01*
X203148628Y-196585771D01*
X202791485Y-196585771D01*
X202648628Y-196514342D01*
X202577200Y-196442914D01*
X204077200Y-196442914D02*
X204148628Y-196514342D01*
X204077200Y-196585771D01*
X204005771Y-196514342D01*
X204077200Y-196442914D01*
X204077200Y-196585771D01*
X205577200Y-196585771D02*
X204720057Y-196585771D01*
X205148628Y-196585771D02*
X205148628Y-195085771D01*
X205005771Y-195300057D01*
X204862914Y-195442914D01*
X204720057Y-195514342D01*
X206220057Y-196442914D02*
X206291485Y-196514342D01*
X206220057Y-196585771D01*
X206148628Y-196514342D01*
X206220057Y-196442914D01*
X206220057Y-196585771D01*
X207648628Y-195085771D02*
X206934342Y-195085771D01*
X206862914Y-195800057D01*
X206934342Y-195728628D01*
X207077200Y-195657200D01*
X207434342Y-195657200D01*
X207577200Y-195728628D01*
X207648628Y-195800057D01*
X207720057Y-195942914D01*
X207720057Y-196300057D01*
X207648628Y-196442914D01*
X207577200Y-196514342D01*
X207434342Y-196585771D01*
X207077200Y-196585771D01*
X206934342Y-196514342D01*
X206862914Y-196442914D01*
X208220057Y-197157200D02*
X208291485Y-197085771D01*
X208434342Y-196871485D01*
X208505771Y-196728628D01*
X208577200Y-196514342D01*
X208648628Y-196157200D01*
X208648628Y-195871485D01*
X208577200Y-195514342D01*
X208505771Y-195300057D01*
X208434342Y-195157200D01*
X208291485Y-194942914D01*
X208220057Y-194871485D01*
X209362914Y-196014342D02*
X210505771Y-196014342D01*
X211077200Y-195085771D02*
X212005771Y-195085771D01*
X211505771Y-195657200D01*
X211720057Y-195657200D01*
X211862914Y-195728628D01*
X211934342Y-195800057D01*
X212005771Y-195942914D01*
X212005771Y-196300057D01*
X211934342Y-196442914D01*
X211862914Y-196514342D01*
X211720057Y-196585771D01*
X211291485Y-196585771D01*
X211148628Y-196514342D01*
X211077200Y-196442914D01*
D10*
D11*
X177002200Y-191507200D02*
X285002200Y-191507200D01*
D10*
D12*
X264411485Y-193785771D02*
X263911485Y-193071485D01*
X263554342Y-193785771D02*
X263554342Y-192285771D01*
X264125771Y-192285771D01*
X264268628Y-192357200D01*
X264340057Y-192428628D01*
X264411485Y-192571485D01*
X264411485Y-192785771D01*
X264340057Y-192928628D01*
X264268628Y-193000057D01*
X264125771Y-193071485D01*
X263554342Y-193071485D01*
X265625771Y-193714342D02*
X265482914Y-193785771D01*
X265197200Y-193785771D01*
X265054342Y-193714342D01*
X264982914Y-193571485D01*
X264982914Y-193000057D01*
X265054342Y-192857200D01*
X265197200Y-192785771D01*
X265482914Y-192785771D01*
X265625771Y-192857200D01*
X265697200Y-193000057D01*
X265697200Y-193142914D01*
X264982914Y-193285771D01*
X266197200Y-192785771D02*
X266554342Y-193785771D01*
X266911485Y-192785771D01*
X267482914Y-193642914D02*
X267554342Y-193714342D01*
X267482914Y-193785771D01*
X267411485Y-193714342D01*
X267482914Y-193642914D01*
X267482914Y-193785771D01*
X267482914Y-192857200D02*
X267554342Y-192928628D01*
X267482914Y-193000057D01*
X267411485Y-192928628D01*
X267482914Y-192857200D01*
X267482914Y-193000057D01*
D10*
D11*
X178362914Y-193714342D02*
X178577200Y-193785771D01*
X178934342Y-193785771D01*
X179077200Y-193714342D01*
X179148628Y-193642914D01*
X179220057Y-193500057D01*
X179220057Y-193357200D01*
X179148628Y-193214342D01*
X179077200Y-193142914D01*
X178934342Y-193071485D01*
X178648628Y-193000057D01*
X178505771Y-192928628D01*
X178434342Y-192857200D01*
X178362914Y-192714342D01*
X178362914Y-192571485D01*
X178434342Y-192428628D01*
X178505771Y-192357200D01*
X178648628Y-192285771D01*
X179005771Y-192285771D01*
X179220057Y-192357200D01*
X179862914Y-193785771D02*
X179862914Y-192785771D01*
X179862914Y-192285771D02*
X179791485Y-192357200D01*
X179862914Y-192428628D01*
X179934342Y-192357200D01*
X179862914Y-192285771D01*
X179862914Y-192428628D01*
X180434342Y-192785771D02*
X181220057Y-192785771D01*
X180434342Y-193785771D01*
X181220057Y-193785771D01*
X182362914Y-193714342D02*
X182220057Y-193785771D01*
X181934342Y-193785771D01*
X181791485Y-193714342D01*
X181720057Y-193571485D01*
X181720057Y-193000057D01*
X181791485Y-192857200D01*
X181934342Y-192785771D01*
X182220057Y-192785771D01*
X182362914Y-192857200D01*
X182434342Y-193000057D01*
X182434342Y-193142914D01*
X181720057Y-193285771D01*
X183077200Y-193642914D02*
X183148628Y-193714342D01*
X183077200Y-193785771D01*
X183005771Y-193714342D01*
X183077200Y-193642914D01*
X183077200Y-193785771D01*
X183077200Y-192857200D02*
X183148628Y-192928628D01*
X183077200Y-193000057D01*
X183005771Y-192928628D01*
X183077200Y-192857200D01*
X183077200Y-193000057D01*
X184862914Y-193357200D02*
X185577200Y-193357200D01*
X184720057Y-193785771D02*
X185220057Y-192285771D01*
X185720057Y-193785771D01*
X186862914Y-192785771D02*
X186862914Y-193785771D01*
X186505771Y-192214342D02*
X186148628Y-193285771D01*
X187077200Y-193285771D01*
D10*
D11*
X263434342Y-196585771D02*
X263434342Y-195085771D01*
X264791485Y-196585771D02*
X264791485Y-195085771D01*
X264791485Y-196514342D02*
X264648628Y-196585771D01*
X264362914Y-196585771D01*
X264220057Y-196514342D01*
X264148628Y-196442914D01*
X264077200Y-196300057D01*
X264077200Y-195871485D01*
X264148628Y-195728628D01*
X264220057Y-195657200D01*
X264362914Y-195585771D01*
X264648628Y-195585771D01*
X264791485Y-195657200D01*
X265505771Y-196442914D02*
X265577200Y-196514342D01*
X265505771Y-196585771D01*
X265434342Y-196514342D01*
X265505771Y-196442914D01*
X265505771Y-196585771D01*
X265505771Y-195657200D02*
X265577200Y-195728628D01*
X265505771Y-195800057D01*
X265434342Y-195728628D01*
X265505771Y-195657200D01*
X265505771Y-195800057D01*
X268148628Y-196585771D02*
X267291485Y-196585771D01*
X267720057Y-196585771D02*
X267720057Y-195085771D01*
X267577200Y-195300057D01*
X267434342Y-195442914D01*
X267291485Y-195514342D01*
X269862914Y-195014342D02*
X268577200Y-196942914D01*
X271148628Y-196585771D02*
X270291485Y-196585771D01*
X270720057Y-196585771D02*
X270720057Y-195085771D01*
X270577200Y-195300057D01*
X270434342Y-195442914D01*
X270291485Y-195514342D01*
D10*
D11*
X177002200Y-187507200D02*
X285002200Y-187507200D01*
D10*
D13*
X178714580Y-188211961D02*
X179857438Y-188211961D01*
X179036009Y-190211961D02*
X179286009Y-188211961D01*
X180274104Y-190211961D02*
X180440771Y-188878628D01*
X180524104Y-188211961D02*
X180416961Y-188307200D01*
X180500295Y-188402438D01*
X180607438Y-188307200D01*
X180524104Y-188211961D01*
X180500295Y-188402438D01*
X181107438Y-188878628D02*
X181869342Y-188878628D01*
X181476485Y-188211961D02*
X181262200Y-189926247D01*
X181333628Y-190116723D01*
X181512200Y-190211961D01*
X181702676Y-190211961D01*
X182655057Y-190211961D02*
X182476485Y-190116723D01*
X182405057Y-189926247D01*
X182619342Y-188211961D01*
X184190771Y-190116723D02*
X183988390Y-190211961D01*
X183607438Y-190211961D01*
X183428866Y-190116723D01*
X183357438Y-189926247D01*
X183452676Y-189164342D01*
X183571723Y-188973866D01*
X183774104Y-188878628D01*
X184155057Y-188878628D01*
X184333628Y-188973866D01*
X184405057Y-189164342D01*
X184381247Y-189354819D01*
X183405057Y-189545295D01*
X185155057Y-190021485D02*
X185238390Y-190116723D01*
X185131247Y-190211961D01*
X185047914Y-190116723D01*
X185155057Y-190021485D01*
X185131247Y-190211961D01*
X185286009Y-188973866D02*
X185369342Y-189069104D01*
X185262200Y-189164342D01*
X185178866Y-189069104D01*
X185286009Y-188973866D01*
X185262200Y-189164342D01*
D10*
D11*
X178934342Y-185600057D02*
X178434342Y-185600057D01*
X178434342Y-186385771D02*
X178434342Y-184885771D01*
X179148628Y-184885771D01*
X179720057Y-186385771D02*
X179720057Y-185385771D01*
X179720057Y-184885771D02*
X179648628Y-184957200D01*
X179720057Y-185028628D01*
X179791485Y-184957200D01*
X179720057Y-184885771D01*
X179720057Y-185028628D01*
X180648628Y-186385771D02*
X180505771Y-186314342D01*
X180434342Y-186171485D01*
X180434342Y-184885771D01*
X181791485Y-186314342D02*
X181648628Y-186385771D01*
X181362914Y-186385771D01*
X181220057Y-186314342D01*
X181148628Y-186171485D01*
X181148628Y-185600057D01*
X181220057Y-185457200D01*
X181362914Y-185385771D01*
X181648628Y-185385771D01*
X181791485Y-185457200D01*
X181862914Y-185600057D01*
X181862914Y-185742914D01*
X181148628Y-185885771D01*
X182505771Y-186242914D02*
X182577200Y-186314342D01*
X182505771Y-186385771D01*
X182434342Y-186314342D01*
X182505771Y-186242914D01*
X182505771Y-186385771D01*
X182505771Y-185457200D02*
X182577200Y-185528628D01*
X182505771Y-185600057D01*
X182434342Y-185528628D01*
X182505771Y-185457200D01*
X182505771Y-185600057D01*
X185077200Y-186385771D02*
X184362914Y-186385771D01*
X184362914Y-184885771D01*
X185577200Y-186385771D02*
X185577200Y-185385771D01*
X185577200Y-184885771D02*
X185505771Y-184957200D01*
X185577200Y-185028628D01*
X185648628Y-184957200D01*
X185577200Y-184885771D01*
X185577200Y-185028628D01*
X186934342Y-185385771D02*
X186934342Y-186600057D01*
X186862914Y-186742914D01*
X186791485Y-186814342D01*
X186648628Y-186885771D01*
X186434342Y-186885771D01*
X186291485Y-186814342D01*
X186934342Y-186314342D02*
X186791485Y-186385771D01*
X186505771Y-186385771D01*
X186362914Y-186314342D01*
X186291485Y-186242914D01*
X186220057Y-186100057D01*
X186220057Y-185671485D01*
X186291485Y-185528628D01*
X186362914Y-185457200D01*
X186505771Y-185385771D01*
X186791485Y-185385771D01*
X186934342Y-185457200D01*
X187648628Y-186385771D02*
X187648628Y-184885771D01*
X188291485Y-186385771D02*
X188291485Y-185600057D01*
X188220057Y-185457200D01*
X188077200Y-185385771D01*
X187862914Y-185385771D01*
X187720057Y-185457200D01*
X187648628Y-185528628D01*
X188791485Y-185385771D02*
X189362914Y-185385771D01*
X189005771Y-184885771D02*
X189005771Y-186171485D01*
X189077200Y-186314342D01*
X189220057Y-186385771D01*
X189362914Y-186385771D01*
X189862914Y-186385771D02*
X189862914Y-184885771D01*
X190362914Y-185957200D01*
X190862914Y-184885771D01*
X190862914Y-186385771D01*
X191577200Y-186385771D02*
X191577200Y-185385771D01*
X191577200Y-184885771D02*
X191505771Y-184957200D01*
X191577200Y-185028628D01*
X191648628Y-184957200D01*
X191577200Y-184885771D01*
X191577200Y-185028628D01*
X192291485Y-185385771D02*
X192291485Y-186385771D01*
X192291485Y-185528628D02*
X192362914Y-185457200D01*
X192505771Y-185385771D01*
X192720057Y-185385771D01*
X192862914Y-185457200D01*
X192934342Y-185600057D01*
X192934342Y-186385771D01*
X194291485Y-186385771D02*
X194291485Y-184885771D01*
X194291485Y-186314342D02*
X194148628Y-186385771D01*
X193862914Y-186385771D01*
X193720057Y-186314342D01*
X193648628Y-186242914D01*
X193577200Y-186100057D01*
X193577200Y-185671485D01*
X193648628Y-185528628D01*
X193720057Y-185457200D01*
X193862914Y-185385771D01*
X194148628Y-185385771D01*
X194291485Y-185457200D01*
X195577200Y-186314342D02*
X195434342Y-186385771D01*
X195148628Y-186385771D01*
X195005771Y-186314342D01*
X194934342Y-186171485D01*
X194934342Y-185600057D01*
X195005771Y-185457200D01*
X195148628Y-185385771D01*
X195434342Y-185385771D01*
X195577200Y-185457200D01*
X195648628Y-185600057D01*
X195648628Y-185742914D01*
X194934342Y-185885771D01*
X196291485Y-186385771D02*
X196291485Y-185385771D01*
X196291485Y-185671485D02*
X196362914Y-185528628D01*
X196434342Y-185457200D01*
X196577200Y-185385771D01*
X196720057Y-185385771D01*
X197148628Y-186314342D02*
X197362914Y-186385771D01*
X197720057Y-186385771D01*
X197862914Y-186314342D01*
X197934342Y-186242914D01*
X198005771Y-186100057D01*
X198005771Y-185957200D01*
X197934342Y-185814342D01*
X197862914Y-185742914D01*
X197720057Y-185671485D01*
X197434342Y-185600057D01*
X197291485Y-185528628D01*
X197220057Y-185457200D01*
X197148628Y-185314342D01*
X197148628Y-185171485D01*
X197220057Y-185028628D01*
X197291485Y-184957200D01*
X197434342Y-184885771D01*
X197791485Y-184885771D01*
X198005771Y-184957200D01*
X198648628Y-186385771D02*
X198648628Y-184885771D01*
X199148628Y-185957200D01*
X199648628Y-184885771D01*
X199648628Y-186385771D01*
X200362914Y-186385771D02*
X200362914Y-184885771D01*
X200720057Y-184885771D01*
X200934342Y-184957200D01*
X201077200Y-185100057D01*
X201148628Y-185242914D01*
X201220057Y-185528628D01*
X201220057Y-185742914D01*
X201148628Y-186028628D01*
X201077200Y-186171485D01*
X200934342Y-186314342D01*
X200720057Y-186385771D01*
X200362914Y-186385771D01*
X201862914Y-186242914D02*
X201934342Y-186314342D01*
X201862914Y-186385771D01*
X201791485Y-186314342D01*
X201862914Y-186242914D01*
X201862914Y-186385771D01*
X202577200Y-186385771D02*
X202577200Y-184885771D01*
X202720057Y-185814342D02*
X203148628Y-186385771D01*
X203148628Y-185385771D02*
X202577200Y-185957200D01*
X203791485Y-186385771D02*
X203791485Y-185385771D01*
X203791485Y-184885771D02*
X203720057Y-184957200D01*
X203791485Y-185028628D01*
X203862914Y-184957200D01*
X203791485Y-184885771D01*
X203791485Y-185028628D01*
X205148628Y-186314342D02*
X205005771Y-186385771D01*
X204720057Y-186385771D01*
X204577200Y-186314342D01*
X204505771Y-186242914D01*
X204434342Y-186100057D01*
X204434342Y-185671485D01*
X204505771Y-185528628D01*
X204577200Y-185457200D01*
X204720057Y-185385771D01*
X205005771Y-185385771D01*
X205148628Y-185457200D01*
X206434342Y-186385771D02*
X206434342Y-185600057D01*
X206362914Y-185457200D01*
X206220057Y-185385771D01*
X205934342Y-185385771D01*
X205791485Y-185457200D01*
X206434342Y-186314342D02*
X206291485Y-186385771D01*
X205934342Y-186385771D01*
X205791485Y-186314342D01*
X205720057Y-186171485D01*
X205720057Y-186028628D01*
X205791485Y-185885771D01*
X205934342Y-185814342D01*
X206291485Y-185814342D01*
X206434342Y-185742914D01*
X207791485Y-186385771D02*
X207791485Y-184885771D01*
X207791485Y-186314342D02*
X207648628Y-186385771D01*
X207362914Y-186385771D01*
X207220057Y-186314342D01*
X207148628Y-186242914D01*
X207077200Y-186100057D01*
X207077200Y-185671485D01*
X207148628Y-185528628D01*
X207220057Y-185457200D01*
X207362914Y-185385771D01*
X207648628Y-185385771D01*
X207791485Y-185457200D01*
X208148628Y-186528628D02*
X209291485Y-186528628D01*
X209648628Y-185385771D02*
X209648628Y-186885771D01*
X209648628Y-185457200D02*
X209791485Y-185385771D01*
X210077200Y-185385771D01*
X210220057Y-185457200D01*
X210291485Y-185528628D01*
X210362914Y-185671485D01*
X210362914Y-186100057D01*
X210291485Y-186242914D01*
X210220057Y-186314342D01*
X210077200Y-186385771D01*
X209791485Y-186385771D01*
X209648628Y-186314342D01*
X211648628Y-186314342D02*
X211505771Y-186385771D01*
X211220057Y-186385771D01*
X211077200Y-186314342D01*
X211005771Y-186242914D01*
X210934342Y-186100057D01*
X210934342Y-185671485D01*
X211005771Y-185528628D01*
X211077200Y-185457200D01*
X211220057Y-185385771D01*
X211505771Y-185385771D01*
X211648628Y-185457200D01*
X212291485Y-186385771D02*
X212291485Y-184885771D01*
X212291485Y-185457200D02*
X212434342Y-185385771D01*
X212720057Y-185385771D01*
X212862914Y-185457200D01*
X212934342Y-185528628D01*
X213005771Y-185671485D01*
X213005771Y-186100057D01*
X212934342Y-186242914D01*
X212862914Y-186314342D01*
X212720057Y-186385771D01*
X212434342Y-186385771D01*
X212291485Y-186314342D01*
D10*
D11*
X177002200Y-181507200D02*
X285002200Y-181507200D01*
D10*
D11*
X178362914Y-183614342D02*
X178577200Y-183685771D01*
X178934342Y-183685771D01*
X179077200Y-183614342D01*
X179148628Y-183542914D01*
X179220057Y-183400057D01*
X179220057Y-183257200D01*
X179148628Y-183114342D01*
X179077200Y-183042914D01*
X178934342Y-182971485D01*
X178648628Y-182900057D01*
X178505771Y-182828628D01*
X178434342Y-182757200D01*
X178362914Y-182614342D01*
X178362914Y-182471485D01*
X178434342Y-182328628D01*
X178505771Y-182257200D01*
X178648628Y-182185771D01*
X179005771Y-182185771D01*
X179220057Y-182257200D01*
X179862914Y-183685771D02*
X179862914Y-182185771D01*
X180505771Y-183685771D02*
X180505771Y-182900057D01*
X180434342Y-182757200D01*
X180291485Y-182685771D01*
X180077200Y-182685771D01*
X179934342Y-182757200D01*
X179862914Y-182828628D01*
X181791485Y-183614342D02*
X181648628Y-183685771D01*
X181362914Y-183685771D01*
X181220057Y-183614342D01*
X181148628Y-183471485D01*
X181148628Y-182900057D01*
X181220057Y-182757200D01*
X181362914Y-182685771D01*
X181648628Y-182685771D01*
X181791485Y-182757200D01*
X181862914Y-182900057D01*
X181862914Y-183042914D01*
X181148628Y-183185771D01*
X183077200Y-183614342D02*
X182934342Y-183685771D01*
X182648628Y-183685771D01*
X182505771Y-183614342D01*
X182434342Y-183471485D01*
X182434342Y-182900057D01*
X182505771Y-182757200D01*
X182648628Y-182685771D01*
X182934342Y-182685771D01*
X183077200Y-182757200D01*
X183148628Y-182900057D01*
X183148628Y-183042914D01*
X182434342Y-183185771D01*
X183577200Y-182685771D02*
X184148628Y-182685771D01*
X183791485Y-182185771D02*
X183791485Y-183471485D01*
X183862914Y-183614342D01*
X184005771Y-183685771D01*
X184148628Y-183685771D01*
X184648628Y-183542914D02*
X184720057Y-183614342D01*
X184648628Y-183685771D01*
X184577200Y-183614342D01*
X184648628Y-183542914D01*
X184648628Y-183685771D01*
X184648628Y-182757200D02*
X184720057Y-182828628D01*
X184648628Y-182900057D01*
X184577200Y-182828628D01*
X184648628Y-182757200D01*
X184648628Y-182900057D01*
D10*
D11*
X197002200Y-191507200D02*
X197002200Y-194507200D01*
D10*
D11*
X261002200Y-191507200D02*
X261002200Y-198007200D01*
D14*
X109892000Y-93210000D02*
G75*
G03X109892000Y-93210000I-317000J0D01*
G01*
D15*
X107700000Y-86950000D02*
X107700000Y-91850000D01*
X104500000Y-86950000D02*
X107700000Y-86950000D01*
X104500000Y-91850000D02*
X104500000Y-86950000D01*
X107700000Y-91850000D02*
X104500000Y-91850000D01*
D16*
X115375279Y-77590000D02*
X115049721Y-77590000D01*
X115375279Y-78610000D02*
X115049721Y-78610000D01*
X110310000Y-73050279D02*
X110310000Y-72724721D01*
X109290000Y-73050279D02*
X109290000Y-72724721D01*
X134900000Y-73450000D02*
X134900000Y-77450000D01*
X138200000Y-73450000D02*
X134900000Y-73450000D01*
X131270000Y-95630000D02*
X131270000Y-94300000D01*
X132600000Y-95630000D02*
X131270000Y-95630000D01*
X133870000Y-95630000D02*
X133870000Y-92970000D01*
X133870000Y-92970000D02*
X139010000Y-92970000D01*
X133870000Y-95630000D02*
X139010000Y-95630000D01*
X139010000Y-95630000D02*
X139010000Y-92970000D01*
X136990000Y-85815000D02*
X136990000Y-88700000D01*
X138810000Y-85815000D02*
X136990000Y-85815000D01*
X138810000Y-88700000D02*
X138810000Y-85815000D01*
X136890000Y-79615000D02*
X136890000Y-82500000D01*
X138710000Y-79615000D02*
X136890000Y-79615000D01*
X138710000Y-82500000D02*
X138710000Y-79615000D01*
X116710000Y-93180000D02*
X115250000Y-93180000D01*
X116710000Y-90020000D02*
X114550000Y-90020000D01*
X116710000Y-90020000D02*
X116710000Y-90950000D01*
X116710000Y-93180000D02*
X116710000Y-92250000D01*
X114400000Y-87650000D02*
X116950000Y-87650000D01*
X114400000Y-89350000D02*
X116950000Y-89350000D01*
X114400000Y-87650000D02*
X114400000Y-89350000D01*
X109510000Y-85980000D02*
X108050000Y-85980000D01*
X109510000Y-82820000D02*
X107350000Y-82820000D01*
X109510000Y-82820000D02*
X109510000Y-83750000D01*
X109510000Y-85980000D02*
X109510000Y-85050000D01*
X115125000Y-76645000D02*
X118575000Y-76645000D01*
X115125000Y-76645000D02*
X113175000Y-76645000D01*
X115125000Y-71525000D02*
X117075000Y-71525000D01*
X115125000Y-71525000D02*
X113175000Y-71525000D01*
D15*
X108315000Y-75412000D02*
X108315000Y-77788000D01*
D16*
X106650000Y-74300000D02*
X106650000Y-71750000D01*
X108350000Y-74300000D02*
X108350000Y-71750000D01*
X106650000Y-74300000D02*
X108350000Y-74300000D01*
X124190000Y-73810000D02*
X124190000Y-72480000D01*
X124190000Y-72480000D02*
X125520000Y-72480000D01*
X124190000Y-75080000D02*
X126790000Y-75080000D01*
X126790000Y-75080000D02*
X126790000Y-72480000D01*
X126790000Y-72480000D02*
X131930000Y-72480000D01*
X131930000Y-77680000D02*
X131930000Y-72480000D01*
X124190000Y-77680000D02*
X131930000Y-77680000D01*
X124190000Y-77680000D02*
X124190000Y-75080000D01*
X113322500Y-90865000D02*
X111037500Y-90865000D01*
X113322500Y-92335000D02*
X113322500Y-90865000D01*
X111037500Y-92335000D02*
X113322500Y-92335000D01*
D11*
X128630000Y-94600000D02*
X128130000Y-95100000D01*
X128630000Y-93800000D02*
X128630000Y-94600000D01*
X128130000Y-93300000D02*
X128630000Y-93800000D01*
X124530000Y-93300000D02*
X128130000Y-93300000D01*
X124030000Y-93800000D02*
X124530000Y-93300000D01*
X124030000Y-94600000D02*
X124030000Y-93800000D01*
X124530000Y-95100000D02*
X124030000Y-94600000D01*
X128130000Y-95100000D02*
X124530000Y-95100000D01*
D16*
X120840000Y-71427500D02*
X120840000Y-74312500D01*
X122660000Y-71427500D02*
X120840000Y-71427500D01*
X122660000Y-74312500D02*
X122660000Y-71427500D01*
X101502500Y-73010000D02*
X104387500Y-73010000D01*
X101502500Y-71190000D02*
X101502500Y-73010000D01*
X104387500Y-71190000D02*
X101502500Y-71190000D01*
D11*
X132791000Y-87904000D02*
X134216000Y-87904000D01*
X125541000Y-88129000D02*
X125866000Y-88129000D01*
X125541000Y-80879000D02*
X125866000Y-80879000D01*
X132791000Y-80879000D02*
X132466000Y-80879000D01*
X132791000Y-88129000D02*
X132466000Y-88129000D01*
X132791000Y-80879000D02*
X132791000Y-81204000D01*
X125541000Y-80879000D02*
X125541000Y-81204000D01*
X125541000Y-88129000D02*
X125541000Y-87804000D01*
X132791000Y-88129000D02*
X132791000Y-87904000D01*
D16*
X96070000Y-75970000D02*
X97400000Y-75970000D01*
X96070000Y-77300000D02*
X96070000Y-75970000D01*
X96070000Y-78570000D02*
X98730000Y-78570000D01*
X98730000Y-78570000D02*
X98730000Y-91330000D01*
X96070000Y-78570000D02*
X96070000Y-91330000D01*
X96070000Y-91330000D02*
X98730000Y-91330000D01*
D14*
X104860238Y-89974523D02*
X104860238Y-88704523D01*
X106190714Y-89853571D02*
X106130238Y-89914047D01*
X105948809Y-89974523D01*
X105827857Y-89974523D01*
X105646428Y-89914047D01*
X105525476Y-89793095D01*
X105465000Y-89672142D01*
X105404523Y-89430238D01*
X105404523Y-89248809D01*
X105465000Y-89006904D01*
X105525476Y-88885952D01*
X105646428Y-88765000D01*
X105827857Y-88704523D01*
X105948809Y-88704523D01*
X106130238Y-88765000D01*
X106190714Y-88825476D01*
X106674523Y-88825476D02*
X106735000Y-88765000D01*
X106855952Y-88704523D01*
X107158333Y-88704523D01*
X107279285Y-88765000D01*
X107339761Y-88825476D01*
X107400238Y-88946428D01*
X107400238Y-89067380D01*
X107339761Y-89248809D01*
X106614047Y-89974523D01*
X107400238Y-89974523D01*
X99477857Y-88704523D02*
X99901190Y-89974523D01*
X100324523Y-88704523D01*
X100747857Y-89974523D02*
X100747857Y-88704523D01*
X101473571Y-89974523D01*
X101473571Y-88704523D01*
X101957380Y-88704523D02*
X102804047Y-88704523D01*
X102259761Y-89974523D01*
X103892619Y-88704523D02*
X103287857Y-88704523D01*
X103227380Y-89309285D01*
X103287857Y-89248809D01*
X103408809Y-89188333D01*
X103711190Y-89188333D01*
X103832142Y-89248809D01*
X103892619Y-89309285D01*
X103953095Y-89430238D01*
X103953095Y-89732619D01*
X103892619Y-89853571D01*
X103832142Y-89914047D01*
X103711190Y-89974523D01*
X103408809Y-89974523D01*
X103287857Y-89914047D01*
X103227380Y-89853571D01*
X104739285Y-88704523D02*
X104860238Y-88704523D01*
X104981190Y-88765000D01*
X105041666Y-88825476D01*
X105102142Y-88946428D01*
X105162619Y-89188333D01*
X105162619Y-89490714D01*
X105102142Y-89732619D01*
X105041666Y-89853571D01*
X104981190Y-89914047D01*
X104860238Y-89974523D01*
X104739285Y-89974523D01*
X104618333Y-89914047D01*
X104557857Y-89853571D01*
X104497380Y-89732619D01*
X104436904Y-89490714D01*
X104436904Y-89188333D01*
X104497380Y-88946428D01*
X104557857Y-88825476D01*
X104618333Y-88765000D01*
X104739285Y-88704523D01*
X105706904Y-89974523D02*
X105706904Y-88704523D01*
X106190714Y-88704523D01*
X106311666Y-88765000D01*
X106372142Y-88825476D01*
X106432619Y-88946428D01*
X106432619Y-89127857D01*
X106372142Y-89248809D01*
X106311666Y-89309285D01*
X106190714Y-89369761D01*
X105706904Y-89369761D01*
X106916428Y-89914047D02*
X107097857Y-89974523D01*
X107400238Y-89974523D01*
X107521190Y-89914047D01*
X107581666Y-89853571D01*
X107642142Y-89732619D01*
X107642142Y-89611666D01*
X107581666Y-89490714D01*
X107521190Y-89430238D01*
X107400238Y-89369761D01*
X107158333Y-89309285D01*
X107037380Y-89248809D01*
X106976904Y-89188333D01*
X106916428Y-89067380D01*
X106916428Y-88946428D01*
X106976904Y-88825476D01*
X107037380Y-88765000D01*
X107158333Y-88704523D01*
X107460714Y-88704523D01*
X107642142Y-88765000D01*
X108005000Y-88704523D02*
X108730714Y-88704523D01*
X108367857Y-89974523D02*
X108367857Y-88704523D01*
X109879761Y-89974523D02*
X109456428Y-89369761D01*
X109154047Y-89974523D02*
X109154047Y-88704523D01*
X109637857Y-88704523D01*
X109758809Y-88765000D01*
X109819285Y-88825476D01*
X109879761Y-88946428D01*
X109879761Y-89127857D01*
X109819285Y-89248809D01*
X109758809Y-89309285D01*
X109637857Y-89369761D01*
X109154047Y-89369761D01*
X110424047Y-89490714D02*
X111391666Y-89490714D01*
X111996428Y-89309285D02*
X112419761Y-89309285D01*
X112601190Y-89974523D02*
X111996428Y-89974523D01*
X111996428Y-88704523D01*
X112601190Y-88704523D01*
D11*
X114433333Y-79887142D02*
X114385714Y-79934761D01*
X114242857Y-79982380D01*
X114147619Y-79982380D01*
X114004761Y-79934761D01*
X113909523Y-79839523D01*
X113861904Y-79744285D01*
X113814285Y-79553809D01*
X113814285Y-79410952D01*
X113861904Y-79220476D01*
X113909523Y-79125238D01*
X114004761Y-79030000D01*
X114147619Y-78982380D01*
X114242857Y-78982380D01*
X114385714Y-79030000D01*
X114433333Y-79077619D01*
X114814285Y-79077619D02*
X114861904Y-79030000D01*
X114957142Y-78982380D01*
X115195238Y-78982380D01*
X115290476Y-79030000D01*
X115338095Y-79077619D01*
X115385714Y-79172857D01*
X115385714Y-79268095D01*
X115338095Y-79410952D01*
X114766666Y-79982380D01*
X115385714Y-79982380D01*
X108033333Y-72457142D02*
X107985714Y-72504761D01*
X107842857Y-72552380D01*
X107747619Y-72552380D01*
X107604761Y-72504761D01*
X107509523Y-72409523D01*
X107461904Y-72314285D01*
X107414285Y-72123809D01*
X107414285Y-71980952D01*
X107461904Y-71790476D01*
X107509523Y-71695238D01*
X107604761Y-71600000D01*
X107747619Y-71552380D01*
X107842857Y-71552380D01*
X107985714Y-71600000D01*
X108033333Y-71647619D01*
X108985714Y-72552380D02*
X108414285Y-72552380D01*
X108700000Y-72552380D02*
X108700000Y-71552380D01*
X108604761Y-71695238D01*
X108509523Y-71790476D01*
X108414285Y-71838095D01*
X136226190Y-72726190D02*
X136702380Y-72726190D01*
X135702380Y-73059523D02*
X136226190Y-72726190D01*
X135702380Y-72392857D01*
X136702380Y-71535714D02*
X136702380Y-72107142D01*
X136702380Y-71821428D02*
X135702380Y-71821428D01*
X135845238Y-71916666D01*
X135940476Y-72011904D01*
X135988095Y-72107142D01*
X137533333Y-78757142D02*
X137485714Y-78804761D01*
X137342857Y-78852380D01*
X137247619Y-78852380D01*
X137104761Y-78804761D01*
X137009523Y-78709523D01*
X136961904Y-78614285D01*
X136914285Y-78423809D01*
X136914285Y-78280952D01*
X136961904Y-78090476D01*
X137009523Y-77995238D01*
X137104761Y-77900000D01*
X137247619Y-77852380D01*
X137342857Y-77852380D01*
X137485714Y-77900000D01*
X137533333Y-77947619D01*
X137866666Y-77852380D02*
X138533333Y-77852380D01*
X138104761Y-78852380D01*
X131583333Y-78707142D02*
X131535714Y-78754761D01*
X131392857Y-78802380D01*
X131297619Y-78802380D01*
X131154761Y-78754761D01*
X131059523Y-78659523D01*
X131011904Y-78564285D01*
X130964285Y-78373809D01*
X130964285Y-78230952D01*
X131011904Y-78040476D01*
X131059523Y-77945238D01*
X131154761Y-77850000D01*
X131297619Y-77802380D01*
X131392857Y-77802380D01*
X131535714Y-77850000D01*
X131583333Y-77897619D01*
X132440476Y-77802380D02*
X132250000Y-77802380D01*
X132154761Y-77850000D01*
X132107142Y-77897619D01*
X132011904Y-78040476D01*
X131964285Y-78230952D01*
X131964285Y-78611904D01*
X132011904Y-78707142D01*
X132059523Y-78754761D01*
X132154761Y-78802380D01*
X132345238Y-78802380D01*
X132440476Y-78754761D01*
X132488095Y-78707142D01*
X132535714Y-78611904D01*
X132535714Y-78373809D01*
X132488095Y-78278571D01*
X132440476Y-78230952D01*
X132345238Y-78183333D01*
X132154761Y-78183333D01*
X132059523Y-78230952D01*
X132011904Y-78278571D01*
X131964285Y-78373809D01*
X121853333Y-83857142D02*
X121805714Y-83904761D01*
X121662857Y-83952380D01*
X121567619Y-83952380D01*
X121424761Y-83904761D01*
X121329523Y-83809523D01*
X121281904Y-83714285D01*
X121234285Y-83523809D01*
X121234285Y-83380952D01*
X121281904Y-83190476D01*
X121329523Y-83095238D01*
X121424761Y-83000000D01*
X121567619Y-82952380D01*
X121662857Y-82952380D01*
X121805714Y-83000000D01*
X121853333Y-83047619D01*
X122758095Y-82952380D02*
X122281904Y-82952380D01*
X122234285Y-83428571D01*
X122281904Y-83380952D01*
X122377142Y-83333333D01*
X122615238Y-83333333D01*
X122710476Y-83380952D01*
X122758095Y-83428571D01*
X122805714Y-83523809D01*
X122805714Y-83761904D01*
X122758095Y-83857142D01*
X122710476Y-83904761D01*
X122615238Y-83952380D01*
X122377142Y-83952380D01*
X122281904Y-83904761D01*
X122234285Y-83857142D01*
X139966666Y-93852380D02*
X139966666Y-94566666D01*
X139919047Y-94709523D01*
X139823809Y-94804761D01*
X139680952Y-94852380D01*
X139585714Y-94852380D01*
X140347619Y-93852380D02*
X140966666Y-93852380D01*
X140633333Y-94233333D01*
X140776190Y-94233333D01*
X140871428Y-94280952D01*
X140919047Y-94328571D01*
X140966666Y-94423809D01*
X140966666Y-94661904D01*
X140919047Y-94757142D01*
X140871428Y-94804761D01*
X140776190Y-94852380D01*
X140490476Y-94852380D01*
X140395238Y-94804761D01*
X140347619Y-94757142D01*
X131542857Y-96300000D02*
X131447619Y-96252380D01*
X131304761Y-96252380D01*
X131161904Y-96300000D01*
X131066666Y-96395238D01*
X131019047Y-96490476D01*
X130971428Y-96680952D01*
X130971428Y-96823809D01*
X131019047Y-97014285D01*
X131066666Y-97109523D01*
X131161904Y-97204761D01*
X131304761Y-97252380D01*
X131400000Y-97252380D01*
X131542857Y-97204761D01*
X131590476Y-97157142D01*
X131590476Y-96823809D01*
X131400000Y-96823809D01*
X132019047Y-97252380D02*
X132019047Y-96252380D01*
X132590476Y-97252380D01*
X132590476Y-96252380D01*
X133066666Y-97252380D02*
X133066666Y-96252380D01*
X133304761Y-96252380D01*
X133447619Y-96300000D01*
X133542857Y-96395238D01*
X133590476Y-96490476D01*
X133638095Y-96680952D01*
X133638095Y-96823809D01*
X133590476Y-97014285D01*
X133542857Y-97109523D01*
X133447619Y-97204761D01*
X133304761Y-97252380D01*
X133066666Y-97252380D01*
X135400000Y-97252380D02*
X135066666Y-96776190D01*
X134828571Y-97252380D02*
X134828571Y-96252380D01*
X135209523Y-96252380D01*
X135304761Y-96300000D01*
X135352380Y-96347619D01*
X135400000Y-96442857D01*
X135400000Y-96585714D01*
X135352380Y-96680952D01*
X135304761Y-96728571D01*
X135209523Y-96776190D01*
X134828571Y-96776190D01*
X135733333Y-96252380D02*
X136400000Y-97252380D01*
X136400000Y-96252380D02*
X135733333Y-97252380D01*
X137400000Y-96252380D02*
X137971428Y-96252380D01*
X137685714Y-97252380D02*
X137685714Y-96252380D01*
X138209523Y-96252380D02*
X138876190Y-97252380D01*
X138876190Y-96252380D02*
X138209523Y-97252380D01*
X134857142Y-90852380D02*
X134523809Y-90376190D01*
X134285714Y-90852380D02*
X134285714Y-89852380D01*
X134666666Y-89852380D01*
X134761904Y-89900000D01*
X134809523Y-89947619D01*
X134857142Y-90042857D01*
X134857142Y-90185714D01*
X134809523Y-90280952D01*
X134761904Y-90328571D01*
X134666666Y-90376190D01*
X134285714Y-90376190D01*
X135809523Y-90852380D02*
X135238095Y-90852380D01*
X135523809Y-90852380D02*
X135523809Y-89852380D01*
X135428571Y-89995238D01*
X135333333Y-90090476D01*
X135238095Y-90138095D01*
X136714285Y-89852380D02*
X136238095Y-89852380D01*
X136190476Y-90328571D01*
X136238095Y-90280952D01*
X136333333Y-90233333D01*
X136571428Y-90233333D01*
X136666666Y-90280952D01*
X136714285Y-90328571D01*
X136761904Y-90423809D01*
X136761904Y-90661904D01*
X136714285Y-90757142D01*
X136666666Y-90804761D01*
X136571428Y-90852380D01*
X136333333Y-90852380D01*
X136238095Y-90804761D01*
X136190476Y-90757142D01*
X135457142Y-85452380D02*
X135123809Y-84976190D01*
X134885714Y-85452380D02*
X134885714Y-84452380D01*
X135266666Y-84452380D01*
X135361904Y-84500000D01*
X135409523Y-84547619D01*
X135457142Y-84642857D01*
X135457142Y-84785714D01*
X135409523Y-84880952D01*
X135361904Y-84928571D01*
X135266666Y-84976190D01*
X134885714Y-84976190D01*
X136409523Y-85452380D02*
X135838095Y-85452380D01*
X136123809Y-85452380D02*
X136123809Y-84452380D01*
X136028571Y-84595238D01*
X135933333Y-84690476D01*
X135838095Y-84738095D01*
X137266666Y-84785714D02*
X137266666Y-85452380D01*
X137028571Y-84404761D02*
X136790476Y-85119047D01*
X137409523Y-85119047D01*
X137661904Y-90852380D02*
X137661904Y-89852380D01*
X137900000Y-89852380D01*
X138042857Y-89900000D01*
X138138095Y-89995238D01*
X138185714Y-90090476D01*
X138233333Y-90280952D01*
X138233333Y-90423809D01*
X138185714Y-90614285D01*
X138138095Y-90709523D01*
X138042857Y-90804761D01*
X137900000Y-90852380D01*
X137661904Y-90852380D01*
X138709523Y-90852380D02*
X138900000Y-90852380D01*
X138995238Y-90804761D01*
X139042857Y-90757142D01*
X139138095Y-90614285D01*
X139185714Y-90423809D01*
X139185714Y-90042857D01*
X139138095Y-89947619D01*
X139090476Y-89900000D01*
X138995238Y-89852380D01*
X138804761Y-89852380D01*
X138709523Y-89900000D01*
X138661904Y-89947619D01*
X138614285Y-90042857D01*
X138614285Y-90280952D01*
X138661904Y-90376190D01*
X138709523Y-90423809D01*
X138804761Y-90471428D01*
X138995238Y-90471428D01*
X139090476Y-90423809D01*
X139138095Y-90376190D01*
X139185714Y-90280952D01*
D15*
X140352380Y-92509523D02*
X139352380Y-92509523D01*
X139828571Y-92509523D02*
X139828571Y-91938095D01*
X140352380Y-91938095D02*
X139352380Y-91938095D01*
X140304761Y-91080952D02*
X140352380Y-91176190D01*
X140352380Y-91366666D01*
X140304761Y-91461904D01*
X140209523Y-91509523D01*
X139828571Y-91509523D01*
X139733333Y-91461904D01*
X139685714Y-91366666D01*
X139685714Y-91176190D01*
X139733333Y-91080952D01*
X139828571Y-91033333D01*
X139923809Y-91033333D01*
X140019047Y-91509523D01*
X140352380Y-90176190D02*
X139828571Y-90176190D01*
X139733333Y-90223809D01*
X139685714Y-90319047D01*
X139685714Y-90509523D01*
X139733333Y-90604761D01*
X140304761Y-90176190D02*
X140352380Y-90271428D01*
X140352380Y-90509523D01*
X140304761Y-90604761D01*
X140209523Y-90652380D01*
X140114285Y-90652380D01*
X140019047Y-90604761D01*
X139971428Y-90509523D01*
X139971428Y-90271428D01*
X139923809Y-90176190D01*
X140352380Y-89271428D02*
X139352380Y-89271428D01*
X140304761Y-89271428D02*
X140352380Y-89366666D01*
X140352380Y-89557142D01*
X140304761Y-89652380D01*
X140257142Y-89700000D01*
X140161904Y-89747619D01*
X139876190Y-89747619D01*
X139780952Y-89700000D01*
X139733333Y-89652380D01*
X139685714Y-89557142D01*
X139685714Y-89366666D01*
X139733333Y-89271428D01*
X140352380Y-88652380D02*
X140304761Y-88747619D01*
X140209523Y-88795238D01*
X139352380Y-88795238D01*
X140352380Y-88271428D02*
X139685714Y-88271428D01*
X139352380Y-88271428D02*
X139400000Y-88319047D01*
X139447619Y-88271428D01*
X139400000Y-88223809D01*
X139352380Y-88271428D01*
X139447619Y-88271428D01*
X139685714Y-87366666D02*
X140495238Y-87366666D01*
X140590476Y-87414285D01*
X140638095Y-87461904D01*
X140685714Y-87557142D01*
X140685714Y-87700000D01*
X140638095Y-87795238D01*
X140304761Y-87366666D02*
X140352380Y-87461904D01*
X140352380Y-87652380D01*
X140304761Y-87747619D01*
X140257142Y-87795238D01*
X140161904Y-87842857D01*
X139876190Y-87842857D01*
X139780952Y-87795238D01*
X139733333Y-87747619D01*
X139685714Y-87652380D01*
X139685714Y-87461904D01*
X139733333Y-87366666D01*
X140352380Y-86890476D02*
X139352380Y-86890476D01*
X140352380Y-86461904D02*
X139828571Y-86461904D01*
X139733333Y-86509523D01*
X139685714Y-86604761D01*
X139685714Y-86747619D01*
X139733333Y-86842857D01*
X139780952Y-86890476D01*
X139685714Y-86128571D02*
X139685714Y-85747619D01*
X139352380Y-85985714D02*
X140209523Y-85985714D01*
X140304761Y-85938095D01*
X140352380Y-85842857D01*
X140352380Y-85747619D01*
D11*
X137861904Y-84752380D02*
X137861904Y-83752380D01*
X138100000Y-83752380D01*
X138242857Y-83800000D01*
X138338095Y-83895238D01*
X138385714Y-83990476D01*
X138433333Y-84180952D01*
X138433333Y-84323809D01*
X138385714Y-84514285D01*
X138338095Y-84609523D01*
X138242857Y-84704761D01*
X138100000Y-84752380D01*
X137861904Y-84752380D01*
X139004761Y-84180952D02*
X138909523Y-84133333D01*
X138861904Y-84085714D01*
X138814285Y-83990476D01*
X138814285Y-83942857D01*
X138861904Y-83847619D01*
X138909523Y-83800000D01*
X139004761Y-83752380D01*
X139195238Y-83752380D01*
X139290476Y-83800000D01*
X139338095Y-83847619D01*
X139385714Y-83942857D01*
X139385714Y-83990476D01*
X139338095Y-84085714D01*
X139290476Y-84133333D01*
X139195238Y-84180952D01*
X139004761Y-84180952D01*
X138909523Y-84228571D01*
X138861904Y-84276190D01*
X138814285Y-84371428D01*
X138814285Y-84561904D01*
X138861904Y-84657142D01*
X138909523Y-84704761D01*
X139004761Y-84752380D01*
X139195238Y-84752380D01*
X139290476Y-84704761D01*
X139338095Y-84657142D01*
X139385714Y-84561904D01*
X139385714Y-84371428D01*
X139338095Y-84276190D01*
X139290476Y-84228571D01*
X139195238Y-84180952D01*
D15*
X139728571Y-83338095D02*
X139728571Y-83004761D01*
X140252380Y-82861904D02*
X140252380Y-83338095D01*
X139252380Y-83338095D01*
X139252380Y-82861904D01*
X140252380Y-81861904D02*
X139776190Y-82195238D01*
X140252380Y-82433333D02*
X139252380Y-82433333D01*
X139252380Y-82052380D01*
X139300000Y-81957142D01*
X139347619Y-81909523D01*
X139442857Y-81861904D01*
X139585714Y-81861904D01*
X139680952Y-81909523D01*
X139728571Y-81957142D01*
X139776190Y-82052380D01*
X139776190Y-82433333D01*
X140252380Y-80861904D02*
X139776190Y-81195238D01*
X140252380Y-81433333D02*
X139252380Y-81433333D01*
X139252380Y-81052380D01*
X139300000Y-80957142D01*
X139347619Y-80909523D01*
X139442857Y-80861904D01*
X139585714Y-80861904D01*
X139680952Y-80909523D01*
X139728571Y-80957142D01*
X139776190Y-81052380D01*
X139776190Y-81433333D01*
X139252380Y-80242857D02*
X139252380Y-80052380D01*
X139300000Y-79957142D01*
X139395238Y-79861904D01*
X139585714Y-79814285D01*
X139919047Y-79814285D01*
X140109523Y-79861904D01*
X140204761Y-79957142D01*
X140252380Y-80052380D01*
X140252380Y-80242857D01*
X140204761Y-80338095D01*
X140109523Y-80433333D01*
X139919047Y-80480952D01*
X139585714Y-80480952D01*
X139395238Y-80433333D01*
X139300000Y-80338095D01*
X139252380Y-80242857D01*
X140252380Y-78814285D02*
X139776190Y-79147619D01*
X140252380Y-79385714D02*
X139252380Y-79385714D01*
X139252380Y-79004761D01*
X139300000Y-78909523D01*
X139347619Y-78861904D01*
X139442857Y-78814285D01*
X139585714Y-78814285D01*
X139680952Y-78861904D01*
X139728571Y-78909523D01*
X139776190Y-79004761D01*
X139776190Y-79385714D01*
D11*
X115904761Y-94797619D02*
X115809523Y-94750000D01*
X115714285Y-94654761D01*
X115571428Y-94511904D01*
X115476190Y-94464285D01*
X115380952Y-94464285D01*
X115428571Y-94702380D02*
X115333333Y-94654761D01*
X115238095Y-94559523D01*
X115190476Y-94369047D01*
X115190476Y-94035714D01*
X115238095Y-93845238D01*
X115333333Y-93750000D01*
X115428571Y-93702380D01*
X115619047Y-93702380D01*
X115714285Y-93750000D01*
X115809523Y-93845238D01*
X115857142Y-94035714D01*
X115857142Y-94369047D01*
X115809523Y-94559523D01*
X115714285Y-94654761D01*
X115619047Y-94702380D01*
X115428571Y-94702380D01*
X116809523Y-94702380D02*
X116238095Y-94702380D01*
X116523809Y-94702380D02*
X116523809Y-93702380D01*
X116428571Y-93845238D01*
X116333333Y-93940476D01*
X116238095Y-93988095D01*
X115111904Y-87252380D02*
X115111904Y-86252380D01*
X115350000Y-86252380D01*
X115492857Y-86300000D01*
X115588095Y-86395238D01*
X115635714Y-86490476D01*
X115683333Y-86680952D01*
X115683333Y-86823809D01*
X115635714Y-87014285D01*
X115588095Y-87109523D01*
X115492857Y-87204761D01*
X115350000Y-87252380D01*
X115111904Y-87252380D01*
X116016666Y-86252380D02*
X116683333Y-86252380D01*
X116254761Y-87252380D01*
X110861904Y-86152380D02*
X110861904Y-85152380D01*
X111100000Y-85152380D01*
X111242857Y-85200000D01*
X111338095Y-85295238D01*
X111385714Y-85390476D01*
X111433333Y-85580952D01*
X111433333Y-85723809D01*
X111385714Y-85914285D01*
X111338095Y-86009523D01*
X111242857Y-86104761D01*
X111100000Y-86152380D01*
X110861904Y-86152380D01*
X112290476Y-85152380D02*
X112100000Y-85152380D01*
X112004761Y-85200000D01*
X111957142Y-85247619D01*
X111861904Y-85390476D01*
X111814285Y-85580952D01*
X111814285Y-85961904D01*
X111861904Y-86057142D01*
X111909523Y-86104761D01*
X112004761Y-86152380D01*
X112195238Y-86152380D01*
X112290476Y-86104761D01*
X112338095Y-86057142D01*
X112385714Y-85961904D01*
X112385714Y-85723809D01*
X112338095Y-85628571D01*
X112290476Y-85580952D01*
X112195238Y-85533333D01*
X112004761Y-85533333D01*
X111909523Y-85580952D01*
X111861904Y-85628571D01*
X111814285Y-85723809D01*
X111438095Y-77052380D02*
X111438095Y-77861904D01*
X111485714Y-77957142D01*
X111533333Y-78004761D01*
X111628571Y-78052380D01*
X111819047Y-78052380D01*
X111914285Y-78004761D01*
X111961904Y-77957142D01*
X112009523Y-77861904D01*
X112009523Y-77052380D01*
X112438095Y-77147619D02*
X112485714Y-77100000D01*
X112580952Y-77052380D01*
X112819047Y-77052380D01*
X112914285Y-77100000D01*
X112961904Y-77147619D01*
X113009523Y-77242857D01*
X113009523Y-77338095D01*
X112961904Y-77480952D01*
X112390476Y-78052380D01*
X113009523Y-78052380D01*
D14*
X104709285Y-77223333D02*
X104709285Y-77646666D01*
X105374523Y-77646666D02*
X104104523Y-77646666D01*
X104104523Y-77041904D01*
X105374523Y-75892857D02*
X105374523Y-76618571D01*
X105374523Y-76255714D02*
X104104523Y-76255714D01*
X104285952Y-76376666D01*
X104406904Y-76497619D01*
X104467380Y-76618571D01*
D11*
X106861904Y-70952380D02*
X106861904Y-69952380D01*
X107100000Y-69952380D01*
X107242857Y-70000000D01*
X107338095Y-70095238D01*
X107385714Y-70190476D01*
X107433333Y-70380952D01*
X107433333Y-70523809D01*
X107385714Y-70714285D01*
X107338095Y-70809523D01*
X107242857Y-70904761D01*
X107100000Y-70952380D01*
X106861904Y-70952380D01*
X108385714Y-70952380D02*
X107814285Y-70952380D01*
X108100000Y-70952380D02*
X108100000Y-69952380D01*
X108004761Y-70095238D01*
X107909523Y-70190476D01*
X107814285Y-70238095D01*
X133257142Y-91852380D02*
X132923809Y-91376190D01*
X132685714Y-91852380D02*
X132685714Y-90852380D01*
X133066666Y-90852380D01*
X133161904Y-90900000D01*
X133209523Y-90947619D01*
X133257142Y-91042857D01*
X133257142Y-91185714D01*
X133209523Y-91280952D01*
X133161904Y-91328571D01*
X133066666Y-91376190D01*
X132685714Y-91376190D01*
X134209523Y-91852380D02*
X133638095Y-91852380D01*
X133923809Y-91852380D02*
X133923809Y-90852380D01*
X133828571Y-90995238D01*
X133733333Y-91090476D01*
X133638095Y-91138095D01*
X134542857Y-90852380D02*
X135161904Y-90852380D01*
X134828571Y-91233333D01*
X134971428Y-91233333D01*
X135066666Y-91280952D01*
X135114285Y-91328571D01*
X135161904Y-91423809D01*
X135161904Y-91661904D01*
X135114285Y-91757142D01*
X135066666Y-91804761D01*
X134971428Y-91852380D01*
X134685714Y-91852380D01*
X134590476Y-91804761D01*
X134542857Y-91757142D01*
X107157142Y-94852380D02*
X106823809Y-94376190D01*
X106585714Y-94852380D02*
X106585714Y-93852380D01*
X106966666Y-93852380D01*
X107061904Y-93900000D01*
X107109523Y-93947619D01*
X107157142Y-94042857D01*
X107157142Y-94185714D01*
X107109523Y-94280952D01*
X107061904Y-94328571D01*
X106966666Y-94376190D01*
X106585714Y-94376190D01*
X108109523Y-94852380D02*
X107538095Y-94852380D01*
X107823809Y-94852380D02*
X107823809Y-93852380D01*
X107728571Y-93995238D01*
X107633333Y-94090476D01*
X107538095Y-94138095D01*
X108490476Y-93947619D02*
X108538095Y-93900000D01*
X108633333Y-93852380D01*
X108871428Y-93852380D01*
X108966666Y-93900000D01*
X109014285Y-93947619D01*
X109061904Y-94042857D01*
X109061904Y-94138095D01*
X109014285Y-94280952D01*
X108442857Y-94852380D01*
X109061904Y-94852380D01*
X104202142Y-84652380D02*
X103868809Y-84176190D01*
X103630714Y-84652380D02*
X103630714Y-83652380D01*
X104011666Y-83652380D01*
X104106904Y-83700000D01*
X104154523Y-83747619D01*
X104202142Y-83842857D01*
X104202142Y-83985714D01*
X104154523Y-84080952D01*
X104106904Y-84128571D01*
X104011666Y-84176190D01*
X103630714Y-84176190D01*
X105154523Y-84652380D02*
X104583095Y-84652380D01*
X104868809Y-84652380D02*
X104868809Y-83652380D01*
X104773571Y-83795238D01*
X104678333Y-83890476D01*
X104583095Y-83938095D01*
X106106904Y-84652380D02*
X105535476Y-84652380D01*
X105821190Y-84652380D02*
X105821190Y-83652380D01*
X105725952Y-83795238D01*
X105630714Y-83890476D01*
X105535476Y-83938095D01*
X112907142Y-90502380D02*
X112573809Y-90026190D01*
X112335714Y-90502380D02*
X112335714Y-89502380D01*
X112716666Y-89502380D01*
X112811904Y-89550000D01*
X112859523Y-89597619D01*
X112907142Y-89692857D01*
X112907142Y-89835714D01*
X112859523Y-89930952D01*
X112811904Y-89978571D01*
X112716666Y-90026190D01*
X112335714Y-90026190D01*
X113859523Y-90502380D02*
X113288095Y-90502380D01*
X113573809Y-90502380D02*
X113573809Y-89502380D01*
X113478571Y-89645238D01*
X113383333Y-89740476D01*
X113288095Y-89788095D01*
X114478571Y-89502380D02*
X114573809Y-89502380D01*
X114669047Y-89550000D01*
X114716666Y-89597619D01*
X114764285Y-89692857D01*
X114811904Y-89883333D01*
X114811904Y-90121428D01*
X114764285Y-90311904D01*
X114716666Y-90407142D01*
X114669047Y-90454761D01*
X114573809Y-90502380D01*
X114478571Y-90502380D01*
X114383333Y-90454761D01*
X114335714Y-90407142D01*
X114288095Y-90311904D01*
X114240476Y-90121428D01*
X114240476Y-89883333D01*
X114288095Y-89692857D01*
X114335714Y-89597619D01*
X114383333Y-89550000D01*
X114478571Y-89502380D01*
X112883333Y-89052380D02*
X112550000Y-88576190D01*
X112311904Y-89052380D02*
X112311904Y-88052380D01*
X112692857Y-88052380D01*
X112788095Y-88100000D01*
X112835714Y-88147619D01*
X112883333Y-88242857D01*
X112883333Y-88385714D01*
X112835714Y-88480952D01*
X112788095Y-88528571D01*
X112692857Y-88576190D01*
X112311904Y-88576190D01*
X113359523Y-89052380D02*
X113550000Y-89052380D01*
X113645238Y-89004761D01*
X113692857Y-88957142D01*
X113788095Y-88814285D01*
X113835714Y-88623809D01*
X113835714Y-88242857D01*
X113788095Y-88147619D01*
X113740476Y-88100000D01*
X113645238Y-88052380D01*
X113454761Y-88052380D01*
X113359523Y-88100000D01*
X113311904Y-88147619D01*
X113264285Y-88242857D01*
X113264285Y-88480952D01*
X113311904Y-88576190D01*
X113359523Y-88623809D01*
X113454761Y-88671428D01*
X113645238Y-88671428D01*
X113740476Y-88623809D01*
X113788095Y-88576190D01*
X113835714Y-88480952D01*
X112883333Y-87752380D02*
X112550000Y-87276190D01*
X112311904Y-87752380D02*
X112311904Y-86752380D01*
X112692857Y-86752380D01*
X112788095Y-86800000D01*
X112835714Y-86847619D01*
X112883333Y-86942857D01*
X112883333Y-87085714D01*
X112835714Y-87180952D01*
X112788095Y-87228571D01*
X112692857Y-87276190D01*
X112311904Y-87276190D01*
X113454761Y-87180952D02*
X113359523Y-87133333D01*
X113311904Y-87085714D01*
X113264285Y-86990476D01*
X113264285Y-86942857D01*
X113311904Y-86847619D01*
X113359523Y-86800000D01*
X113454761Y-86752380D01*
X113645238Y-86752380D01*
X113740476Y-86800000D01*
X113788095Y-86847619D01*
X113835714Y-86942857D01*
X113835714Y-86990476D01*
X113788095Y-87085714D01*
X113740476Y-87133333D01*
X113645238Y-87180952D01*
X113454761Y-87180952D01*
X113359523Y-87228571D01*
X113311904Y-87276190D01*
X113264285Y-87371428D01*
X113264285Y-87561904D01*
X113311904Y-87657142D01*
X113359523Y-87704761D01*
X113454761Y-87752380D01*
X113645238Y-87752380D01*
X113740476Y-87704761D01*
X113788095Y-87657142D01*
X113835714Y-87561904D01*
X113835714Y-87371428D01*
X113788095Y-87276190D01*
X113740476Y-87228571D01*
X113645238Y-87180952D01*
X127466666Y-70802380D02*
X127466666Y-71516666D01*
X127419047Y-71659523D01*
X127323809Y-71754761D01*
X127180952Y-71802380D01*
X127085714Y-71802380D01*
X127895238Y-70897619D02*
X127942857Y-70850000D01*
X128038095Y-70802380D01*
X128276190Y-70802380D01*
X128371428Y-70850000D01*
X128419047Y-70897619D01*
X128466666Y-70992857D01*
X128466666Y-71088095D01*
X128419047Y-71230952D01*
X127847619Y-71802380D01*
X128466666Y-71802380D01*
X111099404Y-93482380D02*
X111099404Y-92482380D01*
X111337500Y-92482380D01*
X111480357Y-92530000D01*
X111575595Y-92625238D01*
X111623214Y-92720476D01*
X111670833Y-92910952D01*
X111670833Y-93053809D01*
X111623214Y-93244285D01*
X111575595Y-93339523D01*
X111480357Y-93434761D01*
X111337500Y-93482380D01*
X111099404Y-93482380D01*
X112575595Y-92482380D02*
X112099404Y-92482380D01*
X112051785Y-92958571D01*
X112099404Y-92910952D01*
X112194642Y-92863333D01*
X112432738Y-92863333D01*
X112527976Y-92910952D01*
X112575595Y-92958571D01*
X112623214Y-93053809D01*
X112623214Y-93291904D01*
X112575595Y-93387142D01*
X112527976Y-93434761D01*
X112432738Y-93482380D01*
X112194642Y-93482380D01*
X112099404Y-93434761D01*
X112051785Y-93387142D01*
X125061904Y-96652380D02*
X124728571Y-96176190D01*
X124490476Y-96652380D02*
X124490476Y-95652380D01*
X124871428Y-95652380D01*
X124966666Y-95700000D01*
X125014285Y-95747619D01*
X125061904Y-95842857D01*
X125061904Y-95985714D01*
X125014285Y-96080952D01*
X124966666Y-96128571D01*
X124871428Y-96176190D01*
X124490476Y-96176190D01*
X125871428Y-96604761D02*
X125776190Y-96652380D01*
X125585714Y-96652380D01*
X125490476Y-96604761D01*
X125442857Y-96509523D01*
X125442857Y-96128571D01*
X125490476Y-96033333D01*
X125585714Y-95985714D01*
X125776190Y-95985714D01*
X125871428Y-96033333D01*
X125919047Y-96128571D01*
X125919047Y-96223809D01*
X125442857Y-96319047D01*
X126300000Y-96604761D02*
X126395238Y-96652380D01*
X126585714Y-96652380D01*
X126680952Y-96604761D01*
X126728571Y-96509523D01*
X126728571Y-96461904D01*
X126680952Y-96366666D01*
X126585714Y-96319047D01*
X126442857Y-96319047D01*
X126347619Y-96271428D01*
X126300000Y-96176190D01*
X126300000Y-96128571D01*
X126347619Y-96033333D01*
X126442857Y-95985714D01*
X126585714Y-95985714D01*
X126680952Y-96033333D01*
X127538095Y-96604761D02*
X127442857Y-96652380D01*
X127252380Y-96652380D01*
X127157142Y-96604761D01*
X127109523Y-96509523D01*
X127109523Y-96128571D01*
X127157142Y-96033333D01*
X127252380Y-95985714D01*
X127442857Y-95985714D01*
X127538095Y-96033333D01*
X127585714Y-96128571D01*
X127585714Y-96223809D01*
X127109523Y-96319047D01*
X127871428Y-95985714D02*
X128252380Y-95985714D01*
X128014285Y-95652380D02*
X128014285Y-96509523D01*
X128061904Y-96604761D01*
X128157142Y-96652380D01*
X128252380Y-96652380D01*
X121613333Y-77452380D02*
X121280000Y-76976190D01*
X121041904Y-77452380D02*
X121041904Y-76452380D01*
X121422857Y-76452380D01*
X121518095Y-76500000D01*
X121565714Y-76547619D01*
X121613333Y-76642857D01*
X121613333Y-76785714D01*
X121565714Y-76880952D01*
X121518095Y-76928571D01*
X121422857Y-76976190D01*
X121041904Y-76976190D01*
X121946666Y-76452380D02*
X122613333Y-76452380D01*
X122184761Y-77452380D01*
X104533333Y-75452380D02*
X104200000Y-74976190D01*
X103961904Y-75452380D02*
X103961904Y-74452380D01*
X104342857Y-74452380D01*
X104438095Y-74500000D01*
X104485714Y-74547619D01*
X104533333Y-74642857D01*
X104533333Y-74785714D01*
X104485714Y-74880952D01*
X104438095Y-74928571D01*
X104342857Y-74976190D01*
X103961904Y-74976190D01*
X105390476Y-74452380D02*
X105200000Y-74452380D01*
X105104761Y-74500000D01*
X105057142Y-74547619D01*
X104961904Y-74690476D01*
X104914285Y-74880952D01*
X104914285Y-75261904D01*
X104961904Y-75357142D01*
X105009523Y-75404761D01*
X105104761Y-75452380D01*
X105295238Y-75452380D01*
X105390476Y-75404761D01*
X105438095Y-75357142D01*
X105485714Y-75261904D01*
X105485714Y-75023809D01*
X105438095Y-74928571D01*
X105390476Y-74880952D01*
X105295238Y-74833333D01*
X105104761Y-74833333D01*
X105009523Y-74880952D01*
X104961904Y-74928571D01*
X104914285Y-75023809D01*
X121933333Y-85902380D02*
X121600000Y-85426190D01*
X121361904Y-85902380D02*
X121361904Y-84902380D01*
X121742857Y-84902380D01*
X121838095Y-84950000D01*
X121885714Y-84997619D01*
X121933333Y-85092857D01*
X121933333Y-85235714D01*
X121885714Y-85330952D01*
X121838095Y-85378571D01*
X121742857Y-85426190D01*
X121361904Y-85426190D01*
X122838095Y-84902380D02*
X122361904Y-84902380D01*
X122314285Y-85378571D01*
X122361904Y-85330952D01*
X122457142Y-85283333D01*
X122695238Y-85283333D01*
X122790476Y-85330952D01*
X122838095Y-85378571D01*
X122885714Y-85473809D01*
X122885714Y-85711904D01*
X122838095Y-85807142D01*
X122790476Y-85854761D01*
X122695238Y-85902380D01*
X122457142Y-85902380D01*
X122361904Y-85854761D01*
X122314285Y-85807142D01*
X119011904Y-73902380D02*
X119011904Y-72902380D01*
X119250000Y-72902380D01*
X119392857Y-72950000D01*
X119488095Y-73045238D01*
X119535714Y-73140476D01*
X119583333Y-73330952D01*
X119583333Y-73473809D01*
X119535714Y-73664285D01*
X119488095Y-73759523D01*
X119392857Y-73854761D01*
X119250000Y-73902380D01*
X119011904Y-73902380D01*
X119916666Y-72902380D02*
X120535714Y-72902380D01*
X120202380Y-73283333D01*
X120345238Y-73283333D01*
X120440476Y-73330952D01*
X120488095Y-73378571D01*
X120535714Y-73473809D01*
X120535714Y-73711904D01*
X120488095Y-73807142D01*
X120440476Y-73854761D01*
X120345238Y-73902380D01*
X120059523Y-73902380D01*
X119964285Y-73854761D01*
X119916666Y-73807142D01*
X121507142Y-69902380D02*
X121030952Y-69902380D01*
X120983333Y-70378571D01*
X121030952Y-70330952D01*
X121126190Y-70283333D01*
X121364285Y-70283333D01*
X121459523Y-70330952D01*
X121507142Y-70378571D01*
X121554761Y-70473809D01*
X121554761Y-70711904D01*
X121507142Y-70807142D01*
X121459523Y-70854761D01*
X121364285Y-70902380D01*
X121126190Y-70902380D01*
X121030952Y-70854761D01*
X120983333Y-70807142D01*
X121888095Y-70235714D02*
X122126190Y-70902380D01*
X122364285Y-70235714D01*
X101561904Y-74252380D02*
X101561904Y-73252380D01*
X101800000Y-73252380D01*
X101942857Y-73300000D01*
X102038095Y-73395238D01*
X102085714Y-73490476D01*
X102133333Y-73680952D01*
X102133333Y-73823809D01*
X102085714Y-74014285D01*
X102038095Y-74109523D01*
X101942857Y-74204761D01*
X101800000Y-74252380D01*
X101561904Y-74252380D01*
X102514285Y-73347619D02*
X102561904Y-73300000D01*
X102657142Y-73252380D01*
X102895238Y-73252380D01*
X102990476Y-73300000D01*
X103038095Y-73347619D01*
X103085714Y-73442857D01*
X103085714Y-73538095D01*
X103038095Y-73680952D01*
X102466666Y-74252380D01*
X103085714Y-74252380D01*
X101209523Y-69752380D02*
X101542857Y-70752380D01*
X101876190Y-69752380D01*
X101971428Y-70847619D02*
X102733333Y-70847619D01*
X102971428Y-70752380D02*
X102971428Y-69752380D01*
X102971428Y-70133333D02*
X103066666Y-70085714D01*
X103257142Y-70085714D01*
X103352380Y-70133333D01*
X103400000Y-70180952D01*
X103447619Y-70276190D01*
X103447619Y-70561904D01*
X103400000Y-70657142D01*
X103352380Y-70704761D01*
X103257142Y-70752380D01*
X103066666Y-70752380D01*
X102971428Y-70704761D01*
X104304761Y-70752380D02*
X104304761Y-70228571D01*
X104257142Y-70133333D01*
X104161904Y-70085714D01*
X103971428Y-70085714D01*
X103876190Y-70133333D01*
X104304761Y-70704761D02*
X104209523Y-70752380D01*
X103971428Y-70752380D01*
X103876190Y-70704761D01*
X103828571Y-70609523D01*
X103828571Y-70514285D01*
X103876190Y-70419047D01*
X103971428Y-70371428D01*
X104209523Y-70371428D01*
X104304761Y-70323809D01*
X104638095Y-70085714D02*
X105019047Y-70085714D01*
X104780952Y-69752380D02*
X104780952Y-70609523D01*
X104828571Y-70704761D01*
X104923809Y-70752380D01*
X105019047Y-70752380D01*
X105209523Y-70085714D02*
X105590476Y-70085714D01*
X105352380Y-69752380D02*
X105352380Y-70609523D01*
X105400000Y-70704761D01*
X105495238Y-70752380D01*
X105590476Y-70752380D01*
X124158333Y-92377380D02*
X123825000Y-91901190D01*
X123586904Y-92377380D02*
X123586904Y-91377380D01*
X123967857Y-91377380D01*
X124063095Y-91425000D01*
X124110714Y-91472619D01*
X124158333Y-91567857D01*
X124158333Y-91710714D01*
X124110714Y-91805952D01*
X124063095Y-91853571D01*
X123967857Y-91901190D01*
X123586904Y-91901190D01*
X125015476Y-91710714D02*
X125015476Y-92377380D01*
X124777380Y-91329761D02*
X124539285Y-92044047D01*
X125158333Y-92044047D01*
X121953333Y-89852380D02*
X121620000Y-89376190D01*
X121381904Y-89852380D02*
X121381904Y-88852380D01*
X121762857Y-88852380D01*
X121858095Y-88900000D01*
X121905714Y-88947619D01*
X121953333Y-89042857D01*
X121953333Y-89185714D01*
X121905714Y-89280952D01*
X121858095Y-89328571D01*
X121762857Y-89376190D01*
X121381904Y-89376190D01*
X122286666Y-88852380D02*
X122905714Y-88852380D01*
X122572380Y-89233333D01*
X122715238Y-89233333D01*
X122810476Y-89280952D01*
X122858095Y-89328571D01*
X122905714Y-89423809D01*
X122905714Y-89661904D01*
X122858095Y-89757142D01*
X122810476Y-89804761D01*
X122715238Y-89852380D01*
X122429523Y-89852380D01*
X122334285Y-89804761D01*
X122286666Y-89757142D01*
X124158333Y-91077380D02*
X123825000Y-90601190D01*
X123586904Y-91077380D02*
X123586904Y-90077380D01*
X123967857Y-90077380D01*
X124063095Y-90125000D01*
X124110714Y-90172619D01*
X124158333Y-90267857D01*
X124158333Y-90410714D01*
X124110714Y-90505952D01*
X124063095Y-90553571D01*
X123967857Y-90601190D01*
X123586904Y-90601190D01*
X124539285Y-90172619D02*
X124586904Y-90125000D01*
X124682142Y-90077380D01*
X124920238Y-90077380D01*
X125015476Y-90125000D01*
X125063095Y-90172619D01*
X125110714Y-90267857D01*
X125110714Y-90363095D01*
X125063095Y-90505952D01*
X124491666Y-91077380D01*
X125110714Y-91077380D01*
X120233333Y-87852380D02*
X119900000Y-87376190D01*
X119661904Y-87852380D02*
X119661904Y-86852380D01*
X120042857Y-86852380D01*
X120138095Y-86900000D01*
X120185714Y-86947619D01*
X120233333Y-87042857D01*
X120233333Y-87185714D01*
X120185714Y-87280952D01*
X120138095Y-87328571D01*
X120042857Y-87376190D01*
X119661904Y-87376190D01*
X121185714Y-87852380D02*
X120614285Y-87852380D01*
X120900000Y-87852380D02*
X120900000Y-86852380D01*
X120804761Y-86995238D01*
X120709523Y-87090476D01*
X120614285Y-87138095D01*
X128404095Y-90006380D02*
X128404095Y-90815904D01*
X128451714Y-90911142D01*
X128499333Y-90958761D01*
X128594571Y-91006380D01*
X128785047Y-91006380D01*
X128880285Y-90958761D01*
X128927904Y-90911142D01*
X128975523Y-90815904D01*
X128975523Y-90006380D01*
X129975523Y-91006380D02*
X129404095Y-91006380D01*
X129689809Y-91006380D02*
X129689809Y-90006380D01*
X129594571Y-90149238D01*
X129499333Y-90244476D01*
X129404095Y-90292095D01*
X121833333Y-81757142D02*
X121785714Y-81804761D01*
X121642857Y-81852380D01*
X121547619Y-81852380D01*
X121404761Y-81804761D01*
X121309523Y-81709523D01*
X121261904Y-81614285D01*
X121214285Y-81423809D01*
X121214285Y-81280952D01*
X121261904Y-81090476D01*
X121309523Y-80995238D01*
X121404761Y-80900000D01*
X121547619Y-80852380D01*
X121642857Y-80852380D01*
X121785714Y-80900000D01*
X121833333Y-80947619D01*
X122690476Y-81185714D02*
X122690476Y-81852380D01*
X122452380Y-80804761D02*
X122214285Y-81519047D01*
X122833333Y-81519047D01*
X135333333Y-82457142D02*
X135285714Y-82504761D01*
X135142857Y-82552380D01*
X135047619Y-82552380D01*
X134904761Y-82504761D01*
X134809523Y-82409523D01*
X134761904Y-82314285D01*
X134714285Y-82123809D01*
X134714285Y-81980952D01*
X134761904Y-81790476D01*
X134809523Y-81695238D01*
X134904761Y-81600000D01*
X135047619Y-81552380D01*
X135142857Y-81552380D01*
X135285714Y-81600000D01*
X135333333Y-81647619D01*
X135666666Y-81552380D02*
X136285714Y-81552380D01*
X135952380Y-81933333D01*
X136095238Y-81933333D01*
X136190476Y-81980952D01*
X136238095Y-82028571D01*
X136285714Y-82123809D01*
X136285714Y-82361904D01*
X136238095Y-82457142D01*
X136190476Y-82504761D01*
X136095238Y-82552380D01*
X135809523Y-82552380D01*
X135714285Y-82504761D01*
X135666666Y-82457142D01*
X94466666Y-83102380D02*
X94466666Y-83816666D01*
X94419047Y-83959523D01*
X94323809Y-84054761D01*
X94180952Y-84102380D01*
X94085714Y-84102380D01*
X95466666Y-84102380D02*
X94895238Y-84102380D01*
X95180952Y-84102380D02*
X95180952Y-83102380D01*
X95085714Y-83245238D01*
X94990476Y-83340476D01*
X94895238Y-83388095D01*
%LPC*%
D17*
X103388000Y-91305000D03*
X103388000Y-90035000D03*
X103388000Y-88765000D03*
X103388000Y-87495000D03*
X108812000Y-87495000D03*
X108812000Y-88765000D03*
X108812000Y-90035000D03*
X108812000Y-91305000D03*
D10*
G36*
X114693191Y-77575176D02*
G01*
X114716901Y-77578693D01*
X114740152Y-77584517D01*
X114762720Y-77592592D01*
X114784389Y-77602841D01*
X114804948Y-77615164D01*
X114824201Y-77629442D01*
X114841961Y-77645539D01*
X114858058Y-77663299D01*
X114872336Y-77682552D01*
X114884659Y-77703111D01*
X114894908Y-77724780D01*
X114902983Y-77747348D01*
X114908807Y-77770599D01*
X114912324Y-77794309D01*
X114913500Y-77818250D01*
X114913500Y-78381750D01*
X114912324Y-78405691D01*
X114908807Y-78429401D01*
X114902983Y-78452652D01*
X114894908Y-78475220D01*
X114884659Y-78496889D01*
X114872336Y-78517448D01*
X114858058Y-78536701D01*
X114841961Y-78554461D01*
X114824201Y-78570558D01*
X114804948Y-78584836D01*
X114784389Y-78597159D01*
X114762720Y-78607408D01*
X114740152Y-78615483D01*
X114716901Y-78621307D01*
X114693191Y-78624824D01*
X114669250Y-78626000D01*
X114180750Y-78626000D01*
X114156809Y-78624824D01*
X114133099Y-78621307D01*
X114109848Y-78615483D01*
X114087280Y-78607408D01*
X114065611Y-78597159D01*
X114045052Y-78584836D01*
X114025799Y-78570558D01*
X114008039Y-78554461D01*
X113991942Y-78536701D01*
X113977664Y-78517448D01*
X113965341Y-78496889D01*
X113955092Y-78475220D01*
X113947017Y-78452652D01*
X113941193Y-78429401D01*
X113937676Y-78405691D01*
X113936500Y-78381750D01*
X113936500Y-77818250D01*
X113937676Y-77794309D01*
X113941193Y-77770599D01*
X113947017Y-77747348D01*
X113955092Y-77724780D01*
X113965341Y-77703111D01*
X113977664Y-77682552D01*
X113991942Y-77663299D01*
X114008039Y-77645539D01*
X114025799Y-77629442D01*
X114045052Y-77615164D01*
X114065611Y-77602841D01*
X114087280Y-77592592D01*
X114109848Y-77584517D01*
X114133099Y-77578693D01*
X114156809Y-77575176D01*
X114180750Y-77574000D01*
X114669250Y-77574000D01*
X114693191Y-77575176D01*
G37*
G36*
X116268191Y-77575176D02*
G01*
X116291901Y-77578693D01*
X116315152Y-77584517D01*
X116337720Y-77592592D01*
X116359389Y-77602841D01*
X116379948Y-77615164D01*
X116399201Y-77629442D01*
X116416961Y-77645539D01*
X116433058Y-77663299D01*
X116447336Y-77682552D01*
X116459659Y-77703111D01*
X116469908Y-77724780D01*
X116477983Y-77747348D01*
X116483807Y-77770599D01*
X116487324Y-77794309D01*
X116488500Y-77818250D01*
X116488500Y-78381750D01*
X116487324Y-78405691D01*
X116483807Y-78429401D01*
X116477983Y-78452652D01*
X116469908Y-78475220D01*
X116459659Y-78496889D01*
X116447336Y-78517448D01*
X116433058Y-78536701D01*
X116416961Y-78554461D01*
X116399201Y-78570558D01*
X116379948Y-78584836D01*
X116359389Y-78597159D01*
X116337720Y-78607408D01*
X116315152Y-78615483D01*
X116291901Y-78621307D01*
X116268191Y-78624824D01*
X116244250Y-78626000D01*
X115755750Y-78626000D01*
X115731809Y-78624824D01*
X115708099Y-78621307D01*
X115684848Y-78615483D01*
X115662280Y-78607408D01*
X115640611Y-78597159D01*
X115620052Y-78584836D01*
X115600799Y-78570558D01*
X115583039Y-78554461D01*
X115566942Y-78536701D01*
X115552664Y-78517448D01*
X115540341Y-78496889D01*
X115530092Y-78475220D01*
X115522017Y-78452652D01*
X115516193Y-78429401D01*
X115512676Y-78405691D01*
X115511500Y-78381750D01*
X115511500Y-77818250D01*
X115512676Y-77794309D01*
X115516193Y-77770599D01*
X115522017Y-77747348D01*
X115530092Y-77724780D01*
X115540341Y-77703111D01*
X115552664Y-77682552D01*
X115566942Y-77663299D01*
X115583039Y-77645539D01*
X115600799Y-77629442D01*
X115620052Y-77615164D01*
X115640611Y-77602841D01*
X115662280Y-77592592D01*
X115684848Y-77584517D01*
X115708099Y-77578693D01*
X115731809Y-77575176D01*
X115755750Y-77574000D01*
X116244250Y-77574000D01*
X116268191Y-77575176D01*
G37*
G36*
X110105691Y-71612676D02*
G01*
X110129401Y-71616193D01*
X110152652Y-71622017D01*
X110175220Y-71630092D01*
X110196889Y-71640341D01*
X110217448Y-71652664D01*
X110236701Y-71666942D01*
X110254461Y-71683039D01*
X110270558Y-71700799D01*
X110284836Y-71720052D01*
X110297159Y-71740611D01*
X110307408Y-71762280D01*
X110315483Y-71784848D01*
X110321307Y-71808099D01*
X110324824Y-71831809D01*
X110326000Y-71855750D01*
X110326000Y-72344250D01*
X110324824Y-72368191D01*
X110321307Y-72391901D01*
X110315483Y-72415152D01*
X110307408Y-72437720D01*
X110297159Y-72459389D01*
X110284836Y-72479948D01*
X110270558Y-72499201D01*
X110254461Y-72516961D01*
X110236701Y-72533058D01*
X110217448Y-72547336D01*
X110196889Y-72559659D01*
X110175220Y-72569908D01*
X110152652Y-72577983D01*
X110129401Y-72583807D01*
X110105691Y-72587324D01*
X110081750Y-72588500D01*
X109518250Y-72588500D01*
X109494309Y-72587324D01*
X109470599Y-72583807D01*
X109447348Y-72577983D01*
X109424780Y-72569908D01*
X109403111Y-72559659D01*
X109382552Y-72547336D01*
X109363299Y-72533058D01*
X109345539Y-72516961D01*
X109329442Y-72499201D01*
X109315164Y-72479948D01*
X109302841Y-72459389D01*
X109292592Y-72437720D01*
X109284517Y-72415152D01*
X109278693Y-72391901D01*
X109275176Y-72368191D01*
X109274000Y-72344250D01*
X109274000Y-71855750D01*
X109275176Y-71831809D01*
X109278693Y-71808099D01*
X109284517Y-71784848D01*
X109292592Y-71762280D01*
X109302841Y-71740611D01*
X109315164Y-71720052D01*
X109329442Y-71700799D01*
X109345539Y-71683039D01*
X109363299Y-71666942D01*
X109382552Y-71652664D01*
X109403111Y-71640341D01*
X109424780Y-71630092D01*
X109447348Y-71622017D01*
X109470599Y-71616193D01*
X109494309Y-71612676D01*
X109518250Y-71611500D01*
X110081750Y-71611500D01*
X110105691Y-71612676D01*
G37*
G36*
X110105691Y-73187676D02*
G01*
X110129401Y-73191193D01*
X110152652Y-73197017D01*
X110175220Y-73205092D01*
X110196889Y-73215341D01*
X110217448Y-73227664D01*
X110236701Y-73241942D01*
X110254461Y-73258039D01*
X110270558Y-73275799D01*
X110284836Y-73295052D01*
X110297159Y-73315611D01*
X110307408Y-73337280D01*
X110315483Y-73359848D01*
X110321307Y-73383099D01*
X110324824Y-73406809D01*
X110326000Y-73430750D01*
X110326000Y-73919250D01*
X110324824Y-73943191D01*
X110321307Y-73966901D01*
X110315483Y-73990152D01*
X110307408Y-74012720D01*
X110297159Y-74034389D01*
X110284836Y-74054948D01*
X110270558Y-74074201D01*
X110254461Y-74091961D01*
X110236701Y-74108058D01*
X110217448Y-74122336D01*
X110196889Y-74134659D01*
X110175220Y-74144908D01*
X110152652Y-74152983D01*
X110129401Y-74158807D01*
X110105691Y-74162324D01*
X110081750Y-74163500D01*
X109518250Y-74163500D01*
X109494309Y-74162324D01*
X109470599Y-74158807D01*
X109447348Y-74152983D01*
X109424780Y-74144908D01*
X109403111Y-74134659D01*
X109382552Y-74122336D01*
X109363299Y-74108058D01*
X109345539Y-74091961D01*
X109329442Y-74074201D01*
X109315164Y-74054948D01*
X109302841Y-74034389D01*
X109292592Y-74012720D01*
X109284517Y-73990152D01*
X109278693Y-73966901D01*
X109275176Y-73943191D01*
X109274000Y-73919250D01*
X109274000Y-73430750D01*
X109275176Y-73406809D01*
X109278693Y-73383099D01*
X109284517Y-73359848D01*
X109292592Y-73337280D01*
X109302841Y-73315611D01*
X109315164Y-73295052D01*
X109329442Y-73275799D01*
X109345539Y-73258039D01*
X109363299Y-73241942D01*
X109382552Y-73227664D01*
X109403111Y-73215341D01*
X109424780Y-73205092D01*
X109447348Y-73197017D01*
X109470599Y-73191193D01*
X109494309Y-73187676D01*
X109518250Y-73186500D01*
X110081750Y-73186500D01*
X110105691Y-73187676D01*
G37*
D18*
X137400000Y-74350000D03*
X137400000Y-76550000D03*
X135700000Y-76550000D03*
X135700000Y-74350000D03*
D10*
G36*
X136437801Y-78099604D02*
G01*
X136449984Y-78101411D01*
X136461931Y-78104404D01*
X136473527Y-78108553D01*
X136484660Y-78113819D01*
X136495224Y-78120151D01*
X136505116Y-78127487D01*
X136514242Y-78135758D01*
X136522513Y-78144884D01*
X136529849Y-78154776D01*
X136536181Y-78165340D01*
X136541447Y-78176473D01*
X136545596Y-78188069D01*
X136548589Y-78200016D01*
X136550396Y-78212199D01*
X136551000Y-78224500D01*
X136551000Y-78475500D01*
X136550396Y-78487801D01*
X136548589Y-78499984D01*
X136545596Y-78511931D01*
X136541447Y-78523527D01*
X136536181Y-78534660D01*
X136529849Y-78545224D01*
X136522513Y-78555116D01*
X136514242Y-78564242D01*
X136505116Y-78572513D01*
X136495224Y-78579849D01*
X136484660Y-78586181D01*
X136473527Y-78591447D01*
X136461931Y-78595596D01*
X136449984Y-78598589D01*
X136437801Y-78600396D01*
X136425500Y-78601000D01*
X136114500Y-78601000D01*
X136102199Y-78600396D01*
X136090016Y-78598589D01*
X136078069Y-78595596D01*
X136066473Y-78591447D01*
X136055340Y-78586181D01*
X136044776Y-78579849D01*
X136034884Y-78572513D01*
X136025758Y-78564242D01*
X136017487Y-78555116D01*
X136010151Y-78545224D01*
X136003819Y-78534660D01*
X135998553Y-78523527D01*
X135994404Y-78511931D01*
X135991411Y-78499984D01*
X135989604Y-78487801D01*
X135989000Y-78475500D01*
X135989000Y-78224500D01*
X135989604Y-78212199D01*
X135991411Y-78200016D01*
X135994404Y-78188069D01*
X135998553Y-78176473D01*
X136003819Y-78165340D01*
X136010151Y-78154776D01*
X136017487Y-78144884D01*
X136025758Y-78135758D01*
X136034884Y-78127487D01*
X136044776Y-78120151D01*
X136055340Y-78113819D01*
X136066473Y-78108553D01*
X136078069Y-78104404D01*
X136090016Y-78101411D01*
X136102199Y-78099604D01*
X136114500Y-78099000D01*
X136425500Y-78099000D01*
X136437801Y-78099604D01*
G37*
G36*
X135797801Y-78099604D02*
G01*
X135809984Y-78101411D01*
X135821931Y-78104404D01*
X135833527Y-78108553D01*
X135844660Y-78113819D01*
X135855224Y-78120151D01*
X135865116Y-78127487D01*
X135874242Y-78135758D01*
X135882513Y-78144884D01*
X135889849Y-78154776D01*
X135896181Y-78165340D01*
X135901447Y-78176473D01*
X135905596Y-78188069D01*
X135908589Y-78200016D01*
X135910396Y-78212199D01*
X135911000Y-78224500D01*
X135911000Y-78475500D01*
X135910396Y-78487801D01*
X135908589Y-78499984D01*
X135905596Y-78511931D01*
X135901447Y-78523527D01*
X135896181Y-78534660D01*
X135889849Y-78545224D01*
X135882513Y-78555116D01*
X135874242Y-78564242D01*
X135865116Y-78572513D01*
X135855224Y-78579849D01*
X135844660Y-78586181D01*
X135833527Y-78591447D01*
X135821931Y-78595596D01*
X135809984Y-78598589D01*
X135797801Y-78600396D01*
X135785500Y-78601000D01*
X135474500Y-78601000D01*
X135462199Y-78600396D01*
X135450016Y-78598589D01*
X135438069Y-78595596D01*
X135426473Y-78591447D01*
X135415340Y-78586181D01*
X135404776Y-78579849D01*
X135394884Y-78572513D01*
X135385758Y-78564242D01*
X135377487Y-78555116D01*
X135370151Y-78545224D01*
X135363819Y-78534660D01*
X135358553Y-78523527D01*
X135354404Y-78511931D01*
X135351411Y-78499984D01*
X135349604Y-78487801D01*
X135349000Y-78475500D01*
X135349000Y-78224500D01*
X135349604Y-78212199D01*
X135351411Y-78200016D01*
X135354404Y-78188069D01*
X135358553Y-78176473D01*
X135363819Y-78165340D01*
X135370151Y-78154776D01*
X135377487Y-78144884D01*
X135385758Y-78135758D01*
X135394884Y-78127487D01*
X135404776Y-78120151D01*
X135415340Y-78113819D01*
X135426473Y-78108553D01*
X135438069Y-78104404D01*
X135450016Y-78101411D01*
X135462199Y-78099604D01*
X135474500Y-78099000D01*
X135785500Y-78099000D01*
X135797801Y-78099604D01*
G37*
G36*
X133417801Y-78099604D02*
G01*
X133429984Y-78101411D01*
X133441931Y-78104404D01*
X133453527Y-78108553D01*
X133464660Y-78113819D01*
X133475224Y-78120151D01*
X133485116Y-78127487D01*
X133494242Y-78135758D01*
X133502513Y-78144884D01*
X133509849Y-78154776D01*
X133516181Y-78165340D01*
X133521447Y-78176473D01*
X133525596Y-78188069D01*
X133528589Y-78200016D01*
X133530396Y-78212199D01*
X133531000Y-78224500D01*
X133531000Y-78475500D01*
X133530396Y-78487801D01*
X133528589Y-78499984D01*
X133525596Y-78511931D01*
X133521447Y-78523527D01*
X133516181Y-78534660D01*
X133509849Y-78545224D01*
X133502513Y-78555116D01*
X133494242Y-78564242D01*
X133485116Y-78572513D01*
X133475224Y-78579849D01*
X133464660Y-78586181D01*
X133453527Y-78591447D01*
X133441931Y-78595596D01*
X133429984Y-78598589D01*
X133417801Y-78600396D01*
X133405500Y-78601000D01*
X133094500Y-78601000D01*
X133082199Y-78600396D01*
X133070016Y-78598589D01*
X133058069Y-78595596D01*
X133046473Y-78591447D01*
X133035340Y-78586181D01*
X133024776Y-78579849D01*
X133014884Y-78572513D01*
X133005758Y-78564242D01*
X132997487Y-78555116D01*
X132990151Y-78545224D01*
X132983819Y-78534660D01*
X132978553Y-78523527D01*
X132974404Y-78511931D01*
X132971411Y-78499984D01*
X132969604Y-78487801D01*
X132969000Y-78475500D01*
X132969000Y-78224500D01*
X132969604Y-78212199D01*
X132971411Y-78200016D01*
X132974404Y-78188069D01*
X132978553Y-78176473D01*
X132983819Y-78165340D01*
X132990151Y-78154776D01*
X132997487Y-78144884D01*
X133005758Y-78135758D01*
X133014884Y-78127487D01*
X133024776Y-78120151D01*
X133035340Y-78113819D01*
X133046473Y-78108553D01*
X133058069Y-78104404D01*
X133070016Y-78101411D01*
X133082199Y-78099604D01*
X133094500Y-78099000D01*
X133405500Y-78099000D01*
X133417801Y-78099604D01*
G37*
G36*
X134057801Y-78099604D02*
G01*
X134069984Y-78101411D01*
X134081931Y-78104404D01*
X134093527Y-78108553D01*
X134104660Y-78113819D01*
X134115224Y-78120151D01*
X134125116Y-78127487D01*
X134134242Y-78135758D01*
X134142513Y-78144884D01*
X134149849Y-78154776D01*
X134156181Y-78165340D01*
X134161447Y-78176473D01*
X134165596Y-78188069D01*
X134168589Y-78200016D01*
X134170396Y-78212199D01*
X134171000Y-78224500D01*
X134171000Y-78475500D01*
X134170396Y-78487801D01*
X134168589Y-78499984D01*
X134165596Y-78511931D01*
X134161447Y-78523527D01*
X134156181Y-78534660D01*
X134149849Y-78545224D01*
X134142513Y-78555116D01*
X134134242Y-78564242D01*
X134125116Y-78572513D01*
X134115224Y-78579849D01*
X134104660Y-78586181D01*
X134093527Y-78591447D01*
X134081931Y-78595596D01*
X134069984Y-78598589D01*
X134057801Y-78600396D01*
X134045500Y-78601000D01*
X133734500Y-78601000D01*
X133722199Y-78600396D01*
X133710016Y-78598589D01*
X133698069Y-78595596D01*
X133686473Y-78591447D01*
X133675340Y-78586181D01*
X133664776Y-78579849D01*
X133654884Y-78572513D01*
X133645758Y-78564242D01*
X133637487Y-78555116D01*
X133630151Y-78545224D01*
X133623819Y-78534660D01*
X133618553Y-78523527D01*
X133614404Y-78511931D01*
X133611411Y-78499984D01*
X133609604Y-78487801D01*
X133609000Y-78475500D01*
X133609000Y-78224500D01*
X133609604Y-78212199D01*
X133611411Y-78200016D01*
X133614404Y-78188069D01*
X133618553Y-78176473D01*
X133623819Y-78165340D01*
X133630151Y-78154776D01*
X133637487Y-78144884D01*
X133645758Y-78135758D01*
X133654884Y-78127487D01*
X133664776Y-78120151D01*
X133675340Y-78113819D01*
X133686473Y-78108553D01*
X133698069Y-78104404D01*
X133710016Y-78101411D01*
X133722199Y-78099604D01*
X133734500Y-78099000D01*
X134045500Y-78099000D01*
X134057801Y-78099604D01*
G37*
G36*
X121917801Y-84249604D02*
G01*
X121929984Y-84251411D01*
X121941931Y-84254404D01*
X121953527Y-84258553D01*
X121964660Y-84263819D01*
X121975224Y-84270151D01*
X121985116Y-84277487D01*
X121994242Y-84285758D01*
X122002513Y-84294884D01*
X122009849Y-84304776D01*
X122016181Y-84315340D01*
X122021447Y-84326473D01*
X122025596Y-84338069D01*
X122028589Y-84350016D01*
X122030396Y-84362199D01*
X122031000Y-84374500D01*
X122031000Y-84625500D01*
X122030396Y-84637801D01*
X122028589Y-84649984D01*
X122025596Y-84661931D01*
X122021447Y-84673527D01*
X122016181Y-84684660D01*
X122009849Y-84695224D01*
X122002513Y-84705116D01*
X121994242Y-84714242D01*
X121985116Y-84722513D01*
X121975224Y-84729849D01*
X121964660Y-84736181D01*
X121953527Y-84741447D01*
X121941931Y-84745596D01*
X121929984Y-84748589D01*
X121917801Y-84750396D01*
X121905500Y-84751000D01*
X121594500Y-84751000D01*
X121582199Y-84750396D01*
X121570016Y-84748589D01*
X121558069Y-84745596D01*
X121546473Y-84741447D01*
X121535340Y-84736181D01*
X121524776Y-84729849D01*
X121514884Y-84722513D01*
X121505758Y-84714242D01*
X121497487Y-84705116D01*
X121490151Y-84695224D01*
X121483819Y-84684660D01*
X121478553Y-84673527D01*
X121474404Y-84661931D01*
X121471411Y-84649984D01*
X121469604Y-84637801D01*
X121469000Y-84625500D01*
X121469000Y-84374500D01*
X121469604Y-84362199D01*
X121471411Y-84350016D01*
X121474404Y-84338069D01*
X121478553Y-84326473D01*
X121483819Y-84315340D01*
X121490151Y-84304776D01*
X121497487Y-84294884D01*
X121505758Y-84285758D01*
X121514884Y-84277487D01*
X121524776Y-84270151D01*
X121535340Y-84263819D01*
X121546473Y-84258553D01*
X121558069Y-84254404D01*
X121570016Y-84251411D01*
X121582199Y-84249604D01*
X121594500Y-84249000D01*
X121905500Y-84249000D01*
X121917801Y-84249604D01*
G37*
G36*
X122557801Y-84249604D02*
G01*
X122569984Y-84251411D01*
X122581931Y-84254404D01*
X122593527Y-84258553D01*
X122604660Y-84263819D01*
X122615224Y-84270151D01*
X122625116Y-84277487D01*
X122634242Y-84285758D01*
X122642513Y-84294884D01*
X122649849Y-84304776D01*
X122656181Y-84315340D01*
X122661447Y-84326473D01*
X122665596Y-84338069D01*
X122668589Y-84350016D01*
X122670396Y-84362199D01*
X122671000Y-84374500D01*
X122671000Y-84625500D01*
X122670396Y-84637801D01*
X122668589Y-84649984D01*
X122665596Y-84661931D01*
X122661447Y-84673527D01*
X122656181Y-84684660D01*
X122649849Y-84695224D01*
X122642513Y-84705116D01*
X122634242Y-84714242D01*
X122625116Y-84722513D01*
X122615224Y-84729849D01*
X122604660Y-84736181D01*
X122593527Y-84741447D01*
X122581931Y-84745596D01*
X122569984Y-84748589D01*
X122557801Y-84750396D01*
X122545500Y-84751000D01*
X122234500Y-84751000D01*
X122222199Y-84750396D01*
X122210016Y-84748589D01*
X122198069Y-84745596D01*
X122186473Y-84741447D01*
X122175340Y-84736181D01*
X122164776Y-84729849D01*
X122154884Y-84722513D01*
X122145758Y-84714242D01*
X122137487Y-84705116D01*
X122130151Y-84695224D01*
X122123819Y-84684660D01*
X122118553Y-84673527D01*
X122114404Y-84661931D01*
X122111411Y-84649984D01*
X122109604Y-84637801D01*
X122109000Y-84625500D01*
X122109000Y-84374500D01*
X122109604Y-84362199D01*
X122111411Y-84350016D01*
X122114404Y-84338069D01*
X122118553Y-84326473D01*
X122123819Y-84315340D01*
X122130151Y-84304776D01*
X122137487Y-84294884D01*
X122145758Y-84285758D01*
X122154884Y-84277487D01*
X122164776Y-84270151D01*
X122175340Y-84263819D01*
X122186473Y-84258553D01*
X122198069Y-84254404D01*
X122210016Y-84251411D01*
X122222199Y-84249604D01*
X122234500Y-84249000D01*
X122545500Y-84249000D01*
X122557801Y-84249604D01*
G37*
D19*
X137680000Y-94300000D03*
X135140000Y-94300000D03*
D20*
X132600000Y-94300000D03*
D10*
G36*
X135637801Y-88339604D02*
G01*
X135649984Y-88341411D01*
X135661931Y-88344404D01*
X135673527Y-88348553D01*
X135684660Y-88353819D01*
X135695224Y-88360151D01*
X135705116Y-88367487D01*
X135714242Y-88375758D01*
X135722513Y-88384884D01*
X135729849Y-88394776D01*
X135736181Y-88405340D01*
X135741447Y-88416473D01*
X135745596Y-88428069D01*
X135748589Y-88440016D01*
X135750396Y-88452199D01*
X135751000Y-88464500D01*
X135751000Y-88775500D01*
X135750396Y-88787801D01*
X135748589Y-88799984D01*
X135745596Y-88811931D01*
X135741447Y-88823527D01*
X135736181Y-88834660D01*
X135729849Y-88845224D01*
X135722513Y-88855116D01*
X135714242Y-88864242D01*
X135705116Y-88872513D01*
X135695224Y-88879849D01*
X135684660Y-88886181D01*
X135673527Y-88891447D01*
X135661931Y-88895596D01*
X135649984Y-88898589D01*
X135637801Y-88900396D01*
X135625500Y-88901000D01*
X135374500Y-88901000D01*
X135362199Y-88900396D01*
X135350016Y-88898589D01*
X135338069Y-88895596D01*
X135326473Y-88891447D01*
X135315340Y-88886181D01*
X135304776Y-88879849D01*
X135294884Y-88872513D01*
X135285758Y-88864242D01*
X135277487Y-88855116D01*
X135270151Y-88845224D01*
X135263819Y-88834660D01*
X135258553Y-88823527D01*
X135254404Y-88811931D01*
X135251411Y-88799984D01*
X135249604Y-88787801D01*
X135249000Y-88775500D01*
X135249000Y-88464500D01*
X135249604Y-88452199D01*
X135251411Y-88440016D01*
X135254404Y-88428069D01*
X135258553Y-88416473D01*
X135263819Y-88405340D01*
X135270151Y-88394776D01*
X135277487Y-88384884D01*
X135285758Y-88375758D01*
X135294884Y-88367487D01*
X135304776Y-88360151D01*
X135315340Y-88353819D01*
X135326473Y-88348553D01*
X135338069Y-88344404D01*
X135350016Y-88341411D01*
X135362199Y-88339604D01*
X135374500Y-88339000D01*
X135625500Y-88339000D01*
X135637801Y-88339604D01*
G37*
G36*
X135637801Y-87699604D02*
G01*
X135649984Y-87701411D01*
X135661931Y-87704404D01*
X135673527Y-87708553D01*
X135684660Y-87713819D01*
X135695224Y-87720151D01*
X135705116Y-87727487D01*
X135714242Y-87735758D01*
X135722513Y-87744884D01*
X135729849Y-87754776D01*
X135736181Y-87765340D01*
X135741447Y-87776473D01*
X135745596Y-87788069D01*
X135748589Y-87800016D01*
X135750396Y-87812199D01*
X135751000Y-87824500D01*
X135751000Y-88135500D01*
X135750396Y-88147801D01*
X135748589Y-88159984D01*
X135745596Y-88171931D01*
X135741447Y-88183527D01*
X135736181Y-88194660D01*
X135729849Y-88205224D01*
X135722513Y-88215116D01*
X135714242Y-88224242D01*
X135705116Y-88232513D01*
X135695224Y-88239849D01*
X135684660Y-88246181D01*
X135673527Y-88251447D01*
X135661931Y-88255596D01*
X135649984Y-88258589D01*
X135637801Y-88260396D01*
X135625500Y-88261000D01*
X135374500Y-88261000D01*
X135362199Y-88260396D01*
X135350016Y-88258589D01*
X135338069Y-88255596D01*
X135326473Y-88251447D01*
X135315340Y-88246181D01*
X135304776Y-88239849D01*
X135294884Y-88232513D01*
X135285758Y-88224242D01*
X135277487Y-88215116D01*
X135270151Y-88205224D01*
X135263819Y-88194660D01*
X135258553Y-88183527D01*
X135254404Y-88171931D01*
X135251411Y-88159984D01*
X135249604Y-88147801D01*
X135249000Y-88135500D01*
X135249000Y-87824500D01*
X135249604Y-87812199D01*
X135251411Y-87800016D01*
X135254404Y-87788069D01*
X135258553Y-87776473D01*
X135263819Y-87765340D01*
X135270151Y-87754776D01*
X135277487Y-87744884D01*
X135285758Y-87735758D01*
X135294884Y-87727487D01*
X135304776Y-87720151D01*
X135315340Y-87713819D01*
X135326473Y-87708553D01*
X135338069Y-87704404D01*
X135350016Y-87701411D01*
X135362199Y-87699604D01*
X135374500Y-87699000D01*
X135625500Y-87699000D01*
X135637801Y-87699604D01*
G37*
G36*
X135637801Y-85999604D02*
G01*
X135649984Y-86001411D01*
X135661931Y-86004404D01*
X135673527Y-86008553D01*
X135684660Y-86013819D01*
X135695224Y-86020151D01*
X135705116Y-86027487D01*
X135714242Y-86035758D01*
X135722513Y-86044884D01*
X135729849Y-86054776D01*
X135736181Y-86065340D01*
X135741447Y-86076473D01*
X135745596Y-86088069D01*
X135748589Y-86100016D01*
X135750396Y-86112199D01*
X135751000Y-86124500D01*
X135751000Y-86435500D01*
X135750396Y-86447801D01*
X135748589Y-86459984D01*
X135745596Y-86471931D01*
X135741447Y-86483527D01*
X135736181Y-86494660D01*
X135729849Y-86505224D01*
X135722513Y-86515116D01*
X135714242Y-86524242D01*
X135705116Y-86532513D01*
X135695224Y-86539849D01*
X135684660Y-86546181D01*
X135673527Y-86551447D01*
X135661931Y-86555596D01*
X135649984Y-86558589D01*
X135637801Y-86560396D01*
X135625500Y-86561000D01*
X135374500Y-86561000D01*
X135362199Y-86560396D01*
X135350016Y-86558589D01*
X135338069Y-86555596D01*
X135326473Y-86551447D01*
X135315340Y-86546181D01*
X135304776Y-86539849D01*
X135294884Y-86532513D01*
X135285758Y-86524242D01*
X135277487Y-86515116D01*
X135270151Y-86505224D01*
X135263819Y-86494660D01*
X135258553Y-86483527D01*
X135254404Y-86471931D01*
X135251411Y-86459984D01*
X135249604Y-86447801D01*
X135249000Y-86435500D01*
X135249000Y-86124500D01*
X135249604Y-86112199D01*
X135251411Y-86100016D01*
X135254404Y-86088069D01*
X135258553Y-86076473D01*
X135263819Y-86065340D01*
X135270151Y-86054776D01*
X135277487Y-86044884D01*
X135285758Y-86035758D01*
X135294884Y-86027487D01*
X135304776Y-86020151D01*
X135315340Y-86013819D01*
X135326473Y-86008553D01*
X135338069Y-86004404D01*
X135350016Y-86001411D01*
X135362199Y-85999604D01*
X135374500Y-85999000D01*
X135625500Y-85999000D01*
X135637801Y-85999604D01*
G37*
G36*
X135637801Y-86639604D02*
G01*
X135649984Y-86641411D01*
X135661931Y-86644404D01*
X135673527Y-86648553D01*
X135684660Y-86653819D01*
X135695224Y-86660151D01*
X135705116Y-86667487D01*
X135714242Y-86675758D01*
X135722513Y-86684884D01*
X135729849Y-86694776D01*
X135736181Y-86705340D01*
X135741447Y-86716473D01*
X135745596Y-86728069D01*
X135748589Y-86740016D01*
X135750396Y-86752199D01*
X135751000Y-86764500D01*
X135751000Y-87075500D01*
X135750396Y-87087801D01*
X135748589Y-87099984D01*
X135745596Y-87111931D01*
X135741447Y-87123527D01*
X135736181Y-87134660D01*
X135729849Y-87145224D01*
X135722513Y-87155116D01*
X135714242Y-87164242D01*
X135705116Y-87172513D01*
X135695224Y-87179849D01*
X135684660Y-87186181D01*
X135673527Y-87191447D01*
X135661931Y-87195596D01*
X135649984Y-87198589D01*
X135637801Y-87200396D01*
X135625500Y-87201000D01*
X135374500Y-87201000D01*
X135362199Y-87200396D01*
X135350016Y-87198589D01*
X135338069Y-87195596D01*
X135326473Y-87191447D01*
X135315340Y-87186181D01*
X135304776Y-87179849D01*
X135294884Y-87172513D01*
X135285758Y-87164242D01*
X135277487Y-87155116D01*
X135270151Y-87145224D01*
X135263819Y-87134660D01*
X135258553Y-87123527D01*
X135254404Y-87111931D01*
X135251411Y-87099984D01*
X135249604Y-87087801D01*
X135249000Y-87075500D01*
X135249000Y-86764500D01*
X135249604Y-86752199D01*
X135251411Y-86740016D01*
X135254404Y-86728069D01*
X135258553Y-86716473D01*
X135263819Y-86705340D01*
X135270151Y-86694776D01*
X135277487Y-86684884D01*
X135285758Y-86675758D01*
X135294884Y-86667487D01*
X135304776Y-86660151D01*
X135315340Y-86653819D01*
X135326473Y-86648553D01*
X135338069Y-86644404D01*
X135350016Y-86641411D01*
X135362199Y-86639604D01*
X135374500Y-86639000D01*
X135625500Y-86639000D01*
X135637801Y-86639604D01*
G37*
G36*
X138357812Y-87950298D02*
G01*
X138383984Y-87954181D01*
X138409650Y-87960610D01*
X138434562Y-87969523D01*
X138458481Y-87980836D01*
X138481175Y-87994438D01*
X138502427Y-88010200D01*
X138522032Y-88027968D01*
X138539800Y-88047573D01*
X138555562Y-88068825D01*
X138569164Y-88091519D01*
X138580477Y-88115438D01*
X138589390Y-88140350D01*
X138595819Y-88166016D01*
X138599702Y-88192188D01*
X138601000Y-88218615D01*
X138601000Y-89106385D01*
X138599702Y-89132812D01*
X138595819Y-89158984D01*
X138589390Y-89184650D01*
X138580477Y-89209562D01*
X138569164Y-89233481D01*
X138555562Y-89256175D01*
X138539800Y-89277427D01*
X138522032Y-89297032D01*
X138502427Y-89314800D01*
X138481175Y-89330562D01*
X138458481Y-89344164D01*
X138434562Y-89355477D01*
X138409650Y-89364390D01*
X138383984Y-89370819D01*
X138357812Y-89374702D01*
X138331385Y-89376000D01*
X137468615Y-89376000D01*
X137442188Y-89374702D01*
X137416016Y-89370819D01*
X137390350Y-89364390D01*
X137365438Y-89355477D01*
X137341519Y-89344164D01*
X137318825Y-89330562D01*
X137297573Y-89314800D01*
X137277968Y-89297032D01*
X137260200Y-89277427D01*
X137244438Y-89256175D01*
X137230836Y-89233481D01*
X137219523Y-89209562D01*
X137210610Y-89184650D01*
X137204181Y-89158984D01*
X137200298Y-89132812D01*
X137199000Y-89106385D01*
X137199000Y-88218615D01*
X137200298Y-88192188D01*
X137204181Y-88166016D01*
X137210610Y-88140350D01*
X137219523Y-88115438D01*
X137230836Y-88091519D01*
X137244438Y-88068825D01*
X137260200Y-88047573D01*
X137277968Y-88027968D01*
X137297573Y-88010200D01*
X137318825Y-87994438D01*
X137341519Y-87980836D01*
X137365438Y-87969523D01*
X137390350Y-87960610D01*
X137416016Y-87954181D01*
X137442188Y-87950298D01*
X137468615Y-87949000D01*
X138331385Y-87949000D01*
X138357812Y-87950298D01*
G37*
G36*
X138357812Y-86025298D02*
G01*
X138383984Y-86029181D01*
X138409650Y-86035610D01*
X138434562Y-86044523D01*
X138458481Y-86055836D01*
X138481175Y-86069438D01*
X138502427Y-86085200D01*
X138522032Y-86102968D01*
X138539800Y-86122573D01*
X138555562Y-86143825D01*
X138569164Y-86166519D01*
X138580477Y-86190438D01*
X138589390Y-86215350D01*
X138595819Y-86241016D01*
X138599702Y-86267188D01*
X138601000Y-86293615D01*
X138601000Y-87181385D01*
X138599702Y-87207812D01*
X138595819Y-87233984D01*
X138589390Y-87259650D01*
X138580477Y-87284562D01*
X138569164Y-87308481D01*
X138555562Y-87331175D01*
X138539800Y-87352427D01*
X138522032Y-87372032D01*
X138502427Y-87389800D01*
X138481175Y-87405562D01*
X138458481Y-87419164D01*
X138434562Y-87430477D01*
X138409650Y-87439390D01*
X138383984Y-87445819D01*
X138357812Y-87449702D01*
X138331385Y-87451000D01*
X137468615Y-87451000D01*
X137442188Y-87449702D01*
X137416016Y-87445819D01*
X137390350Y-87439390D01*
X137365438Y-87430477D01*
X137341519Y-87419164D01*
X137318825Y-87405562D01*
X137297573Y-87389800D01*
X137277968Y-87372032D01*
X137260200Y-87352427D01*
X137244438Y-87331175D01*
X137230836Y-87308481D01*
X137219523Y-87284562D01*
X137210610Y-87259650D01*
X137204181Y-87233984D01*
X137200298Y-87207812D01*
X137199000Y-87181385D01*
X137199000Y-86293615D01*
X137200298Y-86267188D01*
X137204181Y-86241016D01*
X137210610Y-86215350D01*
X137219523Y-86190438D01*
X137230836Y-86166519D01*
X137244438Y-86143825D01*
X137260200Y-86122573D01*
X137277968Y-86102968D01*
X137297573Y-86085200D01*
X137318825Y-86069438D01*
X137341519Y-86055836D01*
X137365438Y-86044523D01*
X137390350Y-86035610D01*
X137416016Y-86029181D01*
X137442188Y-86025298D01*
X137468615Y-86024000D01*
X138331385Y-86024000D01*
X138357812Y-86025298D01*
G37*
G36*
X138257812Y-81750298D02*
G01*
X138283984Y-81754181D01*
X138309650Y-81760610D01*
X138334562Y-81769523D01*
X138358481Y-81780836D01*
X138381175Y-81794438D01*
X138402427Y-81810200D01*
X138422032Y-81827968D01*
X138439800Y-81847573D01*
X138455562Y-81868825D01*
X138469164Y-81891519D01*
X138480477Y-81915438D01*
X138489390Y-81940350D01*
X138495819Y-81966016D01*
X138499702Y-81992188D01*
X138501000Y-82018615D01*
X138501000Y-82906385D01*
X138499702Y-82932812D01*
X138495819Y-82958984D01*
X138489390Y-82984650D01*
X138480477Y-83009562D01*
X138469164Y-83033481D01*
X138455562Y-83056175D01*
X138439800Y-83077427D01*
X138422032Y-83097032D01*
X138402427Y-83114800D01*
X138381175Y-83130562D01*
X138358481Y-83144164D01*
X138334562Y-83155477D01*
X138309650Y-83164390D01*
X138283984Y-83170819D01*
X138257812Y-83174702D01*
X138231385Y-83176000D01*
X137368615Y-83176000D01*
X137342188Y-83174702D01*
X137316016Y-83170819D01*
X137290350Y-83164390D01*
X137265438Y-83155477D01*
X137241519Y-83144164D01*
X137218825Y-83130562D01*
X137197573Y-83114800D01*
X137177968Y-83097032D01*
X137160200Y-83077427D01*
X137144438Y-83056175D01*
X137130836Y-83033481D01*
X137119523Y-83009562D01*
X137110610Y-82984650D01*
X137104181Y-82958984D01*
X137100298Y-82932812D01*
X137099000Y-82906385D01*
X137099000Y-82018615D01*
X137100298Y-81992188D01*
X137104181Y-81966016D01*
X137110610Y-81940350D01*
X137119523Y-81915438D01*
X137130836Y-81891519D01*
X137144438Y-81868825D01*
X137160200Y-81847573D01*
X137177968Y-81827968D01*
X137197573Y-81810200D01*
X137218825Y-81794438D01*
X137241519Y-81780836D01*
X137265438Y-81769523D01*
X137290350Y-81760610D01*
X137316016Y-81754181D01*
X137342188Y-81750298D01*
X137368615Y-81749000D01*
X138231385Y-81749000D01*
X138257812Y-81750298D01*
G37*
G36*
X138257812Y-79825298D02*
G01*
X138283984Y-79829181D01*
X138309650Y-79835610D01*
X138334562Y-79844523D01*
X138358481Y-79855836D01*
X138381175Y-79869438D01*
X138402427Y-79885200D01*
X138422032Y-79902968D01*
X138439800Y-79922573D01*
X138455562Y-79943825D01*
X138469164Y-79966519D01*
X138480477Y-79990438D01*
X138489390Y-80015350D01*
X138495819Y-80041016D01*
X138499702Y-80067188D01*
X138501000Y-80093615D01*
X138501000Y-80981385D01*
X138499702Y-81007812D01*
X138495819Y-81033984D01*
X138489390Y-81059650D01*
X138480477Y-81084562D01*
X138469164Y-81108481D01*
X138455562Y-81131175D01*
X138439800Y-81152427D01*
X138422032Y-81172032D01*
X138402427Y-81189800D01*
X138381175Y-81205562D01*
X138358481Y-81219164D01*
X138334562Y-81230477D01*
X138309650Y-81239390D01*
X138283984Y-81245819D01*
X138257812Y-81249702D01*
X138231385Y-81251000D01*
X137368615Y-81251000D01*
X137342188Y-81249702D01*
X137316016Y-81245819D01*
X137290350Y-81239390D01*
X137265438Y-81230477D01*
X137241519Y-81219164D01*
X137218825Y-81205562D01*
X137197573Y-81189800D01*
X137177968Y-81172032D01*
X137160200Y-81152427D01*
X137144438Y-81131175D01*
X137130836Y-81108481D01*
X137119523Y-81084562D01*
X137110610Y-81059650D01*
X137104181Y-81033984D01*
X137100298Y-81007812D01*
X137099000Y-80981385D01*
X137099000Y-80093615D01*
X137100298Y-80067188D01*
X137104181Y-80041016D01*
X137110610Y-80015350D01*
X137119523Y-79990438D01*
X137130836Y-79966519D01*
X137144438Y-79943825D01*
X137160200Y-79922573D01*
X137177968Y-79902968D01*
X137197573Y-79885200D01*
X137218825Y-79869438D01*
X137241519Y-79855836D01*
X137265438Y-79844523D01*
X137290350Y-79835610D01*
X137316016Y-79829181D01*
X137342188Y-79825298D01*
X137368615Y-79824000D01*
X138231385Y-79824000D01*
X138257812Y-79825298D01*
G37*
D21*
X116950000Y-91600000D03*
X114950000Y-92550000D03*
X114950000Y-90650000D03*
D22*
X117000000Y-88500000D03*
X114800000Y-88500000D03*
D21*
X109750000Y-84400000D03*
X107750000Y-85350000D03*
X107750000Y-83450000D03*
D10*
G36*
X113517702Y-75639845D02*
G01*
X113534738Y-75642372D01*
X113551445Y-75646557D01*
X113567661Y-75652359D01*
X113583230Y-75659723D01*
X113598003Y-75668577D01*
X113611836Y-75678837D01*
X113624597Y-75690403D01*
X113636163Y-75703164D01*
X113646423Y-75716997D01*
X113655277Y-75731770D01*
X113662641Y-75747339D01*
X113668443Y-75763555D01*
X113672628Y-75780262D01*
X113675155Y-75797298D01*
X113676000Y-75814500D01*
X113676000Y-76165500D01*
X113675155Y-76182702D01*
X113672628Y-76199738D01*
X113668443Y-76216445D01*
X113662641Y-76232661D01*
X113655277Y-76248230D01*
X113646423Y-76263003D01*
X113636163Y-76276836D01*
X113624597Y-76289597D01*
X113611836Y-76301163D01*
X113598003Y-76311423D01*
X113583230Y-76320277D01*
X113567661Y-76327641D01*
X113551445Y-76333443D01*
X113534738Y-76337628D01*
X113517702Y-76340155D01*
X113500500Y-76341000D01*
X111799500Y-76341000D01*
X111782298Y-76340155D01*
X111765262Y-76337628D01*
X111748555Y-76333443D01*
X111732339Y-76327641D01*
X111716770Y-76320277D01*
X111701997Y-76311423D01*
X111688164Y-76301163D01*
X111675403Y-76289597D01*
X111663837Y-76276836D01*
X111653577Y-76263003D01*
X111644723Y-76248230D01*
X111637359Y-76232661D01*
X111631557Y-76216445D01*
X111627372Y-76199738D01*
X111624845Y-76182702D01*
X111624000Y-76165500D01*
X111624000Y-75814500D01*
X111624845Y-75797298D01*
X111627372Y-75780262D01*
X111631557Y-75763555D01*
X111637359Y-75747339D01*
X111644723Y-75731770D01*
X111653577Y-75716997D01*
X111663837Y-75703164D01*
X111675403Y-75690403D01*
X111688164Y-75678837D01*
X111701997Y-75668577D01*
X111716770Y-75659723D01*
X111732339Y-75652359D01*
X111748555Y-75646557D01*
X111765262Y-75642372D01*
X111782298Y-75639845D01*
X111799500Y-75639000D01*
X113500500Y-75639000D01*
X113517702Y-75639845D01*
G37*
G36*
X113517702Y-74369845D02*
G01*
X113534738Y-74372372D01*
X113551445Y-74376557D01*
X113567661Y-74382359D01*
X113583230Y-74389723D01*
X113598003Y-74398577D01*
X113611836Y-74408837D01*
X113624597Y-74420403D01*
X113636163Y-74433164D01*
X113646423Y-74446997D01*
X113655277Y-74461770D01*
X113662641Y-74477339D01*
X113668443Y-74493555D01*
X113672628Y-74510262D01*
X113675155Y-74527298D01*
X113676000Y-74544500D01*
X113676000Y-74895500D01*
X113675155Y-74912702D01*
X113672628Y-74929738D01*
X113668443Y-74946445D01*
X113662641Y-74962661D01*
X113655277Y-74978230D01*
X113646423Y-74993003D01*
X113636163Y-75006836D01*
X113624597Y-75019597D01*
X113611836Y-75031163D01*
X113598003Y-75041423D01*
X113583230Y-75050277D01*
X113567661Y-75057641D01*
X113551445Y-75063443D01*
X113534738Y-75067628D01*
X113517702Y-75070155D01*
X113500500Y-75071000D01*
X111799500Y-75071000D01*
X111782298Y-75070155D01*
X111765262Y-75067628D01*
X111748555Y-75063443D01*
X111732339Y-75057641D01*
X111716770Y-75050277D01*
X111701997Y-75041423D01*
X111688164Y-75031163D01*
X111675403Y-75019597D01*
X111663837Y-75006836D01*
X111653577Y-74993003D01*
X111644723Y-74978230D01*
X111637359Y-74962661D01*
X111631557Y-74946445D01*
X111627372Y-74929738D01*
X111624845Y-74912702D01*
X111624000Y-74895500D01*
X111624000Y-74544500D01*
X111624845Y-74527298D01*
X111627372Y-74510262D01*
X111631557Y-74493555D01*
X111637359Y-74477339D01*
X111644723Y-74461770D01*
X111653577Y-74446997D01*
X111663837Y-74433164D01*
X111675403Y-74420403D01*
X111688164Y-74408837D01*
X111701997Y-74398577D01*
X111716770Y-74389723D01*
X111732339Y-74382359D01*
X111748555Y-74376557D01*
X111765262Y-74372372D01*
X111782298Y-74369845D01*
X111799500Y-74369000D01*
X113500500Y-74369000D01*
X113517702Y-74369845D01*
G37*
G36*
X113517702Y-73099845D02*
G01*
X113534738Y-73102372D01*
X113551445Y-73106557D01*
X113567661Y-73112359D01*
X113583230Y-73119723D01*
X113598003Y-73128577D01*
X113611836Y-73138837D01*
X113624597Y-73150403D01*
X113636163Y-73163164D01*
X113646423Y-73176997D01*
X113655277Y-73191770D01*
X113662641Y-73207339D01*
X113668443Y-73223555D01*
X113672628Y-73240262D01*
X113675155Y-73257298D01*
X113676000Y-73274500D01*
X113676000Y-73625500D01*
X113675155Y-73642702D01*
X113672628Y-73659738D01*
X113668443Y-73676445D01*
X113662641Y-73692661D01*
X113655277Y-73708230D01*
X113646423Y-73723003D01*
X113636163Y-73736836D01*
X113624597Y-73749597D01*
X113611836Y-73761163D01*
X113598003Y-73771423D01*
X113583230Y-73780277D01*
X113567661Y-73787641D01*
X113551445Y-73793443D01*
X113534738Y-73797628D01*
X113517702Y-73800155D01*
X113500500Y-73801000D01*
X111799500Y-73801000D01*
X111782298Y-73800155D01*
X111765262Y-73797628D01*
X111748555Y-73793443D01*
X111732339Y-73787641D01*
X111716770Y-73780277D01*
X111701997Y-73771423D01*
X111688164Y-73761163D01*
X111675403Y-73749597D01*
X111663837Y-73736836D01*
X111653577Y-73723003D01*
X111644723Y-73708230D01*
X111637359Y-73692661D01*
X111631557Y-73676445D01*
X111627372Y-73659738D01*
X111624845Y-73642702D01*
X111624000Y-73625500D01*
X111624000Y-73274500D01*
X111624845Y-73257298D01*
X111627372Y-73240262D01*
X111631557Y-73223555D01*
X111637359Y-73207339D01*
X111644723Y-73191770D01*
X111653577Y-73176997D01*
X111663837Y-73163164D01*
X111675403Y-73150403D01*
X111688164Y-73138837D01*
X111701997Y-73128577D01*
X111716770Y-73119723D01*
X111732339Y-73112359D01*
X111748555Y-73106557D01*
X111765262Y-73102372D01*
X111782298Y-73099845D01*
X111799500Y-73099000D01*
X113500500Y-73099000D01*
X113517702Y-73099845D01*
G37*
G36*
X113517702Y-71829845D02*
G01*
X113534738Y-71832372D01*
X113551445Y-71836557D01*
X113567661Y-71842359D01*
X113583230Y-71849723D01*
X113598003Y-71858577D01*
X113611836Y-71868837D01*
X113624597Y-71880403D01*
X113636163Y-71893164D01*
X113646423Y-71906997D01*
X113655277Y-71921770D01*
X113662641Y-71937339D01*
X113668443Y-71953555D01*
X113672628Y-71970262D01*
X113675155Y-71987298D01*
X113676000Y-72004500D01*
X113676000Y-72355500D01*
X113675155Y-72372702D01*
X113672628Y-72389738D01*
X113668443Y-72406445D01*
X113662641Y-72422661D01*
X113655277Y-72438230D01*
X113646423Y-72453003D01*
X113636163Y-72466836D01*
X113624597Y-72479597D01*
X113611836Y-72491163D01*
X113598003Y-72501423D01*
X113583230Y-72510277D01*
X113567661Y-72517641D01*
X113551445Y-72523443D01*
X113534738Y-72527628D01*
X113517702Y-72530155D01*
X113500500Y-72531000D01*
X111799500Y-72531000D01*
X111782298Y-72530155D01*
X111765262Y-72527628D01*
X111748555Y-72523443D01*
X111732339Y-72517641D01*
X111716770Y-72510277D01*
X111701997Y-72501423D01*
X111688164Y-72491163D01*
X111675403Y-72479597D01*
X111663837Y-72466836D01*
X111653577Y-72453003D01*
X111644723Y-72438230D01*
X111637359Y-72422661D01*
X111631557Y-72406445D01*
X111627372Y-72389738D01*
X111624845Y-72372702D01*
X111624000Y-72355500D01*
X111624000Y-72004500D01*
X111624845Y-71987298D01*
X111627372Y-71970262D01*
X111631557Y-71953555D01*
X111637359Y-71937339D01*
X111644723Y-71921770D01*
X111653577Y-71906997D01*
X111663837Y-71893164D01*
X111675403Y-71880403D01*
X111688164Y-71868837D01*
X111701997Y-71858577D01*
X111716770Y-71849723D01*
X111732339Y-71842359D01*
X111748555Y-71836557D01*
X111765262Y-71832372D01*
X111782298Y-71829845D01*
X111799500Y-71829000D01*
X113500500Y-71829000D01*
X113517702Y-71829845D01*
G37*
G36*
X118467702Y-71829845D02*
G01*
X118484738Y-71832372D01*
X118501445Y-71836557D01*
X118517661Y-71842359D01*
X118533230Y-71849723D01*
X118548003Y-71858577D01*
X118561836Y-71868837D01*
X118574597Y-71880403D01*
X118586163Y-71893164D01*
X118596423Y-71906997D01*
X118605277Y-71921770D01*
X118612641Y-71937339D01*
X118618443Y-71953555D01*
X118622628Y-71970262D01*
X118625155Y-71987298D01*
X118626000Y-72004500D01*
X118626000Y-72355500D01*
X118625155Y-72372702D01*
X118622628Y-72389738D01*
X118618443Y-72406445D01*
X118612641Y-72422661D01*
X118605277Y-72438230D01*
X118596423Y-72453003D01*
X118586163Y-72466836D01*
X118574597Y-72479597D01*
X118561836Y-72491163D01*
X118548003Y-72501423D01*
X118533230Y-72510277D01*
X118517661Y-72517641D01*
X118501445Y-72523443D01*
X118484738Y-72527628D01*
X118467702Y-72530155D01*
X118450500Y-72531000D01*
X116749500Y-72531000D01*
X116732298Y-72530155D01*
X116715262Y-72527628D01*
X116698555Y-72523443D01*
X116682339Y-72517641D01*
X116666770Y-72510277D01*
X116651997Y-72501423D01*
X116638164Y-72491163D01*
X116625403Y-72479597D01*
X116613837Y-72466836D01*
X116603577Y-72453003D01*
X116594723Y-72438230D01*
X116587359Y-72422661D01*
X116581557Y-72406445D01*
X116577372Y-72389738D01*
X116574845Y-72372702D01*
X116574000Y-72355500D01*
X116574000Y-72004500D01*
X116574845Y-71987298D01*
X116577372Y-71970262D01*
X116581557Y-71953555D01*
X116587359Y-71937339D01*
X116594723Y-71921770D01*
X116603577Y-71906997D01*
X116613837Y-71893164D01*
X116625403Y-71880403D01*
X116638164Y-71868837D01*
X116651997Y-71858577D01*
X116666770Y-71849723D01*
X116682339Y-71842359D01*
X116698555Y-71836557D01*
X116715262Y-71832372D01*
X116732298Y-71829845D01*
X116749500Y-71829000D01*
X118450500Y-71829000D01*
X118467702Y-71829845D01*
G37*
G36*
X118467702Y-73099845D02*
G01*
X118484738Y-73102372D01*
X118501445Y-73106557D01*
X118517661Y-73112359D01*
X118533230Y-73119723D01*
X118548003Y-73128577D01*
X118561836Y-73138837D01*
X118574597Y-73150403D01*
X118586163Y-73163164D01*
X118596423Y-73176997D01*
X118605277Y-73191770D01*
X118612641Y-73207339D01*
X118618443Y-73223555D01*
X118622628Y-73240262D01*
X118625155Y-73257298D01*
X118626000Y-73274500D01*
X118626000Y-73625500D01*
X118625155Y-73642702D01*
X118622628Y-73659738D01*
X118618443Y-73676445D01*
X118612641Y-73692661D01*
X118605277Y-73708230D01*
X118596423Y-73723003D01*
X118586163Y-73736836D01*
X118574597Y-73749597D01*
X118561836Y-73761163D01*
X118548003Y-73771423D01*
X118533230Y-73780277D01*
X118517661Y-73787641D01*
X118501445Y-73793443D01*
X118484738Y-73797628D01*
X118467702Y-73800155D01*
X118450500Y-73801000D01*
X116749500Y-73801000D01*
X116732298Y-73800155D01*
X116715262Y-73797628D01*
X116698555Y-73793443D01*
X116682339Y-73787641D01*
X116666770Y-73780277D01*
X116651997Y-73771423D01*
X116638164Y-73761163D01*
X116625403Y-73749597D01*
X116613837Y-73736836D01*
X116603577Y-73723003D01*
X116594723Y-73708230D01*
X116587359Y-73692661D01*
X116581557Y-73676445D01*
X116577372Y-73659738D01*
X116574845Y-73642702D01*
X116574000Y-73625500D01*
X116574000Y-73274500D01*
X116574845Y-73257298D01*
X116577372Y-73240262D01*
X116581557Y-73223555D01*
X116587359Y-73207339D01*
X116594723Y-73191770D01*
X116603577Y-73176997D01*
X116613837Y-73163164D01*
X116625403Y-73150403D01*
X116638164Y-73138837D01*
X116651997Y-73128577D01*
X116666770Y-73119723D01*
X116682339Y-73112359D01*
X116698555Y-73106557D01*
X116715262Y-73102372D01*
X116732298Y-73099845D01*
X116749500Y-73099000D01*
X118450500Y-73099000D01*
X118467702Y-73099845D01*
G37*
G36*
X118467702Y-74369845D02*
G01*
X118484738Y-74372372D01*
X118501445Y-74376557D01*
X118517661Y-74382359D01*
X118533230Y-74389723D01*
X118548003Y-74398577D01*
X118561836Y-74408837D01*
X118574597Y-74420403D01*
X118586163Y-74433164D01*
X118596423Y-74446997D01*
X118605277Y-74461770D01*
X118612641Y-74477339D01*
X118618443Y-74493555D01*
X118622628Y-74510262D01*
X118625155Y-74527298D01*
X118626000Y-74544500D01*
X118626000Y-74895500D01*
X118625155Y-74912702D01*
X118622628Y-74929738D01*
X118618443Y-74946445D01*
X118612641Y-74962661D01*
X118605277Y-74978230D01*
X118596423Y-74993003D01*
X118586163Y-75006836D01*
X118574597Y-75019597D01*
X118561836Y-75031163D01*
X118548003Y-75041423D01*
X118533230Y-75050277D01*
X118517661Y-75057641D01*
X118501445Y-75063443D01*
X118484738Y-75067628D01*
X118467702Y-75070155D01*
X118450500Y-75071000D01*
X116749500Y-75071000D01*
X116732298Y-75070155D01*
X116715262Y-75067628D01*
X116698555Y-75063443D01*
X116682339Y-75057641D01*
X116666770Y-75050277D01*
X116651997Y-75041423D01*
X116638164Y-75031163D01*
X116625403Y-75019597D01*
X116613837Y-75006836D01*
X116603577Y-74993003D01*
X116594723Y-74978230D01*
X116587359Y-74962661D01*
X116581557Y-74946445D01*
X116577372Y-74929738D01*
X116574845Y-74912702D01*
X116574000Y-74895500D01*
X116574000Y-74544500D01*
X116574845Y-74527298D01*
X116577372Y-74510262D01*
X116581557Y-74493555D01*
X116587359Y-74477339D01*
X116594723Y-74461770D01*
X116603577Y-74446997D01*
X116613837Y-74433164D01*
X116625403Y-74420403D01*
X116638164Y-74408837D01*
X116651997Y-74398577D01*
X116666770Y-74389723D01*
X116682339Y-74382359D01*
X116698555Y-74376557D01*
X116715262Y-74372372D01*
X116732298Y-74369845D01*
X116749500Y-74369000D01*
X118450500Y-74369000D01*
X118467702Y-74369845D01*
G37*
G36*
X118467702Y-75639845D02*
G01*
X118484738Y-75642372D01*
X118501445Y-75646557D01*
X118517661Y-75652359D01*
X118533230Y-75659723D01*
X118548003Y-75668577D01*
X118561836Y-75678837D01*
X118574597Y-75690403D01*
X118586163Y-75703164D01*
X118596423Y-75716997D01*
X118605277Y-75731770D01*
X118612641Y-75747339D01*
X118618443Y-75763555D01*
X118622628Y-75780262D01*
X118625155Y-75797298D01*
X118626000Y-75814500D01*
X118626000Y-76165500D01*
X118625155Y-76182702D01*
X118622628Y-76199738D01*
X118618443Y-76216445D01*
X118612641Y-76232661D01*
X118605277Y-76248230D01*
X118596423Y-76263003D01*
X118586163Y-76276836D01*
X118574597Y-76289597D01*
X118561836Y-76301163D01*
X118548003Y-76311423D01*
X118533230Y-76320277D01*
X118517661Y-76327641D01*
X118501445Y-76333443D01*
X118484738Y-76337628D01*
X118467702Y-76340155D01*
X118450500Y-76341000D01*
X116749500Y-76341000D01*
X116732298Y-76340155D01*
X116715262Y-76337628D01*
X116698555Y-76333443D01*
X116682339Y-76327641D01*
X116666770Y-76320277D01*
X116651997Y-76311423D01*
X116638164Y-76301163D01*
X116625403Y-76289597D01*
X116613837Y-76276836D01*
X116603577Y-76263003D01*
X116594723Y-76248230D01*
X116587359Y-76232661D01*
X116581557Y-76216445D01*
X116577372Y-76199738D01*
X116574845Y-76182702D01*
X116574000Y-76165500D01*
X116574000Y-75814500D01*
X116574845Y-75797298D01*
X116577372Y-75780262D01*
X116581557Y-75763555D01*
X116587359Y-75747339D01*
X116594723Y-75731770D01*
X116603577Y-75716997D01*
X116613837Y-75703164D01*
X116625403Y-75690403D01*
X116638164Y-75678837D01*
X116651997Y-75668577D01*
X116666770Y-75659723D01*
X116682339Y-75652359D01*
X116698555Y-75646557D01*
X116715262Y-75642372D01*
X116732298Y-75639845D01*
X116749500Y-75639000D01*
X118450500Y-75639000D01*
X118467702Y-75639845D01*
G37*
D23*
X109800000Y-76600000D03*
X106830000Y-76600000D03*
D22*
X107500000Y-71700000D03*
X107500000Y-73900000D03*
D10*
G36*
X132137801Y-91139604D02*
G01*
X132149984Y-91141411D01*
X132161931Y-91144404D01*
X132173527Y-91148553D01*
X132184660Y-91153819D01*
X132195224Y-91160151D01*
X132205116Y-91167487D01*
X132214242Y-91175758D01*
X132222513Y-91184884D01*
X132229849Y-91194776D01*
X132236181Y-91205340D01*
X132241447Y-91216473D01*
X132245596Y-91228069D01*
X132248589Y-91240016D01*
X132250396Y-91252199D01*
X132251000Y-91264500D01*
X132251000Y-91575500D01*
X132250396Y-91587801D01*
X132248589Y-91599984D01*
X132245596Y-91611931D01*
X132241447Y-91623527D01*
X132236181Y-91634660D01*
X132229849Y-91645224D01*
X132222513Y-91655116D01*
X132214242Y-91664242D01*
X132205116Y-91672513D01*
X132195224Y-91679849D01*
X132184660Y-91686181D01*
X132173527Y-91691447D01*
X132161931Y-91695596D01*
X132149984Y-91698589D01*
X132137801Y-91700396D01*
X132125500Y-91701000D01*
X131874500Y-91701000D01*
X131862199Y-91700396D01*
X131850016Y-91698589D01*
X131838069Y-91695596D01*
X131826473Y-91691447D01*
X131815340Y-91686181D01*
X131804776Y-91679849D01*
X131794884Y-91672513D01*
X131785758Y-91664242D01*
X131777487Y-91655116D01*
X131770151Y-91645224D01*
X131763819Y-91634660D01*
X131758553Y-91623527D01*
X131754404Y-91611931D01*
X131751411Y-91599984D01*
X131749604Y-91587801D01*
X131749000Y-91575500D01*
X131749000Y-91264500D01*
X131749604Y-91252199D01*
X131751411Y-91240016D01*
X131754404Y-91228069D01*
X131758553Y-91216473D01*
X131763819Y-91205340D01*
X131770151Y-91194776D01*
X131777487Y-91184884D01*
X131785758Y-91175758D01*
X131794884Y-91167487D01*
X131804776Y-91160151D01*
X131815340Y-91153819D01*
X131826473Y-91148553D01*
X131838069Y-91144404D01*
X131850016Y-91141411D01*
X131862199Y-91139604D01*
X131874500Y-91139000D01*
X132125500Y-91139000D01*
X132137801Y-91139604D01*
G37*
G36*
X132137801Y-90499604D02*
G01*
X132149984Y-90501411D01*
X132161931Y-90504404D01*
X132173527Y-90508553D01*
X132184660Y-90513819D01*
X132195224Y-90520151D01*
X132205116Y-90527487D01*
X132214242Y-90535758D01*
X132222513Y-90544884D01*
X132229849Y-90554776D01*
X132236181Y-90565340D01*
X132241447Y-90576473D01*
X132245596Y-90588069D01*
X132248589Y-90600016D01*
X132250396Y-90612199D01*
X132251000Y-90624500D01*
X132251000Y-90935500D01*
X132250396Y-90947801D01*
X132248589Y-90959984D01*
X132245596Y-90971931D01*
X132241447Y-90983527D01*
X132236181Y-90994660D01*
X132229849Y-91005224D01*
X132222513Y-91015116D01*
X132214242Y-91024242D01*
X132205116Y-91032513D01*
X132195224Y-91039849D01*
X132184660Y-91046181D01*
X132173527Y-91051447D01*
X132161931Y-91055596D01*
X132149984Y-91058589D01*
X132137801Y-91060396D01*
X132125500Y-91061000D01*
X131874500Y-91061000D01*
X131862199Y-91060396D01*
X131850016Y-91058589D01*
X131838069Y-91055596D01*
X131826473Y-91051447D01*
X131815340Y-91046181D01*
X131804776Y-91039849D01*
X131794884Y-91032513D01*
X131785758Y-91024242D01*
X131777487Y-91015116D01*
X131770151Y-91005224D01*
X131763819Y-90994660D01*
X131758553Y-90983527D01*
X131754404Y-90971931D01*
X131751411Y-90959984D01*
X131749604Y-90947801D01*
X131749000Y-90935500D01*
X131749000Y-90624500D01*
X131749604Y-90612199D01*
X131751411Y-90600016D01*
X131754404Y-90588069D01*
X131758553Y-90576473D01*
X131763819Y-90565340D01*
X131770151Y-90554776D01*
X131777487Y-90544884D01*
X131785758Y-90535758D01*
X131794884Y-90527487D01*
X131804776Y-90520151D01*
X131815340Y-90513819D01*
X131826473Y-90508553D01*
X131838069Y-90504404D01*
X131850016Y-90501411D01*
X131862199Y-90499604D01*
X131874500Y-90499000D01*
X132125500Y-90499000D01*
X132137801Y-90499604D01*
G37*
G36*
X108187801Y-92949604D02*
G01*
X108199984Y-92951411D01*
X108211931Y-92954404D01*
X108223527Y-92958553D01*
X108234660Y-92963819D01*
X108245224Y-92970151D01*
X108255116Y-92977487D01*
X108264242Y-92985758D01*
X108272513Y-92994884D01*
X108279849Y-93004776D01*
X108286181Y-93015340D01*
X108291447Y-93026473D01*
X108295596Y-93038069D01*
X108298589Y-93050016D01*
X108300396Y-93062199D01*
X108301000Y-93074500D01*
X108301000Y-93325500D01*
X108300396Y-93337801D01*
X108298589Y-93349984D01*
X108295596Y-93361931D01*
X108291447Y-93373527D01*
X108286181Y-93384660D01*
X108279849Y-93395224D01*
X108272513Y-93405116D01*
X108264242Y-93414242D01*
X108255116Y-93422513D01*
X108245224Y-93429849D01*
X108234660Y-93436181D01*
X108223527Y-93441447D01*
X108211931Y-93445596D01*
X108199984Y-93448589D01*
X108187801Y-93450396D01*
X108175500Y-93451000D01*
X107864500Y-93451000D01*
X107852199Y-93450396D01*
X107840016Y-93448589D01*
X107828069Y-93445596D01*
X107816473Y-93441447D01*
X107805340Y-93436181D01*
X107794776Y-93429849D01*
X107784884Y-93422513D01*
X107775758Y-93414242D01*
X107767487Y-93405116D01*
X107760151Y-93395224D01*
X107753819Y-93384660D01*
X107748553Y-93373527D01*
X107744404Y-93361931D01*
X107741411Y-93349984D01*
X107739604Y-93337801D01*
X107739000Y-93325500D01*
X107739000Y-93074500D01*
X107739604Y-93062199D01*
X107741411Y-93050016D01*
X107744404Y-93038069D01*
X107748553Y-93026473D01*
X107753819Y-93015340D01*
X107760151Y-93004776D01*
X107767487Y-92994884D01*
X107775758Y-92985758D01*
X107784884Y-92977487D01*
X107794776Y-92970151D01*
X107805340Y-92963819D01*
X107816473Y-92958553D01*
X107828069Y-92954404D01*
X107840016Y-92951411D01*
X107852199Y-92949604D01*
X107864500Y-92949000D01*
X108175500Y-92949000D01*
X108187801Y-92949604D01*
G37*
G36*
X107547801Y-92949604D02*
G01*
X107559984Y-92951411D01*
X107571931Y-92954404D01*
X107583527Y-92958553D01*
X107594660Y-92963819D01*
X107605224Y-92970151D01*
X107615116Y-92977487D01*
X107624242Y-92985758D01*
X107632513Y-92994884D01*
X107639849Y-93004776D01*
X107646181Y-93015340D01*
X107651447Y-93026473D01*
X107655596Y-93038069D01*
X107658589Y-93050016D01*
X107660396Y-93062199D01*
X107661000Y-93074500D01*
X107661000Y-93325500D01*
X107660396Y-93337801D01*
X107658589Y-93349984D01*
X107655596Y-93361931D01*
X107651447Y-93373527D01*
X107646181Y-93384660D01*
X107639849Y-93395224D01*
X107632513Y-93405116D01*
X107624242Y-93414242D01*
X107615116Y-93422513D01*
X107605224Y-93429849D01*
X107594660Y-93436181D01*
X107583527Y-93441447D01*
X107571931Y-93445596D01*
X107559984Y-93448589D01*
X107547801Y-93450396D01*
X107535500Y-93451000D01*
X107224500Y-93451000D01*
X107212199Y-93450396D01*
X107200016Y-93448589D01*
X107188069Y-93445596D01*
X107176473Y-93441447D01*
X107165340Y-93436181D01*
X107154776Y-93429849D01*
X107144884Y-93422513D01*
X107135758Y-93414242D01*
X107127487Y-93405116D01*
X107120151Y-93395224D01*
X107113819Y-93384660D01*
X107108553Y-93373527D01*
X107104404Y-93361931D01*
X107101411Y-93349984D01*
X107099604Y-93337801D01*
X107099000Y-93325500D01*
X107099000Y-93074500D01*
X107099604Y-93062199D01*
X107101411Y-93050016D01*
X107104404Y-93038069D01*
X107108553Y-93026473D01*
X107113819Y-93015340D01*
X107120151Y-93004776D01*
X107127487Y-92994884D01*
X107135758Y-92985758D01*
X107144884Y-92977487D01*
X107154776Y-92970151D01*
X107165340Y-92963819D01*
X107176473Y-92958553D01*
X107188069Y-92954404D01*
X107200016Y-92951411D01*
X107212199Y-92949604D01*
X107224500Y-92949000D01*
X107535500Y-92949000D01*
X107547801Y-92949604D01*
G37*
G36*
X103082801Y-84099604D02*
G01*
X103094984Y-84101411D01*
X103106931Y-84104404D01*
X103118527Y-84108553D01*
X103129660Y-84113819D01*
X103140224Y-84120151D01*
X103150116Y-84127487D01*
X103159242Y-84135758D01*
X103167513Y-84144884D01*
X103174849Y-84154776D01*
X103181181Y-84165340D01*
X103186447Y-84176473D01*
X103190596Y-84188069D01*
X103193589Y-84200016D01*
X103195396Y-84212199D01*
X103196000Y-84224500D01*
X103196000Y-84475500D01*
X103195396Y-84487801D01*
X103193589Y-84499984D01*
X103190596Y-84511931D01*
X103186447Y-84523527D01*
X103181181Y-84534660D01*
X103174849Y-84545224D01*
X103167513Y-84555116D01*
X103159242Y-84564242D01*
X103150116Y-84572513D01*
X103140224Y-84579849D01*
X103129660Y-84586181D01*
X103118527Y-84591447D01*
X103106931Y-84595596D01*
X103094984Y-84598589D01*
X103082801Y-84600396D01*
X103070500Y-84601000D01*
X102759500Y-84601000D01*
X102747199Y-84600396D01*
X102735016Y-84598589D01*
X102723069Y-84595596D01*
X102711473Y-84591447D01*
X102700340Y-84586181D01*
X102689776Y-84579849D01*
X102679884Y-84572513D01*
X102670758Y-84564242D01*
X102662487Y-84555116D01*
X102655151Y-84545224D01*
X102648819Y-84534660D01*
X102643553Y-84523527D01*
X102639404Y-84511931D01*
X102636411Y-84499984D01*
X102634604Y-84487801D01*
X102634000Y-84475500D01*
X102634000Y-84224500D01*
X102634604Y-84212199D01*
X102636411Y-84200016D01*
X102639404Y-84188069D01*
X102643553Y-84176473D01*
X102648819Y-84165340D01*
X102655151Y-84154776D01*
X102662487Y-84144884D01*
X102670758Y-84135758D01*
X102679884Y-84127487D01*
X102689776Y-84120151D01*
X102700340Y-84113819D01*
X102711473Y-84108553D01*
X102723069Y-84104404D01*
X102735016Y-84101411D01*
X102747199Y-84099604D01*
X102759500Y-84099000D01*
X103070500Y-84099000D01*
X103082801Y-84099604D01*
G37*
G36*
X102442801Y-84099604D02*
G01*
X102454984Y-84101411D01*
X102466931Y-84104404D01*
X102478527Y-84108553D01*
X102489660Y-84113819D01*
X102500224Y-84120151D01*
X102510116Y-84127487D01*
X102519242Y-84135758D01*
X102527513Y-84144884D01*
X102534849Y-84154776D01*
X102541181Y-84165340D01*
X102546447Y-84176473D01*
X102550596Y-84188069D01*
X102553589Y-84200016D01*
X102555396Y-84212199D01*
X102556000Y-84224500D01*
X102556000Y-84475500D01*
X102555396Y-84487801D01*
X102553589Y-84499984D01*
X102550596Y-84511931D01*
X102546447Y-84523527D01*
X102541181Y-84534660D01*
X102534849Y-84545224D01*
X102527513Y-84555116D01*
X102519242Y-84564242D01*
X102510116Y-84572513D01*
X102500224Y-84579849D01*
X102489660Y-84586181D01*
X102478527Y-84591447D01*
X102466931Y-84595596D01*
X102454984Y-84598589D01*
X102442801Y-84600396D01*
X102430500Y-84601000D01*
X102119500Y-84601000D01*
X102107199Y-84600396D01*
X102095016Y-84598589D01*
X102083069Y-84595596D01*
X102071473Y-84591447D01*
X102060340Y-84586181D01*
X102049776Y-84579849D01*
X102039884Y-84572513D01*
X102030758Y-84564242D01*
X102022487Y-84555116D01*
X102015151Y-84545224D01*
X102008819Y-84534660D01*
X102003553Y-84523527D01*
X101999404Y-84511931D01*
X101996411Y-84499984D01*
X101994604Y-84487801D01*
X101994000Y-84475500D01*
X101994000Y-84224500D01*
X101994604Y-84212199D01*
X101996411Y-84200016D01*
X101999404Y-84188069D01*
X102003553Y-84176473D01*
X102008819Y-84165340D01*
X102015151Y-84154776D01*
X102022487Y-84144884D01*
X102030758Y-84135758D01*
X102039884Y-84127487D01*
X102049776Y-84120151D01*
X102060340Y-84113819D01*
X102071473Y-84108553D01*
X102083069Y-84104404D01*
X102095016Y-84101411D01*
X102107199Y-84099604D01*
X102119500Y-84099000D01*
X102430500Y-84099000D01*
X102442801Y-84099604D01*
G37*
G36*
X111787801Y-89799604D02*
G01*
X111799984Y-89801411D01*
X111811931Y-89804404D01*
X111823527Y-89808553D01*
X111834660Y-89813819D01*
X111845224Y-89820151D01*
X111855116Y-89827487D01*
X111864242Y-89835758D01*
X111872513Y-89844884D01*
X111879849Y-89854776D01*
X111886181Y-89865340D01*
X111891447Y-89876473D01*
X111895596Y-89888069D01*
X111898589Y-89900016D01*
X111900396Y-89912199D01*
X111901000Y-89924500D01*
X111901000Y-90175500D01*
X111900396Y-90187801D01*
X111898589Y-90199984D01*
X111895596Y-90211931D01*
X111891447Y-90223527D01*
X111886181Y-90234660D01*
X111879849Y-90245224D01*
X111872513Y-90255116D01*
X111864242Y-90264242D01*
X111855116Y-90272513D01*
X111845224Y-90279849D01*
X111834660Y-90286181D01*
X111823527Y-90291447D01*
X111811931Y-90295596D01*
X111799984Y-90298589D01*
X111787801Y-90300396D01*
X111775500Y-90301000D01*
X111464500Y-90301000D01*
X111452199Y-90300396D01*
X111440016Y-90298589D01*
X111428069Y-90295596D01*
X111416473Y-90291447D01*
X111405340Y-90286181D01*
X111394776Y-90279849D01*
X111384884Y-90272513D01*
X111375758Y-90264242D01*
X111367487Y-90255116D01*
X111360151Y-90245224D01*
X111353819Y-90234660D01*
X111348553Y-90223527D01*
X111344404Y-90211931D01*
X111341411Y-90199984D01*
X111339604Y-90187801D01*
X111339000Y-90175500D01*
X111339000Y-89924500D01*
X111339604Y-89912199D01*
X111341411Y-89900016D01*
X111344404Y-89888069D01*
X111348553Y-89876473D01*
X111353819Y-89865340D01*
X111360151Y-89854776D01*
X111367487Y-89844884D01*
X111375758Y-89835758D01*
X111384884Y-89827487D01*
X111394776Y-89820151D01*
X111405340Y-89813819D01*
X111416473Y-89808553D01*
X111428069Y-89804404D01*
X111440016Y-89801411D01*
X111452199Y-89799604D01*
X111464500Y-89799000D01*
X111775500Y-89799000D01*
X111787801Y-89799604D01*
G37*
G36*
X111147801Y-89799604D02*
G01*
X111159984Y-89801411D01*
X111171931Y-89804404D01*
X111183527Y-89808553D01*
X111194660Y-89813819D01*
X111205224Y-89820151D01*
X111215116Y-89827487D01*
X111224242Y-89835758D01*
X111232513Y-89844884D01*
X111239849Y-89854776D01*
X111246181Y-89865340D01*
X111251447Y-89876473D01*
X111255596Y-89888069D01*
X111258589Y-89900016D01*
X111260396Y-89912199D01*
X111261000Y-89924500D01*
X111261000Y-90175500D01*
X111260396Y-90187801D01*
X111258589Y-90199984D01*
X111255596Y-90211931D01*
X111251447Y-90223527D01*
X111246181Y-90234660D01*
X111239849Y-90245224D01*
X111232513Y-90255116D01*
X111224242Y-90264242D01*
X111215116Y-90272513D01*
X111205224Y-90279849D01*
X111194660Y-90286181D01*
X111183527Y-90291447D01*
X111171931Y-90295596D01*
X111159984Y-90298589D01*
X111147801Y-90300396D01*
X111135500Y-90301000D01*
X110824500Y-90301000D01*
X110812199Y-90300396D01*
X110800016Y-90298589D01*
X110788069Y-90295596D01*
X110776473Y-90291447D01*
X110765340Y-90286181D01*
X110754776Y-90279849D01*
X110744884Y-90272513D01*
X110735758Y-90264242D01*
X110727487Y-90255116D01*
X110720151Y-90245224D01*
X110713819Y-90234660D01*
X110708553Y-90223527D01*
X110704404Y-90211931D01*
X110701411Y-90199984D01*
X110699604Y-90187801D01*
X110699000Y-90175500D01*
X110699000Y-89924500D01*
X110699604Y-89912199D01*
X110701411Y-89900016D01*
X110704404Y-89888069D01*
X110708553Y-89876473D01*
X110713819Y-89865340D01*
X110720151Y-89854776D01*
X110727487Y-89844884D01*
X110735758Y-89835758D01*
X110744884Y-89827487D01*
X110754776Y-89820151D01*
X110765340Y-89813819D01*
X110776473Y-89808553D01*
X110788069Y-89804404D01*
X110800016Y-89801411D01*
X110812199Y-89799604D01*
X110824500Y-89799000D01*
X111135500Y-89799000D01*
X111147801Y-89799604D01*
G37*
G36*
X111147801Y-88049604D02*
G01*
X111159984Y-88051411D01*
X111171931Y-88054404D01*
X111183527Y-88058553D01*
X111194660Y-88063819D01*
X111205224Y-88070151D01*
X111215116Y-88077487D01*
X111224242Y-88085758D01*
X111232513Y-88094884D01*
X111239849Y-88104776D01*
X111246181Y-88115340D01*
X111251447Y-88126473D01*
X111255596Y-88138069D01*
X111258589Y-88150016D01*
X111260396Y-88162199D01*
X111261000Y-88174500D01*
X111261000Y-88425500D01*
X111260396Y-88437801D01*
X111258589Y-88449984D01*
X111255596Y-88461931D01*
X111251447Y-88473527D01*
X111246181Y-88484660D01*
X111239849Y-88495224D01*
X111232513Y-88505116D01*
X111224242Y-88514242D01*
X111215116Y-88522513D01*
X111205224Y-88529849D01*
X111194660Y-88536181D01*
X111183527Y-88541447D01*
X111171931Y-88545596D01*
X111159984Y-88548589D01*
X111147801Y-88550396D01*
X111135500Y-88551000D01*
X110824500Y-88551000D01*
X110812199Y-88550396D01*
X110800016Y-88548589D01*
X110788069Y-88545596D01*
X110776473Y-88541447D01*
X110765340Y-88536181D01*
X110754776Y-88529849D01*
X110744884Y-88522513D01*
X110735758Y-88514242D01*
X110727487Y-88505116D01*
X110720151Y-88495224D01*
X110713819Y-88484660D01*
X110708553Y-88473527D01*
X110704404Y-88461931D01*
X110701411Y-88449984D01*
X110699604Y-88437801D01*
X110699000Y-88425500D01*
X110699000Y-88174500D01*
X110699604Y-88162199D01*
X110701411Y-88150016D01*
X110704404Y-88138069D01*
X110708553Y-88126473D01*
X110713819Y-88115340D01*
X110720151Y-88104776D01*
X110727487Y-88094884D01*
X110735758Y-88085758D01*
X110744884Y-88077487D01*
X110754776Y-88070151D01*
X110765340Y-88063819D01*
X110776473Y-88058553D01*
X110788069Y-88054404D01*
X110800016Y-88051411D01*
X110812199Y-88049604D01*
X110824500Y-88049000D01*
X111135500Y-88049000D01*
X111147801Y-88049604D01*
G37*
G36*
X111787801Y-88049604D02*
G01*
X111799984Y-88051411D01*
X111811931Y-88054404D01*
X111823527Y-88058553D01*
X111834660Y-88063819D01*
X111845224Y-88070151D01*
X111855116Y-88077487D01*
X111864242Y-88085758D01*
X111872513Y-88094884D01*
X111879849Y-88104776D01*
X111886181Y-88115340D01*
X111891447Y-88126473D01*
X111895596Y-88138069D01*
X111898589Y-88150016D01*
X111900396Y-88162199D01*
X111901000Y-88174500D01*
X111901000Y-88425500D01*
X111900396Y-88437801D01*
X111898589Y-88449984D01*
X111895596Y-88461931D01*
X111891447Y-88473527D01*
X111886181Y-88484660D01*
X111879849Y-88495224D01*
X111872513Y-88505116D01*
X111864242Y-88514242D01*
X111855116Y-88522513D01*
X111845224Y-88529849D01*
X111834660Y-88536181D01*
X111823527Y-88541447D01*
X111811931Y-88545596D01*
X111799984Y-88548589D01*
X111787801Y-88550396D01*
X111775500Y-88551000D01*
X111464500Y-88551000D01*
X111452199Y-88550396D01*
X111440016Y-88548589D01*
X111428069Y-88545596D01*
X111416473Y-88541447D01*
X111405340Y-88536181D01*
X111394776Y-88529849D01*
X111384884Y-88522513D01*
X111375758Y-88514242D01*
X111367487Y-88505116D01*
X111360151Y-88495224D01*
X111353819Y-88484660D01*
X111348553Y-88473527D01*
X111344404Y-88461931D01*
X111341411Y-88449984D01*
X111339604Y-88437801D01*
X111339000Y-88425500D01*
X111339000Y-88174500D01*
X111339604Y-88162199D01*
X111341411Y-88150016D01*
X111344404Y-88138069D01*
X111348553Y-88126473D01*
X111353819Y-88115340D01*
X111360151Y-88104776D01*
X111367487Y-88094884D01*
X111375758Y-88085758D01*
X111384884Y-88077487D01*
X111394776Y-88070151D01*
X111405340Y-88063819D01*
X111416473Y-88058553D01*
X111428069Y-88054404D01*
X111440016Y-88051411D01*
X111452199Y-88049604D01*
X111464500Y-88049000D01*
X111775500Y-88049000D01*
X111787801Y-88049604D01*
G37*
G36*
X111807801Y-87199604D02*
G01*
X111819984Y-87201411D01*
X111831931Y-87204404D01*
X111843527Y-87208553D01*
X111854660Y-87213819D01*
X111865224Y-87220151D01*
X111875116Y-87227487D01*
X111884242Y-87235758D01*
X111892513Y-87244884D01*
X111899849Y-87254776D01*
X111906181Y-87265340D01*
X111911447Y-87276473D01*
X111915596Y-87288069D01*
X111918589Y-87300016D01*
X111920396Y-87312199D01*
X111921000Y-87324500D01*
X111921000Y-87575500D01*
X111920396Y-87587801D01*
X111918589Y-87599984D01*
X111915596Y-87611931D01*
X111911447Y-87623527D01*
X111906181Y-87634660D01*
X111899849Y-87645224D01*
X111892513Y-87655116D01*
X111884242Y-87664242D01*
X111875116Y-87672513D01*
X111865224Y-87679849D01*
X111854660Y-87686181D01*
X111843527Y-87691447D01*
X111831931Y-87695596D01*
X111819984Y-87698589D01*
X111807801Y-87700396D01*
X111795500Y-87701000D01*
X111484500Y-87701000D01*
X111472199Y-87700396D01*
X111460016Y-87698589D01*
X111448069Y-87695596D01*
X111436473Y-87691447D01*
X111425340Y-87686181D01*
X111414776Y-87679849D01*
X111404884Y-87672513D01*
X111395758Y-87664242D01*
X111387487Y-87655116D01*
X111380151Y-87645224D01*
X111373819Y-87634660D01*
X111368553Y-87623527D01*
X111364404Y-87611931D01*
X111361411Y-87599984D01*
X111359604Y-87587801D01*
X111359000Y-87575500D01*
X111359000Y-87324500D01*
X111359604Y-87312199D01*
X111361411Y-87300016D01*
X111364404Y-87288069D01*
X111368553Y-87276473D01*
X111373819Y-87265340D01*
X111380151Y-87254776D01*
X111387487Y-87244884D01*
X111395758Y-87235758D01*
X111404884Y-87227487D01*
X111414776Y-87220151D01*
X111425340Y-87213819D01*
X111436473Y-87208553D01*
X111448069Y-87204404D01*
X111460016Y-87201411D01*
X111472199Y-87199604D01*
X111484500Y-87199000D01*
X111795500Y-87199000D01*
X111807801Y-87199604D01*
G37*
G36*
X111167801Y-87199604D02*
G01*
X111179984Y-87201411D01*
X111191931Y-87204404D01*
X111203527Y-87208553D01*
X111214660Y-87213819D01*
X111225224Y-87220151D01*
X111235116Y-87227487D01*
X111244242Y-87235758D01*
X111252513Y-87244884D01*
X111259849Y-87254776D01*
X111266181Y-87265340D01*
X111271447Y-87276473D01*
X111275596Y-87288069D01*
X111278589Y-87300016D01*
X111280396Y-87312199D01*
X111281000Y-87324500D01*
X111281000Y-87575500D01*
X111280396Y-87587801D01*
X111278589Y-87599984D01*
X111275596Y-87611931D01*
X111271447Y-87623527D01*
X111266181Y-87634660D01*
X111259849Y-87645224D01*
X111252513Y-87655116D01*
X111244242Y-87664242D01*
X111235116Y-87672513D01*
X111225224Y-87679849D01*
X111214660Y-87686181D01*
X111203527Y-87691447D01*
X111191931Y-87695596D01*
X111179984Y-87698589D01*
X111167801Y-87700396D01*
X111155500Y-87701000D01*
X110844500Y-87701000D01*
X110832199Y-87700396D01*
X110820016Y-87698589D01*
X110808069Y-87695596D01*
X110796473Y-87691447D01*
X110785340Y-87686181D01*
X110774776Y-87679849D01*
X110764884Y-87672513D01*
X110755758Y-87664242D01*
X110747487Y-87655116D01*
X110740151Y-87645224D01*
X110733819Y-87634660D01*
X110728553Y-87623527D01*
X110724404Y-87611931D01*
X110721411Y-87599984D01*
X110719604Y-87587801D01*
X110719000Y-87575500D01*
X110719000Y-87324500D01*
X110719604Y-87312199D01*
X110721411Y-87300016D01*
X110724404Y-87288069D01*
X110728553Y-87276473D01*
X110733819Y-87265340D01*
X110740151Y-87254776D01*
X110747487Y-87244884D01*
X110755758Y-87235758D01*
X110764884Y-87227487D01*
X110774776Y-87220151D01*
X110785340Y-87213819D01*
X110796473Y-87208553D01*
X110808069Y-87204404D01*
X110820016Y-87201411D01*
X110832199Y-87199604D01*
X110844500Y-87199000D01*
X111155500Y-87199000D01*
X111167801Y-87199604D01*
G37*
D19*
X130600000Y-76350000D03*
X130600000Y-73810000D03*
X128060000Y-76350000D03*
X128060000Y-73810000D03*
X125520000Y-76350000D03*
D20*
X125520000Y-73810000D03*
D10*
G36*
X111318191Y-91075176D02*
G01*
X111341901Y-91078693D01*
X111365152Y-91084517D01*
X111387720Y-91092592D01*
X111409389Y-91102841D01*
X111429948Y-91115164D01*
X111449201Y-91129442D01*
X111466961Y-91145539D01*
X111483058Y-91163299D01*
X111497336Y-91182552D01*
X111509659Y-91203111D01*
X111519908Y-91224780D01*
X111527983Y-91247348D01*
X111533807Y-91270599D01*
X111537324Y-91294309D01*
X111538500Y-91318250D01*
X111538500Y-91881750D01*
X111537324Y-91905691D01*
X111533807Y-91929401D01*
X111527983Y-91952652D01*
X111519908Y-91975220D01*
X111509659Y-91996889D01*
X111497336Y-92017448D01*
X111483058Y-92036701D01*
X111466961Y-92054461D01*
X111449201Y-92070558D01*
X111429948Y-92084836D01*
X111409389Y-92097159D01*
X111387720Y-92107408D01*
X111365152Y-92115483D01*
X111341901Y-92121307D01*
X111318191Y-92124824D01*
X111294250Y-92126000D01*
X110805750Y-92126000D01*
X110781809Y-92124824D01*
X110758099Y-92121307D01*
X110734848Y-92115483D01*
X110712280Y-92107408D01*
X110690611Y-92097159D01*
X110670052Y-92084836D01*
X110650799Y-92070558D01*
X110633039Y-92054461D01*
X110616942Y-92036701D01*
X110602664Y-92017448D01*
X110590341Y-91996889D01*
X110580092Y-91975220D01*
X110572017Y-91952652D01*
X110566193Y-91929401D01*
X110562676Y-91905691D01*
X110561500Y-91881750D01*
X110561500Y-91318250D01*
X110562676Y-91294309D01*
X110566193Y-91270599D01*
X110572017Y-91247348D01*
X110580092Y-91224780D01*
X110590341Y-91203111D01*
X110602664Y-91182552D01*
X110616942Y-91163299D01*
X110633039Y-91145539D01*
X110650799Y-91129442D01*
X110670052Y-91115164D01*
X110690611Y-91102841D01*
X110712280Y-91092592D01*
X110734848Y-91084517D01*
X110758099Y-91078693D01*
X110781809Y-91075176D01*
X110805750Y-91074000D01*
X111294250Y-91074000D01*
X111318191Y-91075176D01*
G37*
G36*
X112893191Y-91075176D02*
G01*
X112916901Y-91078693D01*
X112940152Y-91084517D01*
X112962720Y-91092592D01*
X112984389Y-91102841D01*
X113004948Y-91115164D01*
X113024201Y-91129442D01*
X113041961Y-91145539D01*
X113058058Y-91163299D01*
X113072336Y-91182552D01*
X113084659Y-91203111D01*
X113094908Y-91224780D01*
X113102983Y-91247348D01*
X113108807Y-91270599D01*
X113112324Y-91294309D01*
X113113500Y-91318250D01*
X113113500Y-91881750D01*
X113112324Y-91905691D01*
X113108807Y-91929401D01*
X113102983Y-91952652D01*
X113094908Y-91975220D01*
X113084659Y-91996889D01*
X113072336Y-92017448D01*
X113058058Y-92036701D01*
X113041961Y-92054461D01*
X113024201Y-92070558D01*
X113004948Y-92084836D01*
X112984389Y-92097159D01*
X112962720Y-92107408D01*
X112940152Y-92115483D01*
X112916901Y-92121307D01*
X112893191Y-92124824D01*
X112869250Y-92126000D01*
X112380750Y-92126000D01*
X112356809Y-92124824D01*
X112333099Y-92121307D01*
X112309848Y-92115483D01*
X112287280Y-92107408D01*
X112265611Y-92097159D01*
X112245052Y-92084836D01*
X112225799Y-92070558D01*
X112208039Y-92054461D01*
X112191942Y-92036701D01*
X112177664Y-92017448D01*
X112165341Y-91996889D01*
X112155092Y-91975220D01*
X112147017Y-91952652D01*
X112141193Y-91929401D01*
X112137676Y-91905691D01*
X112136500Y-91881750D01*
X112136500Y-91318250D01*
X112137676Y-91294309D01*
X112141193Y-91270599D01*
X112147017Y-91247348D01*
X112155092Y-91224780D01*
X112165341Y-91203111D01*
X112177664Y-91182552D01*
X112191942Y-91163299D01*
X112208039Y-91145539D01*
X112225799Y-91129442D01*
X112245052Y-91115164D01*
X112265611Y-91102841D01*
X112287280Y-91092592D01*
X112309848Y-91084517D01*
X112333099Y-91078693D01*
X112356809Y-91075176D01*
X112380750Y-91074000D01*
X112869250Y-91074000D01*
X112893191Y-91075176D01*
G37*
D24*
X125060000Y-94200000D03*
X127600000Y-94200000D03*
D10*
G36*
X121627801Y-75699604D02*
G01*
X121639984Y-75701411D01*
X121651931Y-75704404D01*
X121663527Y-75708553D01*
X121674660Y-75713819D01*
X121685224Y-75720151D01*
X121695116Y-75727487D01*
X121704242Y-75735758D01*
X121712513Y-75744884D01*
X121719849Y-75754776D01*
X121726181Y-75765340D01*
X121731447Y-75776473D01*
X121735596Y-75788069D01*
X121738589Y-75800016D01*
X121740396Y-75812199D01*
X121741000Y-75824500D01*
X121741000Y-76075500D01*
X121740396Y-76087801D01*
X121738589Y-76099984D01*
X121735596Y-76111931D01*
X121731447Y-76123527D01*
X121726181Y-76134660D01*
X121719849Y-76145224D01*
X121712513Y-76155116D01*
X121704242Y-76164242D01*
X121695116Y-76172513D01*
X121685224Y-76179849D01*
X121674660Y-76186181D01*
X121663527Y-76191447D01*
X121651931Y-76195596D01*
X121639984Y-76198589D01*
X121627801Y-76200396D01*
X121615500Y-76201000D01*
X121304500Y-76201000D01*
X121292199Y-76200396D01*
X121280016Y-76198589D01*
X121268069Y-76195596D01*
X121256473Y-76191447D01*
X121245340Y-76186181D01*
X121234776Y-76179849D01*
X121224884Y-76172513D01*
X121215758Y-76164242D01*
X121207487Y-76155116D01*
X121200151Y-76145224D01*
X121193819Y-76134660D01*
X121188553Y-76123527D01*
X121184404Y-76111931D01*
X121181411Y-76099984D01*
X121179604Y-76087801D01*
X121179000Y-76075500D01*
X121179000Y-75824500D01*
X121179604Y-75812199D01*
X121181411Y-75800016D01*
X121184404Y-75788069D01*
X121188553Y-75776473D01*
X121193819Y-75765340D01*
X121200151Y-75754776D01*
X121207487Y-75744884D01*
X121215758Y-75735758D01*
X121224884Y-75727487D01*
X121234776Y-75720151D01*
X121245340Y-75713819D01*
X121256473Y-75708553D01*
X121268069Y-75704404D01*
X121280016Y-75701411D01*
X121292199Y-75699604D01*
X121304500Y-75699000D01*
X121615500Y-75699000D01*
X121627801Y-75699604D01*
G37*
G36*
X122267801Y-75699604D02*
G01*
X122279984Y-75701411D01*
X122291931Y-75704404D01*
X122303527Y-75708553D01*
X122314660Y-75713819D01*
X122325224Y-75720151D01*
X122335116Y-75727487D01*
X122344242Y-75735758D01*
X122352513Y-75744884D01*
X122359849Y-75754776D01*
X122366181Y-75765340D01*
X122371447Y-75776473D01*
X122375596Y-75788069D01*
X122378589Y-75800016D01*
X122380396Y-75812199D01*
X122381000Y-75824500D01*
X122381000Y-76075500D01*
X122380396Y-76087801D01*
X122378589Y-76099984D01*
X122375596Y-76111931D01*
X122371447Y-76123527D01*
X122366181Y-76134660D01*
X122359849Y-76145224D01*
X122352513Y-76155116D01*
X122344242Y-76164242D01*
X122335116Y-76172513D01*
X122325224Y-76179849D01*
X122314660Y-76186181D01*
X122303527Y-76191447D01*
X122291931Y-76195596D01*
X122279984Y-76198589D01*
X122267801Y-76200396D01*
X122255500Y-76201000D01*
X121944500Y-76201000D01*
X121932199Y-76200396D01*
X121920016Y-76198589D01*
X121908069Y-76195596D01*
X121896473Y-76191447D01*
X121885340Y-76186181D01*
X121874776Y-76179849D01*
X121864884Y-76172513D01*
X121855758Y-76164242D01*
X121847487Y-76155116D01*
X121840151Y-76145224D01*
X121833819Y-76134660D01*
X121828553Y-76123527D01*
X121824404Y-76111931D01*
X121821411Y-76099984D01*
X121819604Y-76087801D01*
X121819000Y-76075500D01*
X121819000Y-75824500D01*
X121819604Y-75812199D01*
X121821411Y-75800016D01*
X121824404Y-75788069D01*
X121828553Y-75776473D01*
X121833819Y-75765340D01*
X121840151Y-75754776D01*
X121847487Y-75744884D01*
X121855758Y-75735758D01*
X121864884Y-75727487D01*
X121874776Y-75720151D01*
X121885340Y-75713819D01*
X121896473Y-75708553D01*
X121908069Y-75704404D01*
X121920016Y-75701411D01*
X121932199Y-75699604D01*
X121944500Y-75699000D01*
X122255500Y-75699000D01*
X122267801Y-75699604D01*
G37*
G36*
X104447801Y-73649604D02*
G01*
X104459984Y-73651411D01*
X104471931Y-73654404D01*
X104483527Y-73658553D01*
X104494660Y-73663819D01*
X104505224Y-73670151D01*
X104515116Y-73677487D01*
X104524242Y-73685758D01*
X104532513Y-73694884D01*
X104539849Y-73704776D01*
X104546181Y-73715340D01*
X104551447Y-73726473D01*
X104555596Y-73738069D01*
X104558589Y-73750016D01*
X104560396Y-73762199D01*
X104561000Y-73774500D01*
X104561000Y-74025500D01*
X104560396Y-74037801D01*
X104558589Y-74049984D01*
X104555596Y-74061931D01*
X104551447Y-74073527D01*
X104546181Y-74084660D01*
X104539849Y-74095224D01*
X104532513Y-74105116D01*
X104524242Y-74114242D01*
X104515116Y-74122513D01*
X104505224Y-74129849D01*
X104494660Y-74136181D01*
X104483527Y-74141447D01*
X104471931Y-74145596D01*
X104459984Y-74148589D01*
X104447801Y-74150396D01*
X104435500Y-74151000D01*
X104124500Y-74151000D01*
X104112199Y-74150396D01*
X104100016Y-74148589D01*
X104088069Y-74145596D01*
X104076473Y-74141447D01*
X104065340Y-74136181D01*
X104054776Y-74129849D01*
X104044884Y-74122513D01*
X104035758Y-74114242D01*
X104027487Y-74105116D01*
X104020151Y-74095224D01*
X104013819Y-74084660D01*
X104008553Y-74073527D01*
X104004404Y-74061931D01*
X104001411Y-74049984D01*
X103999604Y-74037801D01*
X103999000Y-74025500D01*
X103999000Y-73774500D01*
X103999604Y-73762199D01*
X104001411Y-73750016D01*
X104004404Y-73738069D01*
X104008553Y-73726473D01*
X104013819Y-73715340D01*
X104020151Y-73704776D01*
X104027487Y-73694884D01*
X104035758Y-73685758D01*
X104044884Y-73677487D01*
X104054776Y-73670151D01*
X104065340Y-73663819D01*
X104076473Y-73658553D01*
X104088069Y-73654404D01*
X104100016Y-73651411D01*
X104112199Y-73649604D01*
X104124500Y-73649000D01*
X104435500Y-73649000D01*
X104447801Y-73649604D01*
G37*
G36*
X105087801Y-73649604D02*
G01*
X105099984Y-73651411D01*
X105111931Y-73654404D01*
X105123527Y-73658553D01*
X105134660Y-73663819D01*
X105145224Y-73670151D01*
X105155116Y-73677487D01*
X105164242Y-73685758D01*
X105172513Y-73694884D01*
X105179849Y-73704776D01*
X105186181Y-73715340D01*
X105191447Y-73726473D01*
X105195596Y-73738069D01*
X105198589Y-73750016D01*
X105200396Y-73762199D01*
X105201000Y-73774500D01*
X105201000Y-74025500D01*
X105200396Y-74037801D01*
X105198589Y-74049984D01*
X105195596Y-74061931D01*
X105191447Y-74073527D01*
X105186181Y-74084660D01*
X105179849Y-74095224D01*
X105172513Y-74105116D01*
X105164242Y-74114242D01*
X105155116Y-74122513D01*
X105145224Y-74129849D01*
X105134660Y-74136181D01*
X105123527Y-74141447D01*
X105111931Y-74145596D01*
X105099984Y-74148589D01*
X105087801Y-74150396D01*
X105075500Y-74151000D01*
X104764500Y-74151000D01*
X104752199Y-74150396D01*
X104740016Y-74148589D01*
X104728069Y-74145596D01*
X104716473Y-74141447D01*
X104705340Y-74136181D01*
X104694776Y-74129849D01*
X104684884Y-74122513D01*
X104675758Y-74114242D01*
X104667487Y-74105116D01*
X104660151Y-74095224D01*
X104653819Y-74084660D01*
X104648553Y-74073527D01*
X104644404Y-74061931D01*
X104641411Y-74049984D01*
X104639604Y-74037801D01*
X104639000Y-74025500D01*
X104639000Y-73774500D01*
X104639604Y-73762199D01*
X104641411Y-73750016D01*
X104644404Y-73738069D01*
X104648553Y-73726473D01*
X104653819Y-73715340D01*
X104660151Y-73704776D01*
X104667487Y-73694884D01*
X104675758Y-73685758D01*
X104684884Y-73677487D01*
X104694776Y-73670151D01*
X104705340Y-73663819D01*
X104716473Y-73658553D01*
X104728069Y-73654404D01*
X104740016Y-73651411D01*
X104752199Y-73649604D01*
X104764500Y-73649000D01*
X105075500Y-73649000D01*
X105087801Y-73649604D01*
G37*
G36*
X122587801Y-86249604D02*
G01*
X122599984Y-86251411D01*
X122611931Y-86254404D01*
X122623527Y-86258553D01*
X122634660Y-86263819D01*
X122645224Y-86270151D01*
X122655116Y-86277487D01*
X122664242Y-86285758D01*
X122672513Y-86294884D01*
X122679849Y-86304776D01*
X122686181Y-86315340D01*
X122691447Y-86326473D01*
X122695596Y-86338069D01*
X122698589Y-86350016D01*
X122700396Y-86362199D01*
X122701000Y-86374500D01*
X122701000Y-86625500D01*
X122700396Y-86637801D01*
X122698589Y-86649984D01*
X122695596Y-86661931D01*
X122691447Y-86673527D01*
X122686181Y-86684660D01*
X122679849Y-86695224D01*
X122672513Y-86705116D01*
X122664242Y-86714242D01*
X122655116Y-86722513D01*
X122645224Y-86729849D01*
X122634660Y-86736181D01*
X122623527Y-86741447D01*
X122611931Y-86745596D01*
X122599984Y-86748589D01*
X122587801Y-86750396D01*
X122575500Y-86751000D01*
X122264500Y-86751000D01*
X122252199Y-86750396D01*
X122240016Y-86748589D01*
X122228069Y-86745596D01*
X122216473Y-86741447D01*
X122205340Y-86736181D01*
X122194776Y-86729849D01*
X122184884Y-86722513D01*
X122175758Y-86714242D01*
X122167487Y-86705116D01*
X122160151Y-86695224D01*
X122153819Y-86684660D01*
X122148553Y-86673527D01*
X122144404Y-86661931D01*
X122141411Y-86649984D01*
X122139604Y-86637801D01*
X122139000Y-86625500D01*
X122139000Y-86374500D01*
X122139604Y-86362199D01*
X122141411Y-86350016D01*
X122144404Y-86338069D01*
X122148553Y-86326473D01*
X122153819Y-86315340D01*
X122160151Y-86304776D01*
X122167487Y-86294884D01*
X122175758Y-86285758D01*
X122184884Y-86277487D01*
X122194776Y-86270151D01*
X122205340Y-86263819D01*
X122216473Y-86258553D01*
X122228069Y-86254404D01*
X122240016Y-86251411D01*
X122252199Y-86249604D01*
X122264500Y-86249000D01*
X122575500Y-86249000D01*
X122587801Y-86249604D01*
G37*
G36*
X121947801Y-86249604D02*
G01*
X121959984Y-86251411D01*
X121971931Y-86254404D01*
X121983527Y-86258553D01*
X121994660Y-86263819D01*
X122005224Y-86270151D01*
X122015116Y-86277487D01*
X122024242Y-86285758D01*
X122032513Y-86294884D01*
X122039849Y-86304776D01*
X122046181Y-86315340D01*
X122051447Y-86326473D01*
X122055596Y-86338069D01*
X122058589Y-86350016D01*
X122060396Y-86362199D01*
X122061000Y-86374500D01*
X122061000Y-86625500D01*
X122060396Y-86637801D01*
X122058589Y-86649984D01*
X122055596Y-86661931D01*
X122051447Y-86673527D01*
X122046181Y-86684660D01*
X122039849Y-86695224D01*
X122032513Y-86705116D01*
X122024242Y-86714242D01*
X122015116Y-86722513D01*
X122005224Y-86729849D01*
X121994660Y-86736181D01*
X121983527Y-86741447D01*
X121971931Y-86745596D01*
X121959984Y-86748589D01*
X121947801Y-86750396D01*
X121935500Y-86751000D01*
X121624500Y-86751000D01*
X121612199Y-86750396D01*
X121600016Y-86748589D01*
X121588069Y-86745596D01*
X121576473Y-86741447D01*
X121565340Y-86736181D01*
X121554776Y-86729849D01*
X121544884Y-86722513D01*
X121535758Y-86714242D01*
X121527487Y-86705116D01*
X121520151Y-86695224D01*
X121513819Y-86684660D01*
X121508553Y-86673527D01*
X121504404Y-86661931D01*
X121501411Y-86649984D01*
X121499604Y-86637801D01*
X121499000Y-86625500D01*
X121499000Y-86374500D01*
X121499604Y-86362199D01*
X121501411Y-86350016D01*
X121504404Y-86338069D01*
X121508553Y-86326473D01*
X121513819Y-86315340D01*
X121520151Y-86304776D01*
X121527487Y-86294884D01*
X121535758Y-86285758D01*
X121544884Y-86277487D01*
X121554776Y-86270151D01*
X121565340Y-86263819D01*
X121576473Y-86258553D01*
X121588069Y-86254404D01*
X121600016Y-86251411D01*
X121612199Y-86249604D01*
X121624500Y-86249000D01*
X121935500Y-86249000D01*
X121947801Y-86249604D01*
G37*
G36*
X122207812Y-73562798D02*
G01*
X122233984Y-73566681D01*
X122259650Y-73573110D01*
X122284562Y-73582023D01*
X122308481Y-73593336D01*
X122331175Y-73606938D01*
X122352427Y-73622700D01*
X122372032Y-73640468D01*
X122389800Y-73660073D01*
X122405562Y-73681325D01*
X122419164Y-73704019D01*
X122430477Y-73727938D01*
X122439390Y-73752850D01*
X122445819Y-73778516D01*
X122449702Y-73804688D01*
X122451000Y-73831115D01*
X122451000Y-74718885D01*
X122449702Y-74745312D01*
X122445819Y-74771484D01*
X122439390Y-74797150D01*
X122430477Y-74822062D01*
X122419164Y-74845981D01*
X122405562Y-74868675D01*
X122389800Y-74889927D01*
X122372032Y-74909532D01*
X122352427Y-74927300D01*
X122331175Y-74943062D01*
X122308481Y-74956664D01*
X122284562Y-74967977D01*
X122259650Y-74976890D01*
X122233984Y-74983319D01*
X122207812Y-74987202D01*
X122181385Y-74988500D01*
X121318615Y-74988500D01*
X121292188Y-74987202D01*
X121266016Y-74983319D01*
X121240350Y-74976890D01*
X121215438Y-74967977D01*
X121191519Y-74956664D01*
X121168825Y-74943062D01*
X121147573Y-74927300D01*
X121127968Y-74909532D01*
X121110200Y-74889927D01*
X121094438Y-74868675D01*
X121080836Y-74845981D01*
X121069523Y-74822062D01*
X121060610Y-74797150D01*
X121054181Y-74771484D01*
X121050298Y-74745312D01*
X121049000Y-74718885D01*
X121049000Y-73831115D01*
X121050298Y-73804688D01*
X121054181Y-73778516D01*
X121060610Y-73752850D01*
X121069523Y-73727938D01*
X121080836Y-73704019D01*
X121094438Y-73681325D01*
X121110200Y-73660073D01*
X121127968Y-73640468D01*
X121147573Y-73622700D01*
X121168825Y-73606938D01*
X121191519Y-73593336D01*
X121215438Y-73582023D01*
X121240350Y-73573110D01*
X121266016Y-73566681D01*
X121292188Y-73562798D01*
X121318615Y-73561500D01*
X122181385Y-73561500D01*
X122207812Y-73562798D01*
G37*
G36*
X122207812Y-71637798D02*
G01*
X122233984Y-71641681D01*
X122259650Y-71648110D01*
X122284562Y-71657023D01*
X122308481Y-71668336D01*
X122331175Y-71681938D01*
X122352427Y-71697700D01*
X122372032Y-71715468D01*
X122389800Y-71735073D01*
X122405562Y-71756325D01*
X122419164Y-71779019D01*
X122430477Y-71802938D01*
X122439390Y-71827850D01*
X122445819Y-71853516D01*
X122449702Y-71879688D01*
X122451000Y-71906115D01*
X122451000Y-72793885D01*
X122449702Y-72820312D01*
X122445819Y-72846484D01*
X122439390Y-72872150D01*
X122430477Y-72897062D01*
X122419164Y-72920981D01*
X122405562Y-72943675D01*
X122389800Y-72964927D01*
X122372032Y-72984532D01*
X122352427Y-73002300D01*
X122331175Y-73018062D01*
X122308481Y-73031664D01*
X122284562Y-73042977D01*
X122259650Y-73051890D01*
X122233984Y-73058319D01*
X122207812Y-73062202D01*
X122181385Y-73063500D01*
X121318615Y-73063500D01*
X121292188Y-73062202D01*
X121266016Y-73058319D01*
X121240350Y-73051890D01*
X121215438Y-73042977D01*
X121191519Y-73031664D01*
X121168825Y-73018062D01*
X121147573Y-73002300D01*
X121127968Y-72984532D01*
X121110200Y-72964927D01*
X121094438Y-72943675D01*
X121080836Y-72920981D01*
X121069523Y-72897062D01*
X121060610Y-72872150D01*
X121054181Y-72846484D01*
X121050298Y-72820312D01*
X121049000Y-72793885D01*
X121049000Y-71906115D01*
X121050298Y-71879688D01*
X121054181Y-71853516D01*
X121060610Y-71827850D01*
X121069523Y-71802938D01*
X121080836Y-71779019D01*
X121094438Y-71756325D01*
X121110200Y-71735073D01*
X121127968Y-71715468D01*
X121147573Y-71697700D01*
X121168825Y-71681938D01*
X121191519Y-71668336D01*
X121215438Y-71657023D01*
X121240350Y-71648110D01*
X121266016Y-71641681D01*
X121292188Y-71637798D01*
X121318615Y-71636500D01*
X122181385Y-71636500D01*
X122207812Y-71637798D01*
G37*
G36*
X104820312Y-71400298D02*
G01*
X104846484Y-71404181D01*
X104872150Y-71410610D01*
X104897062Y-71419523D01*
X104920981Y-71430836D01*
X104943675Y-71444438D01*
X104964927Y-71460200D01*
X104984532Y-71477968D01*
X105002300Y-71497573D01*
X105018062Y-71518825D01*
X105031664Y-71541519D01*
X105042977Y-71565438D01*
X105051890Y-71590350D01*
X105058319Y-71616016D01*
X105062202Y-71642188D01*
X105063500Y-71668615D01*
X105063500Y-72531385D01*
X105062202Y-72557812D01*
X105058319Y-72583984D01*
X105051890Y-72609650D01*
X105042977Y-72634562D01*
X105031664Y-72658481D01*
X105018062Y-72681175D01*
X105002300Y-72702427D01*
X104984532Y-72722032D01*
X104964927Y-72739800D01*
X104943675Y-72755562D01*
X104920981Y-72769164D01*
X104897062Y-72780477D01*
X104872150Y-72789390D01*
X104846484Y-72795819D01*
X104820312Y-72799702D01*
X104793885Y-72801000D01*
X103906115Y-72801000D01*
X103879688Y-72799702D01*
X103853516Y-72795819D01*
X103827850Y-72789390D01*
X103802938Y-72780477D01*
X103779019Y-72769164D01*
X103756325Y-72755562D01*
X103735073Y-72739800D01*
X103715468Y-72722032D01*
X103697700Y-72702427D01*
X103681938Y-72681175D01*
X103668336Y-72658481D01*
X103657023Y-72634562D01*
X103648110Y-72609650D01*
X103641681Y-72583984D01*
X103637798Y-72557812D01*
X103636500Y-72531385D01*
X103636500Y-71668615D01*
X103637798Y-71642188D01*
X103641681Y-71616016D01*
X103648110Y-71590350D01*
X103657023Y-71565438D01*
X103668336Y-71541519D01*
X103681938Y-71518825D01*
X103697700Y-71497573D01*
X103715468Y-71477968D01*
X103735073Y-71460200D01*
X103756325Y-71444438D01*
X103779019Y-71430836D01*
X103802938Y-71419523D01*
X103827850Y-71410610D01*
X103853516Y-71404181D01*
X103879688Y-71400298D01*
X103906115Y-71399000D01*
X104793885Y-71399000D01*
X104820312Y-71400298D01*
G37*
G36*
X102895312Y-71400298D02*
G01*
X102921484Y-71404181D01*
X102947150Y-71410610D01*
X102972062Y-71419523D01*
X102995981Y-71430836D01*
X103018675Y-71444438D01*
X103039927Y-71460200D01*
X103059532Y-71477968D01*
X103077300Y-71497573D01*
X103093062Y-71518825D01*
X103106664Y-71541519D01*
X103117977Y-71565438D01*
X103126890Y-71590350D01*
X103133319Y-71616016D01*
X103137202Y-71642188D01*
X103138500Y-71668615D01*
X103138500Y-72531385D01*
X103137202Y-72557812D01*
X103133319Y-72583984D01*
X103126890Y-72609650D01*
X103117977Y-72634562D01*
X103106664Y-72658481D01*
X103093062Y-72681175D01*
X103077300Y-72702427D01*
X103059532Y-72722032D01*
X103039927Y-72739800D01*
X103018675Y-72755562D01*
X102995981Y-72769164D01*
X102972062Y-72780477D01*
X102947150Y-72789390D01*
X102921484Y-72795819D01*
X102895312Y-72799702D01*
X102868885Y-72801000D01*
X101981115Y-72801000D01*
X101954688Y-72799702D01*
X101928516Y-72795819D01*
X101902850Y-72789390D01*
X101877938Y-72780477D01*
X101854019Y-72769164D01*
X101831325Y-72755562D01*
X101810073Y-72739800D01*
X101790468Y-72722032D01*
X101772700Y-72702427D01*
X101756938Y-72681175D01*
X101743336Y-72658481D01*
X101732023Y-72634562D01*
X101723110Y-72609650D01*
X101716681Y-72583984D01*
X101712798Y-72557812D01*
X101711500Y-72531385D01*
X101711500Y-71668615D01*
X101712798Y-71642188D01*
X101716681Y-71616016D01*
X101723110Y-71590350D01*
X101732023Y-71565438D01*
X101743336Y-71541519D01*
X101756938Y-71518825D01*
X101772700Y-71497573D01*
X101790468Y-71477968D01*
X101810073Y-71460200D01*
X101831325Y-71444438D01*
X101854019Y-71430836D01*
X101877938Y-71419523D01*
X101902850Y-71410610D01*
X101928516Y-71404181D01*
X101954688Y-71400298D01*
X101981115Y-71399000D01*
X102868885Y-71399000D01*
X102895312Y-71400298D01*
G37*
G36*
X125852801Y-91324604D02*
G01*
X125864984Y-91326411D01*
X125876931Y-91329404D01*
X125888527Y-91333553D01*
X125899660Y-91338819D01*
X125910224Y-91345151D01*
X125920116Y-91352487D01*
X125929242Y-91360758D01*
X125937513Y-91369884D01*
X125944849Y-91379776D01*
X125951181Y-91390340D01*
X125956447Y-91401473D01*
X125960596Y-91413069D01*
X125963589Y-91425016D01*
X125965396Y-91437199D01*
X125966000Y-91449500D01*
X125966000Y-91700500D01*
X125965396Y-91712801D01*
X125963589Y-91724984D01*
X125960596Y-91736931D01*
X125956447Y-91748527D01*
X125951181Y-91759660D01*
X125944849Y-91770224D01*
X125937513Y-91780116D01*
X125929242Y-91789242D01*
X125920116Y-91797513D01*
X125910224Y-91804849D01*
X125899660Y-91811181D01*
X125888527Y-91816447D01*
X125876931Y-91820596D01*
X125864984Y-91823589D01*
X125852801Y-91825396D01*
X125840500Y-91826000D01*
X125529500Y-91826000D01*
X125517199Y-91825396D01*
X125505016Y-91823589D01*
X125493069Y-91820596D01*
X125481473Y-91816447D01*
X125470340Y-91811181D01*
X125459776Y-91804849D01*
X125449884Y-91797513D01*
X125440758Y-91789242D01*
X125432487Y-91780116D01*
X125425151Y-91770224D01*
X125418819Y-91759660D01*
X125413553Y-91748527D01*
X125409404Y-91736931D01*
X125406411Y-91724984D01*
X125404604Y-91712801D01*
X125404000Y-91700500D01*
X125404000Y-91449500D01*
X125404604Y-91437199D01*
X125406411Y-91425016D01*
X125409404Y-91413069D01*
X125413553Y-91401473D01*
X125418819Y-91390340D01*
X125425151Y-91379776D01*
X125432487Y-91369884D01*
X125440758Y-91360758D01*
X125449884Y-91352487D01*
X125459776Y-91345151D01*
X125470340Y-91338819D01*
X125481473Y-91333553D01*
X125493069Y-91329404D01*
X125505016Y-91326411D01*
X125517199Y-91324604D01*
X125529500Y-91324000D01*
X125840500Y-91324000D01*
X125852801Y-91324604D01*
G37*
G36*
X126492801Y-91324604D02*
G01*
X126504984Y-91326411D01*
X126516931Y-91329404D01*
X126528527Y-91333553D01*
X126539660Y-91338819D01*
X126550224Y-91345151D01*
X126560116Y-91352487D01*
X126569242Y-91360758D01*
X126577513Y-91369884D01*
X126584849Y-91379776D01*
X126591181Y-91390340D01*
X126596447Y-91401473D01*
X126600596Y-91413069D01*
X126603589Y-91425016D01*
X126605396Y-91437199D01*
X126606000Y-91449500D01*
X126606000Y-91700500D01*
X126605396Y-91712801D01*
X126603589Y-91724984D01*
X126600596Y-91736931D01*
X126596447Y-91748527D01*
X126591181Y-91759660D01*
X126584849Y-91770224D01*
X126577513Y-91780116D01*
X126569242Y-91789242D01*
X126560116Y-91797513D01*
X126550224Y-91804849D01*
X126539660Y-91811181D01*
X126528527Y-91816447D01*
X126516931Y-91820596D01*
X126504984Y-91823589D01*
X126492801Y-91825396D01*
X126480500Y-91826000D01*
X126169500Y-91826000D01*
X126157199Y-91825396D01*
X126145016Y-91823589D01*
X126133069Y-91820596D01*
X126121473Y-91816447D01*
X126110340Y-91811181D01*
X126099776Y-91804849D01*
X126089884Y-91797513D01*
X126080758Y-91789242D01*
X126072487Y-91780116D01*
X126065151Y-91770224D01*
X126058819Y-91759660D01*
X126053553Y-91748527D01*
X126049404Y-91736931D01*
X126046411Y-91724984D01*
X126044604Y-91712801D01*
X126044000Y-91700500D01*
X126044000Y-91449500D01*
X126044604Y-91437199D01*
X126046411Y-91425016D01*
X126049404Y-91413069D01*
X126053553Y-91401473D01*
X126058819Y-91390340D01*
X126065151Y-91379776D01*
X126072487Y-91369884D01*
X126080758Y-91360758D01*
X126089884Y-91352487D01*
X126099776Y-91345151D01*
X126110340Y-91338819D01*
X126121473Y-91333553D01*
X126133069Y-91329404D01*
X126145016Y-91326411D01*
X126157199Y-91324604D01*
X126169500Y-91324000D01*
X126480500Y-91324000D01*
X126492801Y-91324604D01*
G37*
G36*
X121967801Y-87999604D02*
G01*
X121979984Y-88001411D01*
X121991931Y-88004404D01*
X122003527Y-88008553D01*
X122014660Y-88013819D01*
X122025224Y-88020151D01*
X122035116Y-88027487D01*
X122044242Y-88035758D01*
X122052513Y-88044884D01*
X122059849Y-88054776D01*
X122066181Y-88065340D01*
X122071447Y-88076473D01*
X122075596Y-88088069D01*
X122078589Y-88100016D01*
X122080396Y-88112199D01*
X122081000Y-88124500D01*
X122081000Y-88375500D01*
X122080396Y-88387801D01*
X122078589Y-88399984D01*
X122075596Y-88411931D01*
X122071447Y-88423527D01*
X122066181Y-88434660D01*
X122059849Y-88445224D01*
X122052513Y-88455116D01*
X122044242Y-88464242D01*
X122035116Y-88472513D01*
X122025224Y-88479849D01*
X122014660Y-88486181D01*
X122003527Y-88491447D01*
X121991931Y-88495596D01*
X121979984Y-88498589D01*
X121967801Y-88500396D01*
X121955500Y-88501000D01*
X121644500Y-88501000D01*
X121632199Y-88500396D01*
X121620016Y-88498589D01*
X121608069Y-88495596D01*
X121596473Y-88491447D01*
X121585340Y-88486181D01*
X121574776Y-88479849D01*
X121564884Y-88472513D01*
X121555758Y-88464242D01*
X121547487Y-88455116D01*
X121540151Y-88445224D01*
X121533819Y-88434660D01*
X121528553Y-88423527D01*
X121524404Y-88411931D01*
X121521411Y-88399984D01*
X121519604Y-88387801D01*
X121519000Y-88375500D01*
X121519000Y-88124500D01*
X121519604Y-88112199D01*
X121521411Y-88100016D01*
X121524404Y-88088069D01*
X121528553Y-88076473D01*
X121533819Y-88065340D01*
X121540151Y-88054776D01*
X121547487Y-88044884D01*
X121555758Y-88035758D01*
X121564884Y-88027487D01*
X121574776Y-88020151D01*
X121585340Y-88013819D01*
X121596473Y-88008553D01*
X121608069Y-88004404D01*
X121620016Y-88001411D01*
X121632199Y-87999604D01*
X121644500Y-87999000D01*
X121955500Y-87999000D01*
X121967801Y-87999604D01*
G37*
G36*
X122607801Y-87999604D02*
G01*
X122619984Y-88001411D01*
X122631931Y-88004404D01*
X122643527Y-88008553D01*
X122654660Y-88013819D01*
X122665224Y-88020151D01*
X122675116Y-88027487D01*
X122684242Y-88035758D01*
X122692513Y-88044884D01*
X122699849Y-88054776D01*
X122706181Y-88065340D01*
X122711447Y-88076473D01*
X122715596Y-88088069D01*
X122718589Y-88100016D01*
X122720396Y-88112199D01*
X122721000Y-88124500D01*
X122721000Y-88375500D01*
X122720396Y-88387801D01*
X122718589Y-88399984D01*
X122715596Y-88411931D01*
X122711447Y-88423527D01*
X122706181Y-88434660D01*
X122699849Y-88445224D01*
X122692513Y-88455116D01*
X122684242Y-88464242D01*
X122675116Y-88472513D01*
X122665224Y-88479849D01*
X122654660Y-88486181D01*
X122643527Y-88491447D01*
X122631931Y-88495596D01*
X122619984Y-88498589D01*
X122607801Y-88500396D01*
X122595500Y-88501000D01*
X122284500Y-88501000D01*
X122272199Y-88500396D01*
X122260016Y-88498589D01*
X122248069Y-88495596D01*
X122236473Y-88491447D01*
X122225340Y-88486181D01*
X122214776Y-88479849D01*
X122204884Y-88472513D01*
X122195758Y-88464242D01*
X122187487Y-88455116D01*
X122180151Y-88445224D01*
X122173819Y-88434660D01*
X122168553Y-88423527D01*
X122164404Y-88411931D01*
X122161411Y-88399984D01*
X122159604Y-88387801D01*
X122159000Y-88375500D01*
X122159000Y-88124500D01*
X122159604Y-88112199D01*
X122161411Y-88100016D01*
X122164404Y-88088069D01*
X122168553Y-88076473D01*
X122173819Y-88065340D01*
X122180151Y-88054776D01*
X122187487Y-88044884D01*
X122195758Y-88035758D01*
X122204884Y-88027487D01*
X122214776Y-88020151D01*
X122225340Y-88013819D01*
X122236473Y-88008553D01*
X122248069Y-88004404D01*
X122260016Y-88001411D01*
X122272199Y-87999604D01*
X122284500Y-87999000D01*
X122595500Y-87999000D01*
X122607801Y-87999604D01*
G37*
G36*
X126487801Y-90449604D02*
G01*
X126499984Y-90451411D01*
X126511931Y-90454404D01*
X126523527Y-90458553D01*
X126534660Y-90463819D01*
X126545224Y-90470151D01*
X126555116Y-90477487D01*
X126564242Y-90485758D01*
X126572513Y-90494884D01*
X126579849Y-90504776D01*
X126586181Y-90515340D01*
X126591447Y-90526473D01*
X126595596Y-90538069D01*
X126598589Y-90550016D01*
X126600396Y-90562199D01*
X126601000Y-90574500D01*
X126601000Y-90825500D01*
X126600396Y-90837801D01*
X126598589Y-90849984D01*
X126595596Y-90861931D01*
X126591447Y-90873527D01*
X126586181Y-90884660D01*
X126579849Y-90895224D01*
X126572513Y-90905116D01*
X126564242Y-90914242D01*
X126555116Y-90922513D01*
X126545224Y-90929849D01*
X126534660Y-90936181D01*
X126523527Y-90941447D01*
X126511931Y-90945596D01*
X126499984Y-90948589D01*
X126487801Y-90950396D01*
X126475500Y-90951000D01*
X126164500Y-90951000D01*
X126152199Y-90950396D01*
X126140016Y-90948589D01*
X126128069Y-90945596D01*
X126116473Y-90941447D01*
X126105340Y-90936181D01*
X126094776Y-90929849D01*
X126084884Y-90922513D01*
X126075758Y-90914242D01*
X126067487Y-90905116D01*
X126060151Y-90895224D01*
X126053819Y-90884660D01*
X126048553Y-90873527D01*
X126044404Y-90861931D01*
X126041411Y-90849984D01*
X126039604Y-90837801D01*
X126039000Y-90825500D01*
X126039000Y-90574500D01*
X126039604Y-90562199D01*
X126041411Y-90550016D01*
X126044404Y-90538069D01*
X126048553Y-90526473D01*
X126053819Y-90515340D01*
X126060151Y-90504776D01*
X126067487Y-90494884D01*
X126075758Y-90485758D01*
X126084884Y-90477487D01*
X126094776Y-90470151D01*
X126105340Y-90463819D01*
X126116473Y-90458553D01*
X126128069Y-90454404D01*
X126140016Y-90451411D01*
X126152199Y-90449604D01*
X126164500Y-90449000D01*
X126475500Y-90449000D01*
X126487801Y-90449604D01*
G37*
G36*
X125847801Y-90449604D02*
G01*
X125859984Y-90451411D01*
X125871931Y-90454404D01*
X125883527Y-90458553D01*
X125894660Y-90463819D01*
X125905224Y-90470151D01*
X125915116Y-90477487D01*
X125924242Y-90485758D01*
X125932513Y-90494884D01*
X125939849Y-90504776D01*
X125946181Y-90515340D01*
X125951447Y-90526473D01*
X125955596Y-90538069D01*
X125958589Y-90550016D01*
X125960396Y-90562199D01*
X125961000Y-90574500D01*
X125961000Y-90825500D01*
X125960396Y-90837801D01*
X125958589Y-90849984D01*
X125955596Y-90861931D01*
X125951447Y-90873527D01*
X125946181Y-90884660D01*
X125939849Y-90895224D01*
X125932513Y-90905116D01*
X125924242Y-90914242D01*
X125915116Y-90922513D01*
X125905224Y-90929849D01*
X125894660Y-90936181D01*
X125883527Y-90941447D01*
X125871931Y-90945596D01*
X125859984Y-90948589D01*
X125847801Y-90950396D01*
X125835500Y-90951000D01*
X125524500Y-90951000D01*
X125512199Y-90950396D01*
X125500016Y-90948589D01*
X125488069Y-90945596D01*
X125476473Y-90941447D01*
X125465340Y-90936181D01*
X125454776Y-90929849D01*
X125444884Y-90922513D01*
X125435758Y-90914242D01*
X125427487Y-90905116D01*
X125420151Y-90895224D01*
X125413819Y-90884660D01*
X125408553Y-90873527D01*
X125404404Y-90861931D01*
X125401411Y-90849984D01*
X125399604Y-90837801D01*
X125399000Y-90825500D01*
X125399000Y-90574500D01*
X125399604Y-90562199D01*
X125401411Y-90550016D01*
X125404404Y-90538069D01*
X125408553Y-90526473D01*
X125413819Y-90515340D01*
X125420151Y-90504776D01*
X125427487Y-90494884D01*
X125435758Y-90485758D01*
X125444884Y-90477487D01*
X125454776Y-90470151D01*
X125465340Y-90463819D01*
X125476473Y-90458553D01*
X125488069Y-90454404D01*
X125500016Y-90451411D01*
X125512199Y-90449604D01*
X125524500Y-90449000D01*
X125835500Y-90449000D01*
X125847801Y-90449604D01*
G37*
G36*
X122607801Y-87099604D02*
G01*
X122619984Y-87101411D01*
X122631931Y-87104404D01*
X122643527Y-87108553D01*
X122654660Y-87113819D01*
X122665224Y-87120151D01*
X122675116Y-87127487D01*
X122684242Y-87135758D01*
X122692513Y-87144884D01*
X122699849Y-87154776D01*
X122706181Y-87165340D01*
X122711447Y-87176473D01*
X122715596Y-87188069D01*
X122718589Y-87200016D01*
X122720396Y-87212199D01*
X122721000Y-87224500D01*
X122721000Y-87475500D01*
X122720396Y-87487801D01*
X122718589Y-87499984D01*
X122715596Y-87511931D01*
X122711447Y-87523527D01*
X122706181Y-87534660D01*
X122699849Y-87545224D01*
X122692513Y-87555116D01*
X122684242Y-87564242D01*
X122675116Y-87572513D01*
X122665224Y-87579849D01*
X122654660Y-87586181D01*
X122643527Y-87591447D01*
X122631931Y-87595596D01*
X122619984Y-87598589D01*
X122607801Y-87600396D01*
X122595500Y-87601000D01*
X122284500Y-87601000D01*
X122272199Y-87600396D01*
X122260016Y-87598589D01*
X122248069Y-87595596D01*
X122236473Y-87591447D01*
X122225340Y-87586181D01*
X122214776Y-87579849D01*
X122204884Y-87572513D01*
X122195758Y-87564242D01*
X122187487Y-87555116D01*
X122180151Y-87545224D01*
X122173819Y-87534660D01*
X122168553Y-87523527D01*
X122164404Y-87511931D01*
X122161411Y-87499984D01*
X122159604Y-87487801D01*
X122159000Y-87475500D01*
X122159000Y-87224500D01*
X122159604Y-87212199D01*
X122161411Y-87200016D01*
X122164404Y-87188069D01*
X122168553Y-87176473D01*
X122173819Y-87165340D01*
X122180151Y-87154776D01*
X122187487Y-87144884D01*
X122195758Y-87135758D01*
X122204884Y-87127487D01*
X122214776Y-87120151D01*
X122225340Y-87113819D01*
X122236473Y-87108553D01*
X122248069Y-87104404D01*
X122260016Y-87101411D01*
X122272199Y-87099604D01*
X122284500Y-87099000D01*
X122595500Y-87099000D01*
X122607801Y-87099604D01*
G37*
G36*
X121967801Y-87099604D02*
G01*
X121979984Y-87101411D01*
X121991931Y-87104404D01*
X122003527Y-87108553D01*
X122014660Y-87113819D01*
X122025224Y-87120151D01*
X122035116Y-87127487D01*
X122044242Y-87135758D01*
X122052513Y-87144884D01*
X122059849Y-87154776D01*
X122066181Y-87165340D01*
X122071447Y-87176473D01*
X122075596Y-87188069D01*
X122078589Y-87200016D01*
X122080396Y-87212199D01*
X122081000Y-87224500D01*
X122081000Y-87475500D01*
X122080396Y-87487801D01*
X122078589Y-87499984D01*
X122075596Y-87511931D01*
X122071447Y-87523527D01*
X122066181Y-87534660D01*
X122059849Y-87545224D01*
X122052513Y-87555116D01*
X122044242Y-87564242D01*
X122035116Y-87572513D01*
X122025224Y-87579849D01*
X122014660Y-87586181D01*
X122003527Y-87591447D01*
X121991931Y-87595596D01*
X121979984Y-87598589D01*
X121967801Y-87600396D01*
X121955500Y-87601000D01*
X121644500Y-87601000D01*
X121632199Y-87600396D01*
X121620016Y-87598589D01*
X121608069Y-87595596D01*
X121596473Y-87591447D01*
X121585340Y-87586181D01*
X121574776Y-87579849D01*
X121564884Y-87572513D01*
X121555758Y-87564242D01*
X121547487Y-87555116D01*
X121540151Y-87545224D01*
X121533819Y-87534660D01*
X121528553Y-87523527D01*
X121524404Y-87511931D01*
X121521411Y-87499984D01*
X121519604Y-87487801D01*
X121519000Y-87475500D01*
X121519000Y-87224500D01*
X121519604Y-87212199D01*
X121521411Y-87200016D01*
X121524404Y-87188069D01*
X121528553Y-87176473D01*
X121533819Y-87165340D01*
X121540151Y-87154776D01*
X121547487Y-87144884D01*
X121555758Y-87135758D01*
X121564884Y-87127487D01*
X121574776Y-87120151D01*
X121585340Y-87113819D01*
X121596473Y-87108553D01*
X121608069Y-87104404D01*
X121620016Y-87101411D01*
X121632199Y-87099604D01*
X121644500Y-87099000D01*
X121955500Y-87099000D01*
X121967801Y-87099604D01*
G37*
D25*
X131966000Y-88754000D03*
X131166000Y-88754000D03*
X130366000Y-88754000D03*
X129566000Y-88754000D03*
X128766000Y-88754000D03*
X127966000Y-88754000D03*
X127166000Y-88754000D03*
X126366000Y-88754000D03*
D26*
X124916000Y-87304000D03*
X124916000Y-86504000D03*
X124916000Y-85704000D03*
X124916000Y-84904000D03*
X124916000Y-84104000D03*
X124916000Y-83304000D03*
X124916000Y-82504000D03*
X124916000Y-81704000D03*
D25*
X126366000Y-80254000D03*
X127166000Y-80254000D03*
X127966000Y-80254000D03*
X128766000Y-80254000D03*
X129566000Y-80254000D03*
X130366000Y-80254000D03*
X131166000Y-80254000D03*
X131966000Y-80254000D03*
D26*
X133416000Y-81704000D03*
X133416000Y-82504000D03*
X133416000Y-83304000D03*
X133416000Y-84104000D03*
X133416000Y-84904000D03*
X133416000Y-85704000D03*
X133416000Y-86504000D03*
X133416000Y-87304000D03*
D10*
G36*
X121947801Y-82249604D02*
G01*
X121959984Y-82251411D01*
X121971931Y-82254404D01*
X121983527Y-82258553D01*
X121994660Y-82263819D01*
X122005224Y-82270151D01*
X122015116Y-82277487D01*
X122024242Y-82285758D01*
X122032513Y-82294884D01*
X122039849Y-82304776D01*
X122046181Y-82315340D01*
X122051447Y-82326473D01*
X122055596Y-82338069D01*
X122058589Y-82350016D01*
X122060396Y-82362199D01*
X122061000Y-82374500D01*
X122061000Y-82625500D01*
X122060396Y-82637801D01*
X122058589Y-82649984D01*
X122055596Y-82661931D01*
X122051447Y-82673527D01*
X122046181Y-82684660D01*
X122039849Y-82695224D01*
X122032513Y-82705116D01*
X122024242Y-82714242D01*
X122015116Y-82722513D01*
X122005224Y-82729849D01*
X121994660Y-82736181D01*
X121983527Y-82741447D01*
X121971931Y-82745596D01*
X121959984Y-82748589D01*
X121947801Y-82750396D01*
X121935500Y-82751000D01*
X121624500Y-82751000D01*
X121612199Y-82750396D01*
X121600016Y-82748589D01*
X121588069Y-82745596D01*
X121576473Y-82741447D01*
X121565340Y-82736181D01*
X121554776Y-82729849D01*
X121544884Y-82722513D01*
X121535758Y-82714242D01*
X121527487Y-82705116D01*
X121520151Y-82695224D01*
X121513819Y-82684660D01*
X121508553Y-82673527D01*
X121504404Y-82661931D01*
X121501411Y-82649984D01*
X121499604Y-82637801D01*
X121499000Y-82625500D01*
X121499000Y-82374500D01*
X121499604Y-82362199D01*
X121501411Y-82350016D01*
X121504404Y-82338069D01*
X121508553Y-82326473D01*
X121513819Y-82315340D01*
X121520151Y-82304776D01*
X121527487Y-82294884D01*
X121535758Y-82285758D01*
X121544884Y-82277487D01*
X121554776Y-82270151D01*
X121565340Y-82263819D01*
X121576473Y-82258553D01*
X121588069Y-82254404D01*
X121600016Y-82251411D01*
X121612199Y-82249604D01*
X121624500Y-82249000D01*
X121935500Y-82249000D01*
X121947801Y-82249604D01*
G37*
G36*
X122587801Y-82249604D02*
G01*
X122599984Y-82251411D01*
X122611931Y-82254404D01*
X122623527Y-82258553D01*
X122634660Y-82263819D01*
X122645224Y-82270151D01*
X122655116Y-82277487D01*
X122664242Y-82285758D01*
X122672513Y-82294884D01*
X122679849Y-82304776D01*
X122686181Y-82315340D01*
X122691447Y-82326473D01*
X122695596Y-82338069D01*
X122698589Y-82350016D01*
X122700396Y-82362199D01*
X122701000Y-82374500D01*
X122701000Y-82625500D01*
X122700396Y-82637801D01*
X122698589Y-82649984D01*
X122695596Y-82661931D01*
X122691447Y-82673527D01*
X122686181Y-82684660D01*
X122679849Y-82695224D01*
X122672513Y-82705116D01*
X122664242Y-82714242D01*
X122655116Y-82722513D01*
X122645224Y-82729849D01*
X122634660Y-82736181D01*
X122623527Y-82741447D01*
X122611931Y-82745596D01*
X122599984Y-82748589D01*
X122587801Y-82750396D01*
X122575500Y-82751000D01*
X122264500Y-82751000D01*
X122252199Y-82750396D01*
X122240016Y-82748589D01*
X122228069Y-82745596D01*
X122216473Y-82741447D01*
X122205340Y-82736181D01*
X122194776Y-82729849D01*
X122184884Y-82722513D01*
X122175758Y-82714242D01*
X122167487Y-82705116D01*
X122160151Y-82695224D01*
X122153819Y-82684660D01*
X122148553Y-82673527D01*
X122144404Y-82661931D01*
X122141411Y-82649984D01*
X122139604Y-82637801D01*
X122139000Y-82625500D01*
X122139000Y-82374500D01*
X122139604Y-82362199D01*
X122141411Y-82350016D01*
X122144404Y-82338069D01*
X122148553Y-82326473D01*
X122153819Y-82315340D01*
X122160151Y-82304776D01*
X122167487Y-82294884D01*
X122175758Y-82285758D01*
X122184884Y-82277487D01*
X122194776Y-82270151D01*
X122205340Y-82263819D01*
X122216473Y-82258553D01*
X122228069Y-82254404D01*
X122240016Y-82251411D01*
X122252199Y-82249604D01*
X122264500Y-82249000D01*
X122575500Y-82249000D01*
X122587801Y-82249604D01*
G37*
G36*
X135637801Y-83619604D02*
G01*
X135649984Y-83621411D01*
X135661931Y-83624404D01*
X135673527Y-83628553D01*
X135684660Y-83633819D01*
X135695224Y-83640151D01*
X135705116Y-83647487D01*
X135714242Y-83655758D01*
X135722513Y-83664884D01*
X135729849Y-83674776D01*
X135736181Y-83685340D01*
X135741447Y-83696473D01*
X135745596Y-83708069D01*
X135748589Y-83720016D01*
X135750396Y-83732199D01*
X135751000Y-83744500D01*
X135751000Y-84055500D01*
X135750396Y-84067801D01*
X135748589Y-84079984D01*
X135745596Y-84091931D01*
X135741447Y-84103527D01*
X135736181Y-84114660D01*
X135729849Y-84125224D01*
X135722513Y-84135116D01*
X135714242Y-84144242D01*
X135705116Y-84152513D01*
X135695224Y-84159849D01*
X135684660Y-84166181D01*
X135673527Y-84171447D01*
X135661931Y-84175596D01*
X135649984Y-84178589D01*
X135637801Y-84180396D01*
X135625500Y-84181000D01*
X135374500Y-84181000D01*
X135362199Y-84180396D01*
X135350016Y-84178589D01*
X135338069Y-84175596D01*
X135326473Y-84171447D01*
X135315340Y-84166181D01*
X135304776Y-84159849D01*
X135294884Y-84152513D01*
X135285758Y-84144242D01*
X135277487Y-84135116D01*
X135270151Y-84125224D01*
X135263819Y-84114660D01*
X135258553Y-84103527D01*
X135254404Y-84091931D01*
X135251411Y-84079984D01*
X135249604Y-84067801D01*
X135249000Y-84055500D01*
X135249000Y-83744500D01*
X135249604Y-83732199D01*
X135251411Y-83720016D01*
X135254404Y-83708069D01*
X135258553Y-83696473D01*
X135263819Y-83685340D01*
X135270151Y-83674776D01*
X135277487Y-83664884D01*
X135285758Y-83655758D01*
X135294884Y-83647487D01*
X135304776Y-83640151D01*
X135315340Y-83633819D01*
X135326473Y-83628553D01*
X135338069Y-83624404D01*
X135350016Y-83621411D01*
X135362199Y-83619604D01*
X135374500Y-83619000D01*
X135625500Y-83619000D01*
X135637801Y-83619604D01*
G37*
G36*
X135637801Y-82979604D02*
G01*
X135649984Y-82981411D01*
X135661931Y-82984404D01*
X135673527Y-82988553D01*
X135684660Y-82993819D01*
X135695224Y-83000151D01*
X135705116Y-83007487D01*
X135714242Y-83015758D01*
X135722513Y-83024884D01*
X135729849Y-83034776D01*
X135736181Y-83045340D01*
X135741447Y-83056473D01*
X135745596Y-83068069D01*
X135748589Y-83080016D01*
X135750396Y-83092199D01*
X135751000Y-83104500D01*
X135751000Y-83415500D01*
X135750396Y-83427801D01*
X135748589Y-83439984D01*
X135745596Y-83451931D01*
X135741447Y-83463527D01*
X135736181Y-83474660D01*
X135729849Y-83485224D01*
X135722513Y-83495116D01*
X135714242Y-83504242D01*
X135705116Y-83512513D01*
X135695224Y-83519849D01*
X135684660Y-83526181D01*
X135673527Y-83531447D01*
X135661931Y-83535596D01*
X135649984Y-83538589D01*
X135637801Y-83540396D01*
X135625500Y-83541000D01*
X135374500Y-83541000D01*
X135362199Y-83540396D01*
X135350016Y-83538589D01*
X135338069Y-83535596D01*
X135326473Y-83531447D01*
X135315340Y-83526181D01*
X135304776Y-83519849D01*
X135294884Y-83512513D01*
X135285758Y-83504242D01*
X135277487Y-83495116D01*
X135270151Y-83485224D01*
X135263819Y-83474660D01*
X135258553Y-83463527D01*
X135254404Y-83451931D01*
X135251411Y-83439984D01*
X135249604Y-83427801D01*
X135249000Y-83415500D01*
X135249000Y-83104500D01*
X135249604Y-83092199D01*
X135251411Y-83080016D01*
X135254404Y-83068069D01*
X135258553Y-83056473D01*
X135263819Y-83045340D01*
X135270151Y-83034776D01*
X135277487Y-83024884D01*
X135285758Y-83015758D01*
X135294884Y-83007487D01*
X135304776Y-83000151D01*
X135315340Y-82993819D01*
X135326473Y-82988553D01*
X135338069Y-82984404D01*
X135350016Y-82981411D01*
X135362199Y-82979604D01*
X135374500Y-82979000D01*
X135625500Y-82979000D01*
X135637801Y-82979604D01*
G37*
D19*
X97400000Y-90000000D03*
X97400000Y-87460000D03*
X97400000Y-84920000D03*
X97400000Y-82380000D03*
X97400000Y-79840000D03*
D20*
X97400000Y-77300000D03*
M02*
