G04 #@! TF.GenerationSoftware,KiCad,Pcbnew,(5.1.5)-3*
G04 #@! TF.CreationDate,2021-06-29T15:52:26+01:00*
G04 #@! TF.ProjectId,LightMinderSMD,4c696768-744d-4696-9e64-6572534d442e,rev?*
G04 #@! TF.SameCoordinates,Original*
G04 #@! TF.FileFunction,Paste,Top*
G04 #@! TF.FilePolarity,Positive*
%FSLAX46Y46*%
G04 Gerber Fmt 4.6, Leading zero omitted, Abs format (unit mm)*
G04 Created by KiCad (PCBNEW (5.1.5)-3) date 2021-06-29 15:52:26*
%MOMM*%
%LPD*%
G04 APERTURE LIST*
%ADD10C,0.100000*%
%ADD11C,0.150000*%
%ADD12C,0.300000*%
%ADD13C,0.400000*%
%ADD14R,1.525000X0.650000*%
%ADD15R,1.200000X1.400000*%
%ADD16R,0.900000X0.800000*%
%ADD17R,0.500000X0.500000*%
%ADD18R,1.180000X2.810000*%
%ADD19R,0.550000X1.600000*%
%ADD20R,1.600000X0.550000*%
G04 APERTURE END LIST*
D10*
D11*
X177002200Y-166007200D02*
X177002200Y-198007200D01*
X285002200Y-198007200D01*
X285002200Y-166007200D01*
X177002200Y-166007200D01*
D10*
D11*
X10000000Y-10000000D02*
X10000000Y-200007200D01*
X287002200Y-200007200D01*
X287002200Y-10000000D01*
X10000000Y-10000000D01*
D10*
D11*
X12000000Y-12000000D02*
X12000000Y-198007200D01*
X285002200Y-198007200D01*
X285002200Y-12000000D01*
X12000000Y-12000000D01*
D10*
D11*
X60000000Y-12000000D02*
X60000000Y-10000000D01*
D10*
D11*
X110000000Y-12000000D02*
X110000000Y-10000000D01*
D10*
D11*
X160000000Y-12000000D02*
X160000000Y-10000000D01*
D10*
D11*
X210000000Y-12000000D02*
X210000000Y-10000000D01*
D10*
D11*
X260000000Y-12000000D02*
X260000000Y-10000000D01*
D10*
D11*
X36065476Y-11588095D02*
X35322619Y-11588095D01*
X35694047Y-11588095D02*
X35694047Y-10288095D01*
X35570238Y-10473809D01*
X35446428Y-10597619D01*
X35322619Y-10659523D01*
D10*
D11*
X85322619Y-10411904D02*
X85384523Y-10350000D01*
X85508333Y-10288095D01*
X85817857Y-10288095D01*
X85941666Y-10350000D01*
X86003571Y-10411904D01*
X86065476Y-10535714D01*
X86065476Y-10659523D01*
X86003571Y-10845238D01*
X85260714Y-11588095D01*
X86065476Y-11588095D01*
D10*
D11*
X135260714Y-10288095D02*
X136065476Y-10288095D01*
X135632142Y-10783333D01*
X135817857Y-10783333D01*
X135941666Y-10845238D01*
X136003571Y-10907142D01*
X136065476Y-11030952D01*
X136065476Y-11340476D01*
X136003571Y-11464285D01*
X135941666Y-11526190D01*
X135817857Y-11588095D01*
X135446428Y-11588095D01*
X135322619Y-11526190D01*
X135260714Y-11464285D01*
D10*
D11*
X185941666Y-10721428D02*
X185941666Y-11588095D01*
X185632142Y-10226190D02*
X185322619Y-11154761D01*
X186127380Y-11154761D01*
D10*
D11*
X236003571Y-10288095D02*
X235384523Y-10288095D01*
X235322619Y-10907142D01*
X235384523Y-10845238D01*
X235508333Y-10783333D01*
X235817857Y-10783333D01*
X235941666Y-10845238D01*
X236003571Y-10907142D01*
X236065476Y-11030952D01*
X236065476Y-11340476D01*
X236003571Y-11464285D01*
X235941666Y-11526190D01*
X235817857Y-11588095D01*
X235508333Y-11588095D01*
X235384523Y-11526190D01*
X235322619Y-11464285D01*
D10*
D11*
X285941666Y-10288095D02*
X285694047Y-10288095D01*
X285570238Y-10350000D01*
X285508333Y-10411904D01*
X285384523Y-10597619D01*
X285322619Y-10845238D01*
X285322619Y-11340476D01*
X285384523Y-11464285D01*
X285446428Y-11526190D01*
X285570238Y-11588095D01*
X285817857Y-11588095D01*
X285941666Y-11526190D01*
X286003571Y-11464285D01*
X286065476Y-11340476D01*
X286065476Y-11030952D01*
X286003571Y-10907142D01*
X285941666Y-10845238D01*
X285817857Y-10783333D01*
X285570238Y-10783333D01*
X285446428Y-10845238D01*
X285384523Y-10907142D01*
X285322619Y-11030952D01*
D10*
D11*
X60000000Y-198007200D02*
X60000000Y-200007200D01*
D10*
D11*
X110000000Y-198007200D02*
X110000000Y-200007200D01*
D10*
D11*
X160000000Y-198007200D02*
X160000000Y-200007200D01*
D10*
D11*
X210000000Y-198007200D02*
X210000000Y-200007200D01*
D10*
D11*
X260000000Y-198007200D02*
X260000000Y-200007200D01*
D10*
D11*
X36065476Y-199595295D02*
X35322619Y-199595295D01*
X35694047Y-199595295D02*
X35694047Y-198295295D01*
X35570238Y-198481009D01*
X35446428Y-198604819D01*
X35322619Y-198666723D01*
D10*
D11*
X85322619Y-198419104D02*
X85384523Y-198357200D01*
X85508333Y-198295295D01*
X85817857Y-198295295D01*
X85941666Y-198357200D01*
X86003571Y-198419104D01*
X86065476Y-198542914D01*
X86065476Y-198666723D01*
X86003571Y-198852438D01*
X85260714Y-199595295D01*
X86065476Y-199595295D01*
D10*
D11*
X135260714Y-198295295D02*
X136065476Y-198295295D01*
X135632142Y-198790533D01*
X135817857Y-198790533D01*
X135941666Y-198852438D01*
X136003571Y-198914342D01*
X136065476Y-199038152D01*
X136065476Y-199347676D01*
X136003571Y-199471485D01*
X135941666Y-199533390D01*
X135817857Y-199595295D01*
X135446428Y-199595295D01*
X135322619Y-199533390D01*
X135260714Y-199471485D01*
D10*
D11*
X185941666Y-198728628D02*
X185941666Y-199595295D01*
X185632142Y-198233390D02*
X185322619Y-199161961D01*
X186127380Y-199161961D01*
D10*
D11*
X236003571Y-198295295D02*
X235384523Y-198295295D01*
X235322619Y-198914342D01*
X235384523Y-198852438D01*
X235508333Y-198790533D01*
X235817857Y-198790533D01*
X235941666Y-198852438D01*
X236003571Y-198914342D01*
X236065476Y-199038152D01*
X236065476Y-199347676D01*
X236003571Y-199471485D01*
X235941666Y-199533390D01*
X235817857Y-199595295D01*
X235508333Y-199595295D01*
X235384523Y-199533390D01*
X235322619Y-199471485D01*
D10*
D11*
X285941666Y-198295295D02*
X285694047Y-198295295D01*
X285570238Y-198357200D01*
X285508333Y-198419104D01*
X285384523Y-198604819D01*
X285322619Y-198852438D01*
X285322619Y-199347676D01*
X285384523Y-199471485D01*
X285446428Y-199533390D01*
X285570238Y-199595295D01*
X285817857Y-199595295D01*
X285941666Y-199533390D01*
X286003571Y-199471485D01*
X286065476Y-199347676D01*
X286065476Y-199038152D01*
X286003571Y-198914342D01*
X285941666Y-198852438D01*
X285817857Y-198790533D01*
X285570238Y-198790533D01*
X285446428Y-198852438D01*
X285384523Y-198914342D01*
X285322619Y-199038152D01*
D10*
D11*
X10000000Y-60000000D02*
X12000000Y-60000000D01*
D10*
D11*
X10000000Y-110000000D02*
X12000000Y-110000000D01*
D10*
D11*
X10000000Y-160000000D02*
X12000000Y-160000000D01*
D10*
D11*
X10690476Y-35216666D02*
X11309523Y-35216666D01*
X10566666Y-35588095D02*
X11000000Y-34288095D01*
X11433333Y-35588095D01*
D10*
D11*
X11092857Y-84907142D02*
X11278571Y-84969047D01*
X11340476Y-85030952D01*
X11402380Y-85154761D01*
X11402380Y-85340476D01*
X11340476Y-85464285D01*
X11278571Y-85526190D01*
X11154761Y-85588095D01*
X10659523Y-85588095D01*
X10659523Y-84288095D01*
X11092857Y-84288095D01*
X11216666Y-84350000D01*
X11278571Y-84411904D01*
X11340476Y-84535714D01*
X11340476Y-84659523D01*
X11278571Y-84783333D01*
X11216666Y-84845238D01*
X11092857Y-84907142D01*
X10659523Y-84907142D01*
D10*
D11*
X11402380Y-135464285D02*
X11340476Y-135526190D01*
X11154761Y-135588095D01*
X11030952Y-135588095D01*
X10845238Y-135526190D01*
X10721428Y-135402380D01*
X10659523Y-135278571D01*
X10597619Y-135030952D01*
X10597619Y-134845238D01*
X10659523Y-134597619D01*
X10721428Y-134473809D01*
X10845238Y-134350000D01*
X11030952Y-134288095D01*
X11154761Y-134288095D01*
X11340476Y-134350000D01*
X11402380Y-134411904D01*
D10*
D11*
X10659523Y-185588095D02*
X10659523Y-184288095D01*
X10969047Y-184288095D01*
X11154761Y-184350000D01*
X11278571Y-184473809D01*
X11340476Y-184597619D01*
X11402380Y-184845238D01*
X11402380Y-185030952D01*
X11340476Y-185278571D01*
X11278571Y-185402380D01*
X11154761Y-185526190D01*
X10969047Y-185588095D01*
X10659523Y-185588095D01*
D10*
D11*
X287002200Y-60000000D02*
X285002200Y-60000000D01*
D10*
D11*
X287002200Y-110000000D02*
X285002200Y-110000000D01*
D10*
D11*
X287002200Y-160000000D02*
X285002200Y-160000000D01*
D10*
D11*
X285692676Y-35216666D02*
X286311723Y-35216666D01*
X285568866Y-35588095D02*
X286002200Y-34288095D01*
X286435533Y-35588095D01*
D10*
D11*
X286095057Y-84907142D02*
X286280771Y-84969047D01*
X286342676Y-85030952D01*
X286404580Y-85154761D01*
X286404580Y-85340476D01*
X286342676Y-85464285D01*
X286280771Y-85526190D01*
X286156961Y-85588095D01*
X285661723Y-85588095D01*
X285661723Y-84288095D01*
X286095057Y-84288095D01*
X286218866Y-84350000D01*
X286280771Y-84411904D01*
X286342676Y-84535714D01*
X286342676Y-84659523D01*
X286280771Y-84783333D01*
X286218866Y-84845238D01*
X286095057Y-84907142D01*
X285661723Y-84907142D01*
D10*
D11*
X286404580Y-135464285D02*
X286342676Y-135526190D01*
X286156961Y-135588095D01*
X286033152Y-135588095D01*
X285847438Y-135526190D01*
X285723628Y-135402380D01*
X285661723Y-135278571D01*
X285599819Y-135030952D01*
X285599819Y-134845238D01*
X285661723Y-134597619D01*
X285723628Y-134473809D01*
X285847438Y-134350000D01*
X286033152Y-134288095D01*
X286156961Y-134288095D01*
X286342676Y-134350000D01*
X286404580Y-134411904D01*
D10*
D11*
X285661723Y-185588095D02*
X285661723Y-184288095D01*
X285971247Y-184288095D01*
X286156961Y-184350000D01*
X286280771Y-184473809D01*
X286342676Y-184597619D01*
X286404580Y-184845238D01*
X286404580Y-185030952D01*
X286342676Y-185278571D01*
X286280771Y-185402380D01*
X286156961Y-185526190D01*
X285971247Y-185588095D01*
X285661723Y-185588095D01*
D10*
D11*
X200434342Y-193785771D02*
X200434342Y-192285771D01*
X200791485Y-192285771D01*
X201005771Y-192357200D01*
X201148628Y-192500057D01*
X201220057Y-192642914D01*
X201291485Y-192928628D01*
X201291485Y-193142914D01*
X201220057Y-193428628D01*
X201148628Y-193571485D01*
X201005771Y-193714342D01*
X200791485Y-193785771D01*
X200434342Y-193785771D01*
X202577200Y-193785771D02*
X202577200Y-193000057D01*
X202505771Y-192857200D01*
X202362914Y-192785771D01*
X202077200Y-192785771D01*
X201934342Y-192857200D01*
X202577200Y-193714342D02*
X202434342Y-193785771D01*
X202077200Y-193785771D01*
X201934342Y-193714342D01*
X201862914Y-193571485D01*
X201862914Y-193428628D01*
X201934342Y-193285771D01*
X202077200Y-193214342D01*
X202434342Y-193214342D01*
X202577200Y-193142914D01*
X203077200Y-192785771D02*
X203648628Y-192785771D01*
X203291485Y-192285771D02*
X203291485Y-193571485D01*
X203362914Y-193714342D01*
X203505771Y-193785771D01*
X203648628Y-193785771D01*
X204720057Y-193714342D02*
X204577200Y-193785771D01*
X204291485Y-193785771D01*
X204148628Y-193714342D01*
X204077200Y-193571485D01*
X204077200Y-193000057D01*
X204148628Y-192857200D01*
X204291485Y-192785771D01*
X204577200Y-192785771D01*
X204720057Y-192857200D01*
X204791485Y-193000057D01*
X204791485Y-193142914D01*
X204077200Y-193285771D01*
X205434342Y-193642914D02*
X205505771Y-193714342D01*
X205434342Y-193785771D01*
X205362914Y-193714342D01*
X205434342Y-193642914D01*
X205434342Y-193785771D01*
X205434342Y-192857200D02*
X205505771Y-192928628D01*
X205434342Y-193000057D01*
X205362914Y-192928628D01*
X205434342Y-192857200D01*
X205434342Y-193000057D01*
D10*
D11*
X177002200Y-194507200D02*
X285002200Y-194507200D01*
D10*
D11*
X178434342Y-196585771D02*
X178434342Y-195085771D01*
X179291485Y-196585771D02*
X178648628Y-195728628D01*
X179291485Y-195085771D02*
X178434342Y-195942914D01*
X179934342Y-196585771D02*
X179934342Y-195585771D01*
X179934342Y-195085771D02*
X179862914Y-195157200D01*
X179934342Y-195228628D01*
X180005771Y-195157200D01*
X179934342Y-195085771D01*
X179934342Y-195228628D01*
X181505771Y-196442914D02*
X181434342Y-196514342D01*
X181220057Y-196585771D01*
X181077200Y-196585771D01*
X180862914Y-196514342D01*
X180720057Y-196371485D01*
X180648628Y-196228628D01*
X180577200Y-195942914D01*
X180577200Y-195728628D01*
X180648628Y-195442914D01*
X180720057Y-195300057D01*
X180862914Y-195157200D01*
X181077200Y-195085771D01*
X181220057Y-195085771D01*
X181434342Y-195157200D01*
X181505771Y-195228628D01*
X182791485Y-196585771D02*
X182791485Y-195800057D01*
X182720057Y-195657200D01*
X182577200Y-195585771D01*
X182291485Y-195585771D01*
X182148628Y-195657200D01*
X182791485Y-196514342D02*
X182648628Y-196585771D01*
X182291485Y-196585771D01*
X182148628Y-196514342D01*
X182077200Y-196371485D01*
X182077200Y-196228628D01*
X182148628Y-196085771D01*
X182291485Y-196014342D01*
X182648628Y-196014342D01*
X182791485Y-195942914D01*
X184148628Y-196585771D02*
X184148628Y-195085771D01*
X184148628Y-196514342D02*
X184005771Y-196585771D01*
X183720057Y-196585771D01*
X183577200Y-196514342D01*
X183505771Y-196442914D01*
X183434342Y-196300057D01*
X183434342Y-195871485D01*
X183505771Y-195728628D01*
X183577200Y-195657200D01*
X183720057Y-195585771D01*
X184005771Y-195585771D01*
X184148628Y-195657200D01*
X186005771Y-195800057D02*
X186505771Y-195800057D01*
X186720057Y-196585771D02*
X186005771Y-196585771D01*
X186005771Y-195085771D01*
X186720057Y-195085771D01*
X187362914Y-196442914D02*
X187434342Y-196514342D01*
X187362914Y-196585771D01*
X187291485Y-196514342D01*
X187362914Y-196442914D01*
X187362914Y-196585771D01*
X188077200Y-196585771D02*
X188077200Y-195085771D01*
X188434342Y-195085771D01*
X188648628Y-195157200D01*
X188791485Y-195300057D01*
X188862914Y-195442914D01*
X188934342Y-195728628D01*
X188934342Y-195942914D01*
X188862914Y-196228628D01*
X188791485Y-196371485D01*
X188648628Y-196514342D01*
X188434342Y-196585771D01*
X188077200Y-196585771D01*
X189577200Y-196442914D02*
X189648628Y-196514342D01*
X189577200Y-196585771D01*
X189505771Y-196514342D01*
X189577200Y-196442914D01*
X189577200Y-196585771D01*
X190220057Y-196157200D02*
X190934342Y-196157200D01*
X190077200Y-196585771D02*
X190577200Y-195085771D01*
X191077200Y-196585771D01*
X191577200Y-196442914D02*
X191648628Y-196514342D01*
X191577200Y-196585771D01*
X191505771Y-196514342D01*
X191577200Y-196442914D01*
X191577200Y-196585771D01*
X194577200Y-196585771D02*
X194577200Y-195085771D01*
X194720057Y-196014342D02*
X195148628Y-196585771D01*
X195148628Y-195585771D02*
X194577200Y-196157200D01*
X195791485Y-196585771D02*
X195791485Y-195585771D01*
X195791485Y-195085771D02*
X195720057Y-195157200D01*
X195791485Y-195228628D01*
X195862914Y-195157200D01*
X195791485Y-195085771D01*
X195791485Y-195228628D01*
X197148628Y-196514342D02*
X197005771Y-196585771D01*
X196720057Y-196585771D01*
X196577200Y-196514342D01*
X196505771Y-196442914D01*
X196434342Y-196300057D01*
X196434342Y-195871485D01*
X196505771Y-195728628D01*
X196577200Y-195657200D01*
X196720057Y-195585771D01*
X197005771Y-195585771D01*
X197148628Y-195657200D01*
X198434342Y-196585771D02*
X198434342Y-195800057D01*
X198362914Y-195657200D01*
X198220057Y-195585771D01*
X197934342Y-195585771D01*
X197791485Y-195657200D01*
X198434342Y-196514342D02*
X198291485Y-196585771D01*
X197934342Y-196585771D01*
X197791485Y-196514342D01*
X197720057Y-196371485D01*
X197720057Y-196228628D01*
X197791485Y-196085771D01*
X197934342Y-196014342D01*
X198291485Y-196014342D01*
X198434342Y-195942914D01*
X199791485Y-196585771D02*
X199791485Y-195085771D01*
X199791485Y-196514342D02*
X199648628Y-196585771D01*
X199362914Y-196585771D01*
X199220057Y-196514342D01*
X199148628Y-196442914D01*
X199077200Y-196300057D01*
X199077200Y-195871485D01*
X199148628Y-195728628D01*
X199220057Y-195657200D01*
X199362914Y-195585771D01*
X199648628Y-195585771D01*
X199791485Y-195657200D01*
X202077200Y-197157200D02*
X202005771Y-197085771D01*
X201862914Y-196871485D01*
X201791485Y-196728628D01*
X201720057Y-196514342D01*
X201648628Y-196157200D01*
X201648628Y-195871485D01*
X201720057Y-195514342D01*
X201791485Y-195300057D01*
X201862914Y-195157200D01*
X202005771Y-194942914D01*
X202077200Y-194871485D01*
X203362914Y-195085771D02*
X202648628Y-195085771D01*
X202577200Y-195800057D01*
X202648628Y-195728628D01*
X202791485Y-195657200D01*
X203148628Y-195657200D01*
X203291485Y-195728628D01*
X203362914Y-195800057D01*
X203434342Y-195942914D01*
X203434342Y-196300057D01*
X203362914Y-196442914D01*
X203291485Y-196514342D01*
X203148628Y-196585771D01*
X202791485Y-196585771D01*
X202648628Y-196514342D01*
X202577200Y-196442914D01*
X204077200Y-196442914D02*
X204148628Y-196514342D01*
X204077200Y-196585771D01*
X204005771Y-196514342D01*
X204077200Y-196442914D01*
X204077200Y-196585771D01*
X205577200Y-196585771D02*
X204720057Y-196585771D01*
X205148628Y-196585771D02*
X205148628Y-195085771D01*
X205005771Y-195300057D01*
X204862914Y-195442914D01*
X204720057Y-195514342D01*
X206220057Y-196442914D02*
X206291485Y-196514342D01*
X206220057Y-196585771D01*
X206148628Y-196514342D01*
X206220057Y-196442914D01*
X206220057Y-196585771D01*
X207648628Y-195085771D02*
X206934342Y-195085771D01*
X206862914Y-195800057D01*
X206934342Y-195728628D01*
X207077200Y-195657200D01*
X207434342Y-195657200D01*
X207577200Y-195728628D01*
X207648628Y-195800057D01*
X207720057Y-195942914D01*
X207720057Y-196300057D01*
X207648628Y-196442914D01*
X207577200Y-196514342D01*
X207434342Y-196585771D01*
X207077200Y-196585771D01*
X206934342Y-196514342D01*
X206862914Y-196442914D01*
X208220057Y-197157200D02*
X208291485Y-197085771D01*
X208434342Y-196871485D01*
X208505771Y-196728628D01*
X208577200Y-196514342D01*
X208648628Y-196157200D01*
X208648628Y-195871485D01*
X208577200Y-195514342D01*
X208505771Y-195300057D01*
X208434342Y-195157200D01*
X208291485Y-194942914D01*
X208220057Y-194871485D01*
X209362914Y-196014342D02*
X210505771Y-196014342D01*
X211077200Y-195085771D02*
X212005771Y-195085771D01*
X211505771Y-195657200D01*
X211720057Y-195657200D01*
X211862914Y-195728628D01*
X211934342Y-195800057D01*
X212005771Y-195942914D01*
X212005771Y-196300057D01*
X211934342Y-196442914D01*
X211862914Y-196514342D01*
X211720057Y-196585771D01*
X211291485Y-196585771D01*
X211148628Y-196514342D01*
X211077200Y-196442914D01*
D10*
D11*
X177002200Y-191507200D02*
X285002200Y-191507200D01*
D10*
D12*
X264411485Y-193785771D02*
X263911485Y-193071485D01*
X263554342Y-193785771D02*
X263554342Y-192285771D01*
X264125771Y-192285771D01*
X264268628Y-192357200D01*
X264340057Y-192428628D01*
X264411485Y-192571485D01*
X264411485Y-192785771D01*
X264340057Y-192928628D01*
X264268628Y-193000057D01*
X264125771Y-193071485D01*
X263554342Y-193071485D01*
X265625771Y-193714342D02*
X265482914Y-193785771D01*
X265197200Y-193785771D01*
X265054342Y-193714342D01*
X264982914Y-193571485D01*
X264982914Y-193000057D01*
X265054342Y-192857200D01*
X265197200Y-192785771D01*
X265482914Y-192785771D01*
X265625771Y-192857200D01*
X265697200Y-193000057D01*
X265697200Y-193142914D01*
X264982914Y-193285771D01*
X266197200Y-192785771D02*
X266554342Y-193785771D01*
X266911485Y-192785771D01*
X267482914Y-193642914D02*
X267554342Y-193714342D01*
X267482914Y-193785771D01*
X267411485Y-193714342D01*
X267482914Y-193642914D01*
X267482914Y-193785771D01*
X267482914Y-192857200D02*
X267554342Y-192928628D01*
X267482914Y-193000057D01*
X267411485Y-192928628D01*
X267482914Y-192857200D01*
X267482914Y-193000057D01*
D10*
D11*
X178362914Y-193714342D02*
X178577200Y-193785771D01*
X178934342Y-193785771D01*
X179077200Y-193714342D01*
X179148628Y-193642914D01*
X179220057Y-193500057D01*
X179220057Y-193357200D01*
X179148628Y-193214342D01*
X179077200Y-193142914D01*
X178934342Y-193071485D01*
X178648628Y-193000057D01*
X178505771Y-192928628D01*
X178434342Y-192857200D01*
X178362914Y-192714342D01*
X178362914Y-192571485D01*
X178434342Y-192428628D01*
X178505771Y-192357200D01*
X178648628Y-192285771D01*
X179005771Y-192285771D01*
X179220057Y-192357200D01*
X179862914Y-193785771D02*
X179862914Y-192785771D01*
X179862914Y-192285771D02*
X179791485Y-192357200D01*
X179862914Y-192428628D01*
X179934342Y-192357200D01*
X179862914Y-192285771D01*
X179862914Y-192428628D01*
X180434342Y-192785771D02*
X181220057Y-192785771D01*
X180434342Y-193785771D01*
X181220057Y-193785771D01*
X182362914Y-193714342D02*
X182220057Y-193785771D01*
X181934342Y-193785771D01*
X181791485Y-193714342D01*
X181720057Y-193571485D01*
X181720057Y-193000057D01*
X181791485Y-192857200D01*
X181934342Y-192785771D01*
X182220057Y-192785771D01*
X182362914Y-192857200D01*
X182434342Y-193000057D01*
X182434342Y-193142914D01*
X181720057Y-193285771D01*
X183077200Y-193642914D02*
X183148628Y-193714342D01*
X183077200Y-193785771D01*
X183005771Y-193714342D01*
X183077200Y-193642914D01*
X183077200Y-193785771D01*
X183077200Y-192857200D02*
X183148628Y-192928628D01*
X183077200Y-193000057D01*
X183005771Y-192928628D01*
X183077200Y-192857200D01*
X183077200Y-193000057D01*
X184862914Y-193357200D02*
X185577200Y-193357200D01*
X184720057Y-193785771D02*
X185220057Y-192285771D01*
X185720057Y-193785771D01*
X186862914Y-192785771D02*
X186862914Y-193785771D01*
X186505771Y-192214342D02*
X186148628Y-193285771D01*
X187077200Y-193285771D01*
D10*
D11*
X263434342Y-196585771D02*
X263434342Y-195085771D01*
X264791485Y-196585771D02*
X264791485Y-195085771D01*
X264791485Y-196514342D02*
X264648628Y-196585771D01*
X264362914Y-196585771D01*
X264220057Y-196514342D01*
X264148628Y-196442914D01*
X264077200Y-196300057D01*
X264077200Y-195871485D01*
X264148628Y-195728628D01*
X264220057Y-195657200D01*
X264362914Y-195585771D01*
X264648628Y-195585771D01*
X264791485Y-195657200D01*
X265505771Y-196442914D02*
X265577200Y-196514342D01*
X265505771Y-196585771D01*
X265434342Y-196514342D01*
X265505771Y-196442914D01*
X265505771Y-196585771D01*
X265505771Y-195657200D02*
X265577200Y-195728628D01*
X265505771Y-195800057D01*
X265434342Y-195728628D01*
X265505771Y-195657200D01*
X265505771Y-195800057D01*
X268148628Y-196585771D02*
X267291485Y-196585771D01*
X267720057Y-196585771D02*
X267720057Y-195085771D01*
X267577200Y-195300057D01*
X267434342Y-195442914D01*
X267291485Y-195514342D01*
X269862914Y-195014342D02*
X268577200Y-196942914D01*
X271148628Y-196585771D02*
X270291485Y-196585771D01*
X270720057Y-196585771D02*
X270720057Y-195085771D01*
X270577200Y-195300057D01*
X270434342Y-195442914D01*
X270291485Y-195514342D01*
D10*
D11*
X177002200Y-187507200D02*
X285002200Y-187507200D01*
D10*
D13*
X178714580Y-188211961D02*
X179857438Y-188211961D01*
X179036009Y-190211961D02*
X179286009Y-188211961D01*
X180274104Y-190211961D02*
X180440771Y-188878628D01*
X180524104Y-188211961D02*
X180416961Y-188307200D01*
X180500295Y-188402438D01*
X180607438Y-188307200D01*
X180524104Y-188211961D01*
X180500295Y-188402438D01*
X181107438Y-188878628D02*
X181869342Y-188878628D01*
X181476485Y-188211961D02*
X181262200Y-189926247D01*
X181333628Y-190116723D01*
X181512200Y-190211961D01*
X181702676Y-190211961D01*
X182655057Y-190211961D02*
X182476485Y-190116723D01*
X182405057Y-189926247D01*
X182619342Y-188211961D01*
X184190771Y-190116723D02*
X183988390Y-190211961D01*
X183607438Y-190211961D01*
X183428866Y-190116723D01*
X183357438Y-189926247D01*
X183452676Y-189164342D01*
X183571723Y-188973866D01*
X183774104Y-188878628D01*
X184155057Y-188878628D01*
X184333628Y-188973866D01*
X184405057Y-189164342D01*
X184381247Y-189354819D01*
X183405057Y-189545295D01*
X185155057Y-190021485D02*
X185238390Y-190116723D01*
X185131247Y-190211961D01*
X185047914Y-190116723D01*
X185155057Y-190021485D01*
X185131247Y-190211961D01*
X185286009Y-188973866D02*
X185369342Y-189069104D01*
X185262200Y-189164342D01*
X185178866Y-189069104D01*
X185286009Y-188973866D01*
X185262200Y-189164342D01*
D10*
D11*
X178934342Y-185600057D02*
X178434342Y-185600057D01*
X178434342Y-186385771D02*
X178434342Y-184885771D01*
X179148628Y-184885771D01*
X179720057Y-186385771D02*
X179720057Y-185385771D01*
X179720057Y-184885771D02*
X179648628Y-184957200D01*
X179720057Y-185028628D01*
X179791485Y-184957200D01*
X179720057Y-184885771D01*
X179720057Y-185028628D01*
X180648628Y-186385771D02*
X180505771Y-186314342D01*
X180434342Y-186171485D01*
X180434342Y-184885771D01*
X181791485Y-186314342D02*
X181648628Y-186385771D01*
X181362914Y-186385771D01*
X181220057Y-186314342D01*
X181148628Y-186171485D01*
X181148628Y-185600057D01*
X181220057Y-185457200D01*
X181362914Y-185385771D01*
X181648628Y-185385771D01*
X181791485Y-185457200D01*
X181862914Y-185600057D01*
X181862914Y-185742914D01*
X181148628Y-185885771D01*
X182505771Y-186242914D02*
X182577200Y-186314342D01*
X182505771Y-186385771D01*
X182434342Y-186314342D01*
X182505771Y-186242914D01*
X182505771Y-186385771D01*
X182505771Y-185457200D02*
X182577200Y-185528628D01*
X182505771Y-185600057D01*
X182434342Y-185528628D01*
X182505771Y-185457200D01*
X182505771Y-185600057D01*
X185077200Y-186385771D02*
X184362914Y-186385771D01*
X184362914Y-184885771D01*
X185577200Y-186385771D02*
X185577200Y-185385771D01*
X185577200Y-184885771D02*
X185505771Y-184957200D01*
X185577200Y-185028628D01*
X185648628Y-184957200D01*
X185577200Y-184885771D01*
X185577200Y-185028628D01*
X186934342Y-185385771D02*
X186934342Y-186600057D01*
X186862914Y-186742914D01*
X186791485Y-186814342D01*
X186648628Y-186885771D01*
X186434342Y-186885771D01*
X186291485Y-186814342D01*
X186934342Y-186314342D02*
X186791485Y-186385771D01*
X186505771Y-186385771D01*
X186362914Y-186314342D01*
X186291485Y-186242914D01*
X186220057Y-186100057D01*
X186220057Y-185671485D01*
X186291485Y-185528628D01*
X186362914Y-185457200D01*
X186505771Y-185385771D01*
X186791485Y-185385771D01*
X186934342Y-185457200D01*
X187648628Y-186385771D02*
X187648628Y-184885771D01*
X188291485Y-186385771D02*
X188291485Y-185600057D01*
X188220057Y-185457200D01*
X188077200Y-185385771D01*
X187862914Y-185385771D01*
X187720057Y-185457200D01*
X187648628Y-185528628D01*
X188791485Y-185385771D02*
X189362914Y-185385771D01*
X189005771Y-184885771D02*
X189005771Y-186171485D01*
X189077200Y-186314342D01*
X189220057Y-186385771D01*
X189362914Y-186385771D01*
X189862914Y-186385771D02*
X189862914Y-184885771D01*
X190362914Y-185957200D01*
X190862914Y-184885771D01*
X190862914Y-186385771D01*
X191577200Y-186385771D02*
X191577200Y-185385771D01*
X191577200Y-184885771D02*
X191505771Y-184957200D01*
X191577200Y-185028628D01*
X191648628Y-184957200D01*
X191577200Y-184885771D01*
X191577200Y-185028628D01*
X192291485Y-185385771D02*
X192291485Y-186385771D01*
X192291485Y-185528628D02*
X192362914Y-185457200D01*
X192505771Y-185385771D01*
X192720057Y-185385771D01*
X192862914Y-185457200D01*
X192934342Y-185600057D01*
X192934342Y-186385771D01*
X194291485Y-186385771D02*
X194291485Y-184885771D01*
X194291485Y-186314342D02*
X194148628Y-186385771D01*
X193862914Y-186385771D01*
X193720057Y-186314342D01*
X193648628Y-186242914D01*
X193577200Y-186100057D01*
X193577200Y-185671485D01*
X193648628Y-185528628D01*
X193720057Y-185457200D01*
X193862914Y-185385771D01*
X194148628Y-185385771D01*
X194291485Y-185457200D01*
X195577200Y-186314342D02*
X195434342Y-186385771D01*
X195148628Y-186385771D01*
X195005771Y-186314342D01*
X194934342Y-186171485D01*
X194934342Y-185600057D01*
X195005771Y-185457200D01*
X195148628Y-185385771D01*
X195434342Y-185385771D01*
X195577200Y-185457200D01*
X195648628Y-185600057D01*
X195648628Y-185742914D01*
X194934342Y-185885771D01*
X196291485Y-186385771D02*
X196291485Y-185385771D01*
X196291485Y-185671485D02*
X196362914Y-185528628D01*
X196434342Y-185457200D01*
X196577200Y-185385771D01*
X196720057Y-185385771D01*
X197148628Y-186314342D02*
X197362914Y-186385771D01*
X197720057Y-186385771D01*
X197862914Y-186314342D01*
X197934342Y-186242914D01*
X198005771Y-186100057D01*
X198005771Y-185957200D01*
X197934342Y-185814342D01*
X197862914Y-185742914D01*
X197720057Y-185671485D01*
X197434342Y-185600057D01*
X197291485Y-185528628D01*
X197220057Y-185457200D01*
X197148628Y-185314342D01*
X197148628Y-185171485D01*
X197220057Y-185028628D01*
X197291485Y-184957200D01*
X197434342Y-184885771D01*
X197791485Y-184885771D01*
X198005771Y-184957200D01*
X198648628Y-186385771D02*
X198648628Y-184885771D01*
X199148628Y-185957200D01*
X199648628Y-184885771D01*
X199648628Y-186385771D01*
X200362914Y-186385771D02*
X200362914Y-184885771D01*
X200720057Y-184885771D01*
X200934342Y-184957200D01*
X201077200Y-185100057D01*
X201148628Y-185242914D01*
X201220057Y-185528628D01*
X201220057Y-185742914D01*
X201148628Y-186028628D01*
X201077200Y-186171485D01*
X200934342Y-186314342D01*
X200720057Y-186385771D01*
X200362914Y-186385771D01*
X201862914Y-186242914D02*
X201934342Y-186314342D01*
X201862914Y-186385771D01*
X201791485Y-186314342D01*
X201862914Y-186242914D01*
X201862914Y-186385771D01*
X202577200Y-186385771D02*
X202577200Y-184885771D01*
X202720057Y-185814342D02*
X203148628Y-186385771D01*
X203148628Y-185385771D02*
X202577200Y-185957200D01*
X203791485Y-186385771D02*
X203791485Y-185385771D01*
X203791485Y-184885771D02*
X203720057Y-184957200D01*
X203791485Y-185028628D01*
X203862914Y-184957200D01*
X203791485Y-184885771D01*
X203791485Y-185028628D01*
X205148628Y-186314342D02*
X205005771Y-186385771D01*
X204720057Y-186385771D01*
X204577200Y-186314342D01*
X204505771Y-186242914D01*
X204434342Y-186100057D01*
X204434342Y-185671485D01*
X204505771Y-185528628D01*
X204577200Y-185457200D01*
X204720057Y-185385771D01*
X205005771Y-185385771D01*
X205148628Y-185457200D01*
X206434342Y-186385771D02*
X206434342Y-185600057D01*
X206362914Y-185457200D01*
X206220057Y-185385771D01*
X205934342Y-185385771D01*
X205791485Y-185457200D01*
X206434342Y-186314342D02*
X206291485Y-186385771D01*
X205934342Y-186385771D01*
X205791485Y-186314342D01*
X205720057Y-186171485D01*
X205720057Y-186028628D01*
X205791485Y-185885771D01*
X205934342Y-185814342D01*
X206291485Y-185814342D01*
X206434342Y-185742914D01*
X207791485Y-186385771D02*
X207791485Y-184885771D01*
X207791485Y-186314342D02*
X207648628Y-186385771D01*
X207362914Y-186385771D01*
X207220057Y-186314342D01*
X207148628Y-186242914D01*
X207077200Y-186100057D01*
X207077200Y-185671485D01*
X207148628Y-185528628D01*
X207220057Y-185457200D01*
X207362914Y-185385771D01*
X207648628Y-185385771D01*
X207791485Y-185457200D01*
X208148628Y-186528628D02*
X209291485Y-186528628D01*
X209648628Y-185385771D02*
X209648628Y-186885771D01*
X209648628Y-185457200D02*
X209791485Y-185385771D01*
X210077200Y-185385771D01*
X210220057Y-185457200D01*
X210291485Y-185528628D01*
X210362914Y-185671485D01*
X210362914Y-186100057D01*
X210291485Y-186242914D01*
X210220057Y-186314342D01*
X210077200Y-186385771D01*
X209791485Y-186385771D01*
X209648628Y-186314342D01*
X211648628Y-186314342D02*
X211505771Y-186385771D01*
X211220057Y-186385771D01*
X211077200Y-186314342D01*
X211005771Y-186242914D01*
X210934342Y-186100057D01*
X210934342Y-185671485D01*
X211005771Y-185528628D01*
X211077200Y-185457200D01*
X211220057Y-185385771D01*
X211505771Y-185385771D01*
X211648628Y-185457200D01*
X212291485Y-186385771D02*
X212291485Y-184885771D01*
X212291485Y-185457200D02*
X212434342Y-185385771D01*
X212720057Y-185385771D01*
X212862914Y-185457200D01*
X212934342Y-185528628D01*
X213005771Y-185671485D01*
X213005771Y-186100057D01*
X212934342Y-186242914D01*
X212862914Y-186314342D01*
X212720057Y-186385771D01*
X212434342Y-186385771D01*
X212291485Y-186314342D01*
D10*
D11*
X177002200Y-181507200D02*
X285002200Y-181507200D01*
D10*
D11*
X178362914Y-183614342D02*
X178577200Y-183685771D01*
X178934342Y-183685771D01*
X179077200Y-183614342D01*
X179148628Y-183542914D01*
X179220057Y-183400057D01*
X179220057Y-183257200D01*
X179148628Y-183114342D01*
X179077200Y-183042914D01*
X178934342Y-182971485D01*
X178648628Y-182900057D01*
X178505771Y-182828628D01*
X178434342Y-182757200D01*
X178362914Y-182614342D01*
X178362914Y-182471485D01*
X178434342Y-182328628D01*
X178505771Y-182257200D01*
X178648628Y-182185771D01*
X179005771Y-182185771D01*
X179220057Y-182257200D01*
X179862914Y-183685771D02*
X179862914Y-182185771D01*
X180505771Y-183685771D02*
X180505771Y-182900057D01*
X180434342Y-182757200D01*
X180291485Y-182685771D01*
X180077200Y-182685771D01*
X179934342Y-182757200D01*
X179862914Y-182828628D01*
X181791485Y-183614342D02*
X181648628Y-183685771D01*
X181362914Y-183685771D01*
X181220057Y-183614342D01*
X181148628Y-183471485D01*
X181148628Y-182900057D01*
X181220057Y-182757200D01*
X181362914Y-182685771D01*
X181648628Y-182685771D01*
X181791485Y-182757200D01*
X181862914Y-182900057D01*
X181862914Y-183042914D01*
X181148628Y-183185771D01*
X183077200Y-183614342D02*
X182934342Y-183685771D01*
X182648628Y-183685771D01*
X182505771Y-183614342D01*
X182434342Y-183471485D01*
X182434342Y-182900057D01*
X182505771Y-182757200D01*
X182648628Y-182685771D01*
X182934342Y-182685771D01*
X183077200Y-182757200D01*
X183148628Y-182900057D01*
X183148628Y-183042914D01*
X182434342Y-183185771D01*
X183577200Y-182685771D02*
X184148628Y-182685771D01*
X183791485Y-182185771D02*
X183791485Y-183471485D01*
X183862914Y-183614342D01*
X184005771Y-183685771D01*
X184148628Y-183685771D01*
X184648628Y-183542914D02*
X184720057Y-183614342D01*
X184648628Y-183685771D01*
X184577200Y-183614342D01*
X184648628Y-183542914D01*
X184648628Y-183685771D01*
X184648628Y-182757200D02*
X184720057Y-182828628D01*
X184648628Y-182900057D01*
X184577200Y-182828628D01*
X184648628Y-182757200D01*
X184648628Y-182900057D01*
D10*
D11*
X197002200Y-191507200D02*
X197002200Y-194507200D01*
D10*
D11*
X261002200Y-191507200D02*
X261002200Y-198007200D01*
D14*
X103388000Y-91305000D03*
X103388000Y-90035000D03*
X103388000Y-88765000D03*
X103388000Y-87495000D03*
X108812000Y-87495000D03*
X108812000Y-88765000D03*
X108812000Y-90035000D03*
X108812000Y-91305000D03*
D10*
G36*
X114665191Y-77626053D02*
G01*
X114686426Y-77629203D01*
X114707250Y-77634419D01*
X114727462Y-77641651D01*
X114746868Y-77650830D01*
X114765281Y-77661866D01*
X114782524Y-77674654D01*
X114798430Y-77689070D01*
X114812846Y-77704976D01*
X114825634Y-77722219D01*
X114836670Y-77740632D01*
X114845849Y-77760038D01*
X114853081Y-77780250D01*
X114858297Y-77801074D01*
X114861447Y-77822309D01*
X114862500Y-77843750D01*
X114862500Y-78356250D01*
X114861447Y-78377691D01*
X114858297Y-78398926D01*
X114853081Y-78419750D01*
X114845849Y-78439962D01*
X114836670Y-78459368D01*
X114825634Y-78477781D01*
X114812846Y-78495024D01*
X114798430Y-78510930D01*
X114782524Y-78525346D01*
X114765281Y-78538134D01*
X114746868Y-78549170D01*
X114727462Y-78558349D01*
X114707250Y-78565581D01*
X114686426Y-78570797D01*
X114665191Y-78573947D01*
X114643750Y-78575000D01*
X114206250Y-78575000D01*
X114184809Y-78573947D01*
X114163574Y-78570797D01*
X114142750Y-78565581D01*
X114122538Y-78558349D01*
X114103132Y-78549170D01*
X114084719Y-78538134D01*
X114067476Y-78525346D01*
X114051570Y-78510930D01*
X114037154Y-78495024D01*
X114024366Y-78477781D01*
X114013330Y-78459368D01*
X114004151Y-78439962D01*
X113996919Y-78419750D01*
X113991703Y-78398926D01*
X113988553Y-78377691D01*
X113987500Y-78356250D01*
X113987500Y-77843750D01*
X113988553Y-77822309D01*
X113991703Y-77801074D01*
X113996919Y-77780250D01*
X114004151Y-77760038D01*
X114013330Y-77740632D01*
X114024366Y-77722219D01*
X114037154Y-77704976D01*
X114051570Y-77689070D01*
X114067476Y-77674654D01*
X114084719Y-77661866D01*
X114103132Y-77650830D01*
X114122538Y-77641651D01*
X114142750Y-77634419D01*
X114163574Y-77629203D01*
X114184809Y-77626053D01*
X114206250Y-77625000D01*
X114643750Y-77625000D01*
X114665191Y-77626053D01*
G37*
G36*
X116240191Y-77626053D02*
G01*
X116261426Y-77629203D01*
X116282250Y-77634419D01*
X116302462Y-77641651D01*
X116321868Y-77650830D01*
X116340281Y-77661866D01*
X116357524Y-77674654D01*
X116373430Y-77689070D01*
X116387846Y-77704976D01*
X116400634Y-77722219D01*
X116411670Y-77740632D01*
X116420849Y-77760038D01*
X116428081Y-77780250D01*
X116433297Y-77801074D01*
X116436447Y-77822309D01*
X116437500Y-77843750D01*
X116437500Y-78356250D01*
X116436447Y-78377691D01*
X116433297Y-78398926D01*
X116428081Y-78419750D01*
X116420849Y-78439962D01*
X116411670Y-78459368D01*
X116400634Y-78477781D01*
X116387846Y-78495024D01*
X116373430Y-78510930D01*
X116357524Y-78525346D01*
X116340281Y-78538134D01*
X116321868Y-78549170D01*
X116302462Y-78558349D01*
X116282250Y-78565581D01*
X116261426Y-78570797D01*
X116240191Y-78573947D01*
X116218750Y-78575000D01*
X115781250Y-78575000D01*
X115759809Y-78573947D01*
X115738574Y-78570797D01*
X115717750Y-78565581D01*
X115697538Y-78558349D01*
X115678132Y-78549170D01*
X115659719Y-78538134D01*
X115642476Y-78525346D01*
X115626570Y-78510930D01*
X115612154Y-78495024D01*
X115599366Y-78477781D01*
X115588330Y-78459368D01*
X115579151Y-78439962D01*
X115571919Y-78419750D01*
X115566703Y-78398926D01*
X115563553Y-78377691D01*
X115562500Y-78356250D01*
X115562500Y-77843750D01*
X115563553Y-77822309D01*
X115566703Y-77801074D01*
X115571919Y-77780250D01*
X115579151Y-77760038D01*
X115588330Y-77740632D01*
X115599366Y-77722219D01*
X115612154Y-77704976D01*
X115626570Y-77689070D01*
X115642476Y-77674654D01*
X115659719Y-77661866D01*
X115678132Y-77650830D01*
X115697538Y-77641651D01*
X115717750Y-77634419D01*
X115738574Y-77629203D01*
X115759809Y-77626053D01*
X115781250Y-77625000D01*
X116218750Y-77625000D01*
X116240191Y-77626053D01*
G37*
G36*
X110077691Y-71663553D02*
G01*
X110098926Y-71666703D01*
X110119750Y-71671919D01*
X110139962Y-71679151D01*
X110159368Y-71688330D01*
X110177781Y-71699366D01*
X110195024Y-71712154D01*
X110210930Y-71726570D01*
X110225346Y-71742476D01*
X110238134Y-71759719D01*
X110249170Y-71778132D01*
X110258349Y-71797538D01*
X110265581Y-71817750D01*
X110270797Y-71838574D01*
X110273947Y-71859809D01*
X110275000Y-71881250D01*
X110275000Y-72318750D01*
X110273947Y-72340191D01*
X110270797Y-72361426D01*
X110265581Y-72382250D01*
X110258349Y-72402462D01*
X110249170Y-72421868D01*
X110238134Y-72440281D01*
X110225346Y-72457524D01*
X110210930Y-72473430D01*
X110195024Y-72487846D01*
X110177781Y-72500634D01*
X110159368Y-72511670D01*
X110139962Y-72520849D01*
X110119750Y-72528081D01*
X110098926Y-72533297D01*
X110077691Y-72536447D01*
X110056250Y-72537500D01*
X109543750Y-72537500D01*
X109522309Y-72536447D01*
X109501074Y-72533297D01*
X109480250Y-72528081D01*
X109460038Y-72520849D01*
X109440632Y-72511670D01*
X109422219Y-72500634D01*
X109404976Y-72487846D01*
X109389070Y-72473430D01*
X109374654Y-72457524D01*
X109361866Y-72440281D01*
X109350830Y-72421868D01*
X109341651Y-72402462D01*
X109334419Y-72382250D01*
X109329203Y-72361426D01*
X109326053Y-72340191D01*
X109325000Y-72318750D01*
X109325000Y-71881250D01*
X109326053Y-71859809D01*
X109329203Y-71838574D01*
X109334419Y-71817750D01*
X109341651Y-71797538D01*
X109350830Y-71778132D01*
X109361866Y-71759719D01*
X109374654Y-71742476D01*
X109389070Y-71726570D01*
X109404976Y-71712154D01*
X109422219Y-71699366D01*
X109440632Y-71688330D01*
X109460038Y-71679151D01*
X109480250Y-71671919D01*
X109501074Y-71666703D01*
X109522309Y-71663553D01*
X109543750Y-71662500D01*
X110056250Y-71662500D01*
X110077691Y-71663553D01*
G37*
G36*
X110077691Y-73238553D02*
G01*
X110098926Y-73241703D01*
X110119750Y-73246919D01*
X110139962Y-73254151D01*
X110159368Y-73263330D01*
X110177781Y-73274366D01*
X110195024Y-73287154D01*
X110210930Y-73301570D01*
X110225346Y-73317476D01*
X110238134Y-73334719D01*
X110249170Y-73353132D01*
X110258349Y-73372538D01*
X110265581Y-73392750D01*
X110270797Y-73413574D01*
X110273947Y-73434809D01*
X110275000Y-73456250D01*
X110275000Y-73893750D01*
X110273947Y-73915191D01*
X110270797Y-73936426D01*
X110265581Y-73957250D01*
X110258349Y-73977462D01*
X110249170Y-73996868D01*
X110238134Y-74015281D01*
X110225346Y-74032524D01*
X110210930Y-74048430D01*
X110195024Y-74062846D01*
X110177781Y-74075634D01*
X110159368Y-74086670D01*
X110139962Y-74095849D01*
X110119750Y-74103081D01*
X110098926Y-74108297D01*
X110077691Y-74111447D01*
X110056250Y-74112500D01*
X109543750Y-74112500D01*
X109522309Y-74111447D01*
X109501074Y-74108297D01*
X109480250Y-74103081D01*
X109460038Y-74095849D01*
X109440632Y-74086670D01*
X109422219Y-74075634D01*
X109404976Y-74062846D01*
X109389070Y-74048430D01*
X109374654Y-74032524D01*
X109361866Y-74015281D01*
X109350830Y-73996868D01*
X109341651Y-73977462D01*
X109334419Y-73957250D01*
X109329203Y-73936426D01*
X109326053Y-73915191D01*
X109325000Y-73893750D01*
X109325000Y-73456250D01*
X109326053Y-73434809D01*
X109329203Y-73413574D01*
X109334419Y-73392750D01*
X109341651Y-73372538D01*
X109350830Y-73353132D01*
X109361866Y-73334719D01*
X109374654Y-73317476D01*
X109389070Y-73301570D01*
X109404976Y-73287154D01*
X109422219Y-73274366D01*
X109440632Y-73263330D01*
X109460038Y-73254151D01*
X109480250Y-73246919D01*
X109501074Y-73241703D01*
X109522309Y-73238553D01*
X109543750Y-73237500D01*
X110056250Y-73237500D01*
X110077691Y-73238553D01*
G37*
D15*
X137400000Y-74350000D03*
X137400000Y-76550000D03*
X135700000Y-76550000D03*
X135700000Y-74350000D03*
D10*
G36*
X136382292Y-78170383D02*
G01*
X136390010Y-78171528D01*
X136397578Y-78173423D01*
X136404923Y-78176052D01*
X136411976Y-78179387D01*
X136418668Y-78183398D01*
X136424934Y-78188046D01*
X136430715Y-78193285D01*
X136435954Y-78199066D01*
X136440602Y-78205332D01*
X136444613Y-78212024D01*
X136447948Y-78219077D01*
X136450577Y-78226422D01*
X136452472Y-78233990D01*
X136453617Y-78241708D01*
X136454000Y-78249500D01*
X136454000Y-78450500D01*
X136453617Y-78458292D01*
X136452472Y-78466010D01*
X136450577Y-78473578D01*
X136447948Y-78480923D01*
X136444613Y-78487976D01*
X136440602Y-78494668D01*
X136435954Y-78500934D01*
X136430715Y-78506715D01*
X136424934Y-78511954D01*
X136418668Y-78516602D01*
X136411976Y-78520613D01*
X136404923Y-78523948D01*
X136397578Y-78526577D01*
X136390010Y-78528472D01*
X136382292Y-78529617D01*
X136374500Y-78530000D01*
X136215500Y-78530000D01*
X136207708Y-78529617D01*
X136199990Y-78528472D01*
X136192422Y-78526577D01*
X136185077Y-78523948D01*
X136178024Y-78520613D01*
X136171332Y-78516602D01*
X136165066Y-78511954D01*
X136159285Y-78506715D01*
X136154046Y-78500934D01*
X136149398Y-78494668D01*
X136145387Y-78487976D01*
X136142052Y-78480923D01*
X136139423Y-78473578D01*
X136137528Y-78466010D01*
X136136383Y-78458292D01*
X136136000Y-78450500D01*
X136136000Y-78249500D01*
X136136383Y-78241708D01*
X136137528Y-78233990D01*
X136139423Y-78226422D01*
X136142052Y-78219077D01*
X136145387Y-78212024D01*
X136149398Y-78205332D01*
X136154046Y-78199066D01*
X136159285Y-78193285D01*
X136165066Y-78188046D01*
X136171332Y-78183398D01*
X136178024Y-78179387D01*
X136185077Y-78176052D01*
X136192422Y-78173423D01*
X136199990Y-78171528D01*
X136207708Y-78170383D01*
X136215500Y-78170000D01*
X136374500Y-78170000D01*
X136382292Y-78170383D01*
G37*
G36*
X135692292Y-78170383D02*
G01*
X135700010Y-78171528D01*
X135707578Y-78173423D01*
X135714923Y-78176052D01*
X135721976Y-78179387D01*
X135728668Y-78183398D01*
X135734934Y-78188046D01*
X135740715Y-78193285D01*
X135745954Y-78199066D01*
X135750602Y-78205332D01*
X135754613Y-78212024D01*
X135757948Y-78219077D01*
X135760577Y-78226422D01*
X135762472Y-78233990D01*
X135763617Y-78241708D01*
X135764000Y-78249500D01*
X135764000Y-78450500D01*
X135763617Y-78458292D01*
X135762472Y-78466010D01*
X135760577Y-78473578D01*
X135757948Y-78480923D01*
X135754613Y-78487976D01*
X135750602Y-78494668D01*
X135745954Y-78500934D01*
X135740715Y-78506715D01*
X135734934Y-78511954D01*
X135728668Y-78516602D01*
X135721976Y-78520613D01*
X135714923Y-78523948D01*
X135707578Y-78526577D01*
X135700010Y-78528472D01*
X135692292Y-78529617D01*
X135684500Y-78530000D01*
X135525500Y-78530000D01*
X135517708Y-78529617D01*
X135509990Y-78528472D01*
X135502422Y-78526577D01*
X135495077Y-78523948D01*
X135488024Y-78520613D01*
X135481332Y-78516602D01*
X135475066Y-78511954D01*
X135469285Y-78506715D01*
X135464046Y-78500934D01*
X135459398Y-78494668D01*
X135455387Y-78487976D01*
X135452052Y-78480923D01*
X135449423Y-78473578D01*
X135447528Y-78466010D01*
X135446383Y-78458292D01*
X135446000Y-78450500D01*
X135446000Y-78249500D01*
X135446383Y-78241708D01*
X135447528Y-78233990D01*
X135449423Y-78226422D01*
X135452052Y-78219077D01*
X135455387Y-78212024D01*
X135459398Y-78205332D01*
X135464046Y-78199066D01*
X135469285Y-78193285D01*
X135475066Y-78188046D01*
X135481332Y-78183398D01*
X135488024Y-78179387D01*
X135495077Y-78176052D01*
X135502422Y-78173423D01*
X135509990Y-78171528D01*
X135517708Y-78170383D01*
X135525500Y-78170000D01*
X135684500Y-78170000D01*
X135692292Y-78170383D01*
G37*
G36*
X133312292Y-78170383D02*
G01*
X133320010Y-78171528D01*
X133327578Y-78173423D01*
X133334923Y-78176052D01*
X133341976Y-78179387D01*
X133348668Y-78183398D01*
X133354934Y-78188046D01*
X133360715Y-78193285D01*
X133365954Y-78199066D01*
X133370602Y-78205332D01*
X133374613Y-78212024D01*
X133377948Y-78219077D01*
X133380577Y-78226422D01*
X133382472Y-78233990D01*
X133383617Y-78241708D01*
X133384000Y-78249500D01*
X133384000Y-78450500D01*
X133383617Y-78458292D01*
X133382472Y-78466010D01*
X133380577Y-78473578D01*
X133377948Y-78480923D01*
X133374613Y-78487976D01*
X133370602Y-78494668D01*
X133365954Y-78500934D01*
X133360715Y-78506715D01*
X133354934Y-78511954D01*
X133348668Y-78516602D01*
X133341976Y-78520613D01*
X133334923Y-78523948D01*
X133327578Y-78526577D01*
X133320010Y-78528472D01*
X133312292Y-78529617D01*
X133304500Y-78530000D01*
X133145500Y-78530000D01*
X133137708Y-78529617D01*
X133129990Y-78528472D01*
X133122422Y-78526577D01*
X133115077Y-78523948D01*
X133108024Y-78520613D01*
X133101332Y-78516602D01*
X133095066Y-78511954D01*
X133089285Y-78506715D01*
X133084046Y-78500934D01*
X133079398Y-78494668D01*
X133075387Y-78487976D01*
X133072052Y-78480923D01*
X133069423Y-78473578D01*
X133067528Y-78466010D01*
X133066383Y-78458292D01*
X133066000Y-78450500D01*
X133066000Y-78249500D01*
X133066383Y-78241708D01*
X133067528Y-78233990D01*
X133069423Y-78226422D01*
X133072052Y-78219077D01*
X133075387Y-78212024D01*
X133079398Y-78205332D01*
X133084046Y-78199066D01*
X133089285Y-78193285D01*
X133095066Y-78188046D01*
X133101332Y-78183398D01*
X133108024Y-78179387D01*
X133115077Y-78176052D01*
X133122422Y-78173423D01*
X133129990Y-78171528D01*
X133137708Y-78170383D01*
X133145500Y-78170000D01*
X133304500Y-78170000D01*
X133312292Y-78170383D01*
G37*
G36*
X134002292Y-78170383D02*
G01*
X134010010Y-78171528D01*
X134017578Y-78173423D01*
X134024923Y-78176052D01*
X134031976Y-78179387D01*
X134038668Y-78183398D01*
X134044934Y-78188046D01*
X134050715Y-78193285D01*
X134055954Y-78199066D01*
X134060602Y-78205332D01*
X134064613Y-78212024D01*
X134067948Y-78219077D01*
X134070577Y-78226422D01*
X134072472Y-78233990D01*
X134073617Y-78241708D01*
X134074000Y-78249500D01*
X134074000Y-78450500D01*
X134073617Y-78458292D01*
X134072472Y-78466010D01*
X134070577Y-78473578D01*
X134067948Y-78480923D01*
X134064613Y-78487976D01*
X134060602Y-78494668D01*
X134055954Y-78500934D01*
X134050715Y-78506715D01*
X134044934Y-78511954D01*
X134038668Y-78516602D01*
X134031976Y-78520613D01*
X134024923Y-78523948D01*
X134017578Y-78526577D01*
X134010010Y-78528472D01*
X134002292Y-78529617D01*
X133994500Y-78530000D01*
X133835500Y-78530000D01*
X133827708Y-78529617D01*
X133819990Y-78528472D01*
X133812422Y-78526577D01*
X133805077Y-78523948D01*
X133798024Y-78520613D01*
X133791332Y-78516602D01*
X133785066Y-78511954D01*
X133779285Y-78506715D01*
X133774046Y-78500934D01*
X133769398Y-78494668D01*
X133765387Y-78487976D01*
X133762052Y-78480923D01*
X133759423Y-78473578D01*
X133757528Y-78466010D01*
X133756383Y-78458292D01*
X133756000Y-78450500D01*
X133756000Y-78249500D01*
X133756383Y-78241708D01*
X133757528Y-78233990D01*
X133759423Y-78226422D01*
X133762052Y-78219077D01*
X133765387Y-78212024D01*
X133769398Y-78205332D01*
X133774046Y-78199066D01*
X133779285Y-78193285D01*
X133785066Y-78188046D01*
X133791332Y-78183398D01*
X133798024Y-78179387D01*
X133805077Y-78176052D01*
X133812422Y-78173423D01*
X133819990Y-78171528D01*
X133827708Y-78170383D01*
X133835500Y-78170000D01*
X133994500Y-78170000D01*
X134002292Y-78170383D01*
G37*
G36*
X121812292Y-84320383D02*
G01*
X121820010Y-84321528D01*
X121827578Y-84323423D01*
X121834923Y-84326052D01*
X121841976Y-84329387D01*
X121848668Y-84333398D01*
X121854934Y-84338046D01*
X121860715Y-84343285D01*
X121865954Y-84349066D01*
X121870602Y-84355332D01*
X121874613Y-84362024D01*
X121877948Y-84369077D01*
X121880577Y-84376422D01*
X121882472Y-84383990D01*
X121883617Y-84391708D01*
X121884000Y-84399500D01*
X121884000Y-84600500D01*
X121883617Y-84608292D01*
X121882472Y-84616010D01*
X121880577Y-84623578D01*
X121877948Y-84630923D01*
X121874613Y-84637976D01*
X121870602Y-84644668D01*
X121865954Y-84650934D01*
X121860715Y-84656715D01*
X121854934Y-84661954D01*
X121848668Y-84666602D01*
X121841976Y-84670613D01*
X121834923Y-84673948D01*
X121827578Y-84676577D01*
X121820010Y-84678472D01*
X121812292Y-84679617D01*
X121804500Y-84680000D01*
X121645500Y-84680000D01*
X121637708Y-84679617D01*
X121629990Y-84678472D01*
X121622422Y-84676577D01*
X121615077Y-84673948D01*
X121608024Y-84670613D01*
X121601332Y-84666602D01*
X121595066Y-84661954D01*
X121589285Y-84656715D01*
X121584046Y-84650934D01*
X121579398Y-84644668D01*
X121575387Y-84637976D01*
X121572052Y-84630923D01*
X121569423Y-84623578D01*
X121567528Y-84616010D01*
X121566383Y-84608292D01*
X121566000Y-84600500D01*
X121566000Y-84399500D01*
X121566383Y-84391708D01*
X121567528Y-84383990D01*
X121569423Y-84376422D01*
X121572052Y-84369077D01*
X121575387Y-84362024D01*
X121579398Y-84355332D01*
X121584046Y-84349066D01*
X121589285Y-84343285D01*
X121595066Y-84338046D01*
X121601332Y-84333398D01*
X121608024Y-84329387D01*
X121615077Y-84326052D01*
X121622422Y-84323423D01*
X121629990Y-84321528D01*
X121637708Y-84320383D01*
X121645500Y-84320000D01*
X121804500Y-84320000D01*
X121812292Y-84320383D01*
G37*
G36*
X122502292Y-84320383D02*
G01*
X122510010Y-84321528D01*
X122517578Y-84323423D01*
X122524923Y-84326052D01*
X122531976Y-84329387D01*
X122538668Y-84333398D01*
X122544934Y-84338046D01*
X122550715Y-84343285D01*
X122555954Y-84349066D01*
X122560602Y-84355332D01*
X122564613Y-84362024D01*
X122567948Y-84369077D01*
X122570577Y-84376422D01*
X122572472Y-84383990D01*
X122573617Y-84391708D01*
X122574000Y-84399500D01*
X122574000Y-84600500D01*
X122573617Y-84608292D01*
X122572472Y-84616010D01*
X122570577Y-84623578D01*
X122567948Y-84630923D01*
X122564613Y-84637976D01*
X122560602Y-84644668D01*
X122555954Y-84650934D01*
X122550715Y-84656715D01*
X122544934Y-84661954D01*
X122538668Y-84666602D01*
X122531976Y-84670613D01*
X122524923Y-84673948D01*
X122517578Y-84676577D01*
X122510010Y-84678472D01*
X122502292Y-84679617D01*
X122494500Y-84680000D01*
X122335500Y-84680000D01*
X122327708Y-84679617D01*
X122319990Y-84678472D01*
X122312422Y-84676577D01*
X122305077Y-84673948D01*
X122298024Y-84670613D01*
X122291332Y-84666602D01*
X122285066Y-84661954D01*
X122279285Y-84656715D01*
X122274046Y-84650934D01*
X122269398Y-84644668D01*
X122265387Y-84637976D01*
X122262052Y-84630923D01*
X122259423Y-84623578D01*
X122257528Y-84616010D01*
X122256383Y-84608292D01*
X122256000Y-84600500D01*
X122256000Y-84399500D01*
X122256383Y-84391708D01*
X122257528Y-84383990D01*
X122259423Y-84376422D01*
X122262052Y-84369077D01*
X122265387Y-84362024D01*
X122269398Y-84355332D01*
X122274046Y-84349066D01*
X122279285Y-84343285D01*
X122285066Y-84338046D01*
X122291332Y-84333398D01*
X122298024Y-84329387D01*
X122305077Y-84326052D01*
X122312422Y-84323423D01*
X122319990Y-84321528D01*
X122327708Y-84320383D01*
X122335500Y-84320000D01*
X122494500Y-84320000D01*
X122502292Y-84320383D01*
G37*
G36*
X135608292Y-88486383D02*
G01*
X135616010Y-88487528D01*
X135623578Y-88489423D01*
X135630923Y-88492052D01*
X135637976Y-88495387D01*
X135644668Y-88499398D01*
X135650934Y-88504046D01*
X135656715Y-88509285D01*
X135661954Y-88515066D01*
X135666602Y-88521332D01*
X135670613Y-88528024D01*
X135673948Y-88535077D01*
X135676577Y-88542422D01*
X135678472Y-88549990D01*
X135679617Y-88557708D01*
X135680000Y-88565500D01*
X135680000Y-88724500D01*
X135679617Y-88732292D01*
X135678472Y-88740010D01*
X135676577Y-88747578D01*
X135673948Y-88754923D01*
X135670613Y-88761976D01*
X135666602Y-88768668D01*
X135661954Y-88774934D01*
X135656715Y-88780715D01*
X135650934Y-88785954D01*
X135644668Y-88790602D01*
X135637976Y-88794613D01*
X135630923Y-88797948D01*
X135623578Y-88800577D01*
X135616010Y-88802472D01*
X135608292Y-88803617D01*
X135600500Y-88804000D01*
X135399500Y-88804000D01*
X135391708Y-88803617D01*
X135383990Y-88802472D01*
X135376422Y-88800577D01*
X135369077Y-88797948D01*
X135362024Y-88794613D01*
X135355332Y-88790602D01*
X135349066Y-88785954D01*
X135343285Y-88780715D01*
X135338046Y-88774934D01*
X135333398Y-88768668D01*
X135329387Y-88761976D01*
X135326052Y-88754923D01*
X135323423Y-88747578D01*
X135321528Y-88740010D01*
X135320383Y-88732292D01*
X135320000Y-88724500D01*
X135320000Y-88565500D01*
X135320383Y-88557708D01*
X135321528Y-88549990D01*
X135323423Y-88542422D01*
X135326052Y-88535077D01*
X135329387Y-88528024D01*
X135333398Y-88521332D01*
X135338046Y-88515066D01*
X135343285Y-88509285D01*
X135349066Y-88504046D01*
X135355332Y-88499398D01*
X135362024Y-88495387D01*
X135369077Y-88492052D01*
X135376422Y-88489423D01*
X135383990Y-88487528D01*
X135391708Y-88486383D01*
X135399500Y-88486000D01*
X135600500Y-88486000D01*
X135608292Y-88486383D01*
G37*
G36*
X135608292Y-87796383D02*
G01*
X135616010Y-87797528D01*
X135623578Y-87799423D01*
X135630923Y-87802052D01*
X135637976Y-87805387D01*
X135644668Y-87809398D01*
X135650934Y-87814046D01*
X135656715Y-87819285D01*
X135661954Y-87825066D01*
X135666602Y-87831332D01*
X135670613Y-87838024D01*
X135673948Y-87845077D01*
X135676577Y-87852422D01*
X135678472Y-87859990D01*
X135679617Y-87867708D01*
X135680000Y-87875500D01*
X135680000Y-88034500D01*
X135679617Y-88042292D01*
X135678472Y-88050010D01*
X135676577Y-88057578D01*
X135673948Y-88064923D01*
X135670613Y-88071976D01*
X135666602Y-88078668D01*
X135661954Y-88084934D01*
X135656715Y-88090715D01*
X135650934Y-88095954D01*
X135644668Y-88100602D01*
X135637976Y-88104613D01*
X135630923Y-88107948D01*
X135623578Y-88110577D01*
X135616010Y-88112472D01*
X135608292Y-88113617D01*
X135600500Y-88114000D01*
X135399500Y-88114000D01*
X135391708Y-88113617D01*
X135383990Y-88112472D01*
X135376422Y-88110577D01*
X135369077Y-88107948D01*
X135362024Y-88104613D01*
X135355332Y-88100602D01*
X135349066Y-88095954D01*
X135343285Y-88090715D01*
X135338046Y-88084934D01*
X135333398Y-88078668D01*
X135329387Y-88071976D01*
X135326052Y-88064923D01*
X135323423Y-88057578D01*
X135321528Y-88050010D01*
X135320383Y-88042292D01*
X135320000Y-88034500D01*
X135320000Y-87875500D01*
X135320383Y-87867708D01*
X135321528Y-87859990D01*
X135323423Y-87852422D01*
X135326052Y-87845077D01*
X135329387Y-87838024D01*
X135333398Y-87831332D01*
X135338046Y-87825066D01*
X135343285Y-87819285D01*
X135349066Y-87814046D01*
X135355332Y-87809398D01*
X135362024Y-87805387D01*
X135369077Y-87802052D01*
X135376422Y-87799423D01*
X135383990Y-87797528D01*
X135391708Y-87796383D01*
X135399500Y-87796000D01*
X135600500Y-87796000D01*
X135608292Y-87796383D01*
G37*
G36*
X135608292Y-86096383D02*
G01*
X135616010Y-86097528D01*
X135623578Y-86099423D01*
X135630923Y-86102052D01*
X135637976Y-86105387D01*
X135644668Y-86109398D01*
X135650934Y-86114046D01*
X135656715Y-86119285D01*
X135661954Y-86125066D01*
X135666602Y-86131332D01*
X135670613Y-86138024D01*
X135673948Y-86145077D01*
X135676577Y-86152422D01*
X135678472Y-86159990D01*
X135679617Y-86167708D01*
X135680000Y-86175500D01*
X135680000Y-86334500D01*
X135679617Y-86342292D01*
X135678472Y-86350010D01*
X135676577Y-86357578D01*
X135673948Y-86364923D01*
X135670613Y-86371976D01*
X135666602Y-86378668D01*
X135661954Y-86384934D01*
X135656715Y-86390715D01*
X135650934Y-86395954D01*
X135644668Y-86400602D01*
X135637976Y-86404613D01*
X135630923Y-86407948D01*
X135623578Y-86410577D01*
X135616010Y-86412472D01*
X135608292Y-86413617D01*
X135600500Y-86414000D01*
X135399500Y-86414000D01*
X135391708Y-86413617D01*
X135383990Y-86412472D01*
X135376422Y-86410577D01*
X135369077Y-86407948D01*
X135362024Y-86404613D01*
X135355332Y-86400602D01*
X135349066Y-86395954D01*
X135343285Y-86390715D01*
X135338046Y-86384934D01*
X135333398Y-86378668D01*
X135329387Y-86371976D01*
X135326052Y-86364923D01*
X135323423Y-86357578D01*
X135321528Y-86350010D01*
X135320383Y-86342292D01*
X135320000Y-86334500D01*
X135320000Y-86175500D01*
X135320383Y-86167708D01*
X135321528Y-86159990D01*
X135323423Y-86152422D01*
X135326052Y-86145077D01*
X135329387Y-86138024D01*
X135333398Y-86131332D01*
X135338046Y-86125066D01*
X135343285Y-86119285D01*
X135349066Y-86114046D01*
X135355332Y-86109398D01*
X135362024Y-86105387D01*
X135369077Y-86102052D01*
X135376422Y-86099423D01*
X135383990Y-86097528D01*
X135391708Y-86096383D01*
X135399500Y-86096000D01*
X135600500Y-86096000D01*
X135608292Y-86096383D01*
G37*
G36*
X135608292Y-86786383D02*
G01*
X135616010Y-86787528D01*
X135623578Y-86789423D01*
X135630923Y-86792052D01*
X135637976Y-86795387D01*
X135644668Y-86799398D01*
X135650934Y-86804046D01*
X135656715Y-86809285D01*
X135661954Y-86815066D01*
X135666602Y-86821332D01*
X135670613Y-86828024D01*
X135673948Y-86835077D01*
X135676577Y-86842422D01*
X135678472Y-86849990D01*
X135679617Y-86857708D01*
X135680000Y-86865500D01*
X135680000Y-87024500D01*
X135679617Y-87032292D01*
X135678472Y-87040010D01*
X135676577Y-87047578D01*
X135673948Y-87054923D01*
X135670613Y-87061976D01*
X135666602Y-87068668D01*
X135661954Y-87074934D01*
X135656715Y-87080715D01*
X135650934Y-87085954D01*
X135644668Y-87090602D01*
X135637976Y-87094613D01*
X135630923Y-87097948D01*
X135623578Y-87100577D01*
X135616010Y-87102472D01*
X135608292Y-87103617D01*
X135600500Y-87104000D01*
X135399500Y-87104000D01*
X135391708Y-87103617D01*
X135383990Y-87102472D01*
X135376422Y-87100577D01*
X135369077Y-87097948D01*
X135362024Y-87094613D01*
X135355332Y-87090602D01*
X135349066Y-87085954D01*
X135343285Y-87080715D01*
X135338046Y-87074934D01*
X135333398Y-87068668D01*
X135329387Y-87061976D01*
X135326052Y-87054923D01*
X135323423Y-87047578D01*
X135321528Y-87040010D01*
X135320383Y-87032292D01*
X135320000Y-87024500D01*
X135320000Y-86865500D01*
X135320383Y-86857708D01*
X135321528Y-86849990D01*
X135323423Y-86842422D01*
X135326052Y-86835077D01*
X135329387Y-86828024D01*
X135333398Y-86821332D01*
X135338046Y-86815066D01*
X135343285Y-86809285D01*
X135349066Y-86804046D01*
X135355332Y-86799398D01*
X135362024Y-86795387D01*
X135369077Y-86792052D01*
X135376422Y-86789423D01*
X135383990Y-86787528D01*
X135391708Y-86786383D01*
X135399500Y-86786000D01*
X135600500Y-86786000D01*
X135608292Y-86786383D01*
G37*
G36*
X138324504Y-88001204D02*
G01*
X138348773Y-88004804D01*
X138372571Y-88010765D01*
X138395671Y-88019030D01*
X138417849Y-88029520D01*
X138438893Y-88042133D01*
X138458598Y-88056747D01*
X138476777Y-88073223D01*
X138493253Y-88091402D01*
X138507867Y-88111107D01*
X138520480Y-88132151D01*
X138530970Y-88154329D01*
X138539235Y-88177429D01*
X138545196Y-88201227D01*
X138548796Y-88225496D01*
X138550000Y-88250000D01*
X138550000Y-89075000D01*
X138548796Y-89099504D01*
X138545196Y-89123773D01*
X138539235Y-89147571D01*
X138530970Y-89170671D01*
X138520480Y-89192849D01*
X138507867Y-89213893D01*
X138493253Y-89233598D01*
X138476777Y-89251777D01*
X138458598Y-89268253D01*
X138438893Y-89282867D01*
X138417849Y-89295480D01*
X138395671Y-89305970D01*
X138372571Y-89314235D01*
X138348773Y-89320196D01*
X138324504Y-89323796D01*
X138300000Y-89325000D01*
X137500000Y-89325000D01*
X137475496Y-89323796D01*
X137451227Y-89320196D01*
X137427429Y-89314235D01*
X137404329Y-89305970D01*
X137382151Y-89295480D01*
X137361107Y-89282867D01*
X137341402Y-89268253D01*
X137323223Y-89251777D01*
X137306747Y-89233598D01*
X137292133Y-89213893D01*
X137279520Y-89192849D01*
X137269030Y-89170671D01*
X137260765Y-89147571D01*
X137254804Y-89123773D01*
X137251204Y-89099504D01*
X137250000Y-89075000D01*
X137250000Y-88250000D01*
X137251204Y-88225496D01*
X137254804Y-88201227D01*
X137260765Y-88177429D01*
X137269030Y-88154329D01*
X137279520Y-88132151D01*
X137292133Y-88111107D01*
X137306747Y-88091402D01*
X137323223Y-88073223D01*
X137341402Y-88056747D01*
X137361107Y-88042133D01*
X137382151Y-88029520D01*
X137404329Y-88019030D01*
X137427429Y-88010765D01*
X137451227Y-88004804D01*
X137475496Y-88001204D01*
X137500000Y-88000000D01*
X138300000Y-88000000D01*
X138324504Y-88001204D01*
G37*
G36*
X138324504Y-86076204D02*
G01*
X138348773Y-86079804D01*
X138372571Y-86085765D01*
X138395671Y-86094030D01*
X138417849Y-86104520D01*
X138438893Y-86117133D01*
X138458598Y-86131747D01*
X138476777Y-86148223D01*
X138493253Y-86166402D01*
X138507867Y-86186107D01*
X138520480Y-86207151D01*
X138530970Y-86229329D01*
X138539235Y-86252429D01*
X138545196Y-86276227D01*
X138548796Y-86300496D01*
X138550000Y-86325000D01*
X138550000Y-87150000D01*
X138548796Y-87174504D01*
X138545196Y-87198773D01*
X138539235Y-87222571D01*
X138530970Y-87245671D01*
X138520480Y-87267849D01*
X138507867Y-87288893D01*
X138493253Y-87308598D01*
X138476777Y-87326777D01*
X138458598Y-87343253D01*
X138438893Y-87357867D01*
X138417849Y-87370480D01*
X138395671Y-87380970D01*
X138372571Y-87389235D01*
X138348773Y-87395196D01*
X138324504Y-87398796D01*
X138300000Y-87400000D01*
X137500000Y-87400000D01*
X137475496Y-87398796D01*
X137451227Y-87395196D01*
X137427429Y-87389235D01*
X137404329Y-87380970D01*
X137382151Y-87370480D01*
X137361107Y-87357867D01*
X137341402Y-87343253D01*
X137323223Y-87326777D01*
X137306747Y-87308598D01*
X137292133Y-87288893D01*
X137279520Y-87267849D01*
X137269030Y-87245671D01*
X137260765Y-87222571D01*
X137254804Y-87198773D01*
X137251204Y-87174504D01*
X137250000Y-87150000D01*
X137250000Y-86325000D01*
X137251204Y-86300496D01*
X137254804Y-86276227D01*
X137260765Y-86252429D01*
X137269030Y-86229329D01*
X137279520Y-86207151D01*
X137292133Y-86186107D01*
X137306747Y-86166402D01*
X137323223Y-86148223D01*
X137341402Y-86131747D01*
X137361107Y-86117133D01*
X137382151Y-86104520D01*
X137404329Y-86094030D01*
X137427429Y-86085765D01*
X137451227Y-86079804D01*
X137475496Y-86076204D01*
X137500000Y-86075000D01*
X138300000Y-86075000D01*
X138324504Y-86076204D01*
G37*
G36*
X138224504Y-81801204D02*
G01*
X138248773Y-81804804D01*
X138272571Y-81810765D01*
X138295671Y-81819030D01*
X138317849Y-81829520D01*
X138338893Y-81842133D01*
X138358598Y-81856747D01*
X138376777Y-81873223D01*
X138393253Y-81891402D01*
X138407867Y-81911107D01*
X138420480Y-81932151D01*
X138430970Y-81954329D01*
X138439235Y-81977429D01*
X138445196Y-82001227D01*
X138448796Y-82025496D01*
X138450000Y-82050000D01*
X138450000Y-82875000D01*
X138448796Y-82899504D01*
X138445196Y-82923773D01*
X138439235Y-82947571D01*
X138430970Y-82970671D01*
X138420480Y-82992849D01*
X138407867Y-83013893D01*
X138393253Y-83033598D01*
X138376777Y-83051777D01*
X138358598Y-83068253D01*
X138338893Y-83082867D01*
X138317849Y-83095480D01*
X138295671Y-83105970D01*
X138272571Y-83114235D01*
X138248773Y-83120196D01*
X138224504Y-83123796D01*
X138200000Y-83125000D01*
X137400000Y-83125000D01*
X137375496Y-83123796D01*
X137351227Y-83120196D01*
X137327429Y-83114235D01*
X137304329Y-83105970D01*
X137282151Y-83095480D01*
X137261107Y-83082867D01*
X137241402Y-83068253D01*
X137223223Y-83051777D01*
X137206747Y-83033598D01*
X137192133Y-83013893D01*
X137179520Y-82992849D01*
X137169030Y-82970671D01*
X137160765Y-82947571D01*
X137154804Y-82923773D01*
X137151204Y-82899504D01*
X137150000Y-82875000D01*
X137150000Y-82050000D01*
X137151204Y-82025496D01*
X137154804Y-82001227D01*
X137160765Y-81977429D01*
X137169030Y-81954329D01*
X137179520Y-81932151D01*
X137192133Y-81911107D01*
X137206747Y-81891402D01*
X137223223Y-81873223D01*
X137241402Y-81856747D01*
X137261107Y-81842133D01*
X137282151Y-81829520D01*
X137304329Y-81819030D01*
X137327429Y-81810765D01*
X137351227Y-81804804D01*
X137375496Y-81801204D01*
X137400000Y-81800000D01*
X138200000Y-81800000D01*
X138224504Y-81801204D01*
G37*
G36*
X138224504Y-79876204D02*
G01*
X138248773Y-79879804D01*
X138272571Y-79885765D01*
X138295671Y-79894030D01*
X138317849Y-79904520D01*
X138338893Y-79917133D01*
X138358598Y-79931747D01*
X138376777Y-79948223D01*
X138393253Y-79966402D01*
X138407867Y-79986107D01*
X138420480Y-80007151D01*
X138430970Y-80029329D01*
X138439235Y-80052429D01*
X138445196Y-80076227D01*
X138448796Y-80100496D01*
X138450000Y-80125000D01*
X138450000Y-80950000D01*
X138448796Y-80974504D01*
X138445196Y-80998773D01*
X138439235Y-81022571D01*
X138430970Y-81045671D01*
X138420480Y-81067849D01*
X138407867Y-81088893D01*
X138393253Y-81108598D01*
X138376777Y-81126777D01*
X138358598Y-81143253D01*
X138338893Y-81157867D01*
X138317849Y-81170480D01*
X138295671Y-81180970D01*
X138272571Y-81189235D01*
X138248773Y-81195196D01*
X138224504Y-81198796D01*
X138200000Y-81200000D01*
X137400000Y-81200000D01*
X137375496Y-81198796D01*
X137351227Y-81195196D01*
X137327429Y-81189235D01*
X137304329Y-81180970D01*
X137282151Y-81170480D01*
X137261107Y-81157867D01*
X137241402Y-81143253D01*
X137223223Y-81126777D01*
X137206747Y-81108598D01*
X137192133Y-81088893D01*
X137179520Y-81067849D01*
X137169030Y-81045671D01*
X137160765Y-81022571D01*
X137154804Y-80998773D01*
X137151204Y-80974504D01*
X137150000Y-80950000D01*
X137150000Y-80125000D01*
X137151204Y-80100496D01*
X137154804Y-80076227D01*
X137160765Y-80052429D01*
X137169030Y-80029329D01*
X137179520Y-80007151D01*
X137192133Y-79986107D01*
X137206747Y-79966402D01*
X137223223Y-79948223D01*
X137241402Y-79931747D01*
X137261107Y-79917133D01*
X137282151Y-79904520D01*
X137304329Y-79894030D01*
X137327429Y-79885765D01*
X137351227Y-79879804D01*
X137375496Y-79876204D01*
X137400000Y-79875000D01*
X138200000Y-79875000D01*
X138224504Y-79876204D01*
G37*
D16*
X116950000Y-91600000D03*
X114950000Y-92550000D03*
X114950000Y-90650000D03*
D17*
X117000000Y-88500000D03*
X114800000Y-88500000D03*
D16*
X109750000Y-84400000D03*
X107750000Y-85350000D03*
X107750000Y-83450000D03*
D10*
G36*
X113489703Y-75690722D02*
G01*
X113504264Y-75692882D01*
X113518543Y-75696459D01*
X113532403Y-75701418D01*
X113545710Y-75707712D01*
X113558336Y-75715280D01*
X113570159Y-75724048D01*
X113581066Y-75733934D01*
X113590952Y-75744841D01*
X113599720Y-75756664D01*
X113607288Y-75769290D01*
X113613582Y-75782597D01*
X113618541Y-75796457D01*
X113622118Y-75810736D01*
X113624278Y-75825297D01*
X113625000Y-75840000D01*
X113625000Y-76140000D01*
X113624278Y-76154703D01*
X113622118Y-76169264D01*
X113618541Y-76183543D01*
X113613582Y-76197403D01*
X113607288Y-76210710D01*
X113599720Y-76223336D01*
X113590952Y-76235159D01*
X113581066Y-76246066D01*
X113570159Y-76255952D01*
X113558336Y-76264720D01*
X113545710Y-76272288D01*
X113532403Y-76278582D01*
X113518543Y-76283541D01*
X113504264Y-76287118D01*
X113489703Y-76289278D01*
X113475000Y-76290000D01*
X111825000Y-76290000D01*
X111810297Y-76289278D01*
X111795736Y-76287118D01*
X111781457Y-76283541D01*
X111767597Y-76278582D01*
X111754290Y-76272288D01*
X111741664Y-76264720D01*
X111729841Y-76255952D01*
X111718934Y-76246066D01*
X111709048Y-76235159D01*
X111700280Y-76223336D01*
X111692712Y-76210710D01*
X111686418Y-76197403D01*
X111681459Y-76183543D01*
X111677882Y-76169264D01*
X111675722Y-76154703D01*
X111675000Y-76140000D01*
X111675000Y-75840000D01*
X111675722Y-75825297D01*
X111677882Y-75810736D01*
X111681459Y-75796457D01*
X111686418Y-75782597D01*
X111692712Y-75769290D01*
X111700280Y-75756664D01*
X111709048Y-75744841D01*
X111718934Y-75733934D01*
X111729841Y-75724048D01*
X111741664Y-75715280D01*
X111754290Y-75707712D01*
X111767597Y-75701418D01*
X111781457Y-75696459D01*
X111795736Y-75692882D01*
X111810297Y-75690722D01*
X111825000Y-75690000D01*
X113475000Y-75690000D01*
X113489703Y-75690722D01*
G37*
G36*
X113489703Y-74420722D02*
G01*
X113504264Y-74422882D01*
X113518543Y-74426459D01*
X113532403Y-74431418D01*
X113545710Y-74437712D01*
X113558336Y-74445280D01*
X113570159Y-74454048D01*
X113581066Y-74463934D01*
X113590952Y-74474841D01*
X113599720Y-74486664D01*
X113607288Y-74499290D01*
X113613582Y-74512597D01*
X113618541Y-74526457D01*
X113622118Y-74540736D01*
X113624278Y-74555297D01*
X113625000Y-74570000D01*
X113625000Y-74870000D01*
X113624278Y-74884703D01*
X113622118Y-74899264D01*
X113618541Y-74913543D01*
X113613582Y-74927403D01*
X113607288Y-74940710D01*
X113599720Y-74953336D01*
X113590952Y-74965159D01*
X113581066Y-74976066D01*
X113570159Y-74985952D01*
X113558336Y-74994720D01*
X113545710Y-75002288D01*
X113532403Y-75008582D01*
X113518543Y-75013541D01*
X113504264Y-75017118D01*
X113489703Y-75019278D01*
X113475000Y-75020000D01*
X111825000Y-75020000D01*
X111810297Y-75019278D01*
X111795736Y-75017118D01*
X111781457Y-75013541D01*
X111767597Y-75008582D01*
X111754290Y-75002288D01*
X111741664Y-74994720D01*
X111729841Y-74985952D01*
X111718934Y-74976066D01*
X111709048Y-74965159D01*
X111700280Y-74953336D01*
X111692712Y-74940710D01*
X111686418Y-74927403D01*
X111681459Y-74913543D01*
X111677882Y-74899264D01*
X111675722Y-74884703D01*
X111675000Y-74870000D01*
X111675000Y-74570000D01*
X111675722Y-74555297D01*
X111677882Y-74540736D01*
X111681459Y-74526457D01*
X111686418Y-74512597D01*
X111692712Y-74499290D01*
X111700280Y-74486664D01*
X111709048Y-74474841D01*
X111718934Y-74463934D01*
X111729841Y-74454048D01*
X111741664Y-74445280D01*
X111754290Y-74437712D01*
X111767597Y-74431418D01*
X111781457Y-74426459D01*
X111795736Y-74422882D01*
X111810297Y-74420722D01*
X111825000Y-74420000D01*
X113475000Y-74420000D01*
X113489703Y-74420722D01*
G37*
G36*
X113489703Y-73150722D02*
G01*
X113504264Y-73152882D01*
X113518543Y-73156459D01*
X113532403Y-73161418D01*
X113545710Y-73167712D01*
X113558336Y-73175280D01*
X113570159Y-73184048D01*
X113581066Y-73193934D01*
X113590952Y-73204841D01*
X113599720Y-73216664D01*
X113607288Y-73229290D01*
X113613582Y-73242597D01*
X113618541Y-73256457D01*
X113622118Y-73270736D01*
X113624278Y-73285297D01*
X113625000Y-73300000D01*
X113625000Y-73600000D01*
X113624278Y-73614703D01*
X113622118Y-73629264D01*
X113618541Y-73643543D01*
X113613582Y-73657403D01*
X113607288Y-73670710D01*
X113599720Y-73683336D01*
X113590952Y-73695159D01*
X113581066Y-73706066D01*
X113570159Y-73715952D01*
X113558336Y-73724720D01*
X113545710Y-73732288D01*
X113532403Y-73738582D01*
X113518543Y-73743541D01*
X113504264Y-73747118D01*
X113489703Y-73749278D01*
X113475000Y-73750000D01*
X111825000Y-73750000D01*
X111810297Y-73749278D01*
X111795736Y-73747118D01*
X111781457Y-73743541D01*
X111767597Y-73738582D01*
X111754290Y-73732288D01*
X111741664Y-73724720D01*
X111729841Y-73715952D01*
X111718934Y-73706066D01*
X111709048Y-73695159D01*
X111700280Y-73683336D01*
X111692712Y-73670710D01*
X111686418Y-73657403D01*
X111681459Y-73643543D01*
X111677882Y-73629264D01*
X111675722Y-73614703D01*
X111675000Y-73600000D01*
X111675000Y-73300000D01*
X111675722Y-73285297D01*
X111677882Y-73270736D01*
X111681459Y-73256457D01*
X111686418Y-73242597D01*
X111692712Y-73229290D01*
X111700280Y-73216664D01*
X111709048Y-73204841D01*
X111718934Y-73193934D01*
X111729841Y-73184048D01*
X111741664Y-73175280D01*
X111754290Y-73167712D01*
X111767597Y-73161418D01*
X111781457Y-73156459D01*
X111795736Y-73152882D01*
X111810297Y-73150722D01*
X111825000Y-73150000D01*
X113475000Y-73150000D01*
X113489703Y-73150722D01*
G37*
G36*
X113489703Y-71880722D02*
G01*
X113504264Y-71882882D01*
X113518543Y-71886459D01*
X113532403Y-71891418D01*
X113545710Y-71897712D01*
X113558336Y-71905280D01*
X113570159Y-71914048D01*
X113581066Y-71923934D01*
X113590952Y-71934841D01*
X113599720Y-71946664D01*
X113607288Y-71959290D01*
X113613582Y-71972597D01*
X113618541Y-71986457D01*
X113622118Y-72000736D01*
X113624278Y-72015297D01*
X113625000Y-72030000D01*
X113625000Y-72330000D01*
X113624278Y-72344703D01*
X113622118Y-72359264D01*
X113618541Y-72373543D01*
X113613582Y-72387403D01*
X113607288Y-72400710D01*
X113599720Y-72413336D01*
X113590952Y-72425159D01*
X113581066Y-72436066D01*
X113570159Y-72445952D01*
X113558336Y-72454720D01*
X113545710Y-72462288D01*
X113532403Y-72468582D01*
X113518543Y-72473541D01*
X113504264Y-72477118D01*
X113489703Y-72479278D01*
X113475000Y-72480000D01*
X111825000Y-72480000D01*
X111810297Y-72479278D01*
X111795736Y-72477118D01*
X111781457Y-72473541D01*
X111767597Y-72468582D01*
X111754290Y-72462288D01*
X111741664Y-72454720D01*
X111729841Y-72445952D01*
X111718934Y-72436066D01*
X111709048Y-72425159D01*
X111700280Y-72413336D01*
X111692712Y-72400710D01*
X111686418Y-72387403D01*
X111681459Y-72373543D01*
X111677882Y-72359264D01*
X111675722Y-72344703D01*
X111675000Y-72330000D01*
X111675000Y-72030000D01*
X111675722Y-72015297D01*
X111677882Y-72000736D01*
X111681459Y-71986457D01*
X111686418Y-71972597D01*
X111692712Y-71959290D01*
X111700280Y-71946664D01*
X111709048Y-71934841D01*
X111718934Y-71923934D01*
X111729841Y-71914048D01*
X111741664Y-71905280D01*
X111754290Y-71897712D01*
X111767597Y-71891418D01*
X111781457Y-71886459D01*
X111795736Y-71882882D01*
X111810297Y-71880722D01*
X111825000Y-71880000D01*
X113475000Y-71880000D01*
X113489703Y-71880722D01*
G37*
G36*
X118439703Y-71880722D02*
G01*
X118454264Y-71882882D01*
X118468543Y-71886459D01*
X118482403Y-71891418D01*
X118495710Y-71897712D01*
X118508336Y-71905280D01*
X118520159Y-71914048D01*
X118531066Y-71923934D01*
X118540952Y-71934841D01*
X118549720Y-71946664D01*
X118557288Y-71959290D01*
X118563582Y-71972597D01*
X118568541Y-71986457D01*
X118572118Y-72000736D01*
X118574278Y-72015297D01*
X118575000Y-72030000D01*
X118575000Y-72330000D01*
X118574278Y-72344703D01*
X118572118Y-72359264D01*
X118568541Y-72373543D01*
X118563582Y-72387403D01*
X118557288Y-72400710D01*
X118549720Y-72413336D01*
X118540952Y-72425159D01*
X118531066Y-72436066D01*
X118520159Y-72445952D01*
X118508336Y-72454720D01*
X118495710Y-72462288D01*
X118482403Y-72468582D01*
X118468543Y-72473541D01*
X118454264Y-72477118D01*
X118439703Y-72479278D01*
X118425000Y-72480000D01*
X116775000Y-72480000D01*
X116760297Y-72479278D01*
X116745736Y-72477118D01*
X116731457Y-72473541D01*
X116717597Y-72468582D01*
X116704290Y-72462288D01*
X116691664Y-72454720D01*
X116679841Y-72445952D01*
X116668934Y-72436066D01*
X116659048Y-72425159D01*
X116650280Y-72413336D01*
X116642712Y-72400710D01*
X116636418Y-72387403D01*
X116631459Y-72373543D01*
X116627882Y-72359264D01*
X116625722Y-72344703D01*
X116625000Y-72330000D01*
X116625000Y-72030000D01*
X116625722Y-72015297D01*
X116627882Y-72000736D01*
X116631459Y-71986457D01*
X116636418Y-71972597D01*
X116642712Y-71959290D01*
X116650280Y-71946664D01*
X116659048Y-71934841D01*
X116668934Y-71923934D01*
X116679841Y-71914048D01*
X116691664Y-71905280D01*
X116704290Y-71897712D01*
X116717597Y-71891418D01*
X116731457Y-71886459D01*
X116745736Y-71882882D01*
X116760297Y-71880722D01*
X116775000Y-71880000D01*
X118425000Y-71880000D01*
X118439703Y-71880722D01*
G37*
G36*
X118439703Y-73150722D02*
G01*
X118454264Y-73152882D01*
X118468543Y-73156459D01*
X118482403Y-73161418D01*
X118495710Y-73167712D01*
X118508336Y-73175280D01*
X118520159Y-73184048D01*
X118531066Y-73193934D01*
X118540952Y-73204841D01*
X118549720Y-73216664D01*
X118557288Y-73229290D01*
X118563582Y-73242597D01*
X118568541Y-73256457D01*
X118572118Y-73270736D01*
X118574278Y-73285297D01*
X118575000Y-73300000D01*
X118575000Y-73600000D01*
X118574278Y-73614703D01*
X118572118Y-73629264D01*
X118568541Y-73643543D01*
X118563582Y-73657403D01*
X118557288Y-73670710D01*
X118549720Y-73683336D01*
X118540952Y-73695159D01*
X118531066Y-73706066D01*
X118520159Y-73715952D01*
X118508336Y-73724720D01*
X118495710Y-73732288D01*
X118482403Y-73738582D01*
X118468543Y-73743541D01*
X118454264Y-73747118D01*
X118439703Y-73749278D01*
X118425000Y-73750000D01*
X116775000Y-73750000D01*
X116760297Y-73749278D01*
X116745736Y-73747118D01*
X116731457Y-73743541D01*
X116717597Y-73738582D01*
X116704290Y-73732288D01*
X116691664Y-73724720D01*
X116679841Y-73715952D01*
X116668934Y-73706066D01*
X116659048Y-73695159D01*
X116650280Y-73683336D01*
X116642712Y-73670710D01*
X116636418Y-73657403D01*
X116631459Y-73643543D01*
X116627882Y-73629264D01*
X116625722Y-73614703D01*
X116625000Y-73600000D01*
X116625000Y-73300000D01*
X116625722Y-73285297D01*
X116627882Y-73270736D01*
X116631459Y-73256457D01*
X116636418Y-73242597D01*
X116642712Y-73229290D01*
X116650280Y-73216664D01*
X116659048Y-73204841D01*
X116668934Y-73193934D01*
X116679841Y-73184048D01*
X116691664Y-73175280D01*
X116704290Y-73167712D01*
X116717597Y-73161418D01*
X116731457Y-73156459D01*
X116745736Y-73152882D01*
X116760297Y-73150722D01*
X116775000Y-73150000D01*
X118425000Y-73150000D01*
X118439703Y-73150722D01*
G37*
G36*
X118439703Y-74420722D02*
G01*
X118454264Y-74422882D01*
X118468543Y-74426459D01*
X118482403Y-74431418D01*
X118495710Y-74437712D01*
X118508336Y-74445280D01*
X118520159Y-74454048D01*
X118531066Y-74463934D01*
X118540952Y-74474841D01*
X118549720Y-74486664D01*
X118557288Y-74499290D01*
X118563582Y-74512597D01*
X118568541Y-74526457D01*
X118572118Y-74540736D01*
X118574278Y-74555297D01*
X118575000Y-74570000D01*
X118575000Y-74870000D01*
X118574278Y-74884703D01*
X118572118Y-74899264D01*
X118568541Y-74913543D01*
X118563582Y-74927403D01*
X118557288Y-74940710D01*
X118549720Y-74953336D01*
X118540952Y-74965159D01*
X118531066Y-74976066D01*
X118520159Y-74985952D01*
X118508336Y-74994720D01*
X118495710Y-75002288D01*
X118482403Y-75008582D01*
X118468543Y-75013541D01*
X118454264Y-75017118D01*
X118439703Y-75019278D01*
X118425000Y-75020000D01*
X116775000Y-75020000D01*
X116760297Y-75019278D01*
X116745736Y-75017118D01*
X116731457Y-75013541D01*
X116717597Y-75008582D01*
X116704290Y-75002288D01*
X116691664Y-74994720D01*
X116679841Y-74985952D01*
X116668934Y-74976066D01*
X116659048Y-74965159D01*
X116650280Y-74953336D01*
X116642712Y-74940710D01*
X116636418Y-74927403D01*
X116631459Y-74913543D01*
X116627882Y-74899264D01*
X116625722Y-74884703D01*
X116625000Y-74870000D01*
X116625000Y-74570000D01*
X116625722Y-74555297D01*
X116627882Y-74540736D01*
X116631459Y-74526457D01*
X116636418Y-74512597D01*
X116642712Y-74499290D01*
X116650280Y-74486664D01*
X116659048Y-74474841D01*
X116668934Y-74463934D01*
X116679841Y-74454048D01*
X116691664Y-74445280D01*
X116704290Y-74437712D01*
X116717597Y-74431418D01*
X116731457Y-74426459D01*
X116745736Y-74422882D01*
X116760297Y-74420722D01*
X116775000Y-74420000D01*
X118425000Y-74420000D01*
X118439703Y-74420722D01*
G37*
G36*
X118439703Y-75690722D02*
G01*
X118454264Y-75692882D01*
X118468543Y-75696459D01*
X118482403Y-75701418D01*
X118495710Y-75707712D01*
X118508336Y-75715280D01*
X118520159Y-75724048D01*
X118531066Y-75733934D01*
X118540952Y-75744841D01*
X118549720Y-75756664D01*
X118557288Y-75769290D01*
X118563582Y-75782597D01*
X118568541Y-75796457D01*
X118572118Y-75810736D01*
X118574278Y-75825297D01*
X118575000Y-75840000D01*
X118575000Y-76140000D01*
X118574278Y-76154703D01*
X118572118Y-76169264D01*
X118568541Y-76183543D01*
X118563582Y-76197403D01*
X118557288Y-76210710D01*
X118549720Y-76223336D01*
X118540952Y-76235159D01*
X118531066Y-76246066D01*
X118520159Y-76255952D01*
X118508336Y-76264720D01*
X118495710Y-76272288D01*
X118482403Y-76278582D01*
X118468543Y-76283541D01*
X118454264Y-76287118D01*
X118439703Y-76289278D01*
X118425000Y-76290000D01*
X116775000Y-76290000D01*
X116760297Y-76289278D01*
X116745736Y-76287118D01*
X116731457Y-76283541D01*
X116717597Y-76278582D01*
X116704290Y-76272288D01*
X116691664Y-76264720D01*
X116679841Y-76255952D01*
X116668934Y-76246066D01*
X116659048Y-76235159D01*
X116650280Y-76223336D01*
X116642712Y-76210710D01*
X116636418Y-76197403D01*
X116631459Y-76183543D01*
X116627882Y-76169264D01*
X116625722Y-76154703D01*
X116625000Y-76140000D01*
X116625000Y-75840000D01*
X116625722Y-75825297D01*
X116627882Y-75810736D01*
X116631459Y-75796457D01*
X116636418Y-75782597D01*
X116642712Y-75769290D01*
X116650280Y-75756664D01*
X116659048Y-75744841D01*
X116668934Y-75733934D01*
X116679841Y-75724048D01*
X116691664Y-75715280D01*
X116704290Y-75707712D01*
X116717597Y-75701418D01*
X116731457Y-75696459D01*
X116745736Y-75692882D01*
X116760297Y-75690722D01*
X116775000Y-75690000D01*
X118425000Y-75690000D01*
X118439703Y-75690722D01*
G37*
D18*
X109800000Y-76600000D03*
X106830000Y-76600000D03*
D17*
X107500000Y-71700000D03*
X107500000Y-73900000D03*
D10*
G36*
X132108292Y-91286383D02*
G01*
X132116010Y-91287528D01*
X132123578Y-91289423D01*
X132130923Y-91292052D01*
X132137976Y-91295387D01*
X132144668Y-91299398D01*
X132150934Y-91304046D01*
X132156715Y-91309285D01*
X132161954Y-91315066D01*
X132166602Y-91321332D01*
X132170613Y-91328024D01*
X132173948Y-91335077D01*
X132176577Y-91342422D01*
X132178472Y-91349990D01*
X132179617Y-91357708D01*
X132180000Y-91365500D01*
X132180000Y-91524500D01*
X132179617Y-91532292D01*
X132178472Y-91540010D01*
X132176577Y-91547578D01*
X132173948Y-91554923D01*
X132170613Y-91561976D01*
X132166602Y-91568668D01*
X132161954Y-91574934D01*
X132156715Y-91580715D01*
X132150934Y-91585954D01*
X132144668Y-91590602D01*
X132137976Y-91594613D01*
X132130923Y-91597948D01*
X132123578Y-91600577D01*
X132116010Y-91602472D01*
X132108292Y-91603617D01*
X132100500Y-91604000D01*
X131899500Y-91604000D01*
X131891708Y-91603617D01*
X131883990Y-91602472D01*
X131876422Y-91600577D01*
X131869077Y-91597948D01*
X131862024Y-91594613D01*
X131855332Y-91590602D01*
X131849066Y-91585954D01*
X131843285Y-91580715D01*
X131838046Y-91574934D01*
X131833398Y-91568668D01*
X131829387Y-91561976D01*
X131826052Y-91554923D01*
X131823423Y-91547578D01*
X131821528Y-91540010D01*
X131820383Y-91532292D01*
X131820000Y-91524500D01*
X131820000Y-91365500D01*
X131820383Y-91357708D01*
X131821528Y-91349990D01*
X131823423Y-91342422D01*
X131826052Y-91335077D01*
X131829387Y-91328024D01*
X131833398Y-91321332D01*
X131838046Y-91315066D01*
X131843285Y-91309285D01*
X131849066Y-91304046D01*
X131855332Y-91299398D01*
X131862024Y-91295387D01*
X131869077Y-91292052D01*
X131876422Y-91289423D01*
X131883990Y-91287528D01*
X131891708Y-91286383D01*
X131899500Y-91286000D01*
X132100500Y-91286000D01*
X132108292Y-91286383D01*
G37*
G36*
X132108292Y-90596383D02*
G01*
X132116010Y-90597528D01*
X132123578Y-90599423D01*
X132130923Y-90602052D01*
X132137976Y-90605387D01*
X132144668Y-90609398D01*
X132150934Y-90614046D01*
X132156715Y-90619285D01*
X132161954Y-90625066D01*
X132166602Y-90631332D01*
X132170613Y-90638024D01*
X132173948Y-90645077D01*
X132176577Y-90652422D01*
X132178472Y-90659990D01*
X132179617Y-90667708D01*
X132180000Y-90675500D01*
X132180000Y-90834500D01*
X132179617Y-90842292D01*
X132178472Y-90850010D01*
X132176577Y-90857578D01*
X132173948Y-90864923D01*
X132170613Y-90871976D01*
X132166602Y-90878668D01*
X132161954Y-90884934D01*
X132156715Y-90890715D01*
X132150934Y-90895954D01*
X132144668Y-90900602D01*
X132137976Y-90904613D01*
X132130923Y-90907948D01*
X132123578Y-90910577D01*
X132116010Y-90912472D01*
X132108292Y-90913617D01*
X132100500Y-90914000D01*
X131899500Y-90914000D01*
X131891708Y-90913617D01*
X131883990Y-90912472D01*
X131876422Y-90910577D01*
X131869077Y-90907948D01*
X131862024Y-90904613D01*
X131855332Y-90900602D01*
X131849066Y-90895954D01*
X131843285Y-90890715D01*
X131838046Y-90884934D01*
X131833398Y-90878668D01*
X131829387Y-90871976D01*
X131826052Y-90864923D01*
X131823423Y-90857578D01*
X131821528Y-90850010D01*
X131820383Y-90842292D01*
X131820000Y-90834500D01*
X131820000Y-90675500D01*
X131820383Y-90667708D01*
X131821528Y-90659990D01*
X131823423Y-90652422D01*
X131826052Y-90645077D01*
X131829387Y-90638024D01*
X131833398Y-90631332D01*
X131838046Y-90625066D01*
X131843285Y-90619285D01*
X131849066Y-90614046D01*
X131855332Y-90609398D01*
X131862024Y-90605387D01*
X131869077Y-90602052D01*
X131876422Y-90599423D01*
X131883990Y-90597528D01*
X131891708Y-90596383D01*
X131899500Y-90596000D01*
X132100500Y-90596000D01*
X132108292Y-90596383D01*
G37*
G36*
X108132292Y-93020383D02*
G01*
X108140010Y-93021528D01*
X108147578Y-93023423D01*
X108154923Y-93026052D01*
X108161976Y-93029387D01*
X108168668Y-93033398D01*
X108174934Y-93038046D01*
X108180715Y-93043285D01*
X108185954Y-93049066D01*
X108190602Y-93055332D01*
X108194613Y-93062024D01*
X108197948Y-93069077D01*
X108200577Y-93076422D01*
X108202472Y-93083990D01*
X108203617Y-93091708D01*
X108204000Y-93099500D01*
X108204000Y-93300500D01*
X108203617Y-93308292D01*
X108202472Y-93316010D01*
X108200577Y-93323578D01*
X108197948Y-93330923D01*
X108194613Y-93337976D01*
X108190602Y-93344668D01*
X108185954Y-93350934D01*
X108180715Y-93356715D01*
X108174934Y-93361954D01*
X108168668Y-93366602D01*
X108161976Y-93370613D01*
X108154923Y-93373948D01*
X108147578Y-93376577D01*
X108140010Y-93378472D01*
X108132292Y-93379617D01*
X108124500Y-93380000D01*
X107965500Y-93380000D01*
X107957708Y-93379617D01*
X107949990Y-93378472D01*
X107942422Y-93376577D01*
X107935077Y-93373948D01*
X107928024Y-93370613D01*
X107921332Y-93366602D01*
X107915066Y-93361954D01*
X107909285Y-93356715D01*
X107904046Y-93350934D01*
X107899398Y-93344668D01*
X107895387Y-93337976D01*
X107892052Y-93330923D01*
X107889423Y-93323578D01*
X107887528Y-93316010D01*
X107886383Y-93308292D01*
X107886000Y-93300500D01*
X107886000Y-93099500D01*
X107886383Y-93091708D01*
X107887528Y-93083990D01*
X107889423Y-93076422D01*
X107892052Y-93069077D01*
X107895387Y-93062024D01*
X107899398Y-93055332D01*
X107904046Y-93049066D01*
X107909285Y-93043285D01*
X107915066Y-93038046D01*
X107921332Y-93033398D01*
X107928024Y-93029387D01*
X107935077Y-93026052D01*
X107942422Y-93023423D01*
X107949990Y-93021528D01*
X107957708Y-93020383D01*
X107965500Y-93020000D01*
X108124500Y-93020000D01*
X108132292Y-93020383D01*
G37*
G36*
X107442292Y-93020383D02*
G01*
X107450010Y-93021528D01*
X107457578Y-93023423D01*
X107464923Y-93026052D01*
X107471976Y-93029387D01*
X107478668Y-93033398D01*
X107484934Y-93038046D01*
X107490715Y-93043285D01*
X107495954Y-93049066D01*
X107500602Y-93055332D01*
X107504613Y-93062024D01*
X107507948Y-93069077D01*
X107510577Y-93076422D01*
X107512472Y-93083990D01*
X107513617Y-93091708D01*
X107514000Y-93099500D01*
X107514000Y-93300500D01*
X107513617Y-93308292D01*
X107512472Y-93316010D01*
X107510577Y-93323578D01*
X107507948Y-93330923D01*
X107504613Y-93337976D01*
X107500602Y-93344668D01*
X107495954Y-93350934D01*
X107490715Y-93356715D01*
X107484934Y-93361954D01*
X107478668Y-93366602D01*
X107471976Y-93370613D01*
X107464923Y-93373948D01*
X107457578Y-93376577D01*
X107450010Y-93378472D01*
X107442292Y-93379617D01*
X107434500Y-93380000D01*
X107275500Y-93380000D01*
X107267708Y-93379617D01*
X107259990Y-93378472D01*
X107252422Y-93376577D01*
X107245077Y-93373948D01*
X107238024Y-93370613D01*
X107231332Y-93366602D01*
X107225066Y-93361954D01*
X107219285Y-93356715D01*
X107214046Y-93350934D01*
X107209398Y-93344668D01*
X107205387Y-93337976D01*
X107202052Y-93330923D01*
X107199423Y-93323578D01*
X107197528Y-93316010D01*
X107196383Y-93308292D01*
X107196000Y-93300500D01*
X107196000Y-93099500D01*
X107196383Y-93091708D01*
X107197528Y-93083990D01*
X107199423Y-93076422D01*
X107202052Y-93069077D01*
X107205387Y-93062024D01*
X107209398Y-93055332D01*
X107214046Y-93049066D01*
X107219285Y-93043285D01*
X107225066Y-93038046D01*
X107231332Y-93033398D01*
X107238024Y-93029387D01*
X107245077Y-93026052D01*
X107252422Y-93023423D01*
X107259990Y-93021528D01*
X107267708Y-93020383D01*
X107275500Y-93020000D01*
X107434500Y-93020000D01*
X107442292Y-93020383D01*
G37*
G36*
X103027292Y-84170383D02*
G01*
X103035010Y-84171528D01*
X103042578Y-84173423D01*
X103049923Y-84176052D01*
X103056976Y-84179387D01*
X103063668Y-84183398D01*
X103069934Y-84188046D01*
X103075715Y-84193285D01*
X103080954Y-84199066D01*
X103085602Y-84205332D01*
X103089613Y-84212024D01*
X103092948Y-84219077D01*
X103095577Y-84226422D01*
X103097472Y-84233990D01*
X103098617Y-84241708D01*
X103099000Y-84249500D01*
X103099000Y-84450500D01*
X103098617Y-84458292D01*
X103097472Y-84466010D01*
X103095577Y-84473578D01*
X103092948Y-84480923D01*
X103089613Y-84487976D01*
X103085602Y-84494668D01*
X103080954Y-84500934D01*
X103075715Y-84506715D01*
X103069934Y-84511954D01*
X103063668Y-84516602D01*
X103056976Y-84520613D01*
X103049923Y-84523948D01*
X103042578Y-84526577D01*
X103035010Y-84528472D01*
X103027292Y-84529617D01*
X103019500Y-84530000D01*
X102860500Y-84530000D01*
X102852708Y-84529617D01*
X102844990Y-84528472D01*
X102837422Y-84526577D01*
X102830077Y-84523948D01*
X102823024Y-84520613D01*
X102816332Y-84516602D01*
X102810066Y-84511954D01*
X102804285Y-84506715D01*
X102799046Y-84500934D01*
X102794398Y-84494668D01*
X102790387Y-84487976D01*
X102787052Y-84480923D01*
X102784423Y-84473578D01*
X102782528Y-84466010D01*
X102781383Y-84458292D01*
X102781000Y-84450500D01*
X102781000Y-84249500D01*
X102781383Y-84241708D01*
X102782528Y-84233990D01*
X102784423Y-84226422D01*
X102787052Y-84219077D01*
X102790387Y-84212024D01*
X102794398Y-84205332D01*
X102799046Y-84199066D01*
X102804285Y-84193285D01*
X102810066Y-84188046D01*
X102816332Y-84183398D01*
X102823024Y-84179387D01*
X102830077Y-84176052D01*
X102837422Y-84173423D01*
X102844990Y-84171528D01*
X102852708Y-84170383D01*
X102860500Y-84170000D01*
X103019500Y-84170000D01*
X103027292Y-84170383D01*
G37*
G36*
X102337292Y-84170383D02*
G01*
X102345010Y-84171528D01*
X102352578Y-84173423D01*
X102359923Y-84176052D01*
X102366976Y-84179387D01*
X102373668Y-84183398D01*
X102379934Y-84188046D01*
X102385715Y-84193285D01*
X102390954Y-84199066D01*
X102395602Y-84205332D01*
X102399613Y-84212024D01*
X102402948Y-84219077D01*
X102405577Y-84226422D01*
X102407472Y-84233990D01*
X102408617Y-84241708D01*
X102409000Y-84249500D01*
X102409000Y-84450500D01*
X102408617Y-84458292D01*
X102407472Y-84466010D01*
X102405577Y-84473578D01*
X102402948Y-84480923D01*
X102399613Y-84487976D01*
X102395602Y-84494668D01*
X102390954Y-84500934D01*
X102385715Y-84506715D01*
X102379934Y-84511954D01*
X102373668Y-84516602D01*
X102366976Y-84520613D01*
X102359923Y-84523948D01*
X102352578Y-84526577D01*
X102345010Y-84528472D01*
X102337292Y-84529617D01*
X102329500Y-84530000D01*
X102170500Y-84530000D01*
X102162708Y-84529617D01*
X102154990Y-84528472D01*
X102147422Y-84526577D01*
X102140077Y-84523948D01*
X102133024Y-84520613D01*
X102126332Y-84516602D01*
X102120066Y-84511954D01*
X102114285Y-84506715D01*
X102109046Y-84500934D01*
X102104398Y-84494668D01*
X102100387Y-84487976D01*
X102097052Y-84480923D01*
X102094423Y-84473578D01*
X102092528Y-84466010D01*
X102091383Y-84458292D01*
X102091000Y-84450500D01*
X102091000Y-84249500D01*
X102091383Y-84241708D01*
X102092528Y-84233990D01*
X102094423Y-84226422D01*
X102097052Y-84219077D01*
X102100387Y-84212024D01*
X102104398Y-84205332D01*
X102109046Y-84199066D01*
X102114285Y-84193285D01*
X102120066Y-84188046D01*
X102126332Y-84183398D01*
X102133024Y-84179387D01*
X102140077Y-84176052D01*
X102147422Y-84173423D01*
X102154990Y-84171528D01*
X102162708Y-84170383D01*
X102170500Y-84170000D01*
X102329500Y-84170000D01*
X102337292Y-84170383D01*
G37*
G36*
X111732292Y-89870383D02*
G01*
X111740010Y-89871528D01*
X111747578Y-89873423D01*
X111754923Y-89876052D01*
X111761976Y-89879387D01*
X111768668Y-89883398D01*
X111774934Y-89888046D01*
X111780715Y-89893285D01*
X111785954Y-89899066D01*
X111790602Y-89905332D01*
X111794613Y-89912024D01*
X111797948Y-89919077D01*
X111800577Y-89926422D01*
X111802472Y-89933990D01*
X111803617Y-89941708D01*
X111804000Y-89949500D01*
X111804000Y-90150500D01*
X111803617Y-90158292D01*
X111802472Y-90166010D01*
X111800577Y-90173578D01*
X111797948Y-90180923D01*
X111794613Y-90187976D01*
X111790602Y-90194668D01*
X111785954Y-90200934D01*
X111780715Y-90206715D01*
X111774934Y-90211954D01*
X111768668Y-90216602D01*
X111761976Y-90220613D01*
X111754923Y-90223948D01*
X111747578Y-90226577D01*
X111740010Y-90228472D01*
X111732292Y-90229617D01*
X111724500Y-90230000D01*
X111565500Y-90230000D01*
X111557708Y-90229617D01*
X111549990Y-90228472D01*
X111542422Y-90226577D01*
X111535077Y-90223948D01*
X111528024Y-90220613D01*
X111521332Y-90216602D01*
X111515066Y-90211954D01*
X111509285Y-90206715D01*
X111504046Y-90200934D01*
X111499398Y-90194668D01*
X111495387Y-90187976D01*
X111492052Y-90180923D01*
X111489423Y-90173578D01*
X111487528Y-90166010D01*
X111486383Y-90158292D01*
X111486000Y-90150500D01*
X111486000Y-89949500D01*
X111486383Y-89941708D01*
X111487528Y-89933990D01*
X111489423Y-89926422D01*
X111492052Y-89919077D01*
X111495387Y-89912024D01*
X111499398Y-89905332D01*
X111504046Y-89899066D01*
X111509285Y-89893285D01*
X111515066Y-89888046D01*
X111521332Y-89883398D01*
X111528024Y-89879387D01*
X111535077Y-89876052D01*
X111542422Y-89873423D01*
X111549990Y-89871528D01*
X111557708Y-89870383D01*
X111565500Y-89870000D01*
X111724500Y-89870000D01*
X111732292Y-89870383D01*
G37*
G36*
X111042292Y-89870383D02*
G01*
X111050010Y-89871528D01*
X111057578Y-89873423D01*
X111064923Y-89876052D01*
X111071976Y-89879387D01*
X111078668Y-89883398D01*
X111084934Y-89888046D01*
X111090715Y-89893285D01*
X111095954Y-89899066D01*
X111100602Y-89905332D01*
X111104613Y-89912024D01*
X111107948Y-89919077D01*
X111110577Y-89926422D01*
X111112472Y-89933990D01*
X111113617Y-89941708D01*
X111114000Y-89949500D01*
X111114000Y-90150500D01*
X111113617Y-90158292D01*
X111112472Y-90166010D01*
X111110577Y-90173578D01*
X111107948Y-90180923D01*
X111104613Y-90187976D01*
X111100602Y-90194668D01*
X111095954Y-90200934D01*
X111090715Y-90206715D01*
X111084934Y-90211954D01*
X111078668Y-90216602D01*
X111071976Y-90220613D01*
X111064923Y-90223948D01*
X111057578Y-90226577D01*
X111050010Y-90228472D01*
X111042292Y-90229617D01*
X111034500Y-90230000D01*
X110875500Y-90230000D01*
X110867708Y-90229617D01*
X110859990Y-90228472D01*
X110852422Y-90226577D01*
X110845077Y-90223948D01*
X110838024Y-90220613D01*
X110831332Y-90216602D01*
X110825066Y-90211954D01*
X110819285Y-90206715D01*
X110814046Y-90200934D01*
X110809398Y-90194668D01*
X110805387Y-90187976D01*
X110802052Y-90180923D01*
X110799423Y-90173578D01*
X110797528Y-90166010D01*
X110796383Y-90158292D01*
X110796000Y-90150500D01*
X110796000Y-89949500D01*
X110796383Y-89941708D01*
X110797528Y-89933990D01*
X110799423Y-89926422D01*
X110802052Y-89919077D01*
X110805387Y-89912024D01*
X110809398Y-89905332D01*
X110814046Y-89899066D01*
X110819285Y-89893285D01*
X110825066Y-89888046D01*
X110831332Y-89883398D01*
X110838024Y-89879387D01*
X110845077Y-89876052D01*
X110852422Y-89873423D01*
X110859990Y-89871528D01*
X110867708Y-89870383D01*
X110875500Y-89870000D01*
X111034500Y-89870000D01*
X111042292Y-89870383D01*
G37*
G36*
X111042292Y-88120383D02*
G01*
X111050010Y-88121528D01*
X111057578Y-88123423D01*
X111064923Y-88126052D01*
X111071976Y-88129387D01*
X111078668Y-88133398D01*
X111084934Y-88138046D01*
X111090715Y-88143285D01*
X111095954Y-88149066D01*
X111100602Y-88155332D01*
X111104613Y-88162024D01*
X111107948Y-88169077D01*
X111110577Y-88176422D01*
X111112472Y-88183990D01*
X111113617Y-88191708D01*
X111114000Y-88199500D01*
X111114000Y-88400500D01*
X111113617Y-88408292D01*
X111112472Y-88416010D01*
X111110577Y-88423578D01*
X111107948Y-88430923D01*
X111104613Y-88437976D01*
X111100602Y-88444668D01*
X111095954Y-88450934D01*
X111090715Y-88456715D01*
X111084934Y-88461954D01*
X111078668Y-88466602D01*
X111071976Y-88470613D01*
X111064923Y-88473948D01*
X111057578Y-88476577D01*
X111050010Y-88478472D01*
X111042292Y-88479617D01*
X111034500Y-88480000D01*
X110875500Y-88480000D01*
X110867708Y-88479617D01*
X110859990Y-88478472D01*
X110852422Y-88476577D01*
X110845077Y-88473948D01*
X110838024Y-88470613D01*
X110831332Y-88466602D01*
X110825066Y-88461954D01*
X110819285Y-88456715D01*
X110814046Y-88450934D01*
X110809398Y-88444668D01*
X110805387Y-88437976D01*
X110802052Y-88430923D01*
X110799423Y-88423578D01*
X110797528Y-88416010D01*
X110796383Y-88408292D01*
X110796000Y-88400500D01*
X110796000Y-88199500D01*
X110796383Y-88191708D01*
X110797528Y-88183990D01*
X110799423Y-88176422D01*
X110802052Y-88169077D01*
X110805387Y-88162024D01*
X110809398Y-88155332D01*
X110814046Y-88149066D01*
X110819285Y-88143285D01*
X110825066Y-88138046D01*
X110831332Y-88133398D01*
X110838024Y-88129387D01*
X110845077Y-88126052D01*
X110852422Y-88123423D01*
X110859990Y-88121528D01*
X110867708Y-88120383D01*
X110875500Y-88120000D01*
X111034500Y-88120000D01*
X111042292Y-88120383D01*
G37*
G36*
X111732292Y-88120383D02*
G01*
X111740010Y-88121528D01*
X111747578Y-88123423D01*
X111754923Y-88126052D01*
X111761976Y-88129387D01*
X111768668Y-88133398D01*
X111774934Y-88138046D01*
X111780715Y-88143285D01*
X111785954Y-88149066D01*
X111790602Y-88155332D01*
X111794613Y-88162024D01*
X111797948Y-88169077D01*
X111800577Y-88176422D01*
X111802472Y-88183990D01*
X111803617Y-88191708D01*
X111804000Y-88199500D01*
X111804000Y-88400500D01*
X111803617Y-88408292D01*
X111802472Y-88416010D01*
X111800577Y-88423578D01*
X111797948Y-88430923D01*
X111794613Y-88437976D01*
X111790602Y-88444668D01*
X111785954Y-88450934D01*
X111780715Y-88456715D01*
X111774934Y-88461954D01*
X111768668Y-88466602D01*
X111761976Y-88470613D01*
X111754923Y-88473948D01*
X111747578Y-88476577D01*
X111740010Y-88478472D01*
X111732292Y-88479617D01*
X111724500Y-88480000D01*
X111565500Y-88480000D01*
X111557708Y-88479617D01*
X111549990Y-88478472D01*
X111542422Y-88476577D01*
X111535077Y-88473948D01*
X111528024Y-88470613D01*
X111521332Y-88466602D01*
X111515066Y-88461954D01*
X111509285Y-88456715D01*
X111504046Y-88450934D01*
X111499398Y-88444668D01*
X111495387Y-88437976D01*
X111492052Y-88430923D01*
X111489423Y-88423578D01*
X111487528Y-88416010D01*
X111486383Y-88408292D01*
X111486000Y-88400500D01*
X111486000Y-88199500D01*
X111486383Y-88191708D01*
X111487528Y-88183990D01*
X111489423Y-88176422D01*
X111492052Y-88169077D01*
X111495387Y-88162024D01*
X111499398Y-88155332D01*
X111504046Y-88149066D01*
X111509285Y-88143285D01*
X111515066Y-88138046D01*
X111521332Y-88133398D01*
X111528024Y-88129387D01*
X111535077Y-88126052D01*
X111542422Y-88123423D01*
X111549990Y-88121528D01*
X111557708Y-88120383D01*
X111565500Y-88120000D01*
X111724500Y-88120000D01*
X111732292Y-88120383D01*
G37*
G36*
X111752292Y-87270383D02*
G01*
X111760010Y-87271528D01*
X111767578Y-87273423D01*
X111774923Y-87276052D01*
X111781976Y-87279387D01*
X111788668Y-87283398D01*
X111794934Y-87288046D01*
X111800715Y-87293285D01*
X111805954Y-87299066D01*
X111810602Y-87305332D01*
X111814613Y-87312024D01*
X111817948Y-87319077D01*
X111820577Y-87326422D01*
X111822472Y-87333990D01*
X111823617Y-87341708D01*
X111824000Y-87349500D01*
X111824000Y-87550500D01*
X111823617Y-87558292D01*
X111822472Y-87566010D01*
X111820577Y-87573578D01*
X111817948Y-87580923D01*
X111814613Y-87587976D01*
X111810602Y-87594668D01*
X111805954Y-87600934D01*
X111800715Y-87606715D01*
X111794934Y-87611954D01*
X111788668Y-87616602D01*
X111781976Y-87620613D01*
X111774923Y-87623948D01*
X111767578Y-87626577D01*
X111760010Y-87628472D01*
X111752292Y-87629617D01*
X111744500Y-87630000D01*
X111585500Y-87630000D01*
X111577708Y-87629617D01*
X111569990Y-87628472D01*
X111562422Y-87626577D01*
X111555077Y-87623948D01*
X111548024Y-87620613D01*
X111541332Y-87616602D01*
X111535066Y-87611954D01*
X111529285Y-87606715D01*
X111524046Y-87600934D01*
X111519398Y-87594668D01*
X111515387Y-87587976D01*
X111512052Y-87580923D01*
X111509423Y-87573578D01*
X111507528Y-87566010D01*
X111506383Y-87558292D01*
X111506000Y-87550500D01*
X111506000Y-87349500D01*
X111506383Y-87341708D01*
X111507528Y-87333990D01*
X111509423Y-87326422D01*
X111512052Y-87319077D01*
X111515387Y-87312024D01*
X111519398Y-87305332D01*
X111524046Y-87299066D01*
X111529285Y-87293285D01*
X111535066Y-87288046D01*
X111541332Y-87283398D01*
X111548024Y-87279387D01*
X111555077Y-87276052D01*
X111562422Y-87273423D01*
X111569990Y-87271528D01*
X111577708Y-87270383D01*
X111585500Y-87270000D01*
X111744500Y-87270000D01*
X111752292Y-87270383D01*
G37*
G36*
X111062292Y-87270383D02*
G01*
X111070010Y-87271528D01*
X111077578Y-87273423D01*
X111084923Y-87276052D01*
X111091976Y-87279387D01*
X111098668Y-87283398D01*
X111104934Y-87288046D01*
X111110715Y-87293285D01*
X111115954Y-87299066D01*
X111120602Y-87305332D01*
X111124613Y-87312024D01*
X111127948Y-87319077D01*
X111130577Y-87326422D01*
X111132472Y-87333990D01*
X111133617Y-87341708D01*
X111134000Y-87349500D01*
X111134000Y-87550500D01*
X111133617Y-87558292D01*
X111132472Y-87566010D01*
X111130577Y-87573578D01*
X111127948Y-87580923D01*
X111124613Y-87587976D01*
X111120602Y-87594668D01*
X111115954Y-87600934D01*
X111110715Y-87606715D01*
X111104934Y-87611954D01*
X111098668Y-87616602D01*
X111091976Y-87620613D01*
X111084923Y-87623948D01*
X111077578Y-87626577D01*
X111070010Y-87628472D01*
X111062292Y-87629617D01*
X111054500Y-87630000D01*
X110895500Y-87630000D01*
X110887708Y-87629617D01*
X110879990Y-87628472D01*
X110872422Y-87626577D01*
X110865077Y-87623948D01*
X110858024Y-87620613D01*
X110851332Y-87616602D01*
X110845066Y-87611954D01*
X110839285Y-87606715D01*
X110834046Y-87600934D01*
X110829398Y-87594668D01*
X110825387Y-87587976D01*
X110822052Y-87580923D01*
X110819423Y-87573578D01*
X110817528Y-87566010D01*
X110816383Y-87558292D01*
X110816000Y-87550500D01*
X110816000Y-87349500D01*
X110816383Y-87341708D01*
X110817528Y-87333990D01*
X110819423Y-87326422D01*
X110822052Y-87319077D01*
X110825387Y-87312024D01*
X110829398Y-87305332D01*
X110834046Y-87299066D01*
X110839285Y-87293285D01*
X110845066Y-87288046D01*
X110851332Y-87283398D01*
X110858024Y-87279387D01*
X110865077Y-87276052D01*
X110872422Y-87273423D01*
X110879990Y-87271528D01*
X110887708Y-87270383D01*
X110895500Y-87270000D01*
X111054500Y-87270000D01*
X111062292Y-87270383D01*
G37*
G36*
X111290191Y-91126053D02*
G01*
X111311426Y-91129203D01*
X111332250Y-91134419D01*
X111352462Y-91141651D01*
X111371868Y-91150830D01*
X111390281Y-91161866D01*
X111407524Y-91174654D01*
X111423430Y-91189070D01*
X111437846Y-91204976D01*
X111450634Y-91222219D01*
X111461670Y-91240632D01*
X111470849Y-91260038D01*
X111478081Y-91280250D01*
X111483297Y-91301074D01*
X111486447Y-91322309D01*
X111487500Y-91343750D01*
X111487500Y-91856250D01*
X111486447Y-91877691D01*
X111483297Y-91898926D01*
X111478081Y-91919750D01*
X111470849Y-91939962D01*
X111461670Y-91959368D01*
X111450634Y-91977781D01*
X111437846Y-91995024D01*
X111423430Y-92010930D01*
X111407524Y-92025346D01*
X111390281Y-92038134D01*
X111371868Y-92049170D01*
X111352462Y-92058349D01*
X111332250Y-92065581D01*
X111311426Y-92070797D01*
X111290191Y-92073947D01*
X111268750Y-92075000D01*
X110831250Y-92075000D01*
X110809809Y-92073947D01*
X110788574Y-92070797D01*
X110767750Y-92065581D01*
X110747538Y-92058349D01*
X110728132Y-92049170D01*
X110709719Y-92038134D01*
X110692476Y-92025346D01*
X110676570Y-92010930D01*
X110662154Y-91995024D01*
X110649366Y-91977781D01*
X110638330Y-91959368D01*
X110629151Y-91939962D01*
X110621919Y-91919750D01*
X110616703Y-91898926D01*
X110613553Y-91877691D01*
X110612500Y-91856250D01*
X110612500Y-91343750D01*
X110613553Y-91322309D01*
X110616703Y-91301074D01*
X110621919Y-91280250D01*
X110629151Y-91260038D01*
X110638330Y-91240632D01*
X110649366Y-91222219D01*
X110662154Y-91204976D01*
X110676570Y-91189070D01*
X110692476Y-91174654D01*
X110709719Y-91161866D01*
X110728132Y-91150830D01*
X110747538Y-91141651D01*
X110767750Y-91134419D01*
X110788574Y-91129203D01*
X110809809Y-91126053D01*
X110831250Y-91125000D01*
X111268750Y-91125000D01*
X111290191Y-91126053D01*
G37*
G36*
X112865191Y-91126053D02*
G01*
X112886426Y-91129203D01*
X112907250Y-91134419D01*
X112927462Y-91141651D01*
X112946868Y-91150830D01*
X112965281Y-91161866D01*
X112982524Y-91174654D01*
X112998430Y-91189070D01*
X113012846Y-91204976D01*
X113025634Y-91222219D01*
X113036670Y-91240632D01*
X113045849Y-91260038D01*
X113053081Y-91280250D01*
X113058297Y-91301074D01*
X113061447Y-91322309D01*
X113062500Y-91343750D01*
X113062500Y-91856250D01*
X113061447Y-91877691D01*
X113058297Y-91898926D01*
X113053081Y-91919750D01*
X113045849Y-91939962D01*
X113036670Y-91959368D01*
X113025634Y-91977781D01*
X113012846Y-91995024D01*
X112998430Y-92010930D01*
X112982524Y-92025346D01*
X112965281Y-92038134D01*
X112946868Y-92049170D01*
X112927462Y-92058349D01*
X112907250Y-92065581D01*
X112886426Y-92070797D01*
X112865191Y-92073947D01*
X112843750Y-92075000D01*
X112406250Y-92075000D01*
X112384809Y-92073947D01*
X112363574Y-92070797D01*
X112342750Y-92065581D01*
X112322538Y-92058349D01*
X112303132Y-92049170D01*
X112284719Y-92038134D01*
X112267476Y-92025346D01*
X112251570Y-92010930D01*
X112237154Y-91995024D01*
X112224366Y-91977781D01*
X112213330Y-91959368D01*
X112204151Y-91939962D01*
X112196919Y-91919750D01*
X112191703Y-91898926D01*
X112188553Y-91877691D01*
X112187500Y-91856250D01*
X112187500Y-91343750D01*
X112188553Y-91322309D01*
X112191703Y-91301074D01*
X112196919Y-91280250D01*
X112204151Y-91260038D01*
X112213330Y-91240632D01*
X112224366Y-91222219D01*
X112237154Y-91204976D01*
X112251570Y-91189070D01*
X112267476Y-91174654D01*
X112284719Y-91161866D01*
X112303132Y-91150830D01*
X112322538Y-91141651D01*
X112342750Y-91134419D01*
X112363574Y-91129203D01*
X112384809Y-91126053D01*
X112406250Y-91125000D01*
X112843750Y-91125000D01*
X112865191Y-91126053D01*
G37*
G36*
X121522292Y-75770383D02*
G01*
X121530010Y-75771528D01*
X121537578Y-75773423D01*
X121544923Y-75776052D01*
X121551976Y-75779387D01*
X121558668Y-75783398D01*
X121564934Y-75788046D01*
X121570715Y-75793285D01*
X121575954Y-75799066D01*
X121580602Y-75805332D01*
X121584613Y-75812024D01*
X121587948Y-75819077D01*
X121590577Y-75826422D01*
X121592472Y-75833990D01*
X121593617Y-75841708D01*
X121594000Y-75849500D01*
X121594000Y-76050500D01*
X121593617Y-76058292D01*
X121592472Y-76066010D01*
X121590577Y-76073578D01*
X121587948Y-76080923D01*
X121584613Y-76087976D01*
X121580602Y-76094668D01*
X121575954Y-76100934D01*
X121570715Y-76106715D01*
X121564934Y-76111954D01*
X121558668Y-76116602D01*
X121551976Y-76120613D01*
X121544923Y-76123948D01*
X121537578Y-76126577D01*
X121530010Y-76128472D01*
X121522292Y-76129617D01*
X121514500Y-76130000D01*
X121355500Y-76130000D01*
X121347708Y-76129617D01*
X121339990Y-76128472D01*
X121332422Y-76126577D01*
X121325077Y-76123948D01*
X121318024Y-76120613D01*
X121311332Y-76116602D01*
X121305066Y-76111954D01*
X121299285Y-76106715D01*
X121294046Y-76100934D01*
X121289398Y-76094668D01*
X121285387Y-76087976D01*
X121282052Y-76080923D01*
X121279423Y-76073578D01*
X121277528Y-76066010D01*
X121276383Y-76058292D01*
X121276000Y-76050500D01*
X121276000Y-75849500D01*
X121276383Y-75841708D01*
X121277528Y-75833990D01*
X121279423Y-75826422D01*
X121282052Y-75819077D01*
X121285387Y-75812024D01*
X121289398Y-75805332D01*
X121294046Y-75799066D01*
X121299285Y-75793285D01*
X121305066Y-75788046D01*
X121311332Y-75783398D01*
X121318024Y-75779387D01*
X121325077Y-75776052D01*
X121332422Y-75773423D01*
X121339990Y-75771528D01*
X121347708Y-75770383D01*
X121355500Y-75770000D01*
X121514500Y-75770000D01*
X121522292Y-75770383D01*
G37*
G36*
X122212292Y-75770383D02*
G01*
X122220010Y-75771528D01*
X122227578Y-75773423D01*
X122234923Y-75776052D01*
X122241976Y-75779387D01*
X122248668Y-75783398D01*
X122254934Y-75788046D01*
X122260715Y-75793285D01*
X122265954Y-75799066D01*
X122270602Y-75805332D01*
X122274613Y-75812024D01*
X122277948Y-75819077D01*
X122280577Y-75826422D01*
X122282472Y-75833990D01*
X122283617Y-75841708D01*
X122284000Y-75849500D01*
X122284000Y-76050500D01*
X122283617Y-76058292D01*
X122282472Y-76066010D01*
X122280577Y-76073578D01*
X122277948Y-76080923D01*
X122274613Y-76087976D01*
X122270602Y-76094668D01*
X122265954Y-76100934D01*
X122260715Y-76106715D01*
X122254934Y-76111954D01*
X122248668Y-76116602D01*
X122241976Y-76120613D01*
X122234923Y-76123948D01*
X122227578Y-76126577D01*
X122220010Y-76128472D01*
X122212292Y-76129617D01*
X122204500Y-76130000D01*
X122045500Y-76130000D01*
X122037708Y-76129617D01*
X122029990Y-76128472D01*
X122022422Y-76126577D01*
X122015077Y-76123948D01*
X122008024Y-76120613D01*
X122001332Y-76116602D01*
X121995066Y-76111954D01*
X121989285Y-76106715D01*
X121984046Y-76100934D01*
X121979398Y-76094668D01*
X121975387Y-76087976D01*
X121972052Y-76080923D01*
X121969423Y-76073578D01*
X121967528Y-76066010D01*
X121966383Y-76058292D01*
X121966000Y-76050500D01*
X121966000Y-75849500D01*
X121966383Y-75841708D01*
X121967528Y-75833990D01*
X121969423Y-75826422D01*
X121972052Y-75819077D01*
X121975387Y-75812024D01*
X121979398Y-75805332D01*
X121984046Y-75799066D01*
X121989285Y-75793285D01*
X121995066Y-75788046D01*
X122001332Y-75783398D01*
X122008024Y-75779387D01*
X122015077Y-75776052D01*
X122022422Y-75773423D01*
X122029990Y-75771528D01*
X122037708Y-75770383D01*
X122045500Y-75770000D01*
X122204500Y-75770000D01*
X122212292Y-75770383D01*
G37*
G36*
X104342292Y-73720383D02*
G01*
X104350010Y-73721528D01*
X104357578Y-73723423D01*
X104364923Y-73726052D01*
X104371976Y-73729387D01*
X104378668Y-73733398D01*
X104384934Y-73738046D01*
X104390715Y-73743285D01*
X104395954Y-73749066D01*
X104400602Y-73755332D01*
X104404613Y-73762024D01*
X104407948Y-73769077D01*
X104410577Y-73776422D01*
X104412472Y-73783990D01*
X104413617Y-73791708D01*
X104414000Y-73799500D01*
X104414000Y-74000500D01*
X104413617Y-74008292D01*
X104412472Y-74016010D01*
X104410577Y-74023578D01*
X104407948Y-74030923D01*
X104404613Y-74037976D01*
X104400602Y-74044668D01*
X104395954Y-74050934D01*
X104390715Y-74056715D01*
X104384934Y-74061954D01*
X104378668Y-74066602D01*
X104371976Y-74070613D01*
X104364923Y-74073948D01*
X104357578Y-74076577D01*
X104350010Y-74078472D01*
X104342292Y-74079617D01*
X104334500Y-74080000D01*
X104175500Y-74080000D01*
X104167708Y-74079617D01*
X104159990Y-74078472D01*
X104152422Y-74076577D01*
X104145077Y-74073948D01*
X104138024Y-74070613D01*
X104131332Y-74066602D01*
X104125066Y-74061954D01*
X104119285Y-74056715D01*
X104114046Y-74050934D01*
X104109398Y-74044668D01*
X104105387Y-74037976D01*
X104102052Y-74030923D01*
X104099423Y-74023578D01*
X104097528Y-74016010D01*
X104096383Y-74008292D01*
X104096000Y-74000500D01*
X104096000Y-73799500D01*
X104096383Y-73791708D01*
X104097528Y-73783990D01*
X104099423Y-73776422D01*
X104102052Y-73769077D01*
X104105387Y-73762024D01*
X104109398Y-73755332D01*
X104114046Y-73749066D01*
X104119285Y-73743285D01*
X104125066Y-73738046D01*
X104131332Y-73733398D01*
X104138024Y-73729387D01*
X104145077Y-73726052D01*
X104152422Y-73723423D01*
X104159990Y-73721528D01*
X104167708Y-73720383D01*
X104175500Y-73720000D01*
X104334500Y-73720000D01*
X104342292Y-73720383D01*
G37*
G36*
X105032292Y-73720383D02*
G01*
X105040010Y-73721528D01*
X105047578Y-73723423D01*
X105054923Y-73726052D01*
X105061976Y-73729387D01*
X105068668Y-73733398D01*
X105074934Y-73738046D01*
X105080715Y-73743285D01*
X105085954Y-73749066D01*
X105090602Y-73755332D01*
X105094613Y-73762024D01*
X105097948Y-73769077D01*
X105100577Y-73776422D01*
X105102472Y-73783990D01*
X105103617Y-73791708D01*
X105104000Y-73799500D01*
X105104000Y-74000500D01*
X105103617Y-74008292D01*
X105102472Y-74016010D01*
X105100577Y-74023578D01*
X105097948Y-74030923D01*
X105094613Y-74037976D01*
X105090602Y-74044668D01*
X105085954Y-74050934D01*
X105080715Y-74056715D01*
X105074934Y-74061954D01*
X105068668Y-74066602D01*
X105061976Y-74070613D01*
X105054923Y-74073948D01*
X105047578Y-74076577D01*
X105040010Y-74078472D01*
X105032292Y-74079617D01*
X105024500Y-74080000D01*
X104865500Y-74080000D01*
X104857708Y-74079617D01*
X104849990Y-74078472D01*
X104842422Y-74076577D01*
X104835077Y-74073948D01*
X104828024Y-74070613D01*
X104821332Y-74066602D01*
X104815066Y-74061954D01*
X104809285Y-74056715D01*
X104804046Y-74050934D01*
X104799398Y-74044668D01*
X104795387Y-74037976D01*
X104792052Y-74030923D01*
X104789423Y-74023578D01*
X104787528Y-74016010D01*
X104786383Y-74008292D01*
X104786000Y-74000500D01*
X104786000Y-73799500D01*
X104786383Y-73791708D01*
X104787528Y-73783990D01*
X104789423Y-73776422D01*
X104792052Y-73769077D01*
X104795387Y-73762024D01*
X104799398Y-73755332D01*
X104804046Y-73749066D01*
X104809285Y-73743285D01*
X104815066Y-73738046D01*
X104821332Y-73733398D01*
X104828024Y-73729387D01*
X104835077Y-73726052D01*
X104842422Y-73723423D01*
X104849990Y-73721528D01*
X104857708Y-73720383D01*
X104865500Y-73720000D01*
X105024500Y-73720000D01*
X105032292Y-73720383D01*
G37*
G36*
X122532292Y-86320383D02*
G01*
X122540010Y-86321528D01*
X122547578Y-86323423D01*
X122554923Y-86326052D01*
X122561976Y-86329387D01*
X122568668Y-86333398D01*
X122574934Y-86338046D01*
X122580715Y-86343285D01*
X122585954Y-86349066D01*
X122590602Y-86355332D01*
X122594613Y-86362024D01*
X122597948Y-86369077D01*
X122600577Y-86376422D01*
X122602472Y-86383990D01*
X122603617Y-86391708D01*
X122604000Y-86399500D01*
X122604000Y-86600500D01*
X122603617Y-86608292D01*
X122602472Y-86616010D01*
X122600577Y-86623578D01*
X122597948Y-86630923D01*
X122594613Y-86637976D01*
X122590602Y-86644668D01*
X122585954Y-86650934D01*
X122580715Y-86656715D01*
X122574934Y-86661954D01*
X122568668Y-86666602D01*
X122561976Y-86670613D01*
X122554923Y-86673948D01*
X122547578Y-86676577D01*
X122540010Y-86678472D01*
X122532292Y-86679617D01*
X122524500Y-86680000D01*
X122365500Y-86680000D01*
X122357708Y-86679617D01*
X122349990Y-86678472D01*
X122342422Y-86676577D01*
X122335077Y-86673948D01*
X122328024Y-86670613D01*
X122321332Y-86666602D01*
X122315066Y-86661954D01*
X122309285Y-86656715D01*
X122304046Y-86650934D01*
X122299398Y-86644668D01*
X122295387Y-86637976D01*
X122292052Y-86630923D01*
X122289423Y-86623578D01*
X122287528Y-86616010D01*
X122286383Y-86608292D01*
X122286000Y-86600500D01*
X122286000Y-86399500D01*
X122286383Y-86391708D01*
X122287528Y-86383990D01*
X122289423Y-86376422D01*
X122292052Y-86369077D01*
X122295387Y-86362024D01*
X122299398Y-86355332D01*
X122304046Y-86349066D01*
X122309285Y-86343285D01*
X122315066Y-86338046D01*
X122321332Y-86333398D01*
X122328024Y-86329387D01*
X122335077Y-86326052D01*
X122342422Y-86323423D01*
X122349990Y-86321528D01*
X122357708Y-86320383D01*
X122365500Y-86320000D01*
X122524500Y-86320000D01*
X122532292Y-86320383D01*
G37*
G36*
X121842292Y-86320383D02*
G01*
X121850010Y-86321528D01*
X121857578Y-86323423D01*
X121864923Y-86326052D01*
X121871976Y-86329387D01*
X121878668Y-86333398D01*
X121884934Y-86338046D01*
X121890715Y-86343285D01*
X121895954Y-86349066D01*
X121900602Y-86355332D01*
X121904613Y-86362024D01*
X121907948Y-86369077D01*
X121910577Y-86376422D01*
X121912472Y-86383990D01*
X121913617Y-86391708D01*
X121914000Y-86399500D01*
X121914000Y-86600500D01*
X121913617Y-86608292D01*
X121912472Y-86616010D01*
X121910577Y-86623578D01*
X121907948Y-86630923D01*
X121904613Y-86637976D01*
X121900602Y-86644668D01*
X121895954Y-86650934D01*
X121890715Y-86656715D01*
X121884934Y-86661954D01*
X121878668Y-86666602D01*
X121871976Y-86670613D01*
X121864923Y-86673948D01*
X121857578Y-86676577D01*
X121850010Y-86678472D01*
X121842292Y-86679617D01*
X121834500Y-86680000D01*
X121675500Y-86680000D01*
X121667708Y-86679617D01*
X121659990Y-86678472D01*
X121652422Y-86676577D01*
X121645077Y-86673948D01*
X121638024Y-86670613D01*
X121631332Y-86666602D01*
X121625066Y-86661954D01*
X121619285Y-86656715D01*
X121614046Y-86650934D01*
X121609398Y-86644668D01*
X121605387Y-86637976D01*
X121602052Y-86630923D01*
X121599423Y-86623578D01*
X121597528Y-86616010D01*
X121596383Y-86608292D01*
X121596000Y-86600500D01*
X121596000Y-86399500D01*
X121596383Y-86391708D01*
X121597528Y-86383990D01*
X121599423Y-86376422D01*
X121602052Y-86369077D01*
X121605387Y-86362024D01*
X121609398Y-86355332D01*
X121614046Y-86349066D01*
X121619285Y-86343285D01*
X121625066Y-86338046D01*
X121631332Y-86333398D01*
X121638024Y-86329387D01*
X121645077Y-86326052D01*
X121652422Y-86323423D01*
X121659990Y-86321528D01*
X121667708Y-86320383D01*
X121675500Y-86320000D01*
X121834500Y-86320000D01*
X121842292Y-86320383D01*
G37*
G36*
X122174504Y-73613704D02*
G01*
X122198773Y-73617304D01*
X122222571Y-73623265D01*
X122245671Y-73631530D01*
X122267849Y-73642020D01*
X122288893Y-73654633D01*
X122308598Y-73669247D01*
X122326777Y-73685723D01*
X122343253Y-73703902D01*
X122357867Y-73723607D01*
X122370480Y-73744651D01*
X122380970Y-73766829D01*
X122389235Y-73789929D01*
X122395196Y-73813727D01*
X122398796Y-73837996D01*
X122400000Y-73862500D01*
X122400000Y-74687500D01*
X122398796Y-74712004D01*
X122395196Y-74736273D01*
X122389235Y-74760071D01*
X122380970Y-74783171D01*
X122370480Y-74805349D01*
X122357867Y-74826393D01*
X122343253Y-74846098D01*
X122326777Y-74864277D01*
X122308598Y-74880753D01*
X122288893Y-74895367D01*
X122267849Y-74907980D01*
X122245671Y-74918470D01*
X122222571Y-74926735D01*
X122198773Y-74932696D01*
X122174504Y-74936296D01*
X122150000Y-74937500D01*
X121350000Y-74937500D01*
X121325496Y-74936296D01*
X121301227Y-74932696D01*
X121277429Y-74926735D01*
X121254329Y-74918470D01*
X121232151Y-74907980D01*
X121211107Y-74895367D01*
X121191402Y-74880753D01*
X121173223Y-74864277D01*
X121156747Y-74846098D01*
X121142133Y-74826393D01*
X121129520Y-74805349D01*
X121119030Y-74783171D01*
X121110765Y-74760071D01*
X121104804Y-74736273D01*
X121101204Y-74712004D01*
X121100000Y-74687500D01*
X121100000Y-73862500D01*
X121101204Y-73837996D01*
X121104804Y-73813727D01*
X121110765Y-73789929D01*
X121119030Y-73766829D01*
X121129520Y-73744651D01*
X121142133Y-73723607D01*
X121156747Y-73703902D01*
X121173223Y-73685723D01*
X121191402Y-73669247D01*
X121211107Y-73654633D01*
X121232151Y-73642020D01*
X121254329Y-73631530D01*
X121277429Y-73623265D01*
X121301227Y-73617304D01*
X121325496Y-73613704D01*
X121350000Y-73612500D01*
X122150000Y-73612500D01*
X122174504Y-73613704D01*
G37*
G36*
X122174504Y-71688704D02*
G01*
X122198773Y-71692304D01*
X122222571Y-71698265D01*
X122245671Y-71706530D01*
X122267849Y-71717020D01*
X122288893Y-71729633D01*
X122308598Y-71744247D01*
X122326777Y-71760723D01*
X122343253Y-71778902D01*
X122357867Y-71798607D01*
X122370480Y-71819651D01*
X122380970Y-71841829D01*
X122389235Y-71864929D01*
X122395196Y-71888727D01*
X122398796Y-71912996D01*
X122400000Y-71937500D01*
X122400000Y-72762500D01*
X122398796Y-72787004D01*
X122395196Y-72811273D01*
X122389235Y-72835071D01*
X122380970Y-72858171D01*
X122370480Y-72880349D01*
X122357867Y-72901393D01*
X122343253Y-72921098D01*
X122326777Y-72939277D01*
X122308598Y-72955753D01*
X122288893Y-72970367D01*
X122267849Y-72982980D01*
X122245671Y-72993470D01*
X122222571Y-73001735D01*
X122198773Y-73007696D01*
X122174504Y-73011296D01*
X122150000Y-73012500D01*
X121350000Y-73012500D01*
X121325496Y-73011296D01*
X121301227Y-73007696D01*
X121277429Y-73001735D01*
X121254329Y-72993470D01*
X121232151Y-72982980D01*
X121211107Y-72970367D01*
X121191402Y-72955753D01*
X121173223Y-72939277D01*
X121156747Y-72921098D01*
X121142133Y-72901393D01*
X121129520Y-72880349D01*
X121119030Y-72858171D01*
X121110765Y-72835071D01*
X121104804Y-72811273D01*
X121101204Y-72787004D01*
X121100000Y-72762500D01*
X121100000Y-71937500D01*
X121101204Y-71912996D01*
X121104804Y-71888727D01*
X121110765Y-71864929D01*
X121119030Y-71841829D01*
X121129520Y-71819651D01*
X121142133Y-71798607D01*
X121156747Y-71778902D01*
X121173223Y-71760723D01*
X121191402Y-71744247D01*
X121211107Y-71729633D01*
X121232151Y-71717020D01*
X121254329Y-71706530D01*
X121277429Y-71698265D01*
X121301227Y-71692304D01*
X121325496Y-71688704D01*
X121350000Y-71687500D01*
X122150000Y-71687500D01*
X122174504Y-71688704D01*
G37*
G36*
X104787004Y-71451204D02*
G01*
X104811273Y-71454804D01*
X104835071Y-71460765D01*
X104858171Y-71469030D01*
X104880349Y-71479520D01*
X104901393Y-71492133D01*
X104921098Y-71506747D01*
X104939277Y-71523223D01*
X104955753Y-71541402D01*
X104970367Y-71561107D01*
X104982980Y-71582151D01*
X104993470Y-71604329D01*
X105001735Y-71627429D01*
X105007696Y-71651227D01*
X105011296Y-71675496D01*
X105012500Y-71700000D01*
X105012500Y-72500000D01*
X105011296Y-72524504D01*
X105007696Y-72548773D01*
X105001735Y-72572571D01*
X104993470Y-72595671D01*
X104982980Y-72617849D01*
X104970367Y-72638893D01*
X104955753Y-72658598D01*
X104939277Y-72676777D01*
X104921098Y-72693253D01*
X104901393Y-72707867D01*
X104880349Y-72720480D01*
X104858171Y-72730970D01*
X104835071Y-72739235D01*
X104811273Y-72745196D01*
X104787004Y-72748796D01*
X104762500Y-72750000D01*
X103937500Y-72750000D01*
X103912996Y-72748796D01*
X103888727Y-72745196D01*
X103864929Y-72739235D01*
X103841829Y-72730970D01*
X103819651Y-72720480D01*
X103798607Y-72707867D01*
X103778902Y-72693253D01*
X103760723Y-72676777D01*
X103744247Y-72658598D01*
X103729633Y-72638893D01*
X103717020Y-72617849D01*
X103706530Y-72595671D01*
X103698265Y-72572571D01*
X103692304Y-72548773D01*
X103688704Y-72524504D01*
X103687500Y-72500000D01*
X103687500Y-71700000D01*
X103688704Y-71675496D01*
X103692304Y-71651227D01*
X103698265Y-71627429D01*
X103706530Y-71604329D01*
X103717020Y-71582151D01*
X103729633Y-71561107D01*
X103744247Y-71541402D01*
X103760723Y-71523223D01*
X103778902Y-71506747D01*
X103798607Y-71492133D01*
X103819651Y-71479520D01*
X103841829Y-71469030D01*
X103864929Y-71460765D01*
X103888727Y-71454804D01*
X103912996Y-71451204D01*
X103937500Y-71450000D01*
X104762500Y-71450000D01*
X104787004Y-71451204D01*
G37*
G36*
X102862004Y-71451204D02*
G01*
X102886273Y-71454804D01*
X102910071Y-71460765D01*
X102933171Y-71469030D01*
X102955349Y-71479520D01*
X102976393Y-71492133D01*
X102996098Y-71506747D01*
X103014277Y-71523223D01*
X103030753Y-71541402D01*
X103045367Y-71561107D01*
X103057980Y-71582151D01*
X103068470Y-71604329D01*
X103076735Y-71627429D01*
X103082696Y-71651227D01*
X103086296Y-71675496D01*
X103087500Y-71700000D01*
X103087500Y-72500000D01*
X103086296Y-72524504D01*
X103082696Y-72548773D01*
X103076735Y-72572571D01*
X103068470Y-72595671D01*
X103057980Y-72617849D01*
X103045367Y-72638893D01*
X103030753Y-72658598D01*
X103014277Y-72676777D01*
X102996098Y-72693253D01*
X102976393Y-72707867D01*
X102955349Y-72720480D01*
X102933171Y-72730970D01*
X102910071Y-72739235D01*
X102886273Y-72745196D01*
X102862004Y-72748796D01*
X102837500Y-72750000D01*
X102012500Y-72750000D01*
X101987996Y-72748796D01*
X101963727Y-72745196D01*
X101939929Y-72739235D01*
X101916829Y-72730970D01*
X101894651Y-72720480D01*
X101873607Y-72707867D01*
X101853902Y-72693253D01*
X101835723Y-72676777D01*
X101819247Y-72658598D01*
X101804633Y-72638893D01*
X101792020Y-72617849D01*
X101781530Y-72595671D01*
X101773265Y-72572571D01*
X101767304Y-72548773D01*
X101763704Y-72524504D01*
X101762500Y-72500000D01*
X101762500Y-71700000D01*
X101763704Y-71675496D01*
X101767304Y-71651227D01*
X101773265Y-71627429D01*
X101781530Y-71604329D01*
X101792020Y-71582151D01*
X101804633Y-71561107D01*
X101819247Y-71541402D01*
X101835723Y-71523223D01*
X101853902Y-71506747D01*
X101873607Y-71492133D01*
X101894651Y-71479520D01*
X101916829Y-71469030D01*
X101939929Y-71460765D01*
X101963727Y-71454804D01*
X101987996Y-71451204D01*
X102012500Y-71450000D01*
X102837500Y-71450000D01*
X102862004Y-71451204D01*
G37*
G36*
X125747292Y-91395383D02*
G01*
X125755010Y-91396528D01*
X125762578Y-91398423D01*
X125769923Y-91401052D01*
X125776976Y-91404387D01*
X125783668Y-91408398D01*
X125789934Y-91413046D01*
X125795715Y-91418285D01*
X125800954Y-91424066D01*
X125805602Y-91430332D01*
X125809613Y-91437024D01*
X125812948Y-91444077D01*
X125815577Y-91451422D01*
X125817472Y-91458990D01*
X125818617Y-91466708D01*
X125819000Y-91474500D01*
X125819000Y-91675500D01*
X125818617Y-91683292D01*
X125817472Y-91691010D01*
X125815577Y-91698578D01*
X125812948Y-91705923D01*
X125809613Y-91712976D01*
X125805602Y-91719668D01*
X125800954Y-91725934D01*
X125795715Y-91731715D01*
X125789934Y-91736954D01*
X125783668Y-91741602D01*
X125776976Y-91745613D01*
X125769923Y-91748948D01*
X125762578Y-91751577D01*
X125755010Y-91753472D01*
X125747292Y-91754617D01*
X125739500Y-91755000D01*
X125580500Y-91755000D01*
X125572708Y-91754617D01*
X125564990Y-91753472D01*
X125557422Y-91751577D01*
X125550077Y-91748948D01*
X125543024Y-91745613D01*
X125536332Y-91741602D01*
X125530066Y-91736954D01*
X125524285Y-91731715D01*
X125519046Y-91725934D01*
X125514398Y-91719668D01*
X125510387Y-91712976D01*
X125507052Y-91705923D01*
X125504423Y-91698578D01*
X125502528Y-91691010D01*
X125501383Y-91683292D01*
X125501000Y-91675500D01*
X125501000Y-91474500D01*
X125501383Y-91466708D01*
X125502528Y-91458990D01*
X125504423Y-91451422D01*
X125507052Y-91444077D01*
X125510387Y-91437024D01*
X125514398Y-91430332D01*
X125519046Y-91424066D01*
X125524285Y-91418285D01*
X125530066Y-91413046D01*
X125536332Y-91408398D01*
X125543024Y-91404387D01*
X125550077Y-91401052D01*
X125557422Y-91398423D01*
X125564990Y-91396528D01*
X125572708Y-91395383D01*
X125580500Y-91395000D01*
X125739500Y-91395000D01*
X125747292Y-91395383D01*
G37*
G36*
X126437292Y-91395383D02*
G01*
X126445010Y-91396528D01*
X126452578Y-91398423D01*
X126459923Y-91401052D01*
X126466976Y-91404387D01*
X126473668Y-91408398D01*
X126479934Y-91413046D01*
X126485715Y-91418285D01*
X126490954Y-91424066D01*
X126495602Y-91430332D01*
X126499613Y-91437024D01*
X126502948Y-91444077D01*
X126505577Y-91451422D01*
X126507472Y-91458990D01*
X126508617Y-91466708D01*
X126509000Y-91474500D01*
X126509000Y-91675500D01*
X126508617Y-91683292D01*
X126507472Y-91691010D01*
X126505577Y-91698578D01*
X126502948Y-91705923D01*
X126499613Y-91712976D01*
X126495602Y-91719668D01*
X126490954Y-91725934D01*
X126485715Y-91731715D01*
X126479934Y-91736954D01*
X126473668Y-91741602D01*
X126466976Y-91745613D01*
X126459923Y-91748948D01*
X126452578Y-91751577D01*
X126445010Y-91753472D01*
X126437292Y-91754617D01*
X126429500Y-91755000D01*
X126270500Y-91755000D01*
X126262708Y-91754617D01*
X126254990Y-91753472D01*
X126247422Y-91751577D01*
X126240077Y-91748948D01*
X126233024Y-91745613D01*
X126226332Y-91741602D01*
X126220066Y-91736954D01*
X126214285Y-91731715D01*
X126209046Y-91725934D01*
X126204398Y-91719668D01*
X126200387Y-91712976D01*
X126197052Y-91705923D01*
X126194423Y-91698578D01*
X126192528Y-91691010D01*
X126191383Y-91683292D01*
X126191000Y-91675500D01*
X126191000Y-91474500D01*
X126191383Y-91466708D01*
X126192528Y-91458990D01*
X126194423Y-91451422D01*
X126197052Y-91444077D01*
X126200387Y-91437024D01*
X126204398Y-91430332D01*
X126209046Y-91424066D01*
X126214285Y-91418285D01*
X126220066Y-91413046D01*
X126226332Y-91408398D01*
X126233024Y-91404387D01*
X126240077Y-91401052D01*
X126247422Y-91398423D01*
X126254990Y-91396528D01*
X126262708Y-91395383D01*
X126270500Y-91395000D01*
X126429500Y-91395000D01*
X126437292Y-91395383D01*
G37*
G36*
X121862292Y-88070383D02*
G01*
X121870010Y-88071528D01*
X121877578Y-88073423D01*
X121884923Y-88076052D01*
X121891976Y-88079387D01*
X121898668Y-88083398D01*
X121904934Y-88088046D01*
X121910715Y-88093285D01*
X121915954Y-88099066D01*
X121920602Y-88105332D01*
X121924613Y-88112024D01*
X121927948Y-88119077D01*
X121930577Y-88126422D01*
X121932472Y-88133990D01*
X121933617Y-88141708D01*
X121934000Y-88149500D01*
X121934000Y-88350500D01*
X121933617Y-88358292D01*
X121932472Y-88366010D01*
X121930577Y-88373578D01*
X121927948Y-88380923D01*
X121924613Y-88387976D01*
X121920602Y-88394668D01*
X121915954Y-88400934D01*
X121910715Y-88406715D01*
X121904934Y-88411954D01*
X121898668Y-88416602D01*
X121891976Y-88420613D01*
X121884923Y-88423948D01*
X121877578Y-88426577D01*
X121870010Y-88428472D01*
X121862292Y-88429617D01*
X121854500Y-88430000D01*
X121695500Y-88430000D01*
X121687708Y-88429617D01*
X121679990Y-88428472D01*
X121672422Y-88426577D01*
X121665077Y-88423948D01*
X121658024Y-88420613D01*
X121651332Y-88416602D01*
X121645066Y-88411954D01*
X121639285Y-88406715D01*
X121634046Y-88400934D01*
X121629398Y-88394668D01*
X121625387Y-88387976D01*
X121622052Y-88380923D01*
X121619423Y-88373578D01*
X121617528Y-88366010D01*
X121616383Y-88358292D01*
X121616000Y-88350500D01*
X121616000Y-88149500D01*
X121616383Y-88141708D01*
X121617528Y-88133990D01*
X121619423Y-88126422D01*
X121622052Y-88119077D01*
X121625387Y-88112024D01*
X121629398Y-88105332D01*
X121634046Y-88099066D01*
X121639285Y-88093285D01*
X121645066Y-88088046D01*
X121651332Y-88083398D01*
X121658024Y-88079387D01*
X121665077Y-88076052D01*
X121672422Y-88073423D01*
X121679990Y-88071528D01*
X121687708Y-88070383D01*
X121695500Y-88070000D01*
X121854500Y-88070000D01*
X121862292Y-88070383D01*
G37*
G36*
X122552292Y-88070383D02*
G01*
X122560010Y-88071528D01*
X122567578Y-88073423D01*
X122574923Y-88076052D01*
X122581976Y-88079387D01*
X122588668Y-88083398D01*
X122594934Y-88088046D01*
X122600715Y-88093285D01*
X122605954Y-88099066D01*
X122610602Y-88105332D01*
X122614613Y-88112024D01*
X122617948Y-88119077D01*
X122620577Y-88126422D01*
X122622472Y-88133990D01*
X122623617Y-88141708D01*
X122624000Y-88149500D01*
X122624000Y-88350500D01*
X122623617Y-88358292D01*
X122622472Y-88366010D01*
X122620577Y-88373578D01*
X122617948Y-88380923D01*
X122614613Y-88387976D01*
X122610602Y-88394668D01*
X122605954Y-88400934D01*
X122600715Y-88406715D01*
X122594934Y-88411954D01*
X122588668Y-88416602D01*
X122581976Y-88420613D01*
X122574923Y-88423948D01*
X122567578Y-88426577D01*
X122560010Y-88428472D01*
X122552292Y-88429617D01*
X122544500Y-88430000D01*
X122385500Y-88430000D01*
X122377708Y-88429617D01*
X122369990Y-88428472D01*
X122362422Y-88426577D01*
X122355077Y-88423948D01*
X122348024Y-88420613D01*
X122341332Y-88416602D01*
X122335066Y-88411954D01*
X122329285Y-88406715D01*
X122324046Y-88400934D01*
X122319398Y-88394668D01*
X122315387Y-88387976D01*
X122312052Y-88380923D01*
X122309423Y-88373578D01*
X122307528Y-88366010D01*
X122306383Y-88358292D01*
X122306000Y-88350500D01*
X122306000Y-88149500D01*
X122306383Y-88141708D01*
X122307528Y-88133990D01*
X122309423Y-88126422D01*
X122312052Y-88119077D01*
X122315387Y-88112024D01*
X122319398Y-88105332D01*
X122324046Y-88099066D01*
X122329285Y-88093285D01*
X122335066Y-88088046D01*
X122341332Y-88083398D01*
X122348024Y-88079387D01*
X122355077Y-88076052D01*
X122362422Y-88073423D01*
X122369990Y-88071528D01*
X122377708Y-88070383D01*
X122385500Y-88070000D01*
X122544500Y-88070000D01*
X122552292Y-88070383D01*
G37*
G36*
X126432292Y-90520383D02*
G01*
X126440010Y-90521528D01*
X126447578Y-90523423D01*
X126454923Y-90526052D01*
X126461976Y-90529387D01*
X126468668Y-90533398D01*
X126474934Y-90538046D01*
X126480715Y-90543285D01*
X126485954Y-90549066D01*
X126490602Y-90555332D01*
X126494613Y-90562024D01*
X126497948Y-90569077D01*
X126500577Y-90576422D01*
X126502472Y-90583990D01*
X126503617Y-90591708D01*
X126504000Y-90599500D01*
X126504000Y-90800500D01*
X126503617Y-90808292D01*
X126502472Y-90816010D01*
X126500577Y-90823578D01*
X126497948Y-90830923D01*
X126494613Y-90837976D01*
X126490602Y-90844668D01*
X126485954Y-90850934D01*
X126480715Y-90856715D01*
X126474934Y-90861954D01*
X126468668Y-90866602D01*
X126461976Y-90870613D01*
X126454923Y-90873948D01*
X126447578Y-90876577D01*
X126440010Y-90878472D01*
X126432292Y-90879617D01*
X126424500Y-90880000D01*
X126265500Y-90880000D01*
X126257708Y-90879617D01*
X126249990Y-90878472D01*
X126242422Y-90876577D01*
X126235077Y-90873948D01*
X126228024Y-90870613D01*
X126221332Y-90866602D01*
X126215066Y-90861954D01*
X126209285Y-90856715D01*
X126204046Y-90850934D01*
X126199398Y-90844668D01*
X126195387Y-90837976D01*
X126192052Y-90830923D01*
X126189423Y-90823578D01*
X126187528Y-90816010D01*
X126186383Y-90808292D01*
X126186000Y-90800500D01*
X126186000Y-90599500D01*
X126186383Y-90591708D01*
X126187528Y-90583990D01*
X126189423Y-90576422D01*
X126192052Y-90569077D01*
X126195387Y-90562024D01*
X126199398Y-90555332D01*
X126204046Y-90549066D01*
X126209285Y-90543285D01*
X126215066Y-90538046D01*
X126221332Y-90533398D01*
X126228024Y-90529387D01*
X126235077Y-90526052D01*
X126242422Y-90523423D01*
X126249990Y-90521528D01*
X126257708Y-90520383D01*
X126265500Y-90520000D01*
X126424500Y-90520000D01*
X126432292Y-90520383D01*
G37*
G36*
X125742292Y-90520383D02*
G01*
X125750010Y-90521528D01*
X125757578Y-90523423D01*
X125764923Y-90526052D01*
X125771976Y-90529387D01*
X125778668Y-90533398D01*
X125784934Y-90538046D01*
X125790715Y-90543285D01*
X125795954Y-90549066D01*
X125800602Y-90555332D01*
X125804613Y-90562024D01*
X125807948Y-90569077D01*
X125810577Y-90576422D01*
X125812472Y-90583990D01*
X125813617Y-90591708D01*
X125814000Y-90599500D01*
X125814000Y-90800500D01*
X125813617Y-90808292D01*
X125812472Y-90816010D01*
X125810577Y-90823578D01*
X125807948Y-90830923D01*
X125804613Y-90837976D01*
X125800602Y-90844668D01*
X125795954Y-90850934D01*
X125790715Y-90856715D01*
X125784934Y-90861954D01*
X125778668Y-90866602D01*
X125771976Y-90870613D01*
X125764923Y-90873948D01*
X125757578Y-90876577D01*
X125750010Y-90878472D01*
X125742292Y-90879617D01*
X125734500Y-90880000D01*
X125575500Y-90880000D01*
X125567708Y-90879617D01*
X125559990Y-90878472D01*
X125552422Y-90876577D01*
X125545077Y-90873948D01*
X125538024Y-90870613D01*
X125531332Y-90866602D01*
X125525066Y-90861954D01*
X125519285Y-90856715D01*
X125514046Y-90850934D01*
X125509398Y-90844668D01*
X125505387Y-90837976D01*
X125502052Y-90830923D01*
X125499423Y-90823578D01*
X125497528Y-90816010D01*
X125496383Y-90808292D01*
X125496000Y-90800500D01*
X125496000Y-90599500D01*
X125496383Y-90591708D01*
X125497528Y-90583990D01*
X125499423Y-90576422D01*
X125502052Y-90569077D01*
X125505387Y-90562024D01*
X125509398Y-90555332D01*
X125514046Y-90549066D01*
X125519285Y-90543285D01*
X125525066Y-90538046D01*
X125531332Y-90533398D01*
X125538024Y-90529387D01*
X125545077Y-90526052D01*
X125552422Y-90523423D01*
X125559990Y-90521528D01*
X125567708Y-90520383D01*
X125575500Y-90520000D01*
X125734500Y-90520000D01*
X125742292Y-90520383D01*
G37*
G36*
X122552292Y-87170383D02*
G01*
X122560010Y-87171528D01*
X122567578Y-87173423D01*
X122574923Y-87176052D01*
X122581976Y-87179387D01*
X122588668Y-87183398D01*
X122594934Y-87188046D01*
X122600715Y-87193285D01*
X122605954Y-87199066D01*
X122610602Y-87205332D01*
X122614613Y-87212024D01*
X122617948Y-87219077D01*
X122620577Y-87226422D01*
X122622472Y-87233990D01*
X122623617Y-87241708D01*
X122624000Y-87249500D01*
X122624000Y-87450500D01*
X122623617Y-87458292D01*
X122622472Y-87466010D01*
X122620577Y-87473578D01*
X122617948Y-87480923D01*
X122614613Y-87487976D01*
X122610602Y-87494668D01*
X122605954Y-87500934D01*
X122600715Y-87506715D01*
X122594934Y-87511954D01*
X122588668Y-87516602D01*
X122581976Y-87520613D01*
X122574923Y-87523948D01*
X122567578Y-87526577D01*
X122560010Y-87528472D01*
X122552292Y-87529617D01*
X122544500Y-87530000D01*
X122385500Y-87530000D01*
X122377708Y-87529617D01*
X122369990Y-87528472D01*
X122362422Y-87526577D01*
X122355077Y-87523948D01*
X122348024Y-87520613D01*
X122341332Y-87516602D01*
X122335066Y-87511954D01*
X122329285Y-87506715D01*
X122324046Y-87500934D01*
X122319398Y-87494668D01*
X122315387Y-87487976D01*
X122312052Y-87480923D01*
X122309423Y-87473578D01*
X122307528Y-87466010D01*
X122306383Y-87458292D01*
X122306000Y-87450500D01*
X122306000Y-87249500D01*
X122306383Y-87241708D01*
X122307528Y-87233990D01*
X122309423Y-87226422D01*
X122312052Y-87219077D01*
X122315387Y-87212024D01*
X122319398Y-87205332D01*
X122324046Y-87199066D01*
X122329285Y-87193285D01*
X122335066Y-87188046D01*
X122341332Y-87183398D01*
X122348024Y-87179387D01*
X122355077Y-87176052D01*
X122362422Y-87173423D01*
X122369990Y-87171528D01*
X122377708Y-87170383D01*
X122385500Y-87170000D01*
X122544500Y-87170000D01*
X122552292Y-87170383D01*
G37*
G36*
X121862292Y-87170383D02*
G01*
X121870010Y-87171528D01*
X121877578Y-87173423D01*
X121884923Y-87176052D01*
X121891976Y-87179387D01*
X121898668Y-87183398D01*
X121904934Y-87188046D01*
X121910715Y-87193285D01*
X121915954Y-87199066D01*
X121920602Y-87205332D01*
X121924613Y-87212024D01*
X121927948Y-87219077D01*
X121930577Y-87226422D01*
X121932472Y-87233990D01*
X121933617Y-87241708D01*
X121934000Y-87249500D01*
X121934000Y-87450500D01*
X121933617Y-87458292D01*
X121932472Y-87466010D01*
X121930577Y-87473578D01*
X121927948Y-87480923D01*
X121924613Y-87487976D01*
X121920602Y-87494668D01*
X121915954Y-87500934D01*
X121910715Y-87506715D01*
X121904934Y-87511954D01*
X121898668Y-87516602D01*
X121891976Y-87520613D01*
X121884923Y-87523948D01*
X121877578Y-87526577D01*
X121870010Y-87528472D01*
X121862292Y-87529617D01*
X121854500Y-87530000D01*
X121695500Y-87530000D01*
X121687708Y-87529617D01*
X121679990Y-87528472D01*
X121672422Y-87526577D01*
X121665077Y-87523948D01*
X121658024Y-87520613D01*
X121651332Y-87516602D01*
X121645066Y-87511954D01*
X121639285Y-87506715D01*
X121634046Y-87500934D01*
X121629398Y-87494668D01*
X121625387Y-87487976D01*
X121622052Y-87480923D01*
X121619423Y-87473578D01*
X121617528Y-87466010D01*
X121616383Y-87458292D01*
X121616000Y-87450500D01*
X121616000Y-87249500D01*
X121616383Y-87241708D01*
X121617528Y-87233990D01*
X121619423Y-87226422D01*
X121622052Y-87219077D01*
X121625387Y-87212024D01*
X121629398Y-87205332D01*
X121634046Y-87199066D01*
X121639285Y-87193285D01*
X121645066Y-87188046D01*
X121651332Y-87183398D01*
X121658024Y-87179387D01*
X121665077Y-87176052D01*
X121672422Y-87173423D01*
X121679990Y-87171528D01*
X121687708Y-87170383D01*
X121695500Y-87170000D01*
X121854500Y-87170000D01*
X121862292Y-87170383D01*
G37*
D19*
X131966000Y-88754000D03*
X131166000Y-88754000D03*
X130366000Y-88754000D03*
X129566000Y-88754000D03*
X128766000Y-88754000D03*
X127966000Y-88754000D03*
X127166000Y-88754000D03*
X126366000Y-88754000D03*
D20*
X124916000Y-87304000D03*
X124916000Y-86504000D03*
X124916000Y-85704000D03*
X124916000Y-84904000D03*
X124916000Y-84104000D03*
X124916000Y-83304000D03*
X124916000Y-82504000D03*
X124916000Y-81704000D03*
D19*
X126366000Y-80254000D03*
X127166000Y-80254000D03*
X127966000Y-80254000D03*
X128766000Y-80254000D03*
X129566000Y-80254000D03*
X130366000Y-80254000D03*
X131166000Y-80254000D03*
X131966000Y-80254000D03*
D20*
X133416000Y-81704000D03*
X133416000Y-82504000D03*
X133416000Y-83304000D03*
X133416000Y-84104000D03*
X133416000Y-84904000D03*
X133416000Y-85704000D03*
X133416000Y-86504000D03*
X133416000Y-87304000D03*
D10*
G36*
X121842292Y-82320383D02*
G01*
X121850010Y-82321528D01*
X121857578Y-82323423D01*
X121864923Y-82326052D01*
X121871976Y-82329387D01*
X121878668Y-82333398D01*
X121884934Y-82338046D01*
X121890715Y-82343285D01*
X121895954Y-82349066D01*
X121900602Y-82355332D01*
X121904613Y-82362024D01*
X121907948Y-82369077D01*
X121910577Y-82376422D01*
X121912472Y-82383990D01*
X121913617Y-82391708D01*
X121914000Y-82399500D01*
X121914000Y-82600500D01*
X121913617Y-82608292D01*
X121912472Y-82616010D01*
X121910577Y-82623578D01*
X121907948Y-82630923D01*
X121904613Y-82637976D01*
X121900602Y-82644668D01*
X121895954Y-82650934D01*
X121890715Y-82656715D01*
X121884934Y-82661954D01*
X121878668Y-82666602D01*
X121871976Y-82670613D01*
X121864923Y-82673948D01*
X121857578Y-82676577D01*
X121850010Y-82678472D01*
X121842292Y-82679617D01*
X121834500Y-82680000D01*
X121675500Y-82680000D01*
X121667708Y-82679617D01*
X121659990Y-82678472D01*
X121652422Y-82676577D01*
X121645077Y-82673948D01*
X121638024Y-82670613D01*
X121631332Y-82666602D01*
X121625066Y-82661954D01*
X121619285Y-82656715D01*
X121614046Y-82650934D01*
X121609398Y-82644668D01*
X121605387Y-82637976D01*
X121602052Y-82630923D01*
X121599423Y-82623578D01*
X121597528Y-82616010D01*
X121596383Y-82608292D01*
X121596000Y-82600500D01*
X121596000Y-82399500D01*
X121596383Y-82391708D01*
X121597528Y-82383990D01*
X121599423Y-82376422D01*
X121602052Y-82369077D01*
X121605387Y-82362024D01*
X121609398Y-82355332D01*
X121614046Y-82349066D01*
X121619285Y-82343285D01*
X121625066Y-82338046D01*
X121631332Y-82333398D01*
X121638024Y-82329387D01*
X121645077Y-82326052D01*
X121652422Y-82323423D01*
X121659990Y-82321528D01*
X121667708Y-82320383D01*
X121675500Y-82320000D01*
X121834500Y-82320000D01*
X121842292Y-82320383D01*
G37*
G36*
X122532292Y-82320383D02*
G01*
X122540010Y-82321528D01*
X122547578Y-82323423D01*
X122554923Y-82326052D01*
X122561976Y-82329387D01*
X122568668Y-82333398D01*
X122574934Y-82338046D01*
X122580715Y-82343285D01*
X122585954Y-82349066D01*
X122590602Y-82355332D01*
X122594613Y-82362024D01*
X122597948Y-82369077D01*
X122600577Y-82376422D01*
X122602472Y-82383990D01*
X122603617Y-82391708D01*
X122604000Y-82399500D01*
X122604000Y-82600500D01*
X122603617Y-82608292D01*
X122602472Y-82616010D01*
X122600577Y-82623578D01*
X122597948Y-82630923D01*
X122594613Y-82637976D01*
X122590602Y-82644668D01*
X122585954Y-82650934D01*
X122580715Y-82656715D01*
X122574934Y-82661954D01*
X122568668Y-82666602D01*
X122561976Y-82670613D01*
X122554923Y-82673948D01*
X122547578Y-82676577D01*
X122540010Y-82678472D01*
X122532292Y-82679617D01*
X122524500Y-82680000D01*
X122365500Y-82680000D01*
X122357708Y-82679617D01*
X122349990Y-82678472D01*
X122342422Y-82676577D01*
X122335077Y-82673948D01*
X122328024Y-82670613D01*
X122321332Y-82666602D01*
X122315066Y-82661954D01*
X122309285Y-82656715D01*
X122304046Y-82650934D01*
X122299398Y-82644668D01*
X122295387Y-82637976D01*
X122292052Y-82630923D01*
X122289423Y-82623578D01*
X122287528Y-82616010D01*
X122286383Y-82608292D01*
X122286000Y-82600500D01*
X122286000Y-82399500D01*
X122286383Y-82391708D01*
X122287528Y-82383990D01*
X122289423Y-82376422D01*
X122292052Y-82369077D01*
X122295387Y-82362024D01*
X122299398Y-82355332D01*
X122304046Y-82349066D01*
X122309285Y-82343285D01*
X122315066Y-82338046D01*
X122321332Y-82333398D01*
X122328024Y-82329387D01*
X122335077Y-82326052D01*
X122342422Y-82323423D01*
X122349990Y-82321528D01*
X122357708Y-82320383D01*
X122365500Y-82320000D01*
X122524500Y-82320000D01*
X122532292Y-82320383D01*
G37*
G36*
X135608292Y-83766383D02*
G01*
X135616010Y-83767528D01*
X135623578Y-83769423D01*
X135630923Y-83772052D01*
X135637976Y-83775387D01*
X135644668Y-83779398D01*
X135650934Y-83784046D01*
X135656715Y-83789285D01*
X135661954Y-83795066D01*
X135666602Y-83801332D01*
X135670613Y-83808024D01*
X135673948Y-83815077D01*
X135676577Y-83822422D01*
X135678472Y-83829990D01*
X135679617Y-83837708D01*
X135680000Y-83845500D01*
X135680000Y-84004500D01*
X135679617Y-84012292D01*
X135678472Y-84020010D01*
X135676577Y-84027578D01*
X135673948Y-84034923D01*
X135670613Y-84041976D01*
X135666602Y-84048668D01*
X135661954Y-84054934D01*
X135656715Y-84060715D01*
X135650934Y-84065954D01*
X135644668Y-84070602D01*
X135637976Y-84074613D01*
X135630923Y-84077948D01*
X135623578Y-84080577D01*
X135616010Y-84082472D01*
X135608292Y-84083617D01*
X135600500Y-84084000D01*
X135399500Y-84084000D01*
X135391708Y-84083617D01*
X135383990Y-84082472D01*
X135376422Y-84080577D01*
X135369077Y-84077948D01*
X135362024Y-84074613D01*
X135355332Y-84070602D01*
X135349066Y-84065954D01*
X135343285Y-84060715D01*
X135338046Y-84054934D01*
X135333398Y-84048668D01*
X135329387Y-84041976D01*
X135326052Y-84034923D01*
X135323423Y-84027578D01*
X135321528Y-84020010D01*
X135320383Y-84012292D01*
X135320000Y-84004500D01*
X135320000Y-83845500D01*
X135320383Y-83837708D01*
X135321528Y-83829990D01*
X135323423Y-83822422D01*
X135326052Y-83815077D01*
X135329387Y-83808024D01*
X135333398Y-83801332D01*
X135338046Y-83795066D01*
X135343285Y-83789285D01*
X135349066Y-83784046D01*
X135355332Y-83779398D01*
X135362024Y-83775387D01*
X135369077Y-83772052D01*
X135376422Y-83769423D01*
X135383990Y-83767528D01*
X135391708Y-83766383D01*
X135399500Y-83766000D01*
X135600500Y-83766000D01*
X135608292Y-83766383D01*
G37*
G36*
X135608292Y-83076383D02*
G01*
X135616010Y-83077528D01*
X135623578Y-83079423D01*
X135630923Y-83082052D01*
X135637976Y-83085387D01*
X135644668Y-83089398D01*
X135650934Y-83094046D01*
X135656715Y-83099285D01*
X135661954Y-83105066D01*
X135666602Y-83111332D01*
X135670613Y-83118024D01*
X135673948Y-83125077D01*
X135676577Y-83132422D01*
X135678472Y-83139990D01*
X135679617Y-83147708D01*
X135680000Y-83155500D01*
X135680000Y-83314500D01*
X135679617Y-83322292D01*
X135678472Y-83330010D01*
X135676577Y-83337578D01*
X135673948Y-83344923D01*
X135670613Y-83351976D01*
X135666602Y-83358668D01*
X135661954Y-83364934D01*
X135656715Y-83370715D01*
X135650934Y-83375954D01*
X135644668Y-83380602D01*
X135637976Y-83384613D01*
X135630923Y-83387948D01*
X135623578Y-83390577D01*
X135616010Y-83392472D01*
X135608292Y-83393617D01*
X135600500Y-83394000D01*
X135399500Y-83394000D01*
X135391708Y-83393617D01*
X135383990Y-83392472D01*
X135376422Y-83390577D01*
X135369077Y-83387948D01*
X135362024Y-83384613D01*
X135355332Y-83380602D01*
X135349066Y-83375954D01*
X135343285Y-83370715D01*
X135338046Y-83364934D01*
X135333398Y-83358668D01*
X135329387Y-83351976D01*
X135326052Y-83344923D01*
X135323423Y-83337578D01*
X135321528Y-83330010D01*
X135320383Y-83322292D01*
X135320000Y-83314500D01*
X135320000Y-83155500D01*
X135320383Y-83147708D01*
X135321528Y-83139990D01*
X135323423Y-83132422D01*
X135326052Y-83125077D01*
X135329387Y-83118024D01*
X135333398Y-83111332D01*
X135338046Y-83105066D01*
X135343285Y-83099285D01*
X135349066Y-83094046D01*
X135355332Y-83089398D01*
X135362024Y-83085387D01*
X135369077Y-83082052D01*
X135376422Y-83079423D01*
X135383990Y-83077528D01*
X135391708Y-83076383D01*
X135399500Y-83076000D01*
X135600500Y-83076000D01*
X135608292Y-83076383D01*
G37*
M02*
