M48
; DRILL file {KiCad (5.1.5)-3} date 29/06/2021 15:52:34
; FORMAT={-:-/ absolute / inch / decimal}
; #@! TF.CreationDate,2021-06-29T15:52:34+01:00
; #@! TF.GenerationSoftware,Kicad,Pcbnew,(5.1.5)-3
; #@! TF.FileFunction,Plated,1,2,PTH
FMAT,2
INCH
T1C0.0118
T2C0.0157
T3C0.0315
T4C0.0394
T5C0.1181
%
G90
G05
T1
X3.9902Y-3.3219
X4.0118Y-3.5453
X4.0124Y-3.4947
X4.0551Y-3.3858
X4.0551Y-3.6614
X4.0945Y-3.3858
X4.0945Y-3.6614
X4.1234Y-3.4947
X4.1234Y-3.5419
X4.1339Y-3.3858
X4.1339Y-3.6614
X4.1358Y-3.4478
X4.1358Y-3.5945
X4.1722Y-3.4774
X4.1722Y-3.5167
X4.1722Y-3.5561
X4.1752Y-3.4478
X4.1752Y-3.5945
X4.2146Y-3.4478
X4.2146Y-3.4764
X4.2146Y-3.5157
X4.2146Y-3.5551
X4.2146Y-3.5945
T2
X4.0984Y-3.3189
X4.315Y-3.6693
X4.4469Y-3.4764
X4.4528Y-3.3957
X4.4567Y-3.1437
X4.5118Y-3.6909
X4.6614Y-3.5591
X4.7205Y-3.0551
X4.7598Y-3.3701
X4.7992Y-3.1496
X5.0118Y-3.248
X5.0256Y-3.5728
X5.0748Y-3.248
X5.1004Y-3.4154
X5.2362Y-3.5984
X5.374Y-3.2953
T3
X4.9236Y-3.7087
X5.0236Y-3.7087
T4
X5.2205Y-3.7126
X5.3205Y-3.7126
X5.4205Y-3.7126
X3.8346Y-3.0433
X3.8346Y-3.1433
X3.8346Y-3.2433
X3.8346Y-3.3433
X3.8346Y-3.4433
X3.8346Y-3.5433
X4.9417Y-2.9059
X4.9417Y-3.0059
X5.0417Y-2.9059
X5.0417Y-3.0059
X5.1417Y-2.9059
X5.1417Y-3.0059
T5
X4.6457Y-3.2677
T0
M30
