G04 #@! TF.GenerationSoftware,KiCad,Pcbnew,(5.1.12)-1*
G04 #@! TF.CreationDate,2021-12-08T09:26:21+00:00*
G04 #@! TF.ProjectId,LightMinderSMD,4c696768-744d-4696-9e64-6572534d442e,rev?*
G04 #@! TF.SameCoordinates,Original*
G04 #@! TF.FileFunction,OtherDrawing,Comment*
%FSLAX46Y46*%
G04 Gerber Fmt 4.6, Leading zero omitted, Abs format (unit mm)*
G04 Created by KiCad (PCBNEW (5.1.12)-1) date 2021-12-08 09:26:21*
%MOMM*%
%LPD*%
G01*
G04 APERTURE LIST*
%ADD10C,0.100000*%
%ADD11C,0.200000*%
%ADD12C,0.150000*%
G04 APERTURE END LIST*
D10*
X110450000Y-79500000D02*
X110450000Y-93200000D01*
X101950000Y-79500000D02*
X110450000Y-79500000D01*
X101950000Y-93200000D02*
X101950000Y-79500000D01*
X110450000Y-93200000D02*
X101950000Y-93200000D01*
D11*
X109450000Y-82650000D02*
X109450000Y-88750000D01*
X102950000Y-82650000D02*
X109450000Y-82650000D01*
X102950000Y-88750000D02*
X102950000Y-82650000D01*
X109450000Y-88750000D02*
X102950000Y-88750000D01*
D12*
X114750000Y-83700000D02*
X115700000Y-82750000D01*
X114750000Y-85650000D02*
X114750000Y-82750000D01*
X116050000Y-85650000D02*
X114750000Y-85650000D01*
X116050000Y-82750000D02*
X116050000Y-85650000D01*
X114750000Y-82750000D02*
X116050000Y-82750000D01*
X113500000Y-85950000D02*
X113500000Y-82450000D01*
X117300000Y-85950000D02*
X113500000Y-85950000D01*
X117300000Y-82450000D02*
X117300000Y-85950000D01*
X113500000Y-82450000D02*
X117300000Y-82450000D01*
X114850000Y-89750000D02*
X115800000Y-88800000D01*
X114850000Y-91700000D02*
X114850000Y-88800000D01*
X116150000Y-91700000D02*
X114850000Y-91700000D01*
X116150000Y-88800000D02*
X116150000Y-91700000D01*
X114850000Y-88800000D02*
X116150000Y-88800000D01*
X113600000Y-92000000D02*
X113600000Y-88500000D01*
X117400000Y-92000000D02*
X113600000Y-92000000D01*
X117400000Y-88500000D02*
X117400000Y-92000000D01*
X113600000Y-88500000D02*
X117400000Y-88500000D01*
X112777000Y-76788000D02*
X112777000Y-74212000D01*
X115993000Y-76788000D02*
X112777000Y-76788000D01*
X115993000Y-74212000D02*
X115993000Y-76788000D01*
X112777000Y-74212000D02*
X115993000Y-74212000D01*
X112060000Y-77155000D02*
X112060000Y-73845000D01*
X116710000Y-77155000D02*
X112060000Y-77155000D01*
X116710000Y-73845000D02*
X116710000Y-77155000D01*
X112060000Y-73845000D02*
X116710000Y-73845000D01*
X103630000Y-78998000D02*
X103630000Y-76402000D01*
X108670000Y-78998000D02*
X103630000Y-78998000D01*
X108670000Y-76402000D02*
X108670000Y-78998000D01*
X103630000Y-76402000D02*
X108670000Y-76402000D01*
X102750000Y-79345000D02*
X102750000Y-76055000D01*
X109550000Y-79345000D02*
X102750000Y-79345000D01*
X109550000Y-76055000D02*
X109550000Y-79345000D01*
X102750000Y-76055000D02*
X109550000Y-76055000D01*
M02*
