M48
; DRILL file {KiCad (5.1.12)-1} date 12/08/21 09:26:23
; FORMAT={-:-/ absolute / metric / decimal}
; #@! TF.CreationDate,2021-12-08T09:26:23+00:00
; #@! TF.GenerationSoftware,Kicad,Pcbnew,(5.1.12)-1
; #@! TF.FileFunction,Plated,1,2,PTH
FMAT,2
METRIC
T1C0.300
T2C0.400
T3C1.000
%
G90
G05
T1
X112.5Y-92.7
X123.0Y-93.4
T2
X102.2Y-81.4
X102.2Y-83.4
X105.5Y-81.4
X105.5Y-83.4
X110.4Y-75.5
X116.4Y-87.8
X118.062Y-80.837
X119.8Y-86.0
X122.1Y-80.1
X123.5Y-84.7
X125.6Y-73.8
X126.4Y-80.4
X128.9Y-82.8
X128.9Y-83.9
X129.6Y-85.8
X129.7Y-91.2
X130.0Y-82.65
X132.4Y-85.5
X133.9Y-86.0
X133.9Y-87.039
X133.9Y-88.054
X137.5Y-87.8
X137.7Y-90.9
T3
X98.0Y-75.46
X98.0Y-78.0
X98.0Y-83.58
X98.0Y-86.12
X98.0Y-88.66
X98.0Y-91.2
X128.92Y-74.36
X128.92Y-76.9
X131.46Y-74.36
X131.46Y-76.9
X134.0Y-74.36
X134.0Y-76.9
X140.3Y-83.12
X140.3Y-85.66
X140.3Y-88.2
X140.3Y-90.74
T0
M30
