G04 #@! TF.GenerationSoftware,KiCad,Pcbnew,(5.1.12)-1*
G04 #@! TF.CreationDate,2021-12-08T09:26:21+00:00*
G04 #@! TF.ProjectId,LightMinderSMD,4c696768-744d-4696-9e64-6572534d442e,rev?*
G04 #@! TF.SameCoordinates,Original*
G04 #@! TF.FileFunction,Legend,Bot*
G04 #@! TF.FilePolarity,Positive*
%FSLAX46Y46*%
G04 Gerber Fmt 4.6, Leading zero omitted, Abs format (unit mm)*
G04 Created by KiCad (PCBNEW (5.1.12)-1) date 2021-12-08 09:26:21*
%MOMM*%
%LPD*%
G01*
G04 APERTURE LIST*
%ADD10C,0.100000*%
%ADD11C,0.010000*%
%ADD12O,1.700000X1.700000*%
%ADD13R,1.700000X1.700000*%
G04 APERTURE END LIST*
D10*
X136216666Y-89966666D02*
X136216666Y-90400000D01*
X136483333Y-90166666D01*
X136483333Y-90266666D01*
X136516666Y-90333333D01*
X136550000Y-90366666D01*
X136616666Y-90400000D01*
X136783333Y-90400000D01*
X136850000Y-90366666D01*
X136883333Y-90333333D01*
X136916666Y-90266666D01*
X136916666Y-90066666D01*
X136883333Y-90000000D01*
X136850000Y-89966666D01*
X136450000Y-90633333D02*
X136916666Y-90800000D01*
X136450000Y-90966666D01*
X136216666Y-91166666D02*
X136216666Y-91600000D01*
X136483333Y-91366666D01*
X136483333Y-91466666D01*
X136516666Y-91533333D01*
X136550000Y-91566666D01*
X136616666Y-91600000D01*
X136783333Y-91600000D01*
X136850000Y-91566666D01*
X136883333Y-91533333D01*
X136916666Y-91466666D01*
X136916666Y-91266666D01*
X136883333Y-91200000D01*
X136850000Y-91166666D01*
X136916666Y-88083333D02*
X136583333Y-87850000D01*
X136916666Y-87683333D02*
X136216666Y-87683333D01*
X136216666Y-87950000D01*
X136250000Y-88016666D01*
X136283333Y-88050000D01*
X136350000Y-88083333D01*
X136450000Y-88083333D01*
X136516666Y-88050000D01*
X136550000Y-88016666D01*
X136583333Y-87950000D01*
X136583333Y-87683333D01*
X136216666Y-88316666D02*
X136916666Y-88783333D01*
X136216666Y-88783333D02*
X136916666Y-88316666D01*
X136216666Y-85066666D02*
X136216666Y-85466666D01*
X136916666Y-85266666D02*
X136216666Y-85266666D01*
X136216666Y-85633333D02*
X136916666Y-86100000D01*
X136216666Y-86100000D02*
X136916666Y-85633333D01*
X136250000Y-82666666D02*
X136216666Y-82600000D01*
X136216666Y-82500000D01*
X136250000Y-82400000D01*
X136316666Y-82333333D01*
X136383333Y-82300000D01*
X136516666Y-82266666D01*
X136616666Y-82266666D01*
X136750000Y-82300000D01*
X136816666Y-82333333D01*
X136883333Y-82400000D01*
X136916666Y-82500000D01*
X136916666Y-82566666D01*
X136883333Y-82666666D01*
X136850000Y-82700000D01*
X136616666Y-82700000D01*
X136616666Y-82566666D01*
X136916666Y-83000000D02*
X136216666Y-83000000D01*
X136916666Y-83400000D01*
X136216666Y-83400000D01*
X136916666Y-83733333D02*
X136216666Y-83733333D01*
X136216666Y-83900000D01*
X136250000Y-84000000D01*
X136316666Y-84066666D01*
X136383333Y-84100000D01*
X136516666Y-84133333D01*
X136616666Y-84133333D01*
X136750000Y-84100000D01*
X136816666Y-84066666D01*
X136883333Y-84000000D01*
X136916666Y-83900000D01*
X136916666Y-83733333D01*
X140383333Y-75366666D02*
X140416666Y-75466666D01*
X140416666Y-75633333D01*
X140383333Y-75700000D01*
X140350000Y-75733333D01*
X140283333Y-75766666D01*
X140216666Y-75766666D01*
X140150000Y-75733333D01*
X140116666Y-75700000D01*
X140083333Y-75633333D01*
X140050000Y-75500000D01*
X140016666Y-75433333D01*
X139983333Y-75400000D01*
X139916666Y-75366666D01*
X139850000Y-75366666D01*
X139783333Y-75400000D01*
X139750000Y-75433333D01*
X139716666Y-75500000D01*
X139716666Y-75666666D01*
X139750000Y-75766666D01*
X140383333Y-76333333D02*
X140416666Y-76266666D01*
X140416666Y-76133333D01*
X140383333Y-76066666D01*
X140316666Y-76033333D01*
X140050000Y-76033333D01*
X139983333Y-76066666D01*
X139950000Y-76133333D01*
X139950000Y-76266666D01*
X139983333Y-76333333D01*
X140050000Y-76366666D01*
X140116666Y-76366666D01*
X140183333Y-76033333D01*
X140416666Y-76666666D02*
X139950000Y-76666666D01*
X140083333Y-76666666D02*
X140016666Y-76700000D01*
X139983333Y-76733333D01*
X139950000Y-76800000D01*
X139950000Y-76866666D01*
X140416666Y-77100000D02*
X139950000Y-77100000D01*
X139716666Y-77100000D02*
X139750000Y-77066666D01*
X139783333Y-77100000D01*
X139750000Y-77133333D01*
X139716666Y-77100000D01*
X139783333Y-77100000D01*
X140416666Y-77733333D02*
X140050000Y-77733333D01*
X139983333Y-77700000D01*
X139950000Y-77633333D01*
X139950000Y-77500000D01*
X139983333Y-77433333D01*
X140383333Y-77733333D02*
X140416666Y-77666666D01*
X140416666Y-77500000D01*
X140383333Y-77433333D01*
X140316666Y-77400000D01*
X140250000Y-77400000D01*
X140183333Y-77433333D01*
X140150000Y-77500000D01*
X140150000Y-77666666D01*
X140116666Y-77733333D01*
X140416666Y-78166666D02*
X140383333Y-78100000D01*
X140316666Y-78066666D01*
X139716666Y-78066666D01*
X140416666Y-78966666D02*
X139716666Y-78966666D01*
X139716666Y-79233333D01*
X139750000Y-79300000D01*
X139783333Y-79333333D01*
X139850000Y-79366666D01*
X139950000Y-79366666D01*
X140016666Y-79333333D01*
X140050000Y-79300000D01*
X140083333Y-79233333D01*
X140083333Y-78966666D01*
X140416666Y-79766666D02*
X140383333Y-79700000D01*
X140350000Y-79666666D01*
X140283333Y-79633333D01*
X140083333Y-79633333D01*
X140016666Y-79666666D01*
X139983333Y-79700000D01*
X139950000Y-79766666D01*
X139950000Y-79866666D01*
X139983333Y-79933333D01*
X140016666Y-79966666D01*
X140083333Y-80000000D01*
X140283333Y-80000000D01*
X140350000Y-79966666D01*
X140383333Y-79933333D01*
X140416666Y-79866666D01*
X140416666Y-79766666D01*
X140416666Y-80300000D02*
X139950000Y-80300000D01*
X140083333Y-80300000D02*
X140016666Y-80333333D01*
X139983333Y-80366666D01*
X139950000Y-80433333D01*
X139950000Y-80500000D01*
X139950000Y-80633333D02*
X139950000Y-80900000D01*
X139716666Y-80733333D02*
X140316666Y-80733333D01*
X140383333Y-80766666D01*
X140416666Y-80833333D01*
X140416666Y-80900000D01*
X126483333Y-76833333D02*
X127183333Y-76833333D01*
X126516666Y-76533333D02*
X126483333Y-76433333D01*
X126483333Y-76266666D01*
X126516666Y-76200000D01*
X126550000Y-76166666D01*
X126616666Y-76133333D01*
X126683333Y-76133333D01*
X126750000Y-76166666D01*
X126783333Y-76200000D01*
X126816666Y-76266666D01*
X126850000Y-76400000D01*
X126883333Y-76466666D01*
X126916666Y-76500000D01*
X126983333Y-76533333D01*
X127050000Y-76533333D01*
X127116666Y-76500000D01*
X127150000Y-76466666D01*
X127183333Y-76400000D01*
X127183333Y-76233333D01*
X127150000Y-76133333D01*
X126550000Y-75433333D02*
X126516666Y-75466666D01*
X126483333Y-75566666D01*
X126483333Y-75633333D01*
X126516666Y-75733333D01*
X126583333Y-75800000D01*
X126650000Y-75833333D01*
X126783333Y-75866666D01*
X126883333Y-75866666D01*
X127016666Y-75833333D01*
X127083333Y-75800000D01*
X127150000Y-75733333D01*
X127183333Y-75633333D01*
X127183333Y-75566666D01*
X127150000Y-75466666D01*
X127116666Y-75433333D01*
X126483333Y-75133333D02*
X127183333Y-75133333D01*
X127183333Y-74866666D01*
X127150000Y-74800000D01*
X127116666Y-74766666D01*
X127050000Y-74733333D01*
X126950000Y-74733333D01*
X126883333Y-74766666D01*
X126850000Y-74800000D01*
X126816666Y-74866666D01*
X126816666Y-75133333D01*
X95183333Y-79716666D02*
X95183333Y-80050000D01*
X95883333Y-80050000D01*
X95183333Y-79483333D02*
X95650000Y-79483333D01*
X95883333Y-79483333D02*
X95850000Y-79516666D01*
X95816666Y-79483333D01*
X95850000Y-79450000D01*
X95883333Y-79483333D01*
X95816666Y-79483333D01*
X95650000Y-78850000D02*
X95083333Y-78850000D01*
X95016666Y-78883333D01*
X94983333Y-78916666D01*
X94950000Y-78983333D01*
X94950000Y-79083333D01*
X94983333Y-79150000D01*
X95216666Y-78850000D02*
X95183333Y-78916666D01*
X95183333Y-79050000D01*
X95216666Y-79116666D01*
X95250000Y-79150000D01*
X95316666Y-79183333D01*
X95516666Y-79183333D01*
X95583333Y-79150000D01*
X95616666Y-79116666D01*
X95650000Y-79050000D01*
X95650000Y-78916666D01*
X95616666Y-78850000D01*
X95183333Y-78516666D02*
X95883333Y-78516666D01*
X95183333Y-78216666D02*
X95550000Y-78216666D01*
X95616666Y-78250000D01*
X95650000Y-78316666D01*
X95650000Y-78416666D01*
X95616666Y-78483333D01*
X95583333Y-78516666D01*
X95650000Y-77983333D02*
X95650000Y-77716666D01*
X95883333Y-77883333D02*
X95283333Y-77883333D01*
X95216666Y-77850000D01*
X95183333Y-77783333D01*
X95183333Y-77716666D01*
X95216666Y-76983333D02*
X95183333Y-76883333D01*
X95183333Y-76716666D01*
X95216666Y-76650000D01*
X95250000Y-76616666D01*
X95316666Y-76583333D01*
X95383333Y-76583333D01*
X95450000Y-76616666D01*
X95483333Y-76650000D01*
X95516666Y-76716666D01*
X95550000Y-76850000D01*
X95583333Y-76916666D01*
X95616666Y-76950000D01*
X95683333Y-76983333D01*
X95750000Y-76983333D01*
X95816666Y-76950000D01*
X95850000Y-76916666D01*
X95883333Y-76850000D01*
X95883333Y-76683333D01*
X95850000Y-76583333D01*
X95216666Y-76016666D02*
X95183333Y-76083333D01*
X95183333Y-76216666D01*
X95216666Y-76283333D01*
X95283333Y-76316666D01*
X95550000Y-76316666D01*
X95616666Y-76283333D01*
X95650000Y-76216666D01*
X95650000Y-76083333D01*
X95616666Y-76016666D01*
X95550000Y-75983333D01*
X95483333Y-75983333D01*
X95416666Y-76316666D01*
X95650000Y-75683333D02*
X95183333Y-75683333D01*
X95583333Y-75683333D02*
X95616666Y-75650000D01*
X95650000Y-75583333D01*
X95650000Y-75483333D01*
X95616666Y-75416666D01*
X95550000Y-75383333D01*
X95183333Y-75383333D01*
X95216666Y-75083333D02*
X95183333Y-75016666D01*
X95183333Y-74883333D01*
X95216666Y-74816666D01*
X95283333Y-74783333D01*
X95316666Y-74783333D01*
X95383333Y-74816666D01*
X95416666Y-74883333D01*
X95416666Y-74983333D01*
X95450000Y-75050000D01*
X95516666Y-75083333D01*
X95550000Y-75083333D01*
X95616666Y-75050000D01*
X95650000Y-74983333D01*
X95650000Y-74883333D01*
X95616666Y-74816666D01*
X95183333Y-74383333D02*
X95216666Y-74450000D01*
X95250000Y-74483333D01*
X95316666Y-74516666D01*
X95516666Y-74516666D01*
X95583333Y-74483333D01*
X95616666Y-74450000D01*
X95650000Y-74383333D01*
X95650000Y-74283333D01*
X95616666Y-74216666D01*
X95583333Y-74183333D01*
X95516666Y-74150000D01*
X95316666Y-74150000D01*
X95250000Y-74183333D01*
X95216666Y-74216666D01*
X95183333Y-74283333D01*
X95183333Y-74383333D01*
X95183333Y-73850000D02*
X95650000Y-73850000D01*
X95516666Y-73850000D02*
X95583333Y-73816666D01*
X95616666Y-73783333D01*
X95650000Y-73716666D01*
X95650000Y-73650000D01*
X95950000Y-84233333D02*
X95983333Y-84300000D01*
X95983333Y-84400000D01*
X95950000Y-84500000D01*
X95883333Y-84566666D01*
X95816666Y-84600000D01*
X95683333Y-84633333D01*
X95583333Y-84633333D01*
X95450000Y-84600000D01*
X95383333Y-84566666D01*
X95316666Y-84500000D01*
X95283333Y-84400000D01*
X95283333Y-84333333D01*
X95316666Y-84233333D01*
X95350000Y-84200000D01*
X95583333Y-84200000D01*
X95583333Y-84333333D01*
X95283333Y-83900000D02*
X95983333Y-83900000D01*
X95283333Y-83500000D01*
X95983333Y-83500000D01*
X95283333Y-83166666D02*
X95983333Y-83166666D01*
X95983333Y-83000000D01*
X95950000Y-82900000D01*
X95883333Y-82833333D01*
X95816666Y-82800000D01*
X95683333Y-82766666D01*
X95583333Y-82766666D01*
X95450000Y-82800000D01*
X95383333Y-82833333D01*
X95316666Y-82900000D01*
X95283333Y-83000000D01*
X95283333Y-83166666D01*
X95983333Y-86866666D02*
X95283333Y-86633333D01*
X95983333Y-86400000D01*
X95550000Y-86166666D02*
X95550000Y-85633333D01*
X95283333Y-85900000D02*
X95816666Y-85900000D01*
X106035000Y-72975000D02*
X105868333Y-73441666D01*
X105701666Y-72975000D01*
X105301666Y-72741666D02*
X105235000Y-72741666D01*
X105168333Y-72775000D01*
X105135000Y-72808333D01*
X105101666Y-72875000D01*
X105068333Y-73008333D01*
X105068333Y-73175000D01*
X105101666Y-73308333D01*
X105135000Y-73375000D01*
X105168333Y-73408333D01*
X105235000Y-73441666D01*
X105301666Y-73441666D01*
X105368333Y-73408333D01*
X105401666Y-73375000D01*
X105435000Y-73308333D01*
X105468333Y-73175000D01*
X105468333Y-73008333D01*
X105435000Y-72875000D01*
X105401666Y-72808333D01*
X105368333Y-72775000D01*
X105301666Y-72741666D01*
X104768333Y-73375000D02*
X104735000Y-73408333D01*
X104768333Y-73441666D01*
X104801666Y-73408333D01*
X104768333Y-73375000D01*
X104768333Y-73441666D01*
X104501666Y-72741666D02*
X104068333Y-72741666D01*
X104301666Y-73008333D01*
X104201666Y-73008333D01*
X104135000Y-73041666D01*
X104101666Y-73075000D01*
X104068333Y-73141666D01*
X104068333Y-73308333D01*
X104101666Y-73375000D01*
X104135000Y-73408333D01*
X104201666Y-73441666D01*
X104401666Y-73441666D01*
X104468333Y-73408333D01*
X104501666Y-73375000D01*
X103235000Y-73441666D02*
X103235000Y-72741666D01*
X102968333Y-72741666D01*
X102901666Y-72775000D01*
X102868333Y-72808333D01*
X102835000Y-72875000D01*
X102835000Y-72975000D01*
X102868333Y-73041666D01*
X102901666Y-73075000D01*
X102968333Y-73108333D01*
X103235000Y-73108333D01*
X102135000Y-73441666D02*
X102368333Y-73108333D01*
X102535000Y-73441666D02*
X102535000Y-72741666D01*
X102268333Y-72741666D01*
X102201666Y-72775000D01*
X102168333Y-72808333D01*
X102135000Y-72875000D01*
X102135000Y-72975000D01*
X102168333Y-73041666D01*
X102201666Y-73075000D01*
X102268333Y-73108333D01*
X102535000Y-73108333D01*
X101701666Y-72741666D02*
X101568333Y-72741666D01*
X101501666Y-72775000D01*
X101435000Y-72841666D01*
X101401666Y-72975000D01*
X101401666Y-73208333D01*
X101435000Y-73341666D01*
X101501666Y-73408333D01*
X101568333Y-73441666D01*
X101701666Y-73441666D01*
X101768333Y-73408333D01*
X101835000Y-73341666D01*
X101868333Y-73208333D01*
X101868333Y-72975000D01*
X101835000Y-72841666D01*
X101768333Y-72775000D01*
X101701666Y-72741666D01*
X101201666Y-72741666D02*
X100801666Y-72741666D01*
X101001666Y-73441666D02*
X101001666Y-72741666D01*
X100435000Y-72741666D02*
X100301666Y-72741666D01*
X100235000Y-72775000D01*
X100168333Y-72841666D01*
X100135000Y-72975000D01*
X100135000Y-73208333D01*
X100168333Y-73341666D01*
X100235000Y-73408333D01*
X100301666Y-73441666D01*
X100435000Y-73441666D01*
X100501666Y-73408333D01*
X100568333Y-73341666D01*
X100601666Y-73208333D01*
X100601666Y-72975000D01*
X100568333Y-72841666D01*
X100501666Y-72775000D01*
X100435000Y-72741666D01*
X99935000Y-72741666D02*
X99535000Y-72741666D01*
X99735000Y-73441666D02*
X99735000Y-72741666D01*
X99168333Y-73108333D02*
X99168333Y-73441666D01*
X99401666Y-72741666D02*
X99168333Y-73108333D01*
X98935000Y-72741666D01*
X98701666Y-73441666D02*
X98701666Y-72741666D01*
X98435000Y-72741666D01*
X98368333Y-72775000D01*
X98335000Y-72808333D01*
X98301666Y-72875000D01*
X98301666Y-72975000D01*
X98335000Y-73041666D01*
X98368333Y-73075000D01*
X98435000Y-73108333D01*
X98701666Y-73108333D01*
X98001666Y-73075000D02*
X97768333Y-73075000D01*
X97668333Y-73441666D02*
X98001666Y-73441666D01*
X98001666Y-72741666D01*
X97668333Y-72741666D01*
X106001666Y-73958333D02*
X105968333Y-73925000D01*
X105901666Y-73891666D01*
X105735000Y-73891666D01*
X105668333Y-73925000D01*
X105635000Y-73958333D01*
X105601666Y-74025000D01*
X105601666Y-74091666D01*
X105635000Y-74191666D01*
X106035000Y-74591666D01*
X105601666Y-74591666D01*
X105168333Y-73891666D02*
X105101666Y-73891666D01*
X105035000Y-73925000D01*
X105001666Y-73958333D01*
X104968333Y-74025000D01*
X104935000Y-74158333D01*
X104935000Y-74325000D01*
X104968333Y-74458333D01*
X105001666Y-74525000D01*
X105035000Y-74558333D01*
X105101666Y-74591666D01*
X105168333Y-74591666D01*
X105235000Y-74558333D01*
X105268333Y-74525000D01*
X105301666Y-74458333D01*
X105335000Y-74325000D01*
X105335000Y-74158333D01*
X105301666Y-74025000D01*
X105268333Y-73958333D01*
X105235000Y-73925000D01*
X105168333Y-73891666D01*
X104668333Y-73958333D02*
X104635000Y-73925000D01*
X104568333Y-73891666D01*
X104401666Y-73891666D01*
X104335000Y-73925000D01*
X104301666Y-73958333D01*
X104268333Y-74025000D01*
X104268333Y-74091666D01*
X104301666Y-74191666D01*
X104701666Y-74591666D01*
X104268333Y-74591666D01*
X103601666Y-74591666D02*
X104001666Y-74591666D01*
X103801666Y-74591666D02*
X103801666Y-73891666D01*
X103868333Y-73991666D01*
X103935000Y-74058333D01*
X104001666Y-74091666D01*
X95958333Y-92066666D02*
X96658333Y-92066666D01*
X96658333Y-91900000D01*
X96625000Y-91800000D01*
X96558333Y-91733333D01*
X96491666Y-91700000D01*
X96358333Y-91666666D01*
X96258333Y-91666666D01*
X96125000Y-91700000D01*
X96058333Y-91733333D01*
X95991666Y-91800000D01*
X95958333Y-91900000D01*
X95958333Y-92066666D01*
X95958333Y-91366666D02*
X96425000Y-91366666D01*
X96658333Y-91366666D02*
X96625000Y-91400000D01*
X96591666Y-91366666D01*
X96625000Y-91333333D01*
X96658333Y-91366666D01*
X96591666Y-91366666D01*
X96425000Y-91033333D02*
X95725000Y-91033333D01*
X96391666Y-91033333D02*
X96425000Y-90966666D01*
X96425000Y-90833333D01*
X96391666Y-90766666D01*
X96358333Y-90733333D01*
X96291666Y-90700000D01*
X96091666Y-90700000D01*
X96025000Y-90733333D01*
X95991666Y-90766666D01*
X95958333Y-90833333D01*
X95958333Y-90966666D01*
X95991666Y-91033333D01*
X95508333Y-91983333D02*
X95508333Y-91850000D01*
X95475000Y-91783333D01*
X95408333Y-91716666D01*
X95275000Y-91683333D01*
X95041666Y-91683333D01*
X94908333Y-91716666D01*
X94841666Y-91783333D01*
X94808333Y-91850000D01*
X94808333Y-91983333D01*
X94841666Y-92050000D01*
X94908333Y-92116666D01*
X95041666Y-92150000D01*
X95275000Y-92150000D01*
X95408333Y-92116666D01*
X95475000Y-92050000D01*
X95508333Y-91983333D01*
X95275000Y-91083333D02*
X94808333Y-91083333D01*
X95275000Y-91383333D02*
X94908333Y-91383333D01*
X94841666Y-91350000D01*
X94808333Y-91283333D01*
X94808333Y-91183333D01*
X94841666Y-91116666D01*
X94875000Y-91083333D01*
X95275000Y-90850000D02*
X95275000Y-90583333D01*
X95508333Y-90750000D02*
X94908333Y-90750000D01*
X94841666Y-90716666D01*
X94808333Y-90650000D01*
X94808333Y-90583333D01*
X95858333Y-89466666D02*
X96558333Y-89466666D01*
X96558333Y-89300000D01*
X96525000Y-89200000D01*
X96458333Y-89133333D01*
X96391666Y-89100000D01*
X96258333Y-89066666D01*
X96158333Y-89066666D01*
X96025000Y-89100000D01*
X95958333Y-89133333D01*
X95891666Y-89200000D01*
X95858333Y-89300000D01*
X95858333Y-89466666D01*
X95858333Y-88766666D02*
X96325000Y-88766666D01*
X96558333Y-88766666D02*
X96525000Y-88800000D01*
X96491666Y-88766666D01*
X96525000Y-88733333D01*
X96558333Y-88766666D01*
X96491666Y-88766666D01*
X96325000Y-88433333D02*
X95625000Y-88433333D01*
X96291666Y-88433333D02*
X96325000Y-88366666D01*
X96325000Y-88233333D01*
X96291666Y-88166666D01*
X96258333Y-88133333D01*
X96191666Y-88100000D01*
X95991666Y-88100000D01*
X95925000Y-88133333D01*
X95891666Y-88166666D01*
X95858333Y-88233333D01*
X95858333Y-88366666D01*
X95891666Y-88433333D01*
X94708333Y-89116666D02*
X95408333Y-89116666D01*
X95175000Y-88783333D02*
X94708333Y-88783333D01*
X95108333Y-88783333D02*
X95141666Y-88750000D01*
X95175000Y-88683333D01*
X95175000Y-88583333D01*
X95141666Y-88516666D01*
X95075000Y-88483333D01*
X94708333Y-88483333D01*
D11*
G36*
X109427043Y-92270487D02*
G01*
X109398099Y-92322747D01*
X109361344Y-92417665D01*
X109323355Y-92529884D01*
X109286941Y-92631579D01*
X109254512Y-92705540D01*
X109231048Y-92741101D01*
X109224566Y-92741551D01*
X109205866Y-92704556D01*
X109176718Y-92629142D01*
X109143101Y-92530892D01*
X109139699Y-92520333D01*
X109090238Y-92384152D01*
X109044740Y-92294819D01*
X109005165Y-92255500D01*
X108979657Y-92261601D01*
X108976218Y-92299854D01*
X108991882Y-92378641D01*
X109022612Y-92487011D01*
X109064373Y-92614014D01*
X109113129Y-92748701D01*
X109164842Y-92880121D01*
X109215478Y-92997324D01*
X109261000Y-93089361D01*
X109297371Y-93145281D01*
X109309136Y-93155465D01*
X109383624Y-93181810D01*
X109443296Y-93179956D01*
X109472881Y-93151889D01*
X109472947Y-93134167D01*
X109440766Y-93091842D01*
X109398802Y-93075560D01*
X109340682Y-93055538D01*
X109308698Y-93011721D01*
X109302761Y-92938053D01*
X109322782Y-92828482D01*
X109368673Y-92676954D01*
X109391957Y-92609704D01*
X109441948Y-92459958D01*
X109472114Y-92349685D01*
X109481278Y-92283634D01*
X109476824Y-92267757D01*
X109452007Y-92254339D01*
X109427043Y-92270487D01*
G37*
X109427043Y-92270487D02*
X109398099Y-92322747D01*
X109361344Y-92417665D01*
X109323355Y-92529884D01*
X109286941Y-92631579D01*
X109254512Y-92705540D01*
X109231048Y-92741101D01*
X109224566Y-92741551D01*
X109205866Y-92704556D01*
X109176718Y-92629142D01*
X109143101Y-92530892D01*
X109139699Y-92520333D01*
X109090238Y-92384152D01*
X109044740Y-92294819D01*
X109005165Y-92255500D01*
X108979657Y-92261601D01*
X108976218Y-92299854D01*
X108991882Y-92378641D01*
X109022612Y-92487011D01*
X109064373Y-92614014D01*
X109113129Y-92748701D01*
X109164842Y-92880121D01*
X109215478Y-92997324D01*
X109261000Y-93089361D01*
X109297371Y-93145281D01*
X109309136Y-93155465D01*
X109383624Y-93181810D01*
X109443296Y-93179956D01*
X109472881Y-93151889D01*
X109472947Y-93134167D01*
X109440766Y-93091842D01*
X109398802Y-93075560D01*
X109340682Y-93055538D01*
X109308698Y-93011721D01*
X109302761Y-92938053D01*
X109322782Y-92828482D01*
X109368673Y-92676954D01*
X109391957Y-92609704D01*
X109441948Y-92459958D01*
X109472114Y-92349685D01*
X109481278Y-92283634D01*
X109476824Y-92267757D01*
X109452007Y-92254339D01*
X109427043Y-92270487D01*
G36*
X110092774Y-92005576D02*
G01*
X110077777Y-92032820D01*
X110071721Y-92096994D01*
X110070889Y-92165486D01*
X110069259Y-92255424D01*
X110065018Y-92317491D01*
X110060003Y-92336889D01*
X110029970Y-92325282D01*
X109972895Y-92297344D01*
X109972354Y-92297063D01*
X109871635Y-92271892D01*
X109777025Y-92296294D01*
X109697904Y-92363494D01*
X109643651Y-92466716D01*
X109626489Y-92546942D01*
X109629958Y-92690179D01*
X109673033Y-92804866D01*
X109752391Y-92882690D01*
X109763018Y-92888553D01*
X109866239Y-92925415D01*
X109954066Y-92915481D01*
X110008165Y-92885622D01*
X110053466Y-92857465D01*
X110069299Y-92864092D01*
X110070889Y-92885622D01*
X110094536Y-92921829D01*
X110128032Y-92929555D01*
X110149215Y-92927265D01*
X110164199Y-92915011D01*
X110173854Y-92884724D01*
X110179049Y-92828332D01*
X110180656Y-92737764D01*
X110179542Y-92604948D01*
X110179414Y-92596821D01*
X110070889Y-92596821D01*
X110051728Y-92706185D01*
X110001460Y-92781507D01*
X109930911Y-92817836D01*
X109850902Y-92810221D01*
X109772258Y-92753711D01*
X109759943Y-92739064D01*
X109716943Y-92644067D01*
X109717681Y-92539518D01*
X109760178Y-92446155D01*
X109790935Y-92414500D01*
X109876085Y-92372589D01*
X109956231Y-92380529D01*
X110021563Y-92431932D01*
X110062272Y-92520411D01*
X110070889Y-92596821D01*
X110179414Y-92596821D01*
X110177421Y-92471303D01*
X110173972Y-92299579D01*
X110169687Y-92176211D01*
X110163579Y-92093110D01*
X110154658Y-92042187D01*
X110141937Y-92015354D01*
X110124428Y-92004523D01*
X110120277Y-92003567D01*
X110092774Y-92005576D01*
G37*
X110092774Y-92005576D02*
X110077777Y-92032820D01*
X110071721Y-92096994D01*
X110070889Y-92165486D01*
X110069259Y-92255424D01*
X110065018Y-92317491D01*
X110060003Y-92336889D01*
X110029970Y-92325282D01*
X109972895Y-92297344D01*
X109972354Y-92297063D01*
X109871635Y-92271892D01*
X109777025Y-92296294D01*
X109697904Y-92363494D01*
X109643651Y-92466716D01*
X109626489Y-92546942D01*
X109629958Y-92690179D01*
X109673033Y-92804866D01*
X109752391Y-92882690D01*
X109763018Y-92888553D01*
X109866239Y-92925415D01*
X109954066Y-92915481D01*
X110008165Y-92885622D01*
X110053466Y-92857465D01*
X110069299Y-92864092D01*
X110070889Y-92885622D01*
X110094536Y-92921829D01*
X110128032Y-92929555D01*
X110149215Y-92927265D01*
X110164199Y-92915011D01*
X110173854Y-92884724D01*
X110179049Y-92828332D01*
X110180656Y-92737764D01*
X110179542Y-92604948D01*
X110179414Y-92596821D01*
X110070889Y-92596821D01*
X110051728Y-92706185D01*
X110001460Y-92781507D01*
X109930911Y-92817836D01*
X109850902Y-92810221D01*
X109772258Y-92753711D01*
X109759943Y-92739064D01*
X109716943Y-92644067D01*
X109717681Y-92539518D01*
X109760178Y-92446155D01*
X109790935Y-92414500D01*
X109876085Y-92372589D01*
X109956231Y-92380529D01*
X110021563Y-92431932D01*
X110062272Y-92520411D01*
X110070889Y-92596821D01*
X110179414Y-92596821D01*
X110177421Y-92471303D01*
X110173972Y-92299579D01*
X110169687Y-92176211D01*
X110163579Y-92093110D01*
X110154658Y-92042187D01*
X110141937Y-92015354D01*
X110124428Y-92004523D01*
X110120277Y-92003567D01*
X110092774Y-92005576D01*
G36*
X108191460Y-92272868D02*
G01*
X108144722Y-92290282D01*
X108030881Y-92361053D01*
X107963605Y-92460072D01*
X107945201Y-92524836D01*
X107939661Y-92578986D01*
X107953369Y-92614397D01*
X107995246Y-92634979D01*
X108074212Y-92644642D01*
X108199189Y-92647297D01*
X108224641Y-92647333D01*
X108342554Y-92650647D01*
X108409057Y-92662937D01*
X108428920Y-92687726D01*
X108406914Y-92728533D01*
X108377555Y-92760222D01*
X108318592Y-92794449D01*
X108237634Y-92814173D01*
X108156190Y-92817345D01*
X108095770Y-92801918D01*
X108081222Y-92788444D01*
X108046165Y-92766565D01*
X107996256Y-92761027D01*
X107959260Y-92772788D01*
X107954222Y-92784070D01*
X107979645Y-92838104D01*
X108045731Y-92880968D01*
X108137211Y-92909052D01*
X108238812Y-92918745D01*
X108335262Y-92906439D01*
X108385911Y-92886104D01*
X108462778Y-92818542D01*
X108505843Y-92717239D01*
X108518666Y-92581220D01*
X108504142Y-92493711D01*
X108405777Y-92493711D01*
X108380822Y-92515987D01*
X108317986Y-92530241D01*
X108235320Y-92536068D01*
X108150870Y-92533068D01*
X108082686Y-92520836D01*
X108050175Y-92501651D01*
X108054219Y-92462424D01*
X108094729Y-92417615D01*
X108155038Y-92380689D01*
X108218478Y-92365113D01*
X108219180Y-92365111D01*
X108291331Y-92381800D01*
X108358769Y-92422328D01*
X108400733Y-92472389D01*
X108405777Y-92493711D01*
X108504142Y-92493711D01*
X108496845Y-92449747D01*
X108430211Y-92352050D01*
X108331534Y-92291195D01*
X108255571Y-92267038D01*
X108191460Y-92272868D01*
G37*
X108191460Y-92272868D02*
X108144722Y-92290282D01*
X108030881Y-92361053D01*
X107963605Y-92460072D01*
X107945201Y-92524836D01*
X107939661Y-92578986D01*
X107953369Y-92614397D01*
X107995246Y-92634979D01*
X108074212Y-92644642D01*
X108199189Y-92647297D01*
X108224641Y-92647333D01*
X108342554Y-92650647D01*
X108409057Y-92662937D01*
X108428920Y-92687726D01*
X108406914Y-92728533D01*
X108377555Y-92760222D01*
X108318592Y-92794449D01*
X108237634Y-92814173D01*
X108156190Y-92817345D01*
X108095770Y-92801918D01*
X108081222Y-92788444D01*
X108046165Y-92766565D01*
X107996256Y-92761027D01*
X107959260Y-92772788D01*
X107954222Y-92784070D01*
X107979645Y-92838104D01*
X108045731Y-92880968D01*
X108137211Y-92909052D01*
X108238812Y-92918745D01*
X108335262Y-92906439D01*
X108385911Y-92886104D01*
X108462778Y-92818542D01*
X108505843Y-92717239D01*
X108518666Y-92581220D01*
X108504142Y-92493711D01*
X108405777Y-92493711D01*
X108380822Y-92515987D01*
X108317986Y-92530241D01*
X108235320Y-92536068D01*
X108150870Y-92533068D01*
X108082686Y-92520836D01*
X108050175Y-92501651D01*
X108054219Y-92462424D01*
X108094729Y-92417615D01*
X108155038Y-92380689D01*
X108218478Y-92365113D01*
X108219180Y-92365111D01*
X108291331Y-92381800D01*
X108358769Y-92422328D01*
X108400733Y-92472389D01*
X108405777Y-92493711D01*
X108504142Y-92493711D01*
X108496845Y-92449747D01*
X108430211Y-92352050D01*
X108331534Y-92291195D01*
X108255571Y-92267038D01*
X108191460Y-92272868D01*
G36*
X107290765Y-92018721D02*
G01*
X107188923Y-92071080D01*
X107110624Y-92141593D01*
X107092304Y-92169759D01*
X107068744Y-92237307D01*
X107082206Y-92267402D01*
X107125975Y-92258277D01*
X107193339Y-92208161D01*
X107203060Y-92198950D01*
X107310312Y-92126362D01*
X107422050Y-92109646D01*
X107534321Y-92148861D01*
X107593358Y-92192939D01*
X107642765Y-92241350D01*
X107670311Y-92287476D01*
X107682406Y-92350122D01*
X107685461Y-92448093D01*
X107685525Y-92463301D01*
X107683842Y-92566631D01*
X107673758Y-92632348D01*
X107648923Y-92679246D01*
X107602982Y-92726119D01*
X107593943Y-92734251D01*
X107487797Y-92799370D01*
X107374475Y-92819570D01*
X107268570Y-92794196D01*
X107209219Y-92751563D01*
X107159554Y-92694344D01*
X107131254Y-92647871D01*
X107131199Y-92647708D01*
X107098603Y-92622593D01*
X107069598Y-92627638D01*
X107038583Y-92646416D01*
X107040001Y-92679105D01*
X107061346Y-92724504D01*
X107139873Y-92834949D01*
X107242207Y-92898346D01*
X107354214Y-92921122D01*
X107494132Y-92914940D01*
X107586373Y-92881729D01*
X107667292Y-92821480D01*
X107735511Y-92741707D01*
X107741451Y-92732000D01*
X107784309Y-92614742D01*
X107799871Y-92473536D01*
X107788086Y-92331900D01*
X107748903Y-92213351D01*
X107742622Y-92202234D01*
X107672430Y-92124022D01*
X107571258Y-92055228D01*
X107462371Y-92009397D01*
X107392188Y-91998222D01*
X107290765Y-92018721D01*
G37*
X107290765Y-92018721D02*
X107188923Y-92071080D01*
X107110624Y-92141593D01*
X107092304Y-92169759D01*
X107068744Y-92237307D01*
X107082206Y-92267402D01*
X107125975Y-92258277D01*
X107193339Y-92208161D01*
X107203060Y-92198950D01*
X107310312Y-92126362D01*
X107422050Y-92109646D01*
X107534321Y-92148861D01*
X107593358Y-92192939D01*
X107642765Y-92241350D01*
X107670311Y-92287476D01*
X107682406Y-92350122D01*
X107685461Y-92448093D01*
X107685525Y-92463301D01*
X107683842Y-92566631D01*
X107673758Y-92632348D01*
X107648923Y-92679246D01*
X107602982Y-92726119D01*
X107593943Y-92734251D01*
X107487797Y-92799370D01*
X107374475Y-92819570D01*
X107268570Y-92794196D01*
X107209219Y-92751563D01*
X107159554Y-92694344D01*
X107131254Y-92647871D01*
X107131199Y-92647708D01*
X107098603Y-92622593D01*
X107069598Y-92627638D01*
X107038583Y-92646416D01*
X107040001Y-92679105D01*
X107061346Y-92724504D01*
X107139873Y-92834949D01*
X107242207Y-92898346D01*
X107354214Y-92921122D01*
X107494132Y-92914940D01*
X107586373Y-92881729D01*
X107667292Y-92821480D01*
X107735511Y-92741707D01*
X107741451Y-92732000D01*
X107784309Y-92614742D01*
X107799871Y-92473536D01*
X107788086Y-92331900D01*
X107748903Y-92213351D01*
X107742622Y-92202234D01*
X107672430Y-92124022D01*
X107571258Y-92055228D01*
X107462371Y-92009397D01*
X107392188Y-91998222D01*
X107290765Y-92018721D01*
G36*
X106800032Y-92026966D02*
G01*
X106784310Y-92077364D01*
X106775338Y-92173273D01*
X106774642Y-92187002D01*
X106766285Y-92361671D01*
X106672581Y-92306385D01*
X106578925Y-92269522D01*
X106495145Y-92282718D01*
X106423166Y-92331441D01*
X106399495Y-92377156D01*
X106382401Y-92458816D01*
X106372048Y-92562520D01*
X106368599Y-92674365D01*
X106372220Y-92780451D01*
X106383073Y-92866874D01*
X106401323Y-92919732D01*
X106416111Y-92929555D01*
X106437352Y-92919261D01*
X106450317Y-92881804D01*
X106456763Y-92807323D01*
X106458444Y-92691682D01*
X106461592Y-92560436D01*
X106472176Y-92474476D01*
X106491901Y-92422934D01*
X106502793Y-92409460D01*
X106576899Y-92369020D01*
X106657753Y-92381674D01*
X106712444Y-92421555D01*
X106741813Y-92460371D01*
X106759069Y-92513711D01*
X106767117Y-92596103D01*
X106768889Y-92703778D01*
X106770041Y-92816214D01*
X106775417Y-92883595D01*
X106787894Y-92917291D01*
X106810351Y-92928676D01*
X106826032Y-92929555D01*
X106847208Y-92927266D01*
X106862190Y-92915019D01*
X106871846Y-92884746D01*
X106877045Y-92828380D01*
X106878656Y-92737851D01*
X106877548Y-92605092D01*
X106875421Y-92470944D01*
X106871757Y-92297211D01*
X106867006Y-92172421D01*
X106860350Y-92089075D01*
X106850968Y-92039672D01*
X106838042Y-92016712D01*
X106825333Y-92012333D01*
X106800032Y-92026966D01*
G37*
X106800032Y-92026966D02*
X106784310Y-92077364D01*
X106775338Y-92173273D01*
X106774642Y-92187002D01*
X106766285Y-92361671D01*
X106672581Y-92306385D01*
X106578925Y-92269522D01*
X106495145Y-92282718D01*
X106423166Y-92331441D01*
X106399495Y-92377156D01*
X106382401Y-92458816D01*
X106372048Y-92562520D01*
X106368599Y-92674365D01*
X106372220Y-92780451D01*
X106383073Y-92866874D01*
X106401323Y-92919732D01*
X106416111Y-92929555D01*
X106437352Y-92919261D01*
X106450317Y-92881804D01*
X106456763Y-92807323D01*
X106458444Y-92691682D01*
X106461592Y-92560436D01*
X106472176Y-92474476D01*
X106491901Y-92422934D01*
X106502793Y-92409460D01*
X106576899Y-92369020D01*
X106657753Y-92381674D01*
X106712444Y-92421555D01*
X106741813Y-92460371D01*
X106759069Y-92513711D01*
X106767117Y-92596103D01*
X106768889Y-92703778D01*
X106770041Y-92816214D01*
X106775417Y-92883595D01*
X106787894Y-92917291D01*
X106810351Y-92928676D01*
X106826032Y-92929555D01*
X106847208Y-92927266D01*
X106862190Y-92915019D01*
X106871846Y-92884746D01*
X106877045Y-92828380D01*
X106878656Y-92737851D01*
X106877548Y-92605092D01*
X106875421Y-92470944D01*
X106871757Y-92297211D01*
X106867006Y-92172421D01*
X106860350Y-92089075D01*
X106850968Y-92039672D01*
X106838042Y-92016712D01*
X106825333Y-92012333D01*
X106800032Y-92026966D01*
G36*
X105793911Y-92293104D02*
G01*
X105703094Y-92358733D01*
X105659627Y-92421555D01*
X105619106Y-92545446D01*
X105620964Y-92663350D01*
X105657842Y-92767958D01*
X105722381Y-92851960D01*
X105807223Y-92908044D01*
X105905008Y-92928901D01*
X106008380Y-92907219D01*
X106092853Y-92851944D01*
X106169326Y-92747977D01*
X106195641Y-92636838D01*
X106103161Y-92636838D01*
X106068189Y-92730228D01*
X106040868Y-92767278D01*
X105973998Y-92806564D01*
X105885954Y-92813713D01*
X105802141Y-92788468D01*
X105776278Y-92769959D01*
X105739993Y-92705752D01*
X105724732Y-92614028D01*
X105731182Y-92519708D01*
X105760030Y-92447713D01*
X105767167Y-92439531D01*
X105850765Y-92384437D01*
X105933292Y-92376470D01*
X106007271Y-92406679D01*
X106065226Y-92466112D01*
X106099681Y-92545815D01*
X106103161Y-92636838D01*
X106195641Y-92636838D01*
X106199440Y-92620796D01*
X106181092Y-92482223D01*
X106166032Y-92440697D01*
X106099175Y-92343322D01*
X106005703Y-92285918D01*
X105899364Y-92269006D01*
X105793911Y-92293104D01*
G37*
X105793911Y-92293104D02*
X105703094Y-92358733D01*
X105659627Y-92421555D01*
X105619106Y-92545446D01*
X105620964Y-92663350D01*
X105657842Y-92767958D01*
X105722381Y-92851960D01*
X105807223Y-92908044D01*
X105905008Y-92928901D01*
X106008380Y-92907219D01*
X106092853Y-92851944D01*
X106169326Y-92747977D01*
X106195641Y-92636838D01*
X106103161Y-92636838D01*
X106068189Y-92730228D01*
X106040868Y-92767278D01*
X105973998Y-92806564D01*
X105885954Y-92813713D01*
X105802141Y-92788468D01*
X105776278Y-92769959D01*
X105739993Y-92705752D01*
X105724732Y-92614028D01*
X105731182Y-92519708D01*
X105760030Y-92447713D01*
X105767167Y-92439531D01*
X105850765Y-92384437D01*
X105933292Y-92376470D01*
X106007271Y-92406679D01*
X106065226Y-92466112D01*
X106099681Y-92545815D01*
X106103161Y-92636838D01*
X106195641Y-92636838D01*
X106199440Y-92620796D01*
X106181092Y-92482223D01*
X106166032Y-92440697D01*
X106099175Y-92343322D01*
X106005703Y-92285918D01*
X105899364Y-92269006D01*
X105793911Y-92293104D01*
G36*
X105088356Y-92293104D02*
G01*
X104997539Y-92358733D01*
X104954071Y-92421555D01*
X104913551Y-92545446D01*
X104915408Y-92663350D01*
X104952286Y-92767958D01*
X105016825Y-92851960D01*
X105101667Y-92908044D01*
X105199453Y-92928901D01*
X105302824Y-92907219D01*
X105387297Y-92851944D01*
X105463770Y-92747977D01*
X105492655Y-92625985D01*
X105396982Y-92625985D01*
X105368156Y-92719743D01*
X105335312Y-92767278D01*
X105268443Y-92806564D01*
X105180398Y-92813713D01*
X105096585Y-92788468D01*
X105070722Y-92769959D01*
X105028992Y-92694680D01*
X105019543Y-92607681D01*
X105025914Y-92511625D01*
X105050798Y-92451670D01*
X105104211Y-92408117D01*
X105127573Y-92395158D01*
X105216113Y-92372909D01*
X105293468Y-92395873D01*
X105353493Y-92453044D01*
X105390046Y-92533417D01*
X105396982Y-92625985D01*
X105492655Y-92625985D01*
X105493884Y-92620796D01*
X105475536Y-92482223D01*
X105460476Y-92440697D01*
X105393620Y-92343322D01*
X105300147Y-92285918D01*
X105193809Y-92269006D01*
X105088356Y-92293104D01*
G37*
X105088356Y-92293104D02*
X104997539Y-92358733D01*
X104954071Y-92421555D01*
X104913551Y-92545446D01*
X104915408Y-92663350D01*
X104952286Y-92767958D01*
X105016825Y-92851960D01*
X105101667Y-92908044D01*
X105199453Y-92928901D01*
X105302824Y-92907219D01*
X105387297Y-92851944D01*
X105463770Y-92747977D01*
X105492655Y-92625985D01*
X105396982Y-92625985D01*
X105368156Y-92719743D01*
X105335312Y-92767278D01*
X105268443Y-92806564D01*
X105180398Y-92813713D01*
X105096585Y-92788468D01*
X105070722Y-92769959D01*
X105028992Y-92694680D01*
X105019543Y-92607681D01*
X105025914Y-92511625D01*
X105050798Y-92451670D01*
X105104211Y-92408117D01*
X105127573Y-92395158D01*
X105216113Y-92372909D01*
X105293468Y-92395873D01*
X105353493Y-92453044D01*
X105390046Y-92533417D01*
X105396982Y-92625985D01*
X105492655Y-92625985D01*
X105493884Y-92620796D01*
X105475536Y-92482223D01*
X105460476Y-92440697D01*
X105393620Y-92343322D01*
X105300147Y-92285918D01*
X105193809Y-92269006D01*
X105088356Y-92293104D01*
G36*
X104701433Y-92008589D02*
G01*
X104688451Y-92046286D01*
X104682051Y-92121210D01*
X104680444Y-92233407D01*
X104678247Y-92343740D01*
X104672397Y-92431493D01*
X104664012Y-92482094D01*
X104660943Y-92488093D01*
X104632796Y-92479769D01*
X104577586Y-92439278D01*
X104507169Y-92375338D01*
X104505898Y-92374087D01*
X104418910Y-92296293D01*
X104362658Y-92264737D01*
X104341899Y-92269034D01*
X104341075Y-92306602D01*
X104389068Y-92369893D01*
X104412278Y-92393280D01*
X104469942Y-92453753D01*
X104505554Y-92499927D01*
X104511111Y-92513307D01*
X104496391Y-92547395D01*
X104457786Y-92613564D01*
X104403624Y-92697545D01*
X104403137Y-92698271D01*
X104332484Y-92803873D01*
X104289698Y-92871160D01*
X104271310Y-92908765D01*
X104273849Y-92925317D01*
X104293847Y-92929450D01*
X104310160Y-92929555D01*
X104359948Y-92905790D01*
X104423195Y-92832722D01*
X104471060Y-92760222D01*
X104525779Y-92676519D01*
X104571176Y-92615989D01*
X104597930Y-92590990D01*
X104598796Y-92590889D01*
X104634632Y-92616542D01*
X104663226Y-92683278D01*
X104678985Y-92775757D01*
X104680444Y-92814811D01*
X104687210Y-92894003D01*
X104709725Y-92927153D01*
X104722777Y-92929555D01*
X104738670Y-92922168D01*
X104750116Y-92894994D01*
X104757799Y-92840516D01*
X104762402Y-92751213D01*
X104764609Y-92619569D01*
X104765111Y-92463889D01*
X104764439Y-92289068D01*
X104761969Y-92163161D01*
X104757016Y-92078652D01*
X104748898Y-92028020D01*
X104736930Y-92003748D01*
X104722777Y-91998222D01*
X104701433Y-92008589D01*
G37*
X104701433Y-92008589D02*
X104688451Y-92046286D01*
X104682051Y-92121210D01*
X104680444Y-92233407D01*
X104678247Y-92343740D01*
X104672397Y-92431493D01*
X104664012Y-92482094D01*
X104660943Y-92488093D01*
X104632796Y-92479769D01*
X104577586Y-92439278D01*
X104507169Y-92375338D01*
X104505898Y-92374087D01*
X104418910Y-92296293D01*
X104362658Y-92264737D01*
X104341899Y-92269034D01*
X104341075Y-92306602D01*
X104389068Y-92369893D01*
X104412278Y-92393280D01*
X104469942Y-92453753D01*
X104505554Y-92499927D01*
X104511111Y-92513307D01*
X104496391Y-92547395D01*
X104457786Y-92613564D01*
X104403624Y-92697545D01*
X104403137Y-92698271D01*
X104332484Y-92803873D01*
X104289698Y-92871160D01*
X104271310Y-92908765D01*
X104273849Y-92925317D01*
X104293847Y-92929450D01*
X104310160Y-92929555D01*
X104359948Y-92905790D01*
X104423195Y-92832722D01*
X104471060Y-92760222D01*
X104525779Y-92676519D01*
X104571176Y-92615989D01*
X104597930Y-92590990D01*
X104598796Y-92590889D01*
X104634632Y-92616542D01*
X104663226Y-92683278D01*
X104678985Y-92775757D01*
X104680444Y-92814811D01*
X104687210Y-92894003D01*
X104709725Y-92927153D01*
X104722777Y-92929555D01*
X104738670Y-92922168D01*
X104750116Y-92894994D01*
X104757799Y-92840516D01*
X104762402Y-92751213D01*
X104764609Y-92619569D01*
X104765111Y-92463889D01*
X104764439Y-92289068D01*
X104761969Y-92163161D01*
X104757016Y-92078652D01*
X104748898Y-92028020D01*
X104736930Y-92003748D01*
X104722777Y-91998222D01*
X104701433Y-92008589D01*
G36*
X123691035Y-89305628D02*
G01*
X123574096Y-89332432D01*
X123366969Y-89399469D01*
X123194614Y-89487924D01*
X123036384Y-89608516D01*
X123028344Y-89615697D01*
X122955546Y-89679156D01*
X122899784Y-89724076D01*
X122873762Y-89740444D01*
X122865326Y-89714490D01*
X122857165Y-89645672D01*
X122850771Y-89547558D01*
X122849687Y-89521722D01*
X122841444Y-89303000D01*
X122672111Y-89303000D01*
X122672111Y-91731406D01*
X122763371Y-91916728D01*
X122889604Y-92114356D01*
X123058818Y-92290941D01*
X123258229Y-92434171D01*
X123351353Y-92483036D01*
X123463147Y-92530295D01*
X123564916Y-92558725D01*
X123681388Y-92573859D01*
X123781982Y-92579394D01*
X123909649Y-92580567D01*
X124029755Y-92575288D01*
X124120648Y-92564663D01*
X124136344Y-92561283D01*
X124286357Y-92506699D01*
X124443705Y-92420789D01*
X124596404Y-92313099D01*
X124732473Y-92193174D01*
X124839929Y-92070560D01*
X124906791Y-91954804D01*
X124910620Y-91944440D01*
X124926487Y-91880116D01*
X124910585Y-91840431D01*
X124879647Y-91815237D01*
X124810726Y-91778651D01*
X124759194Y-91786555D01*
X124712136Y-91843309D01*
X124692902Y-91878278D01*
X124613256Y-91994799D01*
X124498786Y-92115087D01*
X124367202Y-92222262D01*
X124266666Y-92284548D01*
X124199993Y-92315538D01*
X124132790Y-92335229D01*
X124049570Y-92346054D01*
X123934846Y-92350444D01*
X123843333Y-92351000D01*
X123702235Y-92349362D01*
X123601678Y-92342759D01*
X123525814Y-92328659D01*
X123458792Y-92304526D01*
X123412084Y-92282068D01*
X123217917Y-92152381D01*
X123060456Y-91984003D01*
X122945252Y-91785051D01*
X122877857Y-91563641D01*
X122866848Y-91484972D01*
X122856646Y-91355230D01*
X122859600Y-91277188D01*
X122879358Y-91246909D01*
X122919569Y-91260455D01*
X122983881Y-91313887D01*
X123005996Y-91334781D01*
X123098947Y-91410884D01*
X123217141Y-91490308D01*
X123324907Y-91550587D01*
X123413530Y-91592602D01*
X123485767Y-91619951D01*
X123558269Y-91635768D01*
X123647685Y-91643190D01*
X123770665Y-91645350D01*
X123828629Y-91645444D01*
X123972229Y-91644052D01*
X124075641Y-91638130D01*
X124155091Y-91625064D01*
X124226803Y-91602236D01*
X124302852Y-91568979D01*
X124526365Y-91435476D01*
X124709283Y-91266975D01*
X124849547Y-91069721D01*
X124945096Y-90849961D01*
X124993873Y-90613939D01*
X124993843Y-90478830D01*
X124789250Y-90478830D01*
X124774559Y-90678483D01*
X124722779Y-90852974D01*
X124601389Y-91062087D01*
X124446307Y-91228061D01*
X124262805Y-91348596D01*
X124056152Y-91421392D01*
X123831619Y-91444152D01*
X123594476Y-91414576D01*
X123497285Y-91387581D01*
X123359913Y-91320703D01*
X123219933Y-91213571D01*
X123091712Y-91079762D01*
X122989616Y-90932854D01*
X122963997Y-90883583D01*
X122900706Y-90689119D01*
X122880264Y-90474844D01*
X122903158Y-90258247D01*
X122942744Y-90121182D01*
X123019184Y-89975939D01*
X123133532Y-89830469D01*
X123269911Y-89701661D01*
X123412445Y-89606407D01*
X123438646Y-89593617D01*
X123580994Y-89550061D01*
X123753356Y-89529126D01*
X123934398Y-89530839D01*
X124102788Y-89555225D01*
X124217530Y-89592645D01*
X124392811Y-89700131D01*
X124549754Y-89848399D01*
X124672957Y-90021864D01*
X124705693Y-90086609D01*
X124766156Y-90275278D01*
X124789250Y-90478830D01*
X124993843Y-90478830D01*
X124993817Y-90367899D01*
X124942870Y-90118089D01*
X124853601Y-89898713D01*
X124727853Y-89712597D01*
X124556843Y-89553862D01*
X124347022Y-89427258D01*
X124104835Y-89337534D01*
X124084348Y-89332116D01*
X123937963Y-89300444D01*
X123815944Y-89291609D01*
X123691035Y-89305628D01*
G37*
X123691035Y-89305628D02*
X123574096Y-89332432D01*
X123366969Y-89399469D01*
X123194614Y-89487924D01*
X123036384Y-89608516D01*
X123028344Y-89615697D01*
X122955546Y-89679156D01*
X122899784Y-89724076D01*
X122873762Y-89740444D01*
X122865326Y-89714490D01*
X122857165Y-89645672D01*
X122850771Y-89547558D01*
X122849687Y-89521722D01*
X122841444Y-89303000D01*
X122672111Y-89303000D01*
X122672111Y-91731406D01*
X122763371Y-91916728D01*
X122889604Y-92114356D01*
X123058818Y-92290941D01*
X123258229Y-92434171D01*
X123351353Y-92483036D01*
X123463147Y-92530295D01*
X123564916Y-92558725D01*
X123681388Y-92573859D01*
X123781982Y-92579394D01*
X123909649Y-92580567D01*
X124029755Y-92575288D01*
X124120648Y-92564663D01*
X124136344Y-92561283D01*
X124286357Y-92506699D01*
X124443705Y-92420789D01*
X124596404Y-92313099D01*
X124732473Y-92193174D01*
X124839929Y-92070560D01*
X124906791Y-91954804D01*
X124910620Y-91944440D01*
X124926487Y-91880116D01*
X124910585Y-91840431D01*
X124879647Y-91815237D01*
X124810726Y-91778651D01*
X124759194Y-91786555D01*
X124712136Y-91843309D01*
X124692902Y-91878278D01*
X124613256Y-91994799D01*
X124498786Y-92115087D01*
X124367202Y-92222262D01*
X124266666Y-92284548D01*
X124199993Y-92315538D01*
X124132790Y-92335229D01*
X124049570Y-92346054D01*
X123934846Y-92350444D01*
X123843333Y-92351000D01*
X123702235Y-92349362D01*
X123601678Y-92342759D01*
X123525814Y-92328659D01*
X123458792Y-92304526D01*
X123412084Y-92282068D01*
X123217917Y-92152381D01*
X123060456Y-91984003D01*
X122945252Y-91785051D01*
X122877857Y-91563641D01*
X122866848Y-91484972D01*
X122856646Y-91355230D01*
X122859600Y-91277188D01*
X122879358Y-91246909D01*
X122919569Y-91260455D01*
X122983881Y-91313887D01*
X123005996Y-91334781D01*
X123098947Y-91410884D01*
X123217141Y-91490308D01*
X123324907Y-91550587D01*
X123413530Y-91592602D01*
X123485767Y-91619951D01*
X123558269Y-91635768D01*
X123647685Y-91643190D01*
X123770665Y-91645350D01*
X123828629Y-91645444D01*
X123972229Y-91644052D01*
X124075641Y-91638130D01*
X124155091Y-91625064D01*
X124226803Y-91602236D01*
X124302852Y-91568979D01*
X124526365Y-91435476D01*
X124709283Y-91266975D01*
X124849547Y-91069721D01*
X124945096Y-90849961D01*
X124993873Y-90613939D01*
X124993843Y-90478830D01*
X124789250Y-90478830D01*
X124774559Y-90678483D01*
X124722779Y-90852974D01*
X124601389Y-91062087D01*
X124446307Y-91228061D01*
X124262805Y-91348596D01*
X124056152Y-91421392D01*
X123831619Y-91444152D01*
X123594476Y-91414576D01*
X123497285Y-91387581D01*
X123359913Y-91320703D01*
X123219933Y-91213571D01*
X123091712Y-91079762D01*
X122989616Y-90932854D01*
X122963997Y-90883583D01*
X122900706Y-90689119D01*
X122880264Y-90474844D01*
X122903158Y-90258247D01*
X122942744Y-90121182D01*
X123019184Y-89975939D01*
X123133532Y-89830469D01*
X123269911Y-89701661D01*
X123412445Y-89606407D01*
X123438646Y-89593617D01*
X123580994Y-89550061D01*
X123753356Y-89529126D01*
X123934398Y-89530839D01*
X124102788Y-89555225D01*
X124217530Y-89592645D01*
X124392811Y-89700131D01*
X124549754Y-89848399D01*
X124672957Y-90021864D01*
X124705693Y-90086609D01*
X124766156Y-90275278D01*
X124789250Y-90478830D01*
X124993843Y-90478830D01*
X124993817Y-90367899D01*
X124942870Y-90118089D01*
X124853601Y-89898713D01*
X124727853Y-89712597D01*
X124556843Y-89553862D01*
X124347022Y-89427258D01*
X124104835Y-89337534D01*
X124084348Y-89332116D01*
X123937963Y-89300444D01*
X123815944Y-89291609D01*
X123691035Y-89305628D01*
G36*
X128507055Y-88487771D02*
G01*
X128496022Y-88497843D01*
X128486706Y-88516049D01*
X128478931Y-88546988D01*
X128472524Y-88595257D01*
X128467309Y-88665454D01*
X128463111Y-88762177D01*
X128459754Y-88890023D01*
X128457064Y-89053589D01*
X128454866Y-89257474D01*
X128452983Y-89506276D01*
X128451242Y-89804591D01*
X128450357Y-89976349D01*
X128448820Y-90257454D01*
X128447133Y-90520957D01*
X128445348Y-90761570D01*
X128443514Y-90974005D01*
X128441684Y-91152974D01*
X128439909Y-91293190D01*
X128438238Y-91389365D01*
X128436724Y-91436212D01*
X128436246Y-91439971D01*
X128407485Y-91441751D01*
X128328506Y-91444133D01*
X128205532Y-91446995D01*
X128044786Y-91450211D01*
X127852489Y-91453658D01*
X127634864Y-91457214D01*
X127398133Y-91460754D01*
X127371111Y-91461138D01*
X126312777Y-91476111D01*
X126312777Y-91645444D01*
X127477710Y-91652814D01*
X127777116Y-91654364D01*
X128024374Y-91654811D01*
X128223772Y-91654051D01*
X128379595Y-91651982D01*
X128496131Y-91648502D01*
X128577667Y-91643508D01*
X128628491Y-91636896D01*
X128652889Y-91628565D01*
X128656264Y-91624591D01*
X128658699Y-91590379D01*
X128660730Y-91505007D01*
X128662336Y-91373756D01*
X128663495Y-91201911D01*
X128664187Y-90994752D01*
X128664390Y-90757564D01*
X128664083Y-90495628D01*
X128663245Y-90214228D01*
X128662554Y-90053960D01*
X128660859Y-89719580D01*
X128659122Y-89437167D01*
X128657181Y-89202247D01*
X128654875Y-89010343D01*
X128652040Y-88856978D01*
X128648515Y-88737678D01*
X128644138Y-88647965D01*
X128638747Y-88583363D01*
X128632179Y-88539398D01*
X128624273Y-88511591D01*
X128614866Y-88495468D01*
X128605833Y-88487771D01*
X128545196Y-88471701D01*
X128507055Y-88487771D01*
G37*
X128507055Y-88487771D02*
X128496022Y-88497843D01*
X128486706Y-88516049D01*
X128478931Y-88546988D01*
X128472524Y-88595257D01*
X128467309Y-88665454D01*
X128463111Y-88762177D01*
X128459754Y-88890023D01*
X128457064Y-89053589D01*
X128454866Y-89257474D01*
X128452983Y-89506276D01*
X128451242Y-89804591D01*
X128450357Y-89976349D01*
X128448820Y-90257454D01*
X128447133Y-90520957D01*
X128445348Y-90761570D01*
X128443514Y-90974005D01*
X128441684Y-91152974D01*
X128439909Y-91293190D01*
X128438238Y-91389365D01*
X128436724Y-91436212D01*
X128436246Y-91439971D01*
X128407485Y-91441751D01*
X128328506Y-91444133D01*
X128205532Y-91446995D01*
X128044786Y-91450211D01*
X127852489Y-91453658D01*
X127634864Y-91457214D01*
X127398133Y-91460754D01*
X127371111Y-91461138D01*
X126312777Y-91476111D01*
X126312777Y-91645444D01*
X127477710Y-91652814D01*
X127777116Y-91654364D01*
X128024374Y-91654811D01*
X128223772Y-91654051D01*
X128379595Y-91651982D01*
X128496131Y-91648502D01*
X128577667Y-91643508D01*
X128628491Y-91636896D01*
X128652889Y-91628565D01*
X128656264Y-91624591D01*
X128658699Y-91590379D01*
X128660730Y-91505007D01*
X128662336Y-91373756D01*
X128663495Y-91201911D01*
X128664187Y-90994752D01*
X128664390Y-90757564D01*
X128664083Y-90495628D01*
X128663245Y-90214228D01*
X128662554Y-90053960D01*
X128660859Y-89719580D01*
X128659122Y-89437167D01*
X128657181Y-89202247D01*
X128654875Y-89010343D01*
X128652040Y-88856978D01*
X128648515Y-88737678D01*
X128644138Y-88647965D01*
X128638747Y-88583363D01*
X128632179Y-88539398D01*
X128624273Y-88511591D01*
X128614866Y-88495468D01*
X128605833Y-88487771D01*
X128545196Y-88471701D01*
X128507055Y-88487771D01*
G36*
X125619752Y-89293264D02*
G01*
X125550777Y-89303000D01*
X125550777Y-91645444D01*
X125638812Y-91654013D01*
X125704329Y-91651953D01*
X125736177Y-91621364D01*
X125744260Y-91597568D01*
X125748186Y-91555384D01*
X125751822Y-91463384D01*
X125755066Y-91328197D01*
X125757813Y-91156452D01*
X125759961Y-90954777D01*
X125761405Y-90729801D01*
X125762042Y-90488153D01*
X125762059Y-90458449D01*
X125761977Y-90169030D01*
X125761103Y-89931119D01*
X125758835Y-89739782D01*
X125754568Y-89590083D01*
X125747701Y-89477086D01*
X125737630Y-89395858D01*
X125723754Y-89341462D01*
X125705468Y-89308962D01*
X125682171Y-89293425D01*
X125653260Y-89289914D01*
X125619752Y-89293264D01*
G37*
X125619752Y-89293264D02*
X125550777Y-89303000D01*
X125550777Y-91645444D01*
X125638812Y-91654013D01*
X125704329Y-91651953D01*
X125736177Y-91621364D01*
X125744260Y-91597568D01*
X125748186Y-91555384D01*
X125751822Y-91463384D01*
X125755066Y-91328197D01*
X125757813Y-91156452D01*
X125759961Y-90954777D01*
X125761405Y-90729801D01*
X125762042Y-90488153D01*
X125762059Y-90458449D01*
X125761977Y-90169030D01*
X125761103Y-89931119D01*
X125758835Y-89739782D01*
X125754568Y-89590083D01*
X125747701Y-89477086D01*
X125737630Y-89395858D01*
X125723754Y-89341462D01*
X125705468Y-89308962D01*
X125682171Y-89293425D01*
X125653260Y-89289914D01*
X125619752Y-89293264D01*
G36*
X121931277Y-88261979D02*
G01*
X121915801Y-88276272D01*
X121903740Y-88301769D01*
X121894566Y-88345229D01*
X121887751Y-88413412D01*
X121882766Y-88513079D01*
X121879084Y-88650988D01*
X121876175Y-88833900D01*
X121874336Y-88990518D01*
X121866783Y-89687921D01*
X121733225Y-89570236D01*
X121624138Y-89480126D01*
X121527269Y-89418188D01*
X121421122Y-89373552D01*
X121284201Y-89335345D01*
X121255061Y-89328413D01*
X121015959Y-89299876D01*
X120783669Y-89324712D01*
X120564773Y-89399848D01*
X120365854Y-89522213D01*
X120193496Y-89688734D01*
X120059698Y-89886235D01*
X119962777Y-90065000D01*
X119954110Y-90862278D01*
X119945442Y-91659555D01*
X120140146Y-91659555D01*
X120151353Y-90918722D01*
X120155698Y-90671638D01*
X120161528Y-90473324D01*
X120170476Y-90316107D01*
X120184172Y-90192313D01*
X120204248Y-90094268D01*
X120232334Y-90014299D01*
X120270063Y-89944731D01*
X120319064Y-89877892D01*
X120380970Y-89806107D01*
X120389987Y-89796082D01*
X120549079Y-89657998D01*
X120728121Y-89567745D01*
X120919047Y-89524158D01*
X121113788Y-89526069D01*
X121304277Y-89572311D01*
X121482446Y-89661718D01*
X121640226Y-89793121D01*
X121769551Y-89965355D01*
X121787963Y-89998306D01*
X121807650Y-90037489D01*
X121823145Y-90077456D01*
X121835110Y-90125551D01*
X121844207Y-90189118D01*
X121851098Y-90275499D01*
X121856446Y-90392038D01*
X121860912Y-90546079D01*
X121865159Y-90744965D01*
X121867777Y-90883444D01*
X121881889Y-91645444D01*
X121973805Y-91654302D01*
X122047698Y-91650048D01*
X122079907Y-91626080D01*
X122082366Y-91591799D01*
X122084443Y-91506169D01*
X122086119Y-91374283D01*
X122087372Y-91201236D01*
X122088181Y-90992121D01*
X122088526Y-90752032D01*
X122088385Y-90486064D01*
X122087739Y-90199310D01*
X122086768Y-89941072D01*
X122085136Y-89593729D01*
X122083473Y-89298516D01*
X122081634Y-89051116D01*
X122079474Y-88847215D01*
X122076845Y-88682497D01*
X122073604Y-88552646D01*
X122069604Y-88453349D01*
X122064699Y-88380288D01*
X122058743Y-88329150D01*
X122051591Y-88295618D01*
X122043097Y-88275378D01*
X122033115Y-88264113D01*
X122030055Y-88261994D01*
X121969391Y-88245927D01*
X121931277Y-88261979D01*
G37*
X121931277Y-88261979D02*
X121915801Y-88276272D01*
X121903740Y-88301769D01*
X121894566Y-88345229D01*
X121887751Y-88413412D01*
X121882766Y-88513079D01*
X121879084Y-88650988D01*
X121876175Y-88833900D01*
X121874336Y-88990518D01*
X121866783Y-89687921D01*
X121733225Y-89570236D01*
X121624138Y-89480126D01*
X121527269Y-89418188D01*
X121421122Y-89373552D01*
X121284201Y-89335345D01*
X121255061Y-89328413D01*
X121015959Y-89299876D01*
X120783669Y-89324712D01*
X120564773Y-89399848D01*
X120365854Y-89522213D01*
X120193496Y-89688734D01*
X120059698Y-89886235D01*
X119962777Y-90065000D01*
X119954110Y-90862278D01*
X119945442Y-91659555D01*
X120140146Y-91659555D01*
X120151353Y-90918722D01*
X120155698Y-90671638D01*
X120161528Y-90473324D01*
X120170476Y-90316107D01*
X120184172Y-90192313D01*
X120204248Y-90094268D01*
X120232334Y-90014299D01*
X120270063Y-89944731D01*
X120319064Y-89877892D01*
X120380970Y-89806107D01*
X120389987Y-89796082D01*
X120549079Y-89657998D01*
X120728121Y-89567745D01*
X120919047Y-89524158D01*
X121113788Y-89526069D01*
X121304277Y-89572311D01*
X121482446Y-89661718D01*
X121640226Y-89793121D01*
X121769551Y-89965355D01*
X121787963Y-89998306D01*
X121807650Y-90037489D01*
X121823145Y-90077456D01*
X121835110Y-90125551D01*
X121844207Y-90189118D01*
X121851098Y-90275499D01*
X121856446Y-90392038D01*
X121860912Y-90546079D01*
X121865159Y-90744965D01*
X121867777Y-90883444D01*
X121881889Y-91645444D01*
X121973805Y-91654302D01*
X122047698Y-91650048D01*
X122079907Y-91626080D01*
X122082366Y-91591799D01*
X122084443Y-91506169D01*
X122086119Y-91374283D01*
X122087372Y-91201236D01*
X122088181Y-90992121D01*
X122088526Y-90752032D01*
X122088385Y-90486064D01*
X122087739Y-90199310D01*
X122086768Y-89941072D01*
X122085136Y-89593729D01*
X122083473Y-89298516D01*
X122081634Y-89051116D01*
X122079474Y-88847215D01*
X122076845Y-88682497D01*
X122073604Y-88552646D01*
X122069604Y-88453349D01*
X122064699Y-88380288D01*
X122058743Y-88329150D01*
X122051591Y-88295618D01*
X122043097Y-88275378D01*
X122033115Y-88264113D01*
X122030055Y-88261994D01*
X121969391Y-88245927D01*
X121931277Y-88261979D01*
G36*
X118967310Y-88773185D02*
G01*
X118959620Y-89287591D01*
X118459310Y-89295296D01*
X117959000Y-89303000D01*
X117959000Y-89500555D01*
X118452889Y-89514667D01*
X118946777Y-89528778D01*
X118954622Y-90276667D01*
X118956510Y-90530554D01*
X118955573Y-90734767D01*
X118950748Y-90896048D01*
X118940976Y-91021139D01*
X118925194Y-91116781D01*
X118902340Y-91189718D01*
X118871354Y-91246692D01*
X118831173Y-91294445D01*
X118788244Y-91333455D01*
X118668178Y-91406260D01*
X118534074Y-91442464D01*
X118400740Y-91441661D01*
X118282982Y-91403444D01*
X118213107Y-91349230D01*
X118142152Y-91299494D01*
X118070500Y-91306194D01*
X118012763Y-91352222D01*
X117983296Y-91388715D01*
X117980449Y-91417667D01*
X118009779Y-91454283D01*
X118069487Y-91507403D01*
X118224713Y-91606343D01*
X118398254Y-91655162D01*
X118580479Y-91652778D01*
X118761755Y-91598109D01*
X118783717Y-91587620D01*
X118923132Y-91496305D01*
X119038498Y-91369082D01*
X119104656Y-91264444D01*
X119117015Y-91229706D01*
X119127324Y-91169873D01*
X119135904Y-91079546D01*
X119143077Y-90953325D01*
X119149166Y-90785810D01*
X119154490Y-90571602D01*
X119158444Y-90361333D01*
X119172555Y-89528778D01*
X119277001Y-89520101D01*
X119364846Y-89494587D01*
X119406134Y-89437447D01*
X119399826Y-89350176D01*
X119398333Y-89345333D01*
X119371609Y-89306413D01*
X119314073Y-89290481D01*
X119270068Y-89288889D01*
X119159717Y-89288889D01*
X119152025Y-88773833D01*
X119144333Y-88258778D01*
X118975000Y-88258778D01*
X118967310Y-88773185D01*
G37*
X118967310Y-88773185D02*
X118959620Y-89287591D01*
X118459310Y-89295296D01*
X117959000Y-89303000D01*
X117959000Y-89500555D01*
X118452889Y-89514667D01*
X118946777Y-89528778D01*
X118954622Y-90276667D01*
X118956510Y-90530554D01*
X118955573Y-90734767D01*
X118950748Y-90896048D01*
X118940976Y-91021139D01*
X118925194Y-91116781D01*
X118902340Y-91189718D01*
X118871354Y-91246692D01*
X118831173Y-91294445D01*
X118788244Y-91333455D01*
X118668178Y-91406260D01*
X118534074Y-91442464D01*
X118400740Y-91441661D01*
X118282982Y-91403444D01*
X118213107Y-91349230D01*
X118142152Y-91299494D01*
X118070500Y-91306194D01*
X118012763Y-91352222D01*
X117983296Y-91388715D01*
X117980449Y-91417667D01*
X118009779Y-91454283D01*
X118069487Y-91507403D01*
X118224713Y-91606343D01*
X118398254Y-91655162D01*
X118580479Y-91652778D01*
X118761755Y-91598109D01*
X118783717Y-91587620D01*
X118923132Y-91496305D01*
X119038498Y-91369082D01*
X119104656Y-91264444D01*
X119117015Y-91229706D01*
X119127324Y-91169873D01*
X119135904Y-91079546D01*
X119143077Y-90953325D01*
X119149166Y-90785810D01*
X119154490Y-90571602D01*
X119158444Y-90361333D01*
X119172555Y-89528778D01*
X119277001Y-89520101D01*
X119364846Y-89494587D01*
X119406134Y-89437447D01*
X119399826Y-89350176D01*
X119398333Y-89345333D01*
X119371609Y-89306413D01*
X119314073Y-89290481D01*
X119270068Y-89288889D01*
X119159717Y-89288889D01*
X119152025Y-88773833D01*
X119144333Y-88258778D01*
X118975000Y-88258778D01*
X118967310Y-88773185D01*
G36*
X114337799Y-88475898D02*
G01*
X114233666Y-88484555D01*
X114226376Y-90072055D01*
X114219085Y-91659555D01*
X114315079Y-91659555D01*
X114395113Y-91646055D01*
X114428202Y-91614914D01*
X114431741Y-91578199D01*
X114435032Y-91490930D01*
X114438000Y-91359000D01*
X114440569Y-91188298D01*
X114442661Y-90984716D01*
X114444200Y-90754146D01*
X114445110Y-90502477D01*
X114445333Y-90296936D01*
X114445885Y-89999793D01*
X114447494Y-89736486D01*
X114450084Y-89510567D01*
X114453584Y-89325585D01*
X114457920Y-89185091D01*
X114463018Y-89092635D01*
X114468805Y-89051766D01*
X114471088Y-89050411D01*
X114490605Y-89084115D01*
X114532879Y-89167817D01*
X114597265Y-89300153D01*
X114683116Y-89479757D01*
X114789787Y-89705264D01*
X114916633Y-89975307D01*
X115063008Y-90288522D01*
X115228266Y-90643542D01*
X115411762Y-91039003D01*
X115441024Y-91102167D01*
X115699195Y-91659555D01*
X115933126Y-91659555D01*
X116252225Y-90975167D01*
X116359124Y-90745892D01*
X116478233Y-90490425D01*
X116601300Y-90226466D01*
X116720073Y-89971714D01*
X116826301Y-89743867D01*
X116860791Y-89669889D01*
X116942080Y-89497506D01*
X117016465Y-89343512D01*
X117080427Y-89214891D01*
X117130446Y-89118627D01*
X117163005Y-89061704D01*
X117173629Y-89049000D01*
X117178533Y-89076296D01*
X117183400Y-89154481D01*
X117188098Y-89277998D01*
X117192497Y-89441292D01*
X117196465Y-89638807D01*
X117199873Y-89864987D01*
X117202589Y-90114276D01*
X117204337Y-90354278D01*
X117211675Y-91659555D01*
X117409136Y-91659555D01*
X117401846Y-90072055D01*
X117394555Y-88484555D01*
X117281666Y-88484555D01*
X117257555Y-88482620D01*
X117237840Y-88479351D01*
X117220435Y-88478559D01*
X117203253Y-88484053D01*
X117184207Y-88499640D01*
X117161210Y-88529130D01*
X117132176Y-88576333D01*
X117095017Y-88645055D01*
X117047647Y-88739108D01*
X116987979Y-88862298D01*
X116913927Y-89018436D01*
X116823403Y-89211330D01*
X116714320Y-89444789D01*
X116584592Y-89722622D01*
X116475522Y-89955935D01*
X116334807Y-90256728D01*
X116216095Y-90510310D01*
X116117390Y-90720556D01*
X116036694Y-90891344D01*
X115972012Y-91026549D01*
X115921345Y-91130048D01*
X115882698Y-91205716D01*
X115854074Y-91257431D01*
X115833475Y-91289069D01*
X115818906Y-91304506D01*
X115808368Y-91307618D01*
X115799866Y-91302281D01*
X115791403Y-91292373D01*
X115788705Y-91289236D01*
X115766404Y-91252284D01*
X115725020Y-91172644D01*
X115668844Y-91059004D01*
X115602167Y-90920052D01*
X115529280Y-90764477D01*
X115525562Y-90756444D01*
X115343785Y-90363591D01*
X115184202Y-90018925D01*
X115045373Y-89719377D01*
X114925860Y-89461875D01*
X114824226Y-89243348D01*
X114739031Y-89060725D01*
X114668837Y-88910935D01*
X114612206Y-88790906D01*
X114567700Y-88697568D01*
X114533880Y-88627849D01*
X114509308Y-88578679D01*
X114492546Y-88546985D01*
X114483916Y-88532342D01*
X114441227Y-88487562D01*
X114379353Y-88474074D01*
X114337799Y-88475898D01*
G37*
X114337799Y-88475898D02*
X114233666Y-88484555D01*
X114226376Y-90072055D01*
X114219085Y-91659555D01*
X114315079Y-91659555D01*
X114395113Y-91646055D01*
X114428202Y-91614914D01*
X114431741Y-91578199D01*
X114435032Y-91490930D01*
X114438000Y-91359000D01*
X114440569Y-91188298D01*
X114442661Y-90984716D01*
X114444200Y-90754146D01*
X114445110Y-90502477D01*
X114445333Y-90296936D01*
X114445885Y-89999793D01*
X114447494Y-89736486D01*
X114450084Y-89510567D01*
X114453584Y-89325585D01*
X114457920Y-89185091D01*
X114463018Y-89092635D01*
X114468805Y-89051766D01*
X114471088Y-89050411D01*
X114490605Y-89084115D01*
X114532879Y-89167817D01*
X114597265Y-89300153D01*
X114683116Y-89479757D01*
X114789787Y-89705264D01*
X114916633Y-89975307D01*
X115063008Y-90288522D01*
X115228266Y-90643542D01*
X115411762Y-91039003D01*
X115441024Y-91102167D01*
X115699195Y-91659555D01*
X115933126Y-91659555D01*
X116252225Y-90975167D01*
X116359124Y-90745892D01*
X116478233Y-90490425D01*
X116601300Y-90226466D01*
X116720073Y-89971714D01*
X116826301Y-89743867D01*
X116860791Y-89669889D01*
X116942080Y-89497506D01*
X117016465Y-89343512D01*
X117080427Y-89214891D01*
X117130446Y-89118627D01*
X117163005Y-89061704D01*
X117173629Y-89049000D01*
X117178533Y-89076296D01*
X117183400Y-89154481D01*
X117188098Y-89277998D01*
X117192497Y-89441292D01*
X117196465Y-89638807D01*
X117199873Y-89864987D01*
X117202589Y-90114276D01*
X117204337Y-90354278D01*
X117211675Y-91659555D01*
X117409136Y-91659555D01*
X117401846Y-90072055D01*
X117394555Y-88484555D01*
X117281666Y-88484555D01*
X117257555Y-88482620D01*
X117237840Y-88479351D01*
X117220435Y-88478559D01*
X117203253Y-88484053D01*
X117184207Y-88499640D01*
X117161210Y-88529130D01*
X117132176Y-88576333D01*
X117095017Y-88645055D01*
X117047647Y-88739108D01*
X116987979Y-88862298D01*
X116913927Y-89018436D01*
X116823403Y-89211330D01*
X116714320Y-89444789D01*
X116584592Y-89722622D01*
X116475522Y-89955935D01*
X116334807Y-90256728D01*
X116216095Y-90510310D01*
X116117390Y-90720556D01*
X116036694Y-90891344D01*
X115972012Y-91026549D01*
X115921345Y-91130048D01*
X115882698Y-91205716D01*
X115854074Y-91257431D01*
X115833475Y-91289069D01*
X115818906Y-91304506D01*
X115808368Y-91307618D01*
X115799866Y-91302281D01*
X115791403Y-91292373D01*
X115788705Y-91289236D01*
X115766404Y-91252284D01*
X115725020Y-91172644D01*
X115668844Y-91059004D01*
X115602167Y-90920052D01*
X115529280Y-90764477D01*
X115525562Y-90756444D01*
X115343785Y-90363591D01*
X115184202Y-90018925D01*
X115045373Y-89719377D01*
X114925860Y-89461875D01*
X114824226Y-89243348D01*
X114739031Y-89060725D01*
X114668837Y-88910935D01*
X114612206Y-88790906D01*
X114567700Y-88697568D01*
X114533880Y-88627849D01*
X114509308Y-88578679D01*
X114492546Y-88546985D01*
X114483916Y-88532342D01*
X114441227Y-88487562D01*
X114379353Y-88474074D01*
X114337799Y-88475898D01*
G36*
X113452119Y-89317206D02*
G01*
X113430326Y-89343478D01*
X113424248Y-89382319D01*
X113418758Y-89470039D01*
X113413896Y-89599072D01*
X113409703Y-89761856D01*
X113406218Y-89950826D01*
X113403482Y-90158418D01*
X113401535Y-90377070D01*
X113400418Y-90599216D01*
X113400171Y-90817292D01*
X113400833Y-91023736D01*
X113402445Y-91210984D01*
X113405048Y-91371470D01*
X113408682Y-91497632D01*
X113413386Y-91581906D01*
X113418241Y-91614914D01*
X113455335Y-91645280D01*
X113519478Y-91659812D01*
X113582569Y-91654687D01*
X113608074Y-91640741D01*
X113612405Y-91609127D01*
X113616169Y-91528392D01*
X113619360Y-91405854D01*
X113621974Y-91248835D01*
X113624004Y-91064654D01*
X113625447Y-90860630D01*
X113626295Y-90644085D01*
X113626544Y-90422336D01*
X113626189Y-90202705D01*
X113625224Y-89992512D01*
X113623643Y-89799076D01*
X113621443Y-89629716D01*
X113618616Y-89491754D01*
X113615158Y-89392509D01*
X113611064Y-89339300D01*
X113609758Y-89333530D01*
X113570617Y-89296932D01*
X113509965Y-89291939D01*
X113452119Y-89317206D01*
G37*
X113452119Y-89317206D02*
X113430326Y-89343478D01*
X113424248Y-89382319D01*
X113418758Y-89470039D01*
X113413896Y-89599072D01*
X113409703Y-89761856D01*
X113406218Y-89950826D01*
X113403482Y-90158418D01*
X113401535Y-90377070D01*
X113400418Y-90599216D01*
X113400171Y-90817292D01*
X113400833Y-91023736D01*
X113402445Y-91210984D01*
X113405048Y-91371470D01*
X113408682Y-91497632D01*
X113413386Y-91581906D01*
X113418241Y-91614914D01*
X113455335Y-91645280D01*
X113519478Y-91659812D01*
X113582569Y-91654687D01*
X113608074Y-91640741D01*
X113612405Y-91609127D01*
X113616169Y-91528392D01*
X113619360Y-91405854D01*
X113621974Y-91248835D01*
X113624004Y-91064654D01*
X113625447Y-90860630D01*
X113626295Y-90644085D01*
X113626544Y-90422336D01*
X113626189Y-90202705D01*
X113625224Y-89992512D01*
X113623643Y-89799076D01*
X113621443Y-89629716D01*
X113618616Y-89491754D01*
X113615158Y-89392509D01*
X113611064Y-89339300D01*
X113609758Y-89333530D01*
X113570617Y-89296932D01*
X113509965Y-89291939D01*
X113452119Y-89317206D01*
G36*
X112717122Y-89302592D02*
G01*
X112691013Y-89325422D01*
X112676977Y-89376345D01*
X112667333Y-89468810D01*
X112653222Y-89634619D01*
X112519535Y-89523906D01*
X112327863Y-89398755D01*
X112122494Y-89324176D01*
X111910755Y-89298358D01*
X111699974Y-89319490D01*
X111497478Y-89385759D01*
X111310593Y-89495357D01*
X111146646Y-89646470D01*
X111012965Y-89837288D01*
X110978527Y-89904835D01*
X110903444Y-90065000D01*
X110903444Y-91645444D01*
X111101000Y-91645444D01*
X111115111Y-90855222D01*
X111119505Y-90621772D01*
X111123777Y-90437668D01*
X111128518Y-90295815D01*
X111134320Y-90189120D01*
X111141772Y-90110489D01*
X111151466Y-90052827D01*
X111163993Y-90009040D01*
X111179944Y-89972034D01*
X111190331Y-89952111D01*
X111311966Y-89779370D01*
X111462148Y-89648775D01*
X111632762Y-89561756D01*
X111815695Y-89519743D01*
X112002831Y-89524165D01*
X112186056Y-89576453D01*
X112357256Y-89678036D01*
X112422780Y-89734933D01*
X112486063Y-89797268D01*
X112536559Y-89853786D01*
X112575844Y-89911705D01*
X112605492Y-89978242D01*
X112627080Y-90060612D01*
X112642183Y-90166034D01*
X112652375Y-90301724D01*
X112659234Y-90474898D01*
X112664333Y-90692774D01*
X112667333Y-90855222D01*
X112681444Y-91645444D01*
X112767125Y-91653837D01*
X112834046Y-91653790D01*
X112872958Y-91642078D01*
X112878136Y-91609485D01*
X112882488Y-91527777D01*
X112886028Y-91404279D01*
X112888771Y-91246314D01*
X112890731Y-91061206D01*
X112891922Y-90856278D01*
X112892359Y-90638856D01*
X112892056Y-90416262D01*
X112891027Y-90195820D01*
X112889286Y-89984855D01*
X112886847Y-89790689D01*
X112883725Y-89620647D01*
X112879934Y-89482053D01*
X112875488Y-89382230D01*
X112870401Y-89328502D01*
X112868450Y-89321907D01*
X112824441Y-89296899D01*
X112763049Y-89293684D01*
X112717122Y-89302592D01*
G37*
X112717122Y-89302592D02*
X112691013Y-89325422D01*
X112676977Y-89376345D01*
X112667333Y-89468810D01*
X112653222Y-89634619D01*
X112519535Y-89523906D01*
X112327863Y-89398755D01*
X112122494Y-89324176D01*
X111910755Y-89298358D01*
X111699974Y-89319490D01*
X111497478Y-89385759D01*
X111310593Y-89495357D01*
X111146646Y-89646470D01*
X111012965Y-89837288D01*
X110978527Y-89904835D01*
X110903444Y-90065000D01*
X110903444Y-91645444D01*
X111101000Y-91645444D01*
X111115111Y-90855222D01*
X111119505Y-90621772D01*
X111123777Y-90437668D01*
X111128518Y-90295815D01*
X111134320Y-90189120D01*
X111141772Y-90110489D01*
X111151466Y-90052827D01*
X111163993Y-90009040D01*
X111179944Y-89972034D01*
X111190331Y-89952111D01*
X111311966Y-89779370D01*
X111462148Y-89648775D01*
X111632762Y-89561756D01*
X111815695Y-89519743D01*
X112002831Y-89524165D01*
X112186056Y-89576453D01*
X112357256Y-89678036D01*
X112422780Y-89734933D01*
X112486063Y-89797268D01*
X112536559Y-89853786D01*
X112575844Y-89911705D01*
X112605492Y-89978242D01*
X112627080Y-90060612D01*
X112642183Y-90166034D01*
X112652375Y-90301724D01*
X112659234Y-90474898D01*
X112664333Y-90692774D01*
X112667333Y-90855222D01*
X112681444Y-91645444D01*
X112767125Y-91653837D01*
X112834046Y-91653790D01*
X112872958Y-91642078D01*
X112878136Y-91609485D01*
X112882488Y-91527777D01*
X112886028Y-91404279D01*
X112888771Y-91246314D01*
X112890731Y-91061206D01*
X112891922Y-90856278D01*
X112892359Y-90638856D01*
X112892056Y-90416262D01*
X112891027Y-90195820D01*
X112889286Y-89984855D01*
X112886847Y-89790689D01*
X112883725Y-89620647D01*
X112879934Y-89482053D01*
X112875488Y-89382230D01*
X112870401Y-89328502D01*
X112868450Y-89321907D01*
X112824441Y-89296899D01*
X112763049Y-89293684D01*
X112717122Y-89302592D01*
G36*
X108040493Y-88257786D02*
G01*
X108033438Y-88286666D01*
X108027370Y-88364654D01*
X108022271Y-88492783D01*
X108018122Y-88672083D01*
X108014906Y-88903585D01*
X108012604Y-89188320D01*
X108011198Y-89527319D01*
X108010671Y-89921612D01*
X108010666Y-89967888D01*
X108010666Y-91659555D01*
X108208222Y-91659555D01*
X108208222Y-91447889D01*
X108210427Y-91346709D01*
X108216261Y-91271864D01*
X108224549Y-91237146D01*
X108226233Y-91236222D01*
X108254965Y-91253900D01*
X108311287Y-91299797D01*
X108369330Y-91351523D01*
X108569249Y-91499632D01*
X108793116Y-91596975D01*
X109042381Y-91644134D01*
X109106427Y-91648061D01*
X109234093Y-91649234D01*
X109354199Y-91643955D01*
X109445093Y-91633330D01*
X109460788Y-91629949D01*
X109661964Y-91554532D01*
X109855126Y-91436356D01*
X110026946Y-91286347D01*
X110164095Y-91115425D01*
X110226441Y-91002487D01*
X110310368Y-90755464D01*
X110341238Y-90509020D01*
X110339594Y-90488333D01*
X110112896Y-90488333D01*
X110111189Y-90626711D01*
X110103952Y-90724795D01*
X110088582Y-90798660D01*
X110062476Y-90864380D01*
X110047103Y-90894508D01*
X109916263Y-91088186D01*
X109752486Y-91246952D01*
X109564796Y-91363736D01*
X109362217Y-91431469D01*
X109361615Y-91431587D01*
X109270459Y-91448933D01*
X109207394Y-91456534D01*
X109148958Y-91454374D01*
X109071685Y-91442435D01*
X109010683Y-91431334D01*
X108787834Y-91363587D01*
X108594303Y-91250339D01*
X108435052Y-91097009D01*
X108315044Y-90909015D01*
X108239243Y-90691776D01*
X108218690Y-90566634D01*
X108213163Y-90447136D01*
X108226217Y-90333194D01*
X108261097Y-90197411D01*
X108263278Y-90190195D01*
X108301058Y-90078810D01*
X108343138Y-89993445D01*
X108402124Y-89913873D01*
X108490619Y-89819870D01*
X108499806Y-89810666D01*
X108623408Y-89698212D01*
X108737486Y-89621272D01*
X108843222Y-89573195D01*
X109054845Y-89522492D01*
X109269939Y-89523246D01*
X109479657Y-89571829D01*
X109675151Y-89664615D01*
X109847572Y-89797978D01*
X109988074Y-89968290D01*
X110043014Y-90065000D01*
X110076419Y-90140752D01*
X110097261Y-90214555D01*
X110108359Y-90303487D01*
X110112532Y-90424627D01*
X110112896Y-90488333D01*
X110339594Y-90488333D01*
X110322174Y-90269212D01*
X110256296Y-90042100D01*
X110146727Y-89833740D01*
X109996588Y-89650191D01*
X109809000Y-89497511D01*
X109587086Y-89381758D01*
X109355998Y-89313229D01*
X109151727Y-89298234D01*
X108934058Y-89327560D01*
X108717736Y-89396603D01*
X108517508Y-89500757D01*
X108359322Y-89624464D01*
X108293749Y-89682202D01*
X108244312Y-89716054D01*
X108225266Y-89719859D01*
X108220623Y-89688105D01*
X108216462Y-89607658D01*
X108212962Y-89486268D01*
X108210305Y-89331686D01*
X108208671Y-89151661D01*
X108208222Y-88988389D01*
X108208222Y-88273964D01*
X108139270Y-88256658D01*
X108075156Y-88250047D01*
X108040493Y-88257786D01*
G37*
X108040493Y-88257786D02*
X108033438Y-88286666D01*
X108027370Y-88364654D01*
X108022271Y-88492783D01*
X108018122Y-88672083D01*
X108014906Y-88903585D01*
X108012604Y-89188320D01*
X108011198Y-89527319D01*
X108010671Y-89921612D01*
X108010666Y-89967888D01*
X108010666Y-91659555D01*
X108208222Y-91659555D01*
X108208222Y-91447889D01*
X108210427Y-91346709D01*
X108216261Y-91271864D01*
X108224549Y-91237146D01*
X108226233Y-91236222D01*
X108254965Y-91253900D01*
X108311287Y-91299797D01*
X108369330Y-91351523D01*
X108569249Y-91499632D01*
X108793116Y-91596975D01*
X109042381Y-91644134D01*
X109106427Y-91648061D01*
X109234093Y-91649234D01*
X109354199Y-91643955D01*
X109445093Y-91633330D01*
X109460788Y-91629949D01*
X109661964Y-91554532D01*
X109855126Y-91436356D01*
X110026946Y-91286347D01*
X110164095Y-91115425D01*
X110226441Y-91002487D01*
X110310368Y-90755464D01*
X110341238Y-90509020D01*
X110339594Y-90488333D01*
X110112896Y-90488333D01*
X110111189Y-90626711D01*
X110103952Y-90724795D01*
X110088582Y-90798660D01*
X110062476Y-90864380D01*
X110047103Y-90894508D01*
X109916263Y-91088186D01*
X109752486Y-91246952D01*
X109564796Y-91363736D01*
X109362217Y-91431469D01*
X109361615Y-91431587D01*
X109270459Y-91448933D01*
X109207394Y-91456534D01*
X109148958Y-91454374D01*
X109071685Y-91442435D01*
X109010683Y-91431334D01*
X108787834Y-91363587D01*
X108594303Y-91250339D01*
X108435052Y-91097009D01*
X108315044Y-90909015D01*
X108239243Y-90691776D01*
X108218690Y-90566634D01*
X108213163Y-90447136D01*
X108226217Y-90333194D01*
X108261097Y-90197411D01*
X108263278Y-90190195D01*
X108301058Y-90078810D01*
X108343138Y-89993445D01*
X108402124Y-89913873D01*
X108490619Y-89819870D01*
X108499806Y-89810666D01*
X108623408Y-89698212D01*
X108737486Y-89621272D01*
X108843222Y-89573195D01*
X109054845Y-89522492D01*
X109269939Y-89523246D01*
X109479657Y-89571829D01*
X109675151Y-89664615D01*
X109847572Y-89797978D01*
X109988074Y-89968290D01*
X110043014Y-90065000D01*
X110076419Y-90140752D01*
X110097261Y-90214555D01*
X110108359Y-90303487D01*
X110112532Y-90424627D01*
X110112896Y-90488333D01*
X110339594Y-90488333D01*
X110322174Y-90269212D01*
X110256296Y-90042100D01*
X110146727Y-89833740D01*
X109996588Y-89650191D01*
X109809000Y-89497511D01*
X109587086Y-89381758D01*
X109355998Y-89313229D01*
X109151727Y-89298234D01*
X108934058Y-89327560D01*
X108717736Y-89396603D01*
X108517508Y-89500757D01*
X108359322Y-89624464D01*
X108293749Y-89682202D01*
X108244312Y-89716054D01*
X108225266Y-89719859D01*
X108220623Y-89688105D01*
X108216462Y-89607658D01*
X108212962Y-89486268D01*
X108210305Y-89331686D01*
X108208671Y-89151661D01*
X108208222Y-88988389D01*
X108208222Y-88273964D01*
X108139270Y-88256658D01*
X108075156Y-88250047D01*
X108040493Y-88257786D01*
G36*
X106021000Y-89331296D02*
G01*
X105775295Y-89415285D01*
X105564663Y-89539786D01*
X105389960Y-89699151D01*
X105248974Y-89890743D01*
X105157301Y-90105134D01*
X105112614Y-90348004D01*
X105110102Y-90382500D01*
X105097608Y-90587111D01*
X107226726Y-90587111D01*
X107207164Y-90691386D01*
X107142493Y-90889405D01*
X107030843Y-91069723D01*
X106880920Y-91223869D01*
X106701429Y-91343373D01*
X106501076Y-91419766D01*
X106446419Y-91431561D01*
X106219341Y-91445978D01*
X106000608Y-91408506D01*
X105798856Y-91322432D01*
X105622723Y-91191039D01*
X105524570Y-91080914D01*
X105463108Y-91003382D01*
X105413434Y-90947759D01*
X105386064Y-90925794D01*
X105385736Y-90925778D01*
X105350318Y-90941903D01*
X105298068Y-90979191D01*
X105254574Y-91020880D01*
X105249998Y-91059521D01*
X105273775Y-91111928D01*
X105347606Y-91217044D01*
X105457403Y-91330551D01*
X105587313Y-91438464D01*
X105721484Y-91526794D01*
X105775971Y-91555008D01*
X105956834Y-91616231D01*
X106164815Y-91649231D01*
X106377164Y-91652229D01*
X106571132Y-91623446D01*
X106589216Y-91618589D01*
X106823148Y-91524163D01*
X107029645Y-91383480D01*
X107202023Y-91202772D01*
X107333602Y-90988274D01*
X107377338Y-90883444D01*
X107413706Y-90732706D01*
X107430133Y-90551563D01*
X107426883Y-90361406D01*
X107426874Y-90361333D01*
X107226563Y-90361333D01*
X106278059Y-90361333D01*
X106018028Y-90361050D01*
X105809117Y-90360047D01*
X105646000Y-90358091D01*
X105523355Y-90354952D01*
X105435859Y-90350397D01*
X105378187Y-90344196D01*
X105345016Y-90336115D01*
X105331024Y-90325925D01*
X105329555Y-90320059D01*
X105348594Y-90217378D01*
X105399854Y-90092629D01*
X105474547Y-89962529D01*
X105563888Y-89843796D01*
X105600541Y-89804444D01*
X105745260Y-89677037D01*
X105887262Y-89593822D01*
X106044114Y-89547512D01*
X106233380Y-89530817D01*
X106260889Y-89530445D01*
X106393249Y-89532562D01*
X106491065Y-89543723D01*
X106576005Y-89567875D01*
X106656000Y-89602386D01*
X106841947Y-89720188D01*
X107002127Y-89880071D01*
X107126788Y-90069991D01*
X107206180Y-90277904D01*
X107207621Y-90283722D01*
X107226563Y-90361333D01*
X107426874Y-90361333D01*
X107404220Y-90183623D01*
X107367054Y-90050889D01*
X107252125Y-89831732D01*
X107097888Y-89644869D01*
X106911896Y-89494340D01*
X106701702Y-89384181D01*
X106474859Y-89318430D01*
X106238920Y-89301125D01*
X106021000Y-89331296D01*
G37*
X106021000Y-89331296D02*
X105775295Y-89415285D01*
X105564663Y-89539786D01*
X105389960Y-89699151D01*
X105248974Y-89890743D01*
X105157301Y-90105134D01*
X105112614Y-90348004D01*
X105110102Y-90382500D01*
X105097608Y-90587111D01*
X107226726Y-90587111D01*
X107207164Y-90691386D01*
X107142493Y-90889405D01*
X107030843Y-91069723D01*
X106880920Y-91223869D01*
X106701429Y-91343373D01*
X106501076Y-91419766D01*
X106446419Y-91431561D01*
X106219341Y-91445978D01*
X106000608Y-91408506D01*
X105798856Y-91322432D01*
X105622723Y-91191039D01*
X105524570Y-91080914D01*
X105463108Y-91003382D01*
X105413434Y-90947759D01*
X105386064Y-90925794D01*
X105385736Y-90925778D01*
X105350318Y-90941903D01*
X105298068Y-90979191D01*
X105254574Y-91020880D01*
X105249998Y-91059521D01*
X105273775Y-91111928D01*
X105347606Y-91217044D01*
X105457403Y-91330551D01*
X105587313Y-91438464D01*
X105721484Y-91526794D01*
X105775971Y-91555008D01*
X105956834Y-91616231D01*
X106164815Y-91649231D01*
X106377164Y-91652229D01*
X106571132Y-91623446D01*
X106589216Y-91618589D01*
X106823148Y-91524163D01*
X107029645Y-91383480D01*
X107202023Y-91202772D01*
X107333602Y-90988274D01*
X107377338Y-90883444D01*
X107413706Y-90732706D01*
X107430133Y-90551563D01*
X107426883Y-90361406D01*
X107426874Y-90361333D01*
X107226563Y-90361333D01*
X106278059Y-90361333D01*
X106018028Y-90361050D01*
X105809117Y-90360047D01*
X105646000Y-90358091D01*
X105523355Y-90354952D01*
X105435859Y-90350397D01*
X105378187Y-90344196D01*
X105345016Y-90336115D01*
X105331024Y-90325925D01*
X105329555Y-90320059D01*
X105348594Y-90217378D01*
X105399854Y-90092629D01*
X105474547Y-89962529D01*
X105563888Y-89843796D01*
X105600541Y-89804444D01*
X105745260Y-89677037D01*
X105887262Y-89593822D01*
X106044114Y-89547512D01*
X106233380Y-89530817D01*
X106260889Y-89530445D01*
X106393249Y-89532562D01*
X106491065Y-89543723D01*
X106576005Y-89567875D01*
X106656000Y-89602386D01*
X106841947Y-89720188D01*
X107002127Y-89880071D01*
X107126788Y-90069991D01*
X107206180Y-90277904D01*
X107207621Y-90283722D01*
X107226563Y-90361333D01*
X107426874Y-90361333D01*
X107404220Y-90183623D01*
X107367054Y-90050889D01*
X107252125Y-89831732D01*
X107097888Y-89644869D01*
X106911896Y-89494340D01*
X106701702Y-89384181D01*
X106474859Y-89318430D01*
X106238920Y-89301125D01*
X106021000Y-89331296D01*
G36*
X103378159Y-89313640D02*
G01*
X103314942Y-89329056D01*
X103205488Y-89368448D01*
X103147826Y-89411155D01*
X103137375Y-89463342D01*
X103167314Y-89527792D01*
X103198683Y-89569626D01*
X103231285Y-89582769D01*
X103285619Y-89570769D01*
X103329188Y-89555797D01*
X103518169Y-89517323D01*
X103706497Y-89530862D01*
X103885421Y-89592563D01*
X104046185Y-89698580D01*
X104180037Y-89845063D01*
X104248335Y-89959893D01*
X104327666Y-90121444D01*
X104336741Y-90890500D01*
X104345816Y-91659555D01*
X104539952Y-91659555D01*
X104532587Y-90481278D01*
X104525222Y-89303000D01*
X104440555Y-89303000D01*
X104388187Y-89307148D01*
X104362089Y-89329782D01*
X104351114Y-89386186D01*
X104347929Y-89430000D01*
X104338827Y-89536646D01*
X104322898Y-89591890D01*
X104292007Y-89600758D01*
X104238016Y-89568276D01*
X104188244Y-89528651D01*
X104003486Y-89409142D01*
X103798230Y-89331492D01*
X103585460Y-89298669D01*
X103378159Y-89313640D01*
G37*
X103378159Y-89313640D02*
X103314942Y-89329056D01*
X103205488Y-89368448D01*
X103147826Y-89411155D01*
X103137375Y-89463342D01*
X103167314Y-89527792D01*
X103198683Y-89569626D01*
X103231285Y-89582769D01*
X103285619Y-89570769D01*
X103329188Y-89555797D01*
X103518169Y-89517323D01*
X103706497Y-89530862D01*
X103885421Y-89592563D01*
X104046185Y-89698580D01*
X104180037Y-89845063D01*
X104248335Y-89959893D01*
X104327666Y-90121444D01*
X104336741Y-90890500D01*
X104345816Y-91659555D01*
X104539952Y-91659555D01*
X104532587Y-90481278D01*
X104525222Y-89303000D01*
X104440555Y-89303000D01*
X104388187Y-89307148D01*
X104362089Y-89329782D01*
X104351114Y-89386186D01*
X104347929Y-89430000D01*
X104338827Y-89536646D01*
X104322898Y-89591890D01*
X104292007Y-89600758D01*
X104238016Y-89568276D01*
X104188244Y-89528651D01*
X104003486Y-89409142D01*
X103798230Y-89331492D01*
X103585460Y-89298669D01*
X103378159Y-89313640D01*
G36*
X125565601Y-88550274D02*
G01*
X125506764Y-88610122D01*
X125481580Y-88690969D01*
X125495810Y-88777354D01*
X125536666Y-88837333D01*
X125600510Y-88884375D01*
X125662617Y-88885109D01*
X125739281Y-88839374D01*
X125744527Y-88835285D01*
X125800018Y-88763281D01*
X125813187Y-88680772D01*
X125788723Y-88603437D01*
X125731311Y-88546956D01*
X125652329Y-88526889D01*
X125565601Y-88550274D01*
G37*
X125565601Y-88550274D02*
X125506764Y-88610122D01*
X125481580Y-88690969D01*
X125495810Y-88777354D01*
X125536666Y-88837333D01*
X125600510Y-88884375D01*
X125662617Y-88885109D01*
X125739281Y-88839374D01*
X125744527Y-88835285D01*
X125800018Y-88763281D01*
X125813187Y-88680772D01*
X125788723Y-88603437D01*
X125731311Y-88546956D01*
X125652329Y-88526889D01*
X125565601Y-88550274D01*
G36*
X113479162Y-88532272D02*
G01*
X113405274Y-88570374D01*
X113388600Y-88589613D01*
X113349543Y-88672066D01*
X113359446Y-88749834D01*
X113403159Y-88819416D01*
X113472385Y-88880614D01*
X113546173Y-88887210D01*
X113620609Y-88849844D01*
X113667859Y-88786272D01*
X113683905Y-88699278D01*
X113667119Y-88613513D01*
X113638984Y-88571238D01*
X113565156Y-88531966D01*
X113479162Y-88532272D01*
G37*
X113479162Y-88532272D02*
X113405274Y-88570374D01*
X113388600Y-88589613D01*
X113349543Y-88672066D01*
X113359446Y-88749834D01*
X113403159Y-88819416D01*
X113472385Y-88880614D01*
X113546173Y-88887210D01*
X113620609Y-88849844D01*
X113667859Y-88786272D01*
X113683905Y-88699278D01*
X113667119Y-88613513D01*
X113638984Y-88571238D01*
X113565156Y-88531966D01*
X113479162Y-88532272D01*
%LPC*%
D12*
X140300000Y-90740000D03*
X140300000Y-88200000D03*
X140300000Y-85660000D03*
D13*
X140300000Y-83120000D03*
D12*
X134000000Y-74360000D03*
X134000000Y-76900000D03*
X131460000Y-74360000D03*
X131460000Y-76900000D03*
X128920000Y-74360000D03*
D13*
X128920000Y-76900000D03*
D12*
X98000000Y-75460000D03*
D13*
X98000000Y-78000000D03*
D12*
X98000000Y-83580000D03*
X98000000Y-86120000D03*
X98000000Y-88660000D03*
D13*
X98000000Y-91200000D03*
M02*
