G04 #@! TF.GenerationSoftware,KiCad,Pcbnew,(5.1.12)-1*
G04 #@! TF.CreationDate,2021-12-08T09:26:21+00:00*
G04 #@! TF.ProjectId,LightMinderSMD,4c696768-744d-4696-9e64-6572534d442e,rev?*
G04 #@! TF.SameCoordinates,Original*
G04 #@! TF.FileFunction,Copper,L2,Bot*
G04 #@! TF.FilePolarity,Positive*
%FSLAX46Y46*%
G04 Gerber Fmt 4.6, Leading zero omitted, Abs format (unit mm)*
G04 Created by KiCad (PCBNEW (5.1.12)-1) date 2021-12-08 09:26:21*
%MOMM*%
%LPD*%
G01*
G04 APERTURE LIST*
G04 #@! TA.AperFunction,ComponentPad*
%ADD10O,1.700000X1.700000*%
G04 #@! TD*
G04 #@! TA.AperFunction,ComponentPad*
%ADD11R,1.700000X1.700000*%
G04 #@! TD*
G04 #@! TA.AperFunction,ViaPad*
%ADD12C,0.800000*%
G04 #@! TD*
G04 #@! TA.AperFunction,ViaPad*
%ADD13C,0.500000*%
G04 #@! TD*
G04 #@! TA.AperFunction,Conductor*
%ADD14C,0.300000*%
G04 #@! TD*
G04 #@! TA.AperFunction,Conductor*
%ADD15C,0.600000*%
G04 #@! TD*
G04 #@! TA.AperFunction,Conductor*
%ADD16C,0.350000*%
G04 #@! TD*
G04 #@! TA.AperFunction,Conductor*
%ADD17C,0.100000*%
G04 #@! TD*
G04 #@! TA.AperFunction,Conductor*
%ADD18C,0.120000*%
G04 #@! TD*
G04 APERTURE END LIST*
D10*
X140300000Y-90740000D03*
X140300000Y-88200000D03*
X140300000Y-85660000D03*
D11*
X140300000Y-83120000D03*
D10*
X134000000Y-74360000D03*
X134000000Y-76900000D03*
X131460000Y-74360000D03*
X131460000Y-76900000D03*
X128920000Y-74360000D03*
D11*
X128920000Y-76900000D03*
D10*
X98000000Y-75460000D03*
D11*
X98000000Y-78000000D03*
D10*
X98000000Y-83580000D03*
X98000000Y-86120000D03*
X98000000Y-88660000D03*
D11*
X98000000Y-91200000D03*
D12*
X126400000Y-80400000D03*
X130000000Y-82649990D03*
X110400000Y-75500000D03*
X102200000Y-81400000D03*
X102200000Y-83400000D03*
X105500000Y-81400000D03*
X105500000Y-83400000D03*
D13*
X112500000Y-92700000D03*
X123000000Y-93400000D03*
D12*
X132400000Y-85500000D03*
X123500000Y-84700000D03*
X122100000Y-80100000D03*
X129700000Y-91200000D03*
X133900000Y-87038532D03*
X137500000Y-87800000D03*
X137700000Y-90900000D03*
X128900000Y-83900000D03*
X118062500Y-80837500D03*
X133900000Y-86000000D03*
X125600000Y-73800000D03*
X116400000Y-87800000D03*
X133900000Y-88054000D03*
X129600000Y-85800000D03*
X119800000Y-86000000D03*
X128900000Y-82800000D03*
D14*
X127750010Y-80400000D02*
X130000000Y-82649990D01*
X126400000Y-80400000D02*
X127750010Y-80400000D01*
D15*
X107800000Y-72900000D02*
X110400000Y-75500000D01*
X96700000Y-72900000D02*
X107800000Y-72900000D01*
X95000000Y-74600000D02*
X96700000Y-72900000D01*
X95000000Y-84700000D02*
X95000000Y-74600000D01*
X96420000Y-86120000D02*
X95000000Y-84700000D01*
X98000000Y-86120000D02*
X96420000Y-86120000D01*
D14*
X112500000Y-92700000D02*
X106000000Y-92700000D01*
X122300000Y-92700000D02*
X123000000Y-93400000D01*
X112500000Y-92700000D02*
X122300000Y-92700000D01*
X133600000Y-77300000D02*
X134000000Y-76900000D01*
X133600000Y-84300000D02*
X133600000Y-77300000D01*
X132400000Y-85500000D02*
X133600000Y-84300000D01*
X123500000Y-84700000D02*
X122100000Y-83300000D01*
X122100000Y-83300000D02*
X122100000Y-80100000D01*
X132800000Y-91200000D02*
X134650001Y-89349999D01*
X134650001Y-89349999D02*
X134650001Y-87743340D01*
X134650001Y-87743340D02*
X133945193Y-87038532D01*
X132800000Y-91200000D02*
X129700000Y-91200000D01*
X137700000Y-88000000D02*
X137700000Y-90900000D01*
X137500000Y-87800000D02*
X137700000Y-88000000D01*
X128820000Y-74460000D02*
X128920000Y-74360000D01*
X126260000Y-74460000D02*
X128820000Y-74460000D01*
X125600000Y-73800000D02*
X126260000Y-74460000D01*
X133846000Y-88000000D02*
X133900000Y-88054000D01*
X131749999Y-86849999D02*
X132900000Y-88000000D01*
X126235644Y-86849999D02*
X131749999Y-86849999D01*
X132900000Y-88000000D02*
X133846000Y-88000000D01*
X116799999Y-87400001D02*
X125685642Y-87400001D01*
X125685642Y-87400001D02*
X126235644Y-86849999D01*
X116400000Y-87800000D02*
X116799999Y-87400001D01*
X122500000Y-78700000D02*
X129600000Y-85800000D01*
X98900000Y-78000000D02*
X99600000Y-78700000D01*
X98000000Y-78000000D02*
X98900000Y-78000000D01*
X121000000Y-78700000D02*
X122500000Y-78700000D01*
X99600000Y-78700000D02*
X121000000Y-78700000D01*
X121000001Y-78700001D02*
X121000000Y-78700000D01*
X121000001Y-84799999D02*
X121000001Y-78700001D01*
X119800000Y-86000000D02*
X121000001Y-84799999D01*
X129500000Y-83400000D02*
X128900000Y-82800000D01*
X130700000Y-83400000D02*
X129500000Y-83400000D01*
X132500000Y-81600000D02*
X130700000Y-83400000D01*
X132500000Y-77940000D02*
X132500000Y-81600000D01*
X131460000Y-76900000D02*
X132500000Y-77940000D01*
D16*
X140810401Y-72032354D02*
X141108982Y-72122500D01*
X141384366Y-72268925D01*
X141626062Y-72466047D01*
X141824869Y-72706363D01*
X141973214Y-72980723D01*
X142065440Y-73278657D01*
X142100000Y-73607468D01*
X142100001Y-92580425D01*
X142067646Y-92910403D01*
X141977500Y-93208982D01*
X141831076Y-93484364D01*
X141633950Y-93726064D01*
X141393637Y-93924869D01*
X141119279Y-94073214D01*
X140821343Y-94165440D01*
X140492531Y-94200000D01*
X95019565Y-94200000D01*
X94689597Y-94167646D01*
X94391018Y-94077500D01*
X94115636Y-93931076D01*
X93873936Y-93733950D01*
X93675131Y-93493637D01*
X93526786Y-93219279D01*
X93434560Y-92921343D01*
X93400000Y-92592531D01*
X93400000Y-74600000D01*
X94321735Y-74600000D01*
X94325001Y-74633162D01*
X94325000Y-84666848D01*
X94321735Y-84700000D01*
X94325000Y-84733152D01*
X94325000Y-84733158D01*
X94334767Y-84832322D01*
X94373364Y-84959560D01*
X94430845Y-85067100D01*
X94436043Y-85076824D01*
X94499256Y-85153850D01*
X94499263Y-85153857D01*
X94520394Y-85179605D01*
X94546144Y-85200738D01*
X95919258Y-86573852D01*
X95940394Y-86599606D01*
X95971336Y-86625000D01*
X95000000Y-86625000D01*
X94926841Y-86632206D01*
X94856494Y-86653545D01*
X94791661Y-86688199D01*
X94734835Y-86734835D01*
X94688199Y-86791661D01*
X94653545Y-86856494D01*
X94632206Y-86926841D01*
X94625000Y-87000000D01*
X94625000Y-93000000D01*
X94631037Y-93067020D01*
X94651202Y-93137713D01*
X94684770Y-93203114D01*
X94730453Y-93260709D01*
X94786494Y-93308286D01*
X94850740Y-93344015D01*
X94920722Y-93366524D01*
X94993751Y-93374948D01*
X106993751Y-93574948D01*
X107073159Y-93567794D01*
X107143506Y-93546455D01*
X107208339Y-93511801D01*
X107265165Y-93465165D01*
X107311801Y-93408339D01*
X107346455Y-93343506D01*
X107367794Y-93273159D01*
X107372538Y-93225000D01*
X112160748Y-93225000D01*
X112203952Y-93253868D01*
X112317694Y-93300981D01*
X112438443Y-93325000D01*
X112561557Y-93325000D01*
X112682306Y-93300981D01*
X112796048Y-93253868D01*
X112839252Y-93225000D01*
X122082539Y-93225000D01*
X122388882Y-93531343D01*
X122399019Y-93582306D01*
X122446132Y-93696048D01*
X122514531Y-93798414D01*
X122601586Y-93885469D01*
X122703952Y-93953868D01*
X122817694Y-94000981D01*
X122938443Y-94025000D01*
X123061557Y-94025000D01*
X123182306Y-94000981D01*
X123296048Y-93953868D01*
X123398414Y-93885469D01*
X123485469Y-93798414D01*
X123553868Y-93696048D01*
X123600981Y-93582306D01*
X123625000Y-93461557D01*
X123625000Y-93338443D01*
X123600981Y-93217694D01*
X123553868Y-93103952D01*
X123485469Y-93001586D01*
X123398414Y-92914531D01*
X123296048Y-92846132D01*
X123182306Y-92799019D01*
X123131343Y-92788882D01*
X122689471Y-92347010D01*
X122673027Y-92326973D01*
X122593086Y-92261367D01*
X122501881Y-92212617D01*
X122402918Y-92182597D01*
X122325788Y-92175000D01*
X122325780Y-92175000D01*
X122300000Y-92172461D01*
X122274220Y-92175000D01*
X112839252Y-92175000D01*
X112796048Y-92146132D01*
X112682306Y-92099019D01*
X112561557Y-92075000D01*
X112438443Y-92075000D01*
X112317694Y-92099019D01*
X112203952Y-92146132D01*
X112160748Y-92175000D01*
X107375000Y-92175000D01*
X107375000Y-80000000D01*
X107367794Y-79926841D01*
X107346455Y-79856494D01*
X107311801Y-79791661D01*
X107265165Y-79734835D01*
X107208339Y-79688199D01*
X107143506Y-79653545D01*
X107073159Y-79632206D01*
X107000000Y-79625000D01*
X100000000Y-79625000D01*
X99926841Y-79632206D01*
X99856494Y-79653545D01*
X99791661Y-79688199D01*
X99734835Y-79734835D01*
X99688199Y-79791661D01*
X99653545Y-79856494D01*
X99632206Y-79926841D01*
X99625000Y-80000000D01*
X99625000Y-86625000D01*
X99116753Y-86625000D01*
X99177924Y-86477319D01*
X99225000Y-86240652D01*
X99225000Y-85999348D01*
X99177924Y-85762681D01*
X99085581Y-85539745D01*
X98951519Y-85339108D01*
X98780892Y-85168481D01*
X98580255Y-85034419D01*
X98357319Y-84942076D01*
X98120652Y-84895000D01*
X97879348Y-84895000D01*
X97642681Y-84942076D01*
X97419745Y-85034419D01*
X97219108Y-85168481D01*
X97048481Y-85339108D01*
X96977726Y-85445000D01*
X96699594Y-85445000D01*
X95675000Y-84420406D01*
X95675000Y-83459348D01*
X96775000Y-83459348D01*
X96775000Y-83700652D01*
X96822076Y-83937319D01*
X96914419Y-84160255D01*
X97048481Y-84360892D01*
X97219108Y-84531519D01*
X97419745Y-84665581D01*
X97642681Y-84757924D01*
X97879348Y-84805000D01*
X98120652Y-84805000D01*
X98357319Y-84757924D01*
X98580255Y-84665581D01*
X98780892Y-84531519D01*
X98951519Y-84360892D01*
X99085581Y-84160255D01*
X99177924Y-83937319D01*
X99225000Y-83700652D01*
X99225000Y-83459348D01*
X99177924Y-83222681D01*
X99085581Y-82999745D01*
X98951519Y-82799108D01*
X98780892Y-82628481D01*
X98580255Y-82494419D01*
X98357319Y-82402076D01*
X98120652Y-82355000D01*
X97879348Y-82355000D01*
X97642681Y-82402076D01*
X97419745Y-82494419D01*
X97219108Y-82628481D01*
X97048481Y-82799108D01*
X96914419Y-82999745D01*
X96822076Y-83222681D01*
X96775000Y-83459348D01*
X95675000Y-83459348D01*
X95675000Y-77150000D01*
X96773186Y-77150000D01*
X96773186Y-78850000D01*
X96780426Y-78923513D01*
X96801869Y-78994200D01*
X96836691Y-79059347D01*
X96883552Y-79116448D01*
X96940653Y-79163309D01*
X97005800Y-79198131D01*
X97076487Y-79219574D01*
X97150000Y-79226814D01*
X98850000Y-79226814D01*
X98923513Y-79219574D01*
X98994200Y-79198131D01*
X99059347Y-79163309D01*
X99116448Y-79116448D01*
X99163309Y-79059347D01*
X99181971Y-79024433D01*
X99210534Y-79052995D01*
X99226973Y-79073027D01*
X99306914Y-79138633D01*
X99398119Y-79187383D01*
X99497082Y-79217403D01*
X99574212Y-79225000D01*
X99574219Y-79225000D01*
X99599999Y-79227539D01*
X99625779Y-79225000D01*
X120475002Y-79225000D01*
X120475001Y-84582537D01*
X119832539Y-85225000D01*
X119723669Y-85225000D01*
X119573941Y-85254783D01*
X119432900Y-85313204D01*
X119305966Y-85398018D01*
X119198018Y-85505966D01*
X119113204Y-85632900D01*
X119054783Y-85773941D01*
X119025000Y-85923669D01*
X119025000Y-86076331D01*
X119054783Y-86226059D01*
X119113204Y-86367100D01*
X119198018Y-86494034D01*
X119305966Y-86601982D01*
X119432900Y-86686796D01*
X119573941Y-86745217D01*
X119723669Y-86775000D01*
X119876331Y-86775000D01*
X120026059Y-86745217D01*
X120167100Y-86686796D01*
X120294034Y-86601982D01*
X120401982Y-86494034D01*
X120486796Y-86367100D01*
X120545217Y-86226059D01*
X120575000Y-86076331D01*
X120575000Y-85967461D01*
X121352997Y-85189465D01*
X121373028Y-85173026D01*
X121438634Y-85093085D01*
X121487384Y-85001880D01*
X121517404Y-84902917D01*
X121525001Y-84825787D01*
X121525001Y-84825786D01*
X121527541Y-84799999D01*
X121525001Y-84774211D01*
X121525001Y-80621017D01*
X121575001Y-80671017D01*
X121575000Y-83274220D01*
X121572461Y-83300000D01*
X121575000Y-83325780D01*
X121575000Y-83325787D01*
X121582597Y-83402917D01*
X121612617Y-83501880D01*
X121661367Y-83593086D01*
X121726973Y-83673027D01*
X121747010Y-83689471D01*
X122725000Y-84667462D01*
X122725000Y-84776331D01*
X122754783Y-84926059D01*
X122813204Y-85067100D01*
X122898018Y-85194034D01*
X123005966Y-85301982D01*
X123132900Y-85386796D01*
X123273941Y-85445217D01*
X123423669Y-85475000D01*
X123576331Y-85475000D01*
X123726059Y-85445217D01*
X123867100Y-85386796D01*
X123994034Y-85301982D01*
X124101982Y-85194034D01*
X124186796Y-85067100D01*
X124245217Y-84926059D01*
X124275000Y-84776331D01*
X124275000Y-84623669D01*
X124245217Y-84473941D01*
X124186796Y-84332900D01*
X124101982Y-84205966D01*
X123994034Y-84098018D01*
X123867100Y-84013204D01*
X123726059Y-83954783D01*
X123576331Y-83925000D01*
X123467462Y-83925000D01*
X122625000Y-83082539D01*
X122625000Y-80671016D01*
X122701982Y-80594034D01*
X122786796Y-80467100D01*
X122845217Y-80326059D01*
X122875000Y-80176331D01*
X122875000Y-80023669D01*
X122845217Y-79873941D01*
X122786796Y-79732900D01*
X122779461Y-79721922D01*
X128825000Y-85767462D01*
X128825000Y-85876331D01*
X128854783Y-86026059D01*
X128913204Y-86167100D01*
X128998018Y-86294034D01*
X129028983Y-86324999D01*
X126261423Y-86324999D01*
X126235643Y-86322460D01*
X126209863Y-86324999D01*
X126209856Y-86324999D01*
X126132726Y-86332596D01*
X126033763Y-86362616D01*
X125942558Y-86411366D01*
X125862617Y-86476972D01*
X125846177Y-86497004D01*
X125468181Y-86875001D01*
X116825778Y-86875001D01*
X116799998Y-86872462D01*
X116774218Y-86875001D01*
X116774211Y-86875001D01*
X116697081Y-86882598D01*
X116598118Y-86912618D01*
X116506913Y-86961368D01*
X116429377Y-87025000D01*
X116323669Y-87025000D01*
X116173941Y-87054783D01*
X116032900Y-87113204D01*
X115905966Y-87198018D01*
X115798018Y-87305966D01*
X115713204Y-87432900D01*
X115654783Y-87573941D01*
X115625000Y-87723669D01*
X115625000Y-87876331D01*
X115654783Y-88026059D01*
X115713204Y-88167100D01*
X115798018Y-88294034D01*
X115905966Y-88401982D01*
X116032900Y-88486796D01*
X116173941Y-88545217D01*
X116323669Y-88575000D01*
X116476331Y-88575000D01*
X116626059Y-88545217D01*
X116767100Y-88486796D01*
X116894034Y-88401982D01*
X117001982Y-88294034D01*
X117086796Y-88167100D01*
X117145217Y-88026059D01*
X117165319Y-87925001D01*
X125659862Y-87925001D01*
X125685642Y-87927540D01*
X125711422Y-87925001D01*
X125711430Y-87925001D01*
X125788560Y-87917404D01*
X125887523Y-87887384D01*
X125978728Y-87838634D01*
X126058669Y-87773028D01*
X126075113Y-87752992D01*
X126453106Y-87374999D01*
X131532538Y-87374999D01*
X132510534Y-88352996D01*
X132526973Y-88373027D01*
X132606914Y-88438633D01*
X132698119Y-88487383D01*
X132797082Y-88517403D01*
X132874212Y-88525000D01*
X132874219Y-88525000D01*
X132899999Y-88527539D01*
X132925779Y-88525000D01*
X133282627Y-88525000D01*
X133298018Y-88548034D01*
X133405966Y-88655982D01*
X133532900Y-88740796D01*
X133673941Y-88799217D01*
X133823669Y-88829000D01*
X133976331Y-88829000D01*
X134125001Y-88799427D01*
X134125001Y-89132537D01*
X132582539Y-90675000D01*
X130271016Y-90675000D01*
X130194034Y-90598018D01*
X130067100Y-90513204D01*
X129926059Y-90454783D01*
X129776331Y-90425000D01*
X129623669Y-90425000D01*
X129473941Y-90454783D01*
X129332900Y-90513204D01*
X129205966Y-90598018D01*
X129098018Y-90705966D01*
X129013204Y-90832900D01*
X128954783Y-90973941D01*
X128925000Y-91123669D01*
X128925000Y-91276331D01*
X128954783Y-91426059D01*
X129013204Y-91567100D01*
X129098018Y-91694034D01*
X129205966Y-91801982D01*
X129332900Y-91886796D01*
X129473941Y-91945217D01*
X129623669Y-91975000D01*
X129776331Y-91975000D01*
X129926059Y-91945217D01*
X130067100Y-91886796D01*
X130194034Y-91801982D01*
X130271016Y-91725000D01*
X132774220Y-91725000D01*
X132800000Y-91727539D01*
X132825780Y-91725000D01*
X132825788Y-91725000D01*
X132902918Y-91717403D01*
X133001881Y-91687383D01*
X133093086Y-91638633D01*
X133173027Y-91573027D01*
X133189471Y-91552990D01*
X135002997Y-89739465D01*
X135023028Y-89723026D01*
X135088634Y-89643085D01*
X135137384Y-89551880D01*
X135167404Y-89452917D01*
X135175001Y-89375787D01*
X135175001Y-89375786D01*
X135177541Y-89349999D01*
X135175001Y-89324211D01*
X135175001Y-87769119D01*
X135177540Y-87743339D01*
X135175603Y-87723669D01*
X136725000Y-87723669D01*
X136725000Y-87876331D01*
X136754783Y-88026059D01*
X136813204Y-88167100D01*
X136898018Y-88294034D01*
X137005966Y-88401982D01*
X137132900Y-88486796D01*
X137175000Y-88504234D01*
X137175001Y-90328983D01*
X137098018Y-90405966D01*
X137013204Y-90532900D01*
X136954783Y-90673941D01*
X136925000Y-90823669D01*
X136925000Y-90976331D01*
X136954783Y-91126059D01*
X137013204Y-91267100D01*
X137098018Y-91394034D01*
X137205966Y-91501982D01*
X137332900Y-91586796D01*
X137473941Y-91645217D01*
X137623669Y-91675000D01*
X137776331Y-91675000D01*
X137926059Y-91645217D01*
X138067100Y-91586796D01*
X138194034Y-91501982D01*
X138301982Y-91394034D01*
X138386796Y-91267100D01*
X138445217Y-91126059D01*
X138458849Y-91057523D01*
X138800244Y-91057523D01*
X138876590Y-91309211D01*
X139014988Y-91575967D01*
X139202768Y-91810598D01*
X139432714Y-92004086D01*
X139695990Y-92148996D01*
X139982477Y-92239759D01*
X140221000Y-92100216D01*
X140221000Y-90819000D01*
X140379000Y-90819000D01*
X140379000Y-92100216D01*
X140617523Y-92239759D01*
X140904010Y-92148996D01*
X141167286Y-92004086D01*
X141397232Y-91810598D01*
X141585012Y-91575967D01*
X141723410Y-91309211D01*
X141799756Y-91057523D01*
X141659957Y-90819000D01*
X140379000Y-90819000D01*
X140221000Y-90819000D01*
X138940043Y-90819000D01*
X138800244Y-91057523D01*
X138458849Y-91057523D01*
X138475000Y-90976331D01*
X138475000Y-90823669D01*
X138445217Y-90673941D01*
X138386796Y-90532900D01*
X138313015Y-90422477D01*
X138800244Y-90422477D01*
X138940043Y-90661000D01*
X140221000Y-90661000D01*
X140221000Y-90641000D01*
X140379000Y-90641000D01*
X140379000Y-90661000D01*
X141659957Y-90661000D01*
X141799756Y-90422477D01*
X141723410Y-90170789D01*
X141585012Y-89904033D01*
X141397232Y-89669402D01*
X141167286Y-89475914D01*
X140904010Y-89331004D01*
X140828414Y-89307054D01*
X140880255Y-89285581D01*
X141080892Y-89151519D01*
X141251519Y-88980892D01*
X141385581Y-88780255D01*
X141477924Y-88557319D01*
X141525000Y-88320652D01*
X141525000Y-88079348D01*
X141477924Y-87842681D01*
X141385581Y-87619745D01*
X141251519Y-87419108D01*
X141080892Y-87248481D01*
X140880255Y-87114419D01*
X140657319Y-87022076D01*
X140420652Y-86975000D01*
X140179348Y-86975000D01*
X139942681Y-87022076D01*
X139719745Y-87114419D01*
X139519108Y-87248481D01*
X139348481Y-87419108D01*
X139214419Y-87619745D01*
X139122076Y-87842681D01*
X139075000Y-88079348D01*
X139075000Y-88320652D01*
X139122076Y-88557319D01*
X139214419Y-88780255D01*
X139348481Y-88980892D01*
X139519108Y-89151519D01*
X139719745Y-89285581D01*
X139771586Y-89307054D01*
X139695990Y-89331004D01*
X139432714Y-89475914D01*
X139202768Y-89669402D01*
X139014988Y-89904033D01*
X138876590Y-90170789D01*
X138800244Y-90422477D01*
X138313015Y-90422477D01*
X138301982Y-90405966D01*
X138225000Y-90328984D01*
X138225000Y-88074867D01*
X138245217Y-88026059D01*
X138275000Y-87876331D01*
X138275000Y-87723669D01*
X138245217Y-87573941D01*
X138186796Y-87432900D01*
X138101982Y-87305966D01*
X137994034Y-87198018D01*
X137867100Y-87113204D01*
X137726059Y-87054783D01*
X137576331Y-87025000D01*
X137423669Y-87025000D01*
X137273941Y-87054783D01*
X137132900Y-87113204D01*
X137005966Y-87198018D01*
X136898018Y-87305966D01*
X136813204Y-87432900D01*
X136754783Y-87573941D01*
X136725000Y-87723669D01*
X135175603Y-87723669D01*
X135175001Y-87717559D01*
X135175001Y-87717552D01*
X135167404Y-87640422D01*
X135137384Y-87541459D01*
X135088634Y-87450254D01*
X135023028Y-87370313D01*
X135002996Y-87353874D01*
X134675000Y-87025877D01*
X134675000Y-86962201D01*
X134645217Y-86812473D01*
X134586796Y-86671432D01*
X134501982Y-86544498D01*
X134394034Y-86436550D01*
X134267100Y-86351736D01*
X134126059Y-86293315D01*
X133976331Y-86263532D01*
X133823669Y-86263532D01*
X133673941Y-86293315D01*
X133532900Y-86351736D01*
X133405966Y-86436550D01*
X133298018Y-86544498D01*
X133213204Y-86671432D01*
X133154783Y-86812473D01*
X133125000Y-86962201D01*
X133125000Y-87114863D01*
X133154783Y-87264591D01*
X133213204Y-87405632D01*
X133259554Y-87475000D01*
X133117462Y-87475000D01*
X132139470Y-86497009D01*
X132123026Y-86476972D01*
X132043085Y-86411366D01*
X131951880Y-86362616D01*
X131852917Y-86332596D01*
X131775787Y-86324999D01*
X131775779Y-86324999D01*
X131749999Y-86322460D01*
X131724219Y-86324999D01*
X130171017Y-86324999D01*
X130201982Y-86294034D01*
X130286796Y-86167100D01*
X130345217Y-86026059D01*
X130375000Y-85876331D01*
X130375000Y-85723669D01*
X130345217Y-85573941D01*
X130286796Y-85432900D01*
X130280629Y-85423669D01*
X131625000Y-85423669D01*
X131625000Y-85576331D01*
X131654783Y-85726059D01*
X131713204Y-85867100D01*
X131798018Y-85994034D01*
X131905966Y-86101982D01*
X132032900Y-86186796D01*
X132173941Y-86245217D01*
X132323669Y-86275000D01*
X132476331Y-86275000D01*
X132626059Y-86245217D01*
X132767100Y-86186796D01*
X132894034Y-86101982D01*
X133001982Y-85994034D01*
X133086796Y-85867100D01*
X133145217Y-85726059D01*
X133175000Y-85576331D01*
X133175000Y-85539348D01*
X139075000Y-85539348D01*
X139075000Y-85780652D01*
X139122076Y-86017319D01*
X139214419Y-86240255D01*
X139348481Y-86440892D01*
X139519108Y-86611519D01*
X139719745Y-86745581D01*
X139942681Y-86837924D01*
X140179348Y-86885000D01*
X140420652Y-86885000D01*
X140657319Y-86837924D01*
X140880255Y-86745581D01*
X141080892Y-86611519D01*
X141251519Y-86440892D01*
X141385581Y-86240255D01*
X141477924Y-86017319D01*
X141525000Y-85780652D01*
X141525000Y-85539348D01*
X141477924Y-85302681D01*
X141385581Y-85079745D01*
X141251519Y-84879108D01*
X141080892Y-84708481D01*
X140880255Y-84574419D01*
X140657319Y-84482076D01*
X140420652Y-84435000D01*
X140179348Y-84435000D01*
X139942681Y-84482076D01*
X139719745Y-84574419D01*
X139519108Y-84708481D01*
X139348481Y-84879108D01*
X139214419Y-85079745D01*
X139122076Y-85302681D01*
X139075000Y-85539348D01*
X133175000Y-85539348D01*
X133175000Y-85467461D01*
X133952996Y-84689466D01*
X133973027Y-84673027D01*
X134038633Y-84593086D01*
X134087383Y-84501881D01*
X134117403Y-84402918D01*
X134125000Y-84325788D01*
X134125000Y-84325781D01*
X134127539Y-84300001D01*
X134125000Y-84274221D01*
X134125000Y-82270000D01*
X139073186Y-82270000D01*
X139073186Y-83970000D01*
X139080426Y-84043513D01*
X139101869Y-84114200D01*
X139136691Y-84179347D01*
X139183552Y-84236448D01*
X139240653Y-84283309D01*
X139305800Y-84318131D01*
X139376487Y-84339574D01*
X139450000Y-84346814D01*
X141150000Y-84346814D01*
X141223513Y-84339574D01*
X141294200Y-84318131D01*
X141359347Y-84283309D01*
X141416448Y-84236448D01*
X141463309Y-84179347D01*
X141498131Y-84114200D01*
X141519574Y-84043513D01*
X141526814Y-83970000D01*
X141526814Y-82270000D01*
X141519574Y-82196487D01*
X141498131Y-82125800D01*
X141463309Y-82060653D01*
X141416448Y-82003552D01*
X141359347Y-81956691D01*
X141294200Y-81921869D01*
X141223513Y-81900426D01*
X141150000Y-81893186D01*
X139450000Y-81893186D01*
X139376487Y-81900426D01*
X139305800Y-81921869D01*
X139240653Y-81956691D01*
X139183552Y-82003552D01*
X139136691Y-82060653D01*
X139101869Y-82125800D01*
X139080426Y-82196487D01*
X139073186Y-82270000D01*
X134125000Y-82270000D01*
X134125000Y-78124135D01*
X134357319Y-78077924D01*
X134580255Y-77985581D01*
X134780892Y-77851519D01*
X134951519Y-77680892D01*
X135085581Y-77480255D01*
X135177924Y-77257319D01*
X135225000Y-77020652D01*
X135225000Y-76779348D01*
X135177924Y-76542681D01*
X135085581Y-76319745D01*
X134951519Y-76119108D01*
X134780892Y-75948481D01*
X134580255Y-75814419D01*
X134357319Y-75722076D01*
X134120652Y-75675000D01*
X133879348Y-75675000D01*
X133642681Y-75722076D01*
X133419745Y-75814419D01*
X133219108Y-75948481D01*
X133048481Y-76119108D01*
X132914419Y-76319745D01*
X132822076Y-76542681D01*
X132775000Y-76779348D01*
X132775000Y-77020652D01*
X132822076Y-77257319D01*
X132914419Y-77480255D01*
X133048481Y-77680892D01*
X133075001Y-77707412D01*
X133075000Y-84082538D01*
X132432539Y-84725000D01*
X132323669Y-84725000D01*
X132173941Y-84754783D01*
X132032900Y-84813204D01*
X131905966Y-84898018D01*
X131798018Y-85005966D01*
X131713204Y-85132900D01*
X131654783Y-85273941D01*
X131625000Y-85423669D01*
X130280629Y-85423669D01*
X130201982Y-85305966D01*
X130094034Y-85198018D01*
X129967100Y-85113204D01*
X129826059Y-85054783D01*
X129676331Y-85025000D01*
X129567462Y-85025000D01*
X124866131Y-80323669D01*
X125625000Y-80323669D01*
X125625000Y-80476331D01*
X125654783Y-80626059D01*
X125713204Y-80767100D01*
X125798018Y-80894034D01*
X125905966Y-81001982D01*
X126032900Y-81086796D01*
X126173941Y-81145217D01*
X126323669Y-81175000D01*
X126476331Y-81175000D01*
X126626059Y-81145217D01*
X126767100Y-81086796D01*
X126894034Y-81001982D01*
X126971016Y-80925000D01*
X127532549Y-80925000D01*
X128665732Y-82058183D01*
X128532900Y-82113204D01*
X128405966Y-82198018D01*
X128298018Y-82305966D01*
X128213204Y-82432900D01*
X128154783Y-82573941D01*
X128125000Y-82723669D01*
X128125000Y-82876331D01*
X128154783Y-83026059D01*
X128213204Y-83167100D01*
X128298018Y-83294034D01*
X128405966Y-83401982D01*
X128532900Y-83486796D01*
X128673941Y-83545217D01*
X128823669Y-83575000D01*
X128932538Y-83575000D01*
X129110533Y-83752995D01*
X129126973Y-83773027D01*
X129206914Y-83838633D01*
X129298119Y-83887383D01*
X129397082Y-83917403D01*
X129474212Y-83925000D01*
X129474219Y-83925000D01*
X129499999Y-83927539D01*
X129525779Y-83925000D01*
X130674220Y-83925000D01*
X130700000Y-83927539D01*
X130725780Y-83925000D01*
X130725788Y-83925000D01*
X130802918Y-83917403D01*
X130901881Y-83887383D01*
X130993086Y-83838633D01*
X131073027Y-83773027D01*
X131089471Y-83752990D01*
X132852996Y-81989466D01*
X132873027Y-81973027D01*
X132938633Y-81893086D01*
X132987383Y-81801881D01*
X133017403Y-81702918D01*
X133025000Y-81625788D01*
X133025000Y-81625781D01*
X133027539Y-81600001D01*
X133025000Y-81574221D01*
X133025000Y-77965779D01*
X133027539Y-77939999D01*
X133025000Y-77914219D01*
X133025000Y-77914212D01*
X133017403Y-77837082D01*
X132987383Y-77738119D01*
X132938633Y-77646914D01*
X132873027Y-77566973D01*
X132852996Y-77550534D01*
X132615036Y-77312575D01*
X132637924Y-77257319D01*
X132685000Y-77020652D01*
X132685000Y-76779348D01*
X132637924Y-76542681D01*
X132545581Y-76319745D01*
X132411519Y-76119108D01*
X132240892Y-75948481D01*
X132040255Y-75814419D01*
X131817319Y-75722076D01*
X131580652Y-75675000D01*
X131339348Y-75675000D01*
X131102681Y-75722076D01*
X130879745Y-75814419D01*
X130679108Y-75948481D01*
X130508481Y-76119108D01*
X130374419Y-76319745D01*
X130282076Y-76542681D01*
X130235000Y-76779348D01*
X130235000Y-77020652D01*
X130282076Y-77257319D01*
X130374419Y-77480255D01*
X130508481Y-77680892D01*
X130679108Y-77851519D01*
X130879745Y-77985581D01*
X131102681Y-78077924D01*
X131339348Y-78125000D01*
X131580652Y-78125000D01*
X131817319Y-78077924D01*
X131872575Y-78055036D01*
X131975000Y-78157462D01*
X131975001Y-81382537D01*
X130775000Y-82582539D01*
X130775000Y-82573659D01*
X130745217Y-82423931D01*
X130686796Y-82282890D01*
X130601982Y-82155956D01*
X130494034Y-82048008D01*
X130367100Y-81963194D01*
X130226059Y-81904773D01*
X130076331Y-81874990D01*
X129967462Y-81874990D01*
X128139481Y-80047010D01*
X128123037Y-80026973D01*
X128043096Y-79961367D01*
X127951891Y-79912617D01*
X127852928Y-79882597D01*
X127775798Y-79875000D01*
X127775790Y-79875000D01*
X127750010Y-79872461D01*
X127724230Y-79875000D01*
X126971016Y-79875000D01*
X126894034Y-79798018D01*
X126767100Y-79713204D01*
X126626059Y-79654783D01*
X126476331Y-79625000D01*
X126323669Y-79625000D01*
X126173941Y-79654783D01*
X126032900Y-79713204D01*
X125905966Y-79798018D01*
X125798018Y-79905966D01*
X125713204Y-80032900D01*
X125654783Y-80173941D01*
X125625000Y-80323669D01*
X124866131Y-80323669D01*
X122889471Y-78347010D01*
X122873027Y-78326973D01*
X122793086Y-78261367D01*
X122701881Y-78212617D01*
X122602918Y-78182597D01*
X122525788Y-78175000D01*
X122525780Y-78175000D01*
X122500000Y-78172461D01*
X122474220Y-78175000D01*
X121025780Y-78175000D01*
X121011244Y-78173568D01*
X121000001Y-78172461D01*
X121000000Y-78172461D01*
X120974220Y-78175000D01*
X99817462Y-78175000D01*
X99289471Y-77647010D01*
X99273027Y-77626973D01*
X99226814Y-77589047D01*
X99226814Y-77150000D01*
X99219574Y-77076487D01*
X99198131Y-77005800D01*
X99163309Y-76940653D01*
X99116448Y-76883552D01*
X99059347Y-76836691D01*
X98994200Y-76801869D01*
X98923513Y-76780426D01*
X98850000Y-76773186D01*
X97150000Y-76773186D01*
X97076487Y-76780426D01*
X97005800Y-76801869D01*
X96940653Y-76836691D01*
X96883552Y-76883552D01*
X96836691Y-76940653D01*
X96801869Y-77005800D01*
X96780426Y-77076487D01*
X96773186Y-77150000D01*
X95675000Y-77150000D01*
X95675000Y-75339348D01*
X96775000Y-75339348D01*
X96775000Y-75580652D01*
X96822076Y-75817319D01*
X96914419Y-76040255D01*
X97048481Y-76240892D01*
X97219108Y-76411519D01*
X97419745Y-76545581D01*
X97642681Y-76637924D01*
X97879348Y-76685000D01*
X98120652Y-76685000D01*
X98357319Y-76637924D01*
X98580255Y-76545581D01*
X98780892Y-76411519D01*
X98951519Y-76240892D01*
X99085581Y-76040255D01*
X99177924Y-75817319D01*
X99225000Y-75580652D01*
X99225000Y-75339348D01*
X99177924Y-75102681D01*
X99085581Y-74879745D01*
X98951519Y-74679108D01*
X98780892Y-74508481D01*
X98580255Y-74374419D01*
X98357319Y-74282076D01*
X98120652Y-74235000D01*
X97879348Y-74235000D01*
X97642681Y-74282076D01*
X97419745Y-74374419D01*
X97219108Y-74508481D01*
X97048481Y-74679108D01*
X96914419Y-74879745D01*
X96822076Y-75102681D01*
X96775000Y-75339348D01*
X95675000Y-75339348D01*
X95675000Y-74879594D01*
X96979594Y-73575000D01*
X107520406Y-73575000D01*
X109650641Y-75705235D01*
X109654783Y-75726059D01*
X109713204Y-75867100D01*
X109798018Y-75994034D01*
X109905966Y-76101982D01*
X110032900Y-76186796D01*
X110173941Y-76245217D01*
X110323669Y-76275000D01*
X110476331Y-76275000D01*
X110626059Y-76245217D01*
X110767100Y-76186796D01*
X110894034Y-76101982D01*
X111001982Y-75994034D01*
X111086796Y-75867100D01*
X111145217Y-75726059D01*
X111175000Y-75576331D01*
X111175000Y-75423669D01*
X111145217Y-75273941D01*
X111086796Y-75132900D01*
X111001982Y-75005966D01*
X110894034Y-74898018D01*
X110767100Y-74813204D01*
X110626059Y-74754783D01*
X110605235Y-74750641D01*
X110532117Y-74677523D01*
X127420241Y-74677523D01*
X127511004Y-74964010D01*
X127655914Y-75227286D01*
X127849402Y-75457232D01*
X128084033Y-75645012D01*
X128138337Y-75673186D01*
X128070000Y-75673186D01*
X127996487Y-75680426D01*
X127925800Y-75701869D01*
X127860653Y-75736691D01*
X127803552Y-75783552D01*
X127756691Y-75840653D01*
X127721869Y-75905800D01*
X127700426Y-75976487D01*
X127693186Y-76050000D01*
X127693186Y-77750000D01*
X127700426Y-77823513D01*
X127721869Y-77894200D01*
X127756691Y-77959347D01*
X127803552Y-78016448D01*
X127860653Y-78063309D01*
X127925800Y-78098131D01*
X127996487Y-78119574D01*
X128070000Y-78126814D01*
X129770000Y-78126814D01*
X129843513Y-78119574D01*
X129914200Y-78098131D01*
X129979347Y-78063309D01*
X130036448Y-78016448D01*
X130083309Y-77959347D01*
X130118131Y-77894200D01*
X130139574Y-77823513D01*
X130146814Y-77750000D01*
X130146814Y-76050000D01*
X130139574Y-75976487D01*
X130118131Y-75905800D01*
X130083309Y-75840653D01*
X130036448Y-75783552D01*
X129979347Y-75736691D01*
X129914200Y-75701869D01*
X129843513Y-75680426D01*
X129770000Y-75673186D01*
X129701663Y-75673186D01*
X129755967Y-75645012D01*
X129990598Y-75457232D01*
X130184086Y-75227286D01*
X130328996Y-74964010D01*
X130352946Y-74888414D01*
X130374419Y-74940255D01*
X130508481Y-75140892D01*
X130679108Y-75311519D01*
X130879745Y-75445581D01*
X131102681Y-75537924D01*
X131339348Y-75585000D01*
X131580652Y-75585000D01*
X131817319Y-75537924D01*
X132040255Y-75445581D01*
X132240892Y-75311519D01*
X132411519Y-75140892D01*
X132545581Y-74940255D01*
X132637924Y-74717319D01*
X132685000Y-74480652D01*
X132685000Y-74239348D01*
X132775000Y-74239348D01*
X132775000Y-74480652D01*
X132822076Y-74717319D01*
X132914419Y-74940255D01*
X133048481Y-75140892D01*
X133219108Y-75311519D01*
X133419745Y-75445581D01*
X133642681Y-75537924D01*
X133879348Y-75585000D01*
X134120652Y-75585000D01*
X134357319Y-75537924D01*
X134580255Y-75445581D01*
X134780892Y-75311519D01*
X134951519Y-75140892D01*
X135085581Y-74940255D01*
X135177924Y-74717319D01*
X135225000Y-74480652D01*
X135225000Y-74239348D01*
X135177924Y-74002681D01*
X135085581Y-73779745D01*
X134951519Y-73579108D01*
X134780892Y-73408481D01*
X134580255Y-73274419D01*
X134357319Y-73182076D01*
X134120652Y-73135000D01*
X133879348Y-73135000D01*
X133642681Y-73182076D01*
X133419745Y-73274419D01*
X133219108Y-73408481D01*
X133048481Y-73579108D01*
X132914419Y-73779745D01*
X132822076Y-74002681D01*
X132775000Y-74239348D01*
X132685000Y-74239348D01*
X132637924Y-74002681D01*
X132545581Y-73779745D01*
X132411519Y-73579108D01*
X132240892Y-73408481D01*
X132040255Y-73274419D01*
X131817319Y-73182076D01*
X131580652Y-73135000D01*
X131339348Y-73135000D01*
X131102681Y-73182076D01*
X130879745Y-73274419D01*
X130679108Y-73408481D01*
X130508481Y-73579108D01*
X130374419Y-73779745D01*
X130352946Y-73831586D01*
X130328996Y-73755990D01*
X130184086Y-73492714D01*
X129990598Y-73262768D01*
X129755967Y-73074988D01*
X129489211Y-72936590D01*
X129237523Y-72860244D01*
X128999000Y-73000043D01*
X128999000Y-74281000D01*
X129019000Y-74281000D01*
X129019000Y-74439000D01*
X128999000Y-74439000D01*
X128999000Y-74459000D01*
X128841000Y-74459000D01*
X128841000Y-74439000D01*
X127559784Y-74439000D01*
X127420241Y-74677523D01*
X110532117Y-74677523D01*
X109897071Y-74042477D01*
X127420241Y-74042477D01*
X127559784Y-74281000D01*
X128841000Y-74281000D01*
X128841000Y-73000043D01*
X128602477Y-72860244D01*
X128350789Y-72936590D01*
X128084033Y-73074988D01*
X127849402Y-73262768D01*
X127655914Y-73492714D01*
X127511004Y-73755990D01*
X127420241Y-74042477D01*
X109897071Y-74042477D01*
X108300742Y-72446148D01*
X108279606Y-72420394D01*
X108176824Y-72336042D01*
X108059561Y-72273364D01*
X107932323Y-72234767D01*
X107833159Y-72225000D01*
X107833152Y-72225000D01*
X107800000Y-72221735D01*
X107766848Y-72225000D01*
X96733151Y-72225000D01*
X96699999Y-72221735D01*
X96666847Y-72225000D01*
X96666841Y-72225000D01*
X96581499Y-72233406D01*
X96567676Y-72234767D01*
X96548527Y-72240576D01*
X96440439Y-72273364D01*
X96323176Y-72336042D01*
X96220394Y-72420394D01*
X96199258Y-72446148D01*
X94546143Y-74099263D01*
X94520395Y-74120394D01*
X94499264Y-74146142D01*
X94499256Y-74146150D01*
X94436043Y-74223176D01*
X94373365Y-74340439D01*
X94334767Y-74467677D01*
X94321735Y-74600000D01*
X93400000Y-74600000D01*
X93400000Y-73619564D01*
X93432354Y-73289599D01*
X93522500Y-72991018D01*
X93668925Y-72715634D01*
X93866047Y-72473938D01*
X94106363Y-72275131D01*
X94380723Y-72126786D01*
X94678657Y-72034560D01*
X95007468Y-72000000D01*
X140480436Y-72000000D01*
X140810401Y-72032354D01*
G04 #@! TA.AperFunction,Conductor*
D17*
G36*
X140810401Y-72032354D02*
G01*
X141108982Y-72122500D01*
X141384366Y-72268925D01*
X141626062Y-72466047D01*
X141824869Y-72706363D01*
X141973214Y-72980723D01*
X142065440Y-73278657D01*
X142100000Y-73607468D01*
X142100001Y-92580425D01*
X142067646Y-92910403D01*
X141977500Y-93208982D01*
X141831076Y-93484364D01*
X141633950Y-93726064D01*
X141393637Y-93924869D01*
X141119279Y-94073214D01*
X140821343Y-94165440D01*
X140492531Y-94200000D01*
X95019565Y-94200000D01*
X94689597Y-94167646D01*
X94391018Y-94077500D01*
X94115636Y-93931076D01*
X93873936Y-93733950D01*
X93675131Y-93493637D01*
X93526786Y-93219279D01*
X93434560Y-92921343D01*
X93400000Y-92592531D01*
X93400000Y-74600000D01*
X94321735Y-74600000D01*
X94325001Y-74633162D01*
X94325000Y-84666848D01*
X94321735Y-84700000D01*
X94325000Y-84733152D01*
X94325000Y-84733158D01*
X94334767Y-84832322D01*
X94373364Y-84959560D01*
X94430845Y-85067100D01*
X94436043Y-85076824D01*
X94499256Y-85153850D01*
X94499263Y-85153857D01*
X94520394Y-85179605D01*
X94546144Y-85200738D01*
X95919258Y-86573852D01*
X95940394Y-86599606D01*
X95971336Y-86625000D01*
X95000000Y-86625000D01*
X94926841Y-86632206D01*
X94856494Y-86653545D01*
X94791661Y-86688199D01*
X94734835Y-86734835D01*
X94688199Y-86791661D01*
X94653545Y-86856494D01*
X94632206Y-86926841D01*
X94625000Y-87000000D01*
X94625000Y-93000000D01*
X94631037Y-93067020D01*
X94651202Y-93137713D01*
X94684770Y-93203114D01*
X94730453Y-93260709D01*
X94786494Y-93308286D01*
X94850740Y-93344015D01*
X94920722Y-93366524D01*
X94993751Y-93374948D01*
X106993751Y-93574948D01*
X107073159Y-93567794D01*
X107143506Y-93546455D01*
X107208339Y-93511801D01*
X107265165Y-93465165D01*
X107311801Y-93408339D01*
X107346455Y-93343506D01*
X107367794Y-93273159D01*
X107372538Y-93225000D01*
X112160748Y-93225000D01*
X112203952Y-93253868D01*
X112317694Y-93300981D01*
X112438443Y-93325000D01*
X112561557Y-93325000D01*
X112682306Y-93300981D01*
X112796048Y-93253868D01*
X112839252Y-93225000D01*
X122082539Y-93225000D01*
X122388882Y-93531343D01*
X122399019Y-93582306D01*
X122446132Y-93696048D01*
X122514531Y-93798414D01*
X122601586Y-93885469D01*
X122703952Y-93953868D01*
X122817694Y-94000981D01*
X122938443Y-94025000D01*
X123061557Y-94025000D01*
X123182306Y-94000981D01*
X123296048Y-93953868D01*
X123398414Y-93885469D01*
X123485469Y-93798414D01*
X123553868Y-93696048D01*
X123600981Y-93582306D01*
X123625000Y-93461557D01*
X123625000Y-93338443D01*
X123600981Y-93217694D01*
X123553868Y-93103952D01*
X123485469Y-93001586D01*
X123398414Y-92914531D01*
X123296048Y-92846132D01*
X123182306Y-92799019D01*
X123131343Y-92788882D01*
X122689471Y-92347010D01*
X122673027Y-92326973D01*
X122593086Y-92261367D01*
X122501881Y-92212617D01*
X122402918Y-92182597D01*
X122325788Y-92175000D01*
X122325780Y-92175000D01*
X122300000Y-92172461D01*
X122274220Y-92175000D01*
X112839252Y-92175000D01*
X112796048Y-92146132D01*
X112682306Y-92099019D01*
X112561557Y-92075000D01*
X112438443Y-92075000D01*
X112317694Y-92099019D01*
X112203952Y-92146132D01*
X112160748Y-92175000D01*
X107375000Y-92175000D01*
X107375000Y-80000000D01*
X107367794Y-79926841D01*
X107346455Y-79856494D01*
X107311801Y-79791661D01*
X107265165Y-79734835D01*
X107208339Y-79688199D01*
X107143506Y-79653545D01*
X107073159Y-79632206D01*
X107000000Y-79625000D01*
X100000000Y-79625000D01*
X99926841Y-79632206D01*
X99856494Y-79653545D01*
X99791661Y-79688199D01*
X99734835Y-79734835D01*
X99688199Y-79791661D01*
X99653545Y-79856494D01*
X99632206Y-79926841D01*
X99625000Y-80000000D01*
X99625000Y-86625000D01*
X99116753Y-86625000D01*
X99177924Y-86477319D01*
X99225000Y-86240652D01*
X99225000Y-85999348D01*
X99177924Y-85762681D01*
X99085581Y-85539745D01*
X98951519Y-85339108D01*
X98780892Y-85168481D01*
X98580255Y-85034419D01*
X98357319Y-84942076D01*
X98120652Y-84895000D01*
X97879348Y-84895000D01*
X97642681Y-84942076D01*
X97419745Y-85034419D01*
X97219108Y-85168481D01*
X97048481Y-85339108D01*
X96977726Y-85445000D01*
X96699594Y-85445000D01*
X95675000Y-84420406D01*
X95675000Y-83459348D01*
X96775000Y-83459348D01*
X96775000Y-83700652D01*
X96822076Y-83937319D01*
X96914419Y-84160255D01*
X97048481Y-84360892D01*
X97219108Y-84531519D01*
X97419745Y-84665581D01*
X97642681Y-84757924D01*
X97879348Y-84805000D01*
X98120652Y-84805000D01*
X98357319Y-84757924D01*
X98580255Y-84665581D01*
X98780892Y-84531519D01*
X98951519Y-84360892D01*
X99085581Y-84160255D01*
X99177924Y-83937319D01*
X99225000Y-83700652D01*
X99225000Y-83459348D01*
X99177924Y-83222681D01*
X99085581Y-82999745D01*
X98951519Y-82799108D01*
X98780892Y-82628481D01*
X98580255Y-82494419D01*
X98357319Y-82402076D01*
X98120652Y-82355000D01*
X97879348Y-82355000D01*
X97642681Y-82402076D01*
X97419745Y-82494419D01*
X97219108Y-82628481D01*
X97048481Y-82799108D01*
X96914419Y-82999745D01*
X96822076Y-83222681D01*
X96775000Y-83459348D01*
X95675000Y-83459348D01*
X95675000Y-77150000D01*
X96773186Y-77150000D01*
X96773186Y-78850000D01*
X96780426Y-78923513D01*
X96801869Y-78994200D01*
X96836691Y-79059347D01*
X96883552Y-79116448D01*
X96940653Y-79163309D01*
X97005800Y-79198131D01*
X97076487Y-79219574D01*
X97150000Y-79226814D01*
X98850000Y-79226814D01*
X98923513Y-79219574D01*
X98994200Y-79198131D01*
X99059347Y-79163309D01*
X99116448Y-79116448D01*
X99163309Y-79059347D01*
X99181971Y-79024433D01*
X99210534Y-79052995D01*
X99226973Y-79073027D01*
X99306914Y-79138633D01*
X99398119Y-79187383D01*
X99497082Y-79217403D01*
X99574212Y-79225000D01*
X99574219Y-79225000D01*
X99599999Y-79227539D01*
X99625779Y-79225000D01*
X120475002Y-79225000D01*
X120475001Y-84582537D01*
X119832539Y-85225000D01*
X119723669Y-85225000D01*
X119573941Y-85254783D01*
X119432900Y-85313204D01*
X119305966Y-85398018D01*
X119198018Y-85505966D01*
X119113204Y-85632900D01*
X119054783Y-85773941D01*
X119025000Y-85923669D01*
X119025000Y-86076331D01*
X119054783Y-86226059D01*
X119113204Y-86367100D01*
X119198018Y-86494034D01*
X119305966Y-86601982D01*
X119432900Y-86686796D01*
X119573941Y-86745217D01*
X119723669Y-86775000D01*
X119876331Y-86775000D01*
X120026059Y-86745217D01*
X120167100Y-86686796D01*
X120294034Y-86601982D01*
X120401982Y-86494034D01*
X120486796Y-86367100D01*
X120545217Y-86226059D01*
X120575000Y-86076331D01*
X120575000Y-85967461D01*
X121352997Y-85189465D01*
X121373028Y-85173026D01*
X121438634Y-85093085D01*
X121487384Y-85001880D01*
X121517404Y-84902917D01*
X121525001Y-84825787D01*
X121525001Y-84825786D01*
X121527541Y-84799999D01*
X121525001Y-84774211D01*
X121525001Y-80621017D01*
X121575001Y-80671017D01*
X121575000Y-83274220D01*
X121572461Y-83300000D01*
X121575000Y-83325780D01*
X121575000Y-83325787D01*
X121582597Y-83402917D01*
X121612617Y-83501880D01*
X121661367Y-83593086D01*
X121726973Y-83673027D01*
X121747010Y-83689471D01*
X122725000Y-84667462D01*
X122725000Y-84776331D01*
X122754783Y-84926059D01*
X122813204Y-85067100D01*
X122898018Y-85194034D01*
X123005966Y-85301982D01*
X123132900Y-85386796D01*
X123273941Y-85445217D01*
X123423669Y-85475000D01*
X123576331Y-85475000D01*
X123726059Y-85445217D01*
X123867100Y-85386796D01*
X123994034Y-85301982D01*
X124101982Y-85194034D01*
X124186796Y-85067100D01*
X124245217Y-84926059D01*
X124275000Y-84776331D01*
X124275000Y-84623669D01*
X124245217Y-84473941D01*
X124186796Y-84332900D01*
X124101982Y-84205966D01*
X123994034Y-84098018D01*
X123867100Y-84013204D01*
X123726059Y-83954783D01*
X123576331Y-83925000D01*
X123467462Y-83925000D01*
X122625000Y-83082539D01*
X122625000Y-80671016D01*
X122701982Y-80594034D01*
X122786796Y-80467100D01*
X122845217Y-80326059D01*
X122875000Y-80176331D01*
X122875000Y-80023669D01*
X122845217Y-79873941D01*
X122786796Y-79732900D01*
X122779461Y-79721922D01*
X128825000Y-85767462D01*
X128825000Y-85876331D01*
X128854783Y-86026059D01*
X128913204Y-86167100D01*
X128998018Y-86294034D01*
X129028983Y-86324999D01*
X126261423Y-86324999D01*
X126235643Y-86322460D01*
X126209863Y-86324999D01*
X126209856Y-86324999D01*
X126132726Y-86332596D01*
X126033763Y-86362616D01*
X125942558Y-86411366D01*
X125862617Y-86476972D01*
X125846177Y-86497004D01*
X125468181Y-86875001D01*
X116825778Y-86875001D01*
X116799998Y-86872462D01*
X116774218Y-86875001D01*
X116774211Y-86875001D01*
X116697081Y-86882598D01*
X116598118Y-86912618D01*
X116506913Y-86961368D01*
X116429377Y-87025000D01*
X116323669Y-87025000D01*
X116173941Y-87054783D01*
X116032900Y-87113204D01*
X115905966Y-87198018D01*
X115798018Y-87305966D01*
X115713204Y-87432900D01*
X115654783Y-87573941D01*
X115625000Y-87723669D01*
X115625000Y-87876331D01*
X115654783Y-88026059D01*
X115713204Y-88167100D01*
X115798018Y-88294034D01*
X115905966Y-88401982D01*
X116032900Y-88486796D01*
X116173941Y-88545217D01*
X116323669Y-88575000D01*
X116476331Y-88575000D01*
X116626059Y-88545217D01*
X116767100Y-88486796D01*
X116894034Y-88401982D01*
X117001982Y-88294034D01*
X117086796Y-88167100D01*
X117145217Y-88026059D01*
X117165319Y-87925001D01*
X125659862Y-87925001D01*
X125685642Y-87927540D01*
X125711422Y-87925001D01*
X125711430Y-87925001D01*
X125788560Y-87917404D01*
X125887523Y-87887384D01*
X125978728Y-87838634D01*
X126058669Y-87773028D01*
X126075113Y-87752992D01*
X126453106Y-87374999D01*
X131532538Y-87374999D01*
X132510534Y-88352996D01*
X132526973Y-88373027D01*
X132606914Y-88438633D01*
X132698119Y-88487383D01*
X132797082Y-88517403D01*
X132874212Y-88525000D01*
X132874219Y-88525000D01*
X132899999Y-88527539D01*
X132925779Y-88525000D01*
X133282627Y-88525000D01*
X133298018Y-88548034D01*
X133405966Y-88655982D01*
X133532900Y-88740796D01*
X133673941Y-88799217D01*
X133823669Y-88829000D01*
X133976331Y-88829000D01*
X134125001Y-88799427D01*
X134125001Y-89132537D01*
X132582539Y-90675000D01*
X130271016Y-90675000D01*
X130194034Y-90598018D01*
X130067100Y-90513204D01*
X129926059Y-90454783D01*
X129776331Y-90425000D01*
X129623669Y-90425000D01*
X129473941Y-90454783D01*
X129332900Y-90513204D01*
X129205966Y-90598018D01*
X129098018Y-90705966D01*
X129013204Y-90832900D01*
X128954783Y-90973941D01*
X128925000Y-91123669D01*
X128925000Y-91276331D01*
X128954783Y-91426059D01*
X129013204Y-91567100D01*
X129098018Y-91694034D01*
X129205966Y-91801982D01*
X129332900Y-91886796D01*
X129473941Y-91945217D01*
X129623669Y-91975000D01*
X129776331Y-91975000D01*
X129926059Y-91945217D01*
X130067100Y-91886796D01*
X130194034Y-91801982D01*
X130271016Y-91725000D01*
X132774220Y-91725000D01*
X132800000Y-91727539D01*
X132825780Y-91725000D01*
X132825788Y-91725000D01*
X132902918Y-91717403D01*
X133001881Y-91687383D01*
X133093086Y-91638633D01*
X133173027Y-91573027D01*
X133189471Y-91552990D01*
X135002997Y-89739465D01*
X135023028Y-89723026D01*
X135088634Y-89643085D01*
X135137384Y-89551880D01*
X135167404Y-89452917D01*
X135175001Y-89375787D01*
X135175001Y-89375786D01*
X135177541Y-89349999D01*
X135175001Y-89324211D01*
X135175001Y-87769119D01*
X135177540Y-87743339D01*
X135175603Y-87723669D01*
X136725000Y-87723669D01*
X136725000Y-87876331D01*
X136754783Y-88026059D01*
X136813204Y-88167100D01*
X136898018Y-88294034D01*
X137005966Y-88401982D01*
X137132900Y-88486796D01*
X137175000Y-88504234D01*
X137175001Y-90328983D01*
X137098018Y-90405966D01*
X137013204Y-90532900D01*
X136954783Y-90673941D01*
X136925000Y-90823669D01*
X136925000Y-90976331D01*
X136954783Y-91126059D01*
X137013204Y-91267100D01*
X137098018Y-91394034D01*
X137205966Y-91501982D01*
X137332900Y-91586796D01*
X137473941Y-91645217D01*
X137623669Y-91675000D01*
X137776331Y-91675000D01*
X137926059Y-91645217D01*
X138067100Y-91586796D01*
X138194034Y-91501982D01*
X138301982Y-91394034D01*
X138386796Y-91267100D01*
X138445217Y-91126059D01*
X138458849Y-91057523D01*
X138800244Y-91057523D01*
X138876590Y-91309211D01*
X139014988Y-91575967D01*
X139202768Y-91810598D01*
X139432714Y-92004086D01*
X139695990Y-92148996D01*
X139982477Y-92239759D01*
X140221000Y-92100216D01*
X140221000Y-90819000D01*
X140379000Y-90819000D01*
X140379000Y-92100216D01*
X140617523Y-92239759D01*
X140904010Y-92148996D01*
X141167286Y-92004086D01*
X141397232Y-91810598D01*
X141585012Y-91575967D01*
X141723410Y-91309211D01*
X141799756Y-91057523D01*
X141659957Y-90819000D01*
X140379000Y-90819000D01*
X140221000Y-90819000D01*
X138940043Y-90819000D01*
X138800244Y-91057523D01*
X138458849Y-91057523D01*
X138475000Y-90976331D01*
X138475000Y-90823669D01*
X138445217Y-90673941D01*
X138386796Y-90532900D01*
X138313015Y-90422477D01*
X138800244Y-90422477D01*
X138940043Y-90661000D01*
X140221000Y-90661000D01*
X140221000Y-90641000D01*
X140379000Y-90641000D01*
X140379000Y-90661000D01*
X141659957Y-90661000D01*
X141799756Y-90422477D01*
X141723410Y-90170789D01*
X141585012Y-89904033D01*
X141397232Y-89669402D01*
X141167286Y-89475914D01*
X140904010Y-89331004D01*
X140828414Y-89307054D01*
X140880255Y-89285581D01*
X141080892Y-89151519D01*
X141251519Y-88980892D01*
X141385581Y-88780255D01*
X141477924Y-88557319D01*
X141525000Y-88320652D01*
X141525000Y-88079348D01*
X141477924Y-87842681D01*
X141385581Y-87619745D01*
X141251519Y-87419108D01*
X141080892Y-87248481D01*
X140880255Y-87114419D01*
X140657319Y-87022076D01*
X140420652Y-86975000D01*
X140179348Y-86975000D01*
X139942681Y-87022076D01*
X139719745Y-87114419D01*
X139519108Y-87248481D01*
X139348481Y-87419108D01*
X139214419Y-87619745D01*
X139122076Y-87842681D01*
X139075000Y-88079348D01*
X139075000Y-88320652D01*
X139122076Y-88557319D01*
X139214419Y-88780255D01*
X139348481Y-88980892D01*
X139519108Y-89151519D01*
X139719745Y-89285581D01*
X139771586Y-89307054D01*
X139695990Y-89331004D01*
X139432714Y-89475914D01*
X139202768Y-89669402D01*
X139014988Y-89904033D01*
X138876590Y-90170789D01*
X138800244Y-90422477D01*
X138313015Y-90422477D01*
X138301982Y-90405966D01*
X138225000Y-90328984D01*
X138225000Y-88074867D01*
X138245217Y-88026059D01*
X138275000Y-87876331D01*
X138275000Y-87723669D01*
X138245217Y-87573941D01*
X138186796Y-87432900D01*
X138101982Y-87305966D01*
X137994034Y-87198018D01*
X137867100Y-87113204D01*
X137726059Y-87054783D01*
X137576331Y-87025000D01*
X137423669Y-87025000D01*
X137273941Y-87054783D01*
X137132900Y-87113204D01*
X137005966Y-87198018D01*
X136898018Y-87305966D01*
X136813204Y-87432900D01*
X136754783Y-87573941D01*
X136725000Y-87723669D01*
X135175603Y-87723669D01*
X135175001Y-87717559D01*
X135175001Y-87717552D01*
X135167404Y-87640422D01*
X135137384Y-87541459D01*
X135088634Y-87450254D01*
X135023028Y-87370313D01*
X135002996Y-87353874D01*
X134675000Y-87025877D01*
X134675000Y-86962201D01*
X134645217Y-86812473D01*
X134586796Y-86671432D01*
X134501982Y-86544498D01*
X134394034Y-86436550D01*
X134267100Y-86351736D01*
X134126059Y-86293315D01*
X133976331Y-86263532D01*
X133823669Y-86263532D01*
X133673941Y-86293315D01*
X133532900Y-86351736D01*
X133405966Y-86436550D01*
X133298018Y-86544498D01*
X133213204Y-86671432D01*
X133154783Y-86812473D01*
X133125000Y-86962201D01*
X133125000Y-87114863D01*
X133154783Y-87264591D01*
X133213204Y-87405632D01*
X133259554Y-87475000D01*
X133117462Y-87475000D01*
X132139470Y-86497009D01*
X132123026Y-86476972D01*
X132043085Y-86411366D01*
X131951880Y-86362616D01*
X131852917Y-86332596D01*
X131775787Y-86324999D01*
X131775779Y-86324999D01*
X131749999Y-86322460D01*
X131724219Y-86324999D01*
X130171017Y-86324999D01*
X130201982Y-86294034D01*
X130286796Y-86167100D01*
X130345217Y-86026059D01*
X130375000Y-85876331D01*
X130375000Y-85723669D01*
X130345217Y-85573941D01*
X130286796Y-85432900D01*
X130280629Y-85423669D01*
X131625000Y-85423669D01*
X131625000Y-85576331D01*
X131654783Y-85726059D01*
X131713204Y-85867100D01*
X131798018Y-85994034D01*
X131905966Y-86101982D01*
X132032900Y-86186796D01*
X132173941Y-86245217D01*
X132323669Y-86275000D01*
X132476331Y-86275000D01*
X132626059Y-86245217D01*
X132767100Y-86186796D01*
X132894034Y-86101982D01*
X133001982Y-85994034D01*
X133086796Y-85867100D01*
X133145217Y-85726059D01*
X133175000Y-85576331D01*
X133175000Y-85539348D01*
X139075000Y-85539348D01*
X139075000Y-85780652D01*
X139122076Y-86017319D01*
X139214419Y-86240255D01*
X139348481Y-86440892D01*
X139519108Y-86611519D01*
X139719745Y-86745581D01*
X139942681Y-86837924D01*
X140179348Y-86885000D01*
X140420652Y-86885000D01*
X140657319Y-86837924D01*
X140880255Y-86745581D01*
X141080892Y-86611519D01*
X141251519Y-86440892D01*
X141385581Y-86240255D01*
X141477924Y-86017319D01*
X141525000Y-85780652D01*
X141525000Y-85539348D01*
X141477924Y-85302681D01*
X141385581Y-85079745D01*
X141251519Y-84879108D01*
X141080892Y-84708481D01*
X140880255Y-84574419D01*
X140657319Y-84482076D01*
X140420652Y-84435000D01*
X140179348Y-84435000D01*
X139942681Y-84482076D01*
X139719745Y-84574419D01*
X139519108Y-84708481D01*
X139348481Y-84879108D01*
X139214419Y-85079745D01*
X139122076Y-85302681D01*
X139075000Y-85539348D01*
X133175000Y-85539348D01*
X133175000Y-85467461D01*
X133952996Y-84689466D01*
X133973027Y-84673027D01*
X134038633Y-84593086D01*
X134087383Y-84501881D01*
X134117403Y-84402918D01*
X134125000Y-84325788D01*
X134125000Y-84325781D01*
X134127539Y-84300001D01*
X134125000Y-84274221D01*
X134125000Y-82270000D01*
X139073186Y-82270000D01*
X139073186Y-83970000D01*
X139080426Y-84043513D01*
X139101869Y-84114200D01*
X139136691Y-84179347D01*
X139183552Y-84236448D01*
X139240653Y-84283309D01*
X139305800Y-84318131D01*
X139376487Y-84339574D01*
X139450000Y-84346814D01*
X141150000Y-84346814D01*
X141223513Y-84339574D01*
X141294200Y-84318131D01*
X141359347Y-84283309D01*
X141416448Y-84236448D01*
X141463309Y-84179347D01*
X141498131Y-84114200D01*
X141519574Y-84043513D01*
X141526814Y-83970000D01*
X141526814Y-82270000D01*
X141519574Y-82196487D01*
X141498131Y-82125800D01*
X141463309Y-82060653D01*
X141416448Y-82003552D01*
X141359347Y-81956691D01*
X141294200Y-81921869D01*
X141223513Y-81900426D01*
X141150000Y-81893186D01*
X139450000Y-81893186D01*
X139376487Y-81900426D01*
X139305800Y-81921869D01*
X139240653Y-81956691D01*
X139183552Y-82003552D01*
X139136691Y-82060653D01*
X139101869Y-82125800D01*
X139080426Y-82196487D01*
X139073186Y-82270000D01*
X134125000Y-82270000D01*
X134125000Y-78124135D01*
X134357319Y-78077924D01*
X134580255Y-77985581D01*
X134780892Y-77851519D01*
X134951519Y-77680892D01*
X135085581Y-77480255D01*
X135177924Y-77257319D01*
X135225000Y-77020652D01*
X135225000Y-76779348D01*
X135177924Y-76542681D01*
X135085581Y-76319745D01*
X134951519Y-76119108D01*
X134780892Y-75948481D01*
X134580255Y-75814419D01*
X134357319Y-75722076D01*
X134120652Y-75675000D01*
X133879348Y-75675000D01*
X133642681Y-75722076D01*
X133419745Y-75814419D01*
X133219108Y-75948481D01*
X133048481Y-76119108D01*
X132914419Y-76319745D01*
X132822076Y-76542681D01*
X132775000Y-76779348D01*
X132775000Y-77020652D01*
X132822076Y-77257319D01*
X132914419Y-77480255D01*
X133048481Y-77680892D01*
X133075001Y-77707412D01*
X133075000Y-84082538D01*
X132432539Y-84725000D01*
X132323669Y-84725000D01*
X132173941Y-84754783D01*
X132032900Y-84813204D01*
X131905966Y-84898018D01*
X131798018Y-85005966D01*
X131713204Y-85132900D01*
X131654783Y-85273941D01*
X131625000Y-85423669D01*
X130280629Y-85423669D01*
X130201982Y-85305966D01*
X130094034Y-85198018D01*
X129967100Y-85113204D01*
X129826059Y-85054783D01*
X129676331Y-85025000D01*
X129567462Y-85025000D01*
X124866131Y-80323669D01*
X125625000Y-80323669D01*
X125625000Y-80476331D01*
X125654783Y-80626059D01*
X125713204Y-80767100D01*
X125798018Y-80894034D01*
X125905966Y-81001982D01*
X126032900Y-81086796D01*
X126173941Y-81145217D01*
X126323669Y-81175000D01*
X126476331Y-81175000D01*
X126626059Y-81145217D01*
X126767100Y-81086796D01*
X126894034Y-81001982D01*
X126971016Y-80925000D01*
X127532549Y-80925000D01*
X128665732Y-82058183D01*
X128532900Y-82113204D01*
X128405966Y-82198018D01*
X128298018Y-82305966D01*
X128213204Y-82432900D01*
X128154783Y-82573941D01*
X128125000Y-82723669D01*
X128125000Y-82876331D01*
X128154783Y-83026059D01*
X128213204Y-83167100D01*
X128298018Y-83294034D01*
X128405966Y-83401982D01*
X128532900Y-83486796D01*
X128673941Y-83545217D01*
X128823669Y-83575000D01*
X128932538Y-83575000D01*
X129110533Y-83752995D01*
X129126973Y-83773027D01*
X129206914Y-83838633D01*
X129298119Y-83887383D01*
X129397082Y-83917403D01*
X129474212Y-83925000D01*
X129474219Y-83925000D01*
X129499999Y-83927539D01*
X129525779Y-83925000D01*
X130674220Y-83925000D01*
X130700000Y-83927539D01*
X130725780Y-83925000D01*
X130725788Y-83925000D01*
X130802918Y-83917403D01*
X130901881Y-83887383D01*
X130993086Y-83838633D01*
X131073027Y-83773027D01*
X131089471Y-83752990D01*
X132852996Y-81989466D01*
X132873027Y-81973027D01*
X132938633Y-81893086D01*
X132987383Y-81801881D01*
X133017403Y-81702918D01*
X133025000Y-81625788D01*
X133025000Y-81625781D01*
X133027539Y-81600001D01*
X133025000Y-81574221D01*
X133025000Y-77965779D01*
X133027539Y-77939999D01*
X133025000Y-77914219D01*
X133025000Y-77914212D01*
X133017403Y-77837082D01*
X132987383Y-77738119D01*
X132938633Y-77646914D01*
X132873027Y-77566973D01*
X132852996Y-77550534D01*
X132615036Y-77312575D01*
X132637924Y-77257319D01*
X132685000Y-77020652D01*
X132685000Y-76779348D01*
X132637924Y-76542681D01*
X132545581Y-76319745D01*
X132411519Y-76119108D01*
X132240892Y-75948481D01*
X132040255Y-75814419D01*
X131817319Y-75722076D01*
X131580652Y-75675000D01*
X131339348Y-75675000D01*
X131102681Y-75722076D01*
X130879745Y-75814419D01*
X130679108Y-75948481D01*
X130508481Y-76119108D01*
X130374419Y-76319745D01*
X130282076Y-76542681D01*
X130235000Y-76779348D01*
X130235000Y-77020652D01*
X130282076Y-77257319D01*
X130374419Y-77480255D01*
X130508481Y-77680892D01*
X130679108Y-77851519D01*
X130879745Y-77985581D01*
X131102681Y-78077924D01*
X131339348Y-78125000D01*
X131580652Y-78125000D01*
X131817319Y-78077924D01*
X131872575Y-78055036D01*
X131975000Y-78157462D01*
X131975001Y-81382537D01*
X130775000Y-82582539D01*
X130775000Y-82573659D01*
X130745217Y-82423931D01*
X130686796Y-82282890D01*
X130601982Y-82155956D01*
X130494034Y-82048008D01*
X130367100Y-81963194D01*
X130226059Y-81904773D01*
X130076331Y-81874990D01*
X129967462Y-81874990D01*
X128139481Y-80047010D01*
X128123037Y-80026973D01*
X128043096Y-79961367D01*
X127951891Y-79912617D01*
X127852928Y-79882597D01*
X127775798Y-79875000D01*
X127775790Y-79875000D01*
X127750010Y-79872461D01*
X127724230Y-79875000D01*
X126971016Y-79875000D01*
X126894034Y-79798018D01*
X126767100Y-79713204D01*
X126626059Y-79654783D01*
X126476331Y-79625000D01*
X126323669Y-79625000D01*
X126173941Y-79654783D01*
X126032900Y-79713204D01*
X125905966Y-79798018D01*
X125798018Y-79905966D01*
X125713204Y-80032900D01*
X125654783Y-80173941D01*
X125625000Y-80323669D01*
X124866131Y-80323669D01*
X122889471Y-78347010D01*
X122873027Y-78326973D01*
X122793086Y-78261367D01*
X122701881Y-78212617D01*
X122602918Y-78182597D01*
X122525788Y-78175000D01*
X122525780Y-78175000D01*
X122500000Y-78172461D01*
X122474220Y-78175000D01*
X121025780Y-78175000D01*
X121011244Y-78173568D01*
X121000001Y-78172461D01*
X121000000Y-78172461D01*
X120974220Y-78175000D01*
X99817462Y-78175000D01*
X99289471Y-77647010D01*
X99273027Y-77626973D01*
X99226814Y-77589047D01*
X99226814Y-77150000D01*
X99219574Y-77076487D01*
X99198131Y-77005800D01*
X99163309Y-76940653D01*
X99116448Y-76883552D01*
X99059347Y-76836691D01*
X98994200Y-76801869D01*
X98923513Y-76780426D01*
X98850000Y-76773186D01*
X97150000Y-76773186D01*
X97076487Y-76780426D01*
X97005800Y-76801869D01*
X96940653Y-76836691D01*
X96883552Y-76883552D01*
X96836691Y-76940653D01*
X96801869Y-77005800D01*
X96780426Y-77076487D01*
X96773186Y-77150000D01*
X95675000Y-77150000D01*
X95675000Y-75339348D01*
X96775000Y-75339348D01*
X96775000Y-75580652D01*
X96822076Y-75817319D01*
X96914419Y-76040255D01*
X97048481Y-76240892D01*
X97219108Y-76411519D01*
X97419745Y-76545581D01*
X97642681Y-76637924D01*
X97879348Y-76685000D01*
X98120652Y-76685000D01*
X98357319Y-76637924D01*
X98580255Y-76545581D01*
X98780892Y-76411519D01*
X98951519Y-76240892D01*
X99085581Y-76040255D01*
X99177924Y-75817319D01*
X99225000Y-75580652D01*
X99225000Y-75339348D01*
X99177924Y-75102681D01*
X99085581Y-74879745D01*
X98951519Y-74679108D01*
X98780892Y-74508481D01*
X98580255Y-74374419D01*
X98357319Y-74282076D01*
X98120652Y-74235000D01*
X97879348Y-74235000D01*
X97642681Y-74282076D01*
X97419745Y-74374419D01*
X97219108Y-74508481D01*
X97048481Y-74679108D01*
X96914419Y-74879745D01*
X96822076Y-75102681D01*
X96775000Y-75339348D01*
X95675000Y-75339348D01*
X95675000Y-74879594D01*
X96979594Y-73575000D01*
X107520406Y-73575000D01*
X109650641Y-75705235D01*
X109654783Y-75726059D01*
X109713204Y-75867100D01*
X109798018Y-75994034D01*
X109905966Y-76101982D01*
X110032900Y-76186796D01*
X110173941Y-76245217D01*
X110323669Y-76275000D01*
X110476331Y-76275000D01*
X110626059Y-76245217D01*
X110767100Y-76186796D01*
X110894034Y-76101982D01*
X111001982Y-75994034D01*
X111086796Y-75867100D01*
X111145217Y-75726059D01*
X111175000Y-75576331D01*
X111175000Y-75423669D01*
X111145217Y-75273941D01*
X111086796Y-75132900D01*
X111001982Y-75005966D01*
X110894034Y-74898018D01*
X110767100Y-74813204D01*
X110626059Y-74754783D01*
X110605235Y-74750641D01*
X110532117Y-74677523D01*
X127420241Y-74677523D01*
X127511004Y-74964010D01*
X127655914Y-75227286D01*
X127849402Y-75457232D01*
X128084033Y-75645012D01*
X128138337Y-75673186D01*
X128070000Y-75673186D01*
X127996487Y-75680426D01*
X127925800Y-75701869D01*
X127860653Y-75736691D01*
X127803552Y-75783552D01*
X127756691Y-75840653D01*
X127721869Y-75905800D01*
X127700426Y-75976487D01*
X127693186Y-76050000D01*
X127693186Y-77750000D01*
X127700426Y-77823513D01*
X127721869Y-77894200D01*
X127756691Y-77959347D01*
X127803552Y-78016448D01*
X127860653Y-78063309D01*
X127925800Y-78098131D01*
X127996487Y-78119574D01*
X128070000Y-78126814D01*
X129770000Y-78126814D01*
X129843513Y-78119574D01*
X129914200Y-78098131D01*
X129979347Y-78063309D01*
X130036448Y-78016448D01*
X130083309Y-77959347D01*
X130118131Y-77894200D01*
X130139574Y-77823513D01*
X130146814Y-77750000D01*
X130146814Y-76050000D01*
X130139574Y-75976487D01*
X130118131Y-75905800D01*
X130083309Y-75840653D01*
X130036448Y-75783552D01*
X129979347Y-75736691D01*
X129914200Y-75701869D01*
X129843513Y-75680426D01*
X129770000Y-75673186D01*
X129701663Y-75673186D01*
X129755967Y-75645012D01*
X129990598Y-75457232D01*
X130184086Y-75227286D01*
X130328996Y-74964010D01*
X130352946Y-74888414D01*
X130374419Y-74940255D01*
X130508481Y-75140892D01*
X130679108Y-75311519D01*
X130879745Y-75445581D01*
X131102681Y-75537924D01*
X131339348Y-75585000D01*
X131580652Y-75585000D01*
X131817319Y-75537924D01*
X132040255Y-75445581D01*
X132240892Y-75311519D01*
X132411519Y-75140892D01*
X132545581Y-74940255D01*
X132637924Y-74717319D01*
X132685000Y-74480652D01*
X132685000Y-74239348D01*
X132775000Y-74239348D01*
X132775000Y-74480652D01*
X132822076Y-74717319D01*
X132914419Y-74940255D01*
X133048481Y-75140892D01*
X133219108Y-75311519D01*
X133419745Y-75445581D01*
X133642681Y-75537924D01*
X133879348Y-75585000D01*
X134120652Y-75585000D01*
X134357319Y-75537924D01*
X134580255Y-75445581D01*
X134780892Y-75311519D01*
X134951519Y-75140892D01*
X135085581Y-74940255D01*
X135177924Y-74717319D01*
X135225000Y-74480652D01*
X135225000Y-74239348D01*
X135177924Y-74002681D01*
X135085581Y-73779745D01*
X134951519Y-73579108D01*
X134780892Y-73408481D01*
X134580255Y-73274419D01*
X134357319Y-73182076D01*
X134120652Y-73135000D01*
X133879348Y-73135000D01*
X133642681Y-73182076D01*
X133419745Y-73274419D01*
X133219108Y-73408481D01*
X133048481Y-73579108D01*
X132914419Y-73779745D01*
X132822076Y-74002681D01*
X132775000Y-74239348D01*
X132685000Y-74239348D01*
X132637924Y-74002681D01*
X132545581Y-73779745D01*
X132411519Y-73579108D01*
X132240892Y-73408481D01*
X132040255Y-73274419D01*
X131817319Y-73182076D01*
X131580652Y-73135000D01*
X131339348Y-73135000D01*
X131102681Y-73182076D01*
X130879745Y-73274419D01*
X130679108Y-73408481D01*
X130508481Y-73579108D01*
X130374419Y-73779745D01*
X130352946Y-73831586D01*
X130328996Y-73755990D01*
X130184086Y-73492714D01*
X129990598Y-73262768D01*
X129755967Y-73074988D01*
X129489211Y-72936590D01*
X129237523Y-72860244D01*
X128999000Y-73000043D01*
X128999000Y-74281000D01*
X129019000Y-74281000D01*
X129019000Y-74439000D01*
X128999000Y-74439000D01*
X128999000Y-74459000D01*
X128841000Y-74459000D01*
X128841000Y-74439000D01*
X127559784Y-74439000D01*
X127420241Y-74677523D01*
X110532117Y-74677523D01*
X109897071Y-74042477D01*
X127420241Y-74042477D01*
X127559784Y-74281000D01*
X128841000Y-74281000D01*
X128841000Y-73000043D01*
X128602477Y-72860244D01*
X128350789Y-72936590D01*
X128084033Y-73074988D01*
X127849402Y-73262768D01*
X127655914Y-73492714D01*
X127511004Y-73755990D01*
X127420241Y-74042477D01*
X109897071Y-74042477D01*
X108300742Y-72446148D01*
X108279606Y-72420394D01*
X108176824Y-72336042D01*
X108059561Y-72273364D01*
X107932323Y-72234767D01*
X107833159Y-72225000D01*
X107833152Y-72225000D01*
X107800000Y-72221735D01*
X107766848Y-72225000D01*
X96733151Y-72225000D01*
X96699999Y-72221735D01*
X96666847Y-72225000D01*
X96666841Y-72225000D01*
X96581499Y-72233406D01*
X96567676Y-72234767D01*
X96548527Y-72240576D01*
X96440439Y-72273364D01*
X96323176Y-72336042D01*
X96220394Y-72420394D01*
X96199258Y-72446148D01*
X94546143Y-74099263D01*
X94520395Y-74120394D01*
X94499264Y-74146142D01*
X94499256Y-74146150D01*
X94436043Y-74223176D01*
X94373365Y-74340439D01*
X94334767Y-74467677D01*
X94321735Y-74600000D01*
X93400000Y-74600000D01*
X93400000Y-73619564D01*
X93432354Y-73289599D01*
X93522500Y-72991018D01*
X93668925Y-72715634D01*
X93866047Y-72473938D01*
X94106363Y-72275131D01*
X94380723Y-72126786D01*
X94678657Y-72034560D01*
X95007468Y-72000000D01*
X140480436Y-72000000D01*
X140810401Y-72032354D01*
G37*
G04 #@! TD.AperFunction*
D18*
X106940000Y-93138991D02*
X95060000Y-92940991D01*
X95060000Y-90350000D01*
X96888742Y-90350000D01*
X96888742Y-92050000D01*
X96893762Y-92100969D01*
X96908629Y-92149979D01*
X96932772Y-92195147D01*
X96965263Y-92234737D01*
X97004853Y-92267228D01*
X97050021Y-92291371D01*
X97099031Y-92306238D01*
X97150000Y-92311258D01*
X98850000Y-92311258D01*
X98900969Y-92306238D01*
X98949979Y-92291371D01*
X98995147Y-92267228D01*
X99034737Y-92234737D01*
X99067228Y-92195147D01*
X99091371Y-92149979D01*
X99106238Y-92100969D01*
X99111258Y-92050000D01*
X99111258Y-90350000D01*
X99106238Y-90299031D01*
X99091371Y-90250021D01*
X99067228Y-90204853D01*
X99034737Y-90165263D01*
X98995147Y-90132772D01*
X98949979Y-90108629D01*
X98900969Y-90093762D01*
X98850000Y-90088742D01*
X97150000Y-90088742D01*
X97099031Y-90093762D01*
X97050021Y-90108629D01*
X97004853Y-90132772D01*
X96965263Y-90165263D01*
X96932772Y-90204853D01*
X96908629Y-90250021D01*
X96893762Y-90299031D01*
X96888742Y-90350000D01*
X95060000Y-90350000D01*
X95060000Y-89305458D01*
X96737420Y-89305458D01*
X96761858Y-89351213D01*
X96920497Y-89579481D01*
X97120621Y-89772414D01*
X97354539Y-89922598D01*
X97560000Y-89866026D01*
X97560000Y-89100000D01*
X98440000Y-89100000D01*
X98440000Y-89866026D01*
X98645461Y-89922598D01*
X98879379Y-89772414D01*
X99079503Y-89579481D01*
X99238142Y-89351213D01*
X99262580Y-89305458D01*
X99197738Y-89100000D01*
X98440000Y-89100000D01*
X97560000Y-89100000D01*
X96802262Y-89100000D01*
X96737420Y-89305458D01*
X95060000Y-89305458D01*
X95060000Y-88014542D01*
X96737420Y-88014542D01*
X96802262Y-88220000D01*
X97560000Y-88220000D01*
X97560000Y-87453974D01*
X98440000Y-87453974D01*
X98440000Y-88220000D01*
X99197738Y-88220000D01*
X99262580Y-88014542D01*
X99238142Y-87968787D01*
X99079503Y-87740519D01*
X98879379Y-87547586D01*
X98645461Y-87397402D01*
X98440000Y-87453974D01*
X97560000Y-87453974D01*
X97354539Y-87397402D01*
X97120621Y-87547586D01*
X96920497Y-87740519D01*
X96761858Y-87968787D01*
X96737420Y-88014542D01*
X95060000Y-88014542D01*
X95060000Y-87060000D01*
X97408863Y-87060000D01*
X97474218Y-87103669D01*
X97676225Y-87187343D01*
X97890675Y-87230000D01*
X98109325Y-87230000D01*
X98323775Y-87187343D01*
X98525782Y-87103669D01*
X98591137Y-87060000D01*
X100000000Y-87060000D01*
X100011705Y-87058847D01*
X100022961Y-87055433D01*
X100033334Y-87049888D01*
X100042426Y-87042426D01*
X100049888Y-87033334D01*
X100055433Y-87022961D01*
X100058847Y-87011705D01*
X100060000Y-87000000D01*
X100060000Y-80060000D01*
X106940000Y-80060000D01*
X106940000Y-93138991D01*
G04 #@! TA.AperFunction,Conductor*
D17*
G36*
X106940000Y-93138991D02*
G01*
X95060000Y-92940991D01*
X95060000Y-90350000D01*
X96888742Y-90350000D01*
X96888742Y-92050000D01*
X96893762Y-92100969D01*
X96908629Y-92149979D01*
X96932772Y-92195147D01*
X96965263Y-92234737D01*
X97004853Y-92267228D01*
X97050021Y-92291371D01*
X97099031Y-92306238D01*
X97150000Y-92311258D01*
X98850000Y-92311258D01*
X98900969Y-92306238D01*
X98949979Y-92291371D01*
X98995147Y-92267228D01*
X99034737Y-92234737D01*
X99067228Y-92195147D01*
X99091371Y-92149979D01*
X99106238Y-92100969D01*
X99111258Y-92050000D01*
X99111258Y-90350000D01*
X99106238Y-90299031D01*
X99091371Y-90250021D01*
X99067228Y-90204853D01*
X99034737Y-90165263D01*
X98995147Y-90132772D01*
X98949979Y-90108629D01*
X98900969Y-90093762D01*
X98850000Y-90088742D01*
X97150000Y-90088742D01*
X97099031Y-90093762D01*
X97050021Y-90108629D01*
X97004853Y-90132772D01*
X96965263Y-90165263D01*
X96932772Y-90204853D01*
X96908629Y-90250021D01*
X96893762Y-90299031D01*
X96888742Y-90350000D01*
X95060000Y-90350000D01*
X95060000Y-89305458D01*
X96737420Y-89305458D01*
X96761858Y-89351213D01*
X96920497Y-89579481D01*
X97120621Y-89772414D01*
X97354539Y-89922598D01*
X97560000Y-89866026D01*
X97560000Y-89100000D01*
X98440000Y-89100000D01*
X98440000Y-89866026D01*
X98645461Y-89922598D01*
X98879379Y-89772414D01*
X99079503Y-89579481D01*
X99238142Y-89351213D01*
X99262580Y-89305458D01*
X99197738Y-89100000D01*
X98440000Y-89100000D01*
X97560000Y-89100000D01*
X96802262Y-89100000D01*
X96737420Y-89305458D01*
X95060000Y-89305458D01*
X95060000Y-88014542D01*
X96737420Y-88014542D01*
X96802262Y-88220000D01*
X97560000Y-88220000D01*
X97560000Y-87453974D01*
X98440000Y-87453974D01*
X98440000Y-88220000D01*
X99197738Y-88220000D01*
X99262580Y-88014542D01*
X99238142Y-87968787D01*
X99079503Y-87740519D01*
X98879379Y-87547586D01*
X98645461Y-87397402D01*
X98440000Y-87453974D01*
X97560000Y-87453974D01*
X97354539Y-87397402D01*
X97120621Y-87547586D01*
X96920497Y-87740519D01*
X96761858Y-87968787D01*
X96737420Y-88014542D01*
X95060000Y-88014542D01*
X95060000Y-87060000D01*
X97408863Y-87060000D01*
X97474218Y-87103669D01*
X97676225Y-87187343D01*
X97890675Y-87230000D01*
X98109325Y-87230000D01*
X98323775Y-87187343D01*
X98525782Y-87103669D01*
X98591137Y-87060000D01*
X100000000Y-87060000D01*
X100011705Y-87058847D01*
X100022961Y-87055433D01*
X100033334Y-87049888D01*
X100042426Y-87042426D01*
X100049888Y-87033334D01*
X100055433Y-87022961D01*
X100058847Y-87011705D01*
X100060000Y-87000000D01*
X100060000Y-80060000D01*
X106940000Y-80060000D01*
X106940000Y-93138991D01*
G37*
G04 #@! TD.AperFunction*
M02*
