G04 #@! TF.GenerationSoftware,KiCad,Pcbnew,(5.1.12)-1*
G04 #@! TF.CreationDate,2021-12-08T09:26:21+00:00*
G04 #@! TF.ProjectId,LightMinderSMD,4c696768-744d-4696-9e64-6572534d442e,rev?*
G04 #@! TF.SameCoordinates,Original*
G04 #@! TF.FileFunction,Legend,Top*
G04 #@! TF.FilePolarity,Positive*
%FSLAX46Y46*%
G04 Gerber Fmt 4.6, Leading zero omitted, Abs format (unit mm)*
G04 Created by KiCad (PCBNEW (5.1.12)-1) date 2021-12-08 09:26:21*
%MOMM*%
%LPD*%
G01*
G04 APERTURE LIST*
%ADD10C,0.200000*%
%ADD11C,0.120000*%
%ADD12C,0.100000*%
%ADD13R,1.500000X2.900000*%
%ADD14R,6.300000X6.500000*%
%ADD15O,1.700000X1.700000*%
%ADD16R,1.700000X1.700000*%
%ADD17R,0.900000X0.800000*%
%ADD18R,1.100000X0.600000*%
%ADD19R,1.180000X2.810000*%
%ADD20R,2.200000X1.550000*%
%ADD21R,1.200000X1.400000*%
%ADD22R,0.500000X0.500000*%
%ADD23R,0.550000X1.600000*%
%ADD24R,1.600000X0.550000*%
G04 APERTURE END LIST*
D10*
X131133333Y-93304761D02*
X131276190Y-93352380D01*
X131514285Y-93352380D01*
X131609523Y-93304761D01*
X131657142Y-93257142D01*
X131704761Y-93161904D01*
X131704761Y-93066666D01*
X131657142Y-92971428D01*
X131609523Y-92923809D01*
X131514285Y-92876190D01*
X131323809Y-92828571D01*
X131228571Y-92780952D01*
X131180952Y-92733333D01*
X131133333Y-92638095D01*
X131133333Y-92542857D01*
X131180952Y-92447619D01*
X131228571Y-92400000D01*
X131323809Y-92352380D01*
X131561904Y-92352380D01*
X131704761Y-92400000D01*
X131990476Y-92352380D02*
X132561904Y-92352380D01*
X132276190Y-93352380D02*
X132276190Y-92352380D01*
X139000000Y-92852380D02*
X139190476Y-92852380D01*
X139285714Y-92900000D01*
X139380952Y-92995238D01*
X139428571Y-93185714D01*
X139428571Y-93519047D01*
X139380952Y-93709523D01*
X139285714Y-93804761D01*
X139190476Y-93852380D01*
X139000000Y-93852380D01*
X138904761Y-93804761D01*
X138809523Y-93709523D01*
X138761904Y-93519047D01*
X138761904Y-93185714D01*
X138809523Y-92995238D01*
X138904761Y-92900000D01*
X139000000Y-92852380D01*
X139857142Y-92852380D02*
X139857142Y-93661904D01*
X139904761Y-93757142D01*
X139952380Y-93804761D01*
X140047619Y-93852380D01*
X140238095Y-93852380D01*
X140333333Y-93804761D01*
X140380952Y-93757142D01*
X140428571Y-93661904D01*
X140428571Y-92852380D01*
X140761904Y-92852380D02*
X141333333Y-92852380D01*
X141047619Y-93852380D02*
X141047619Y-92852380D01*
X118409523Y-73352380D02*
X119028571Y-73352380D01*
X118695238Y-73733333D01*
X118838095Y-73733333D01*
X118933333Y-73780952D01*
X118980952Y-73828571D01*
X119028571Y-73923809D01*
X119028571Y-74161904D01*
X118980952Y-74257142D01*
X118933333Y-74304761D01*
X118838095Y-74352380D01*
X118552380Y-74352380D01*
X118457142Y-74304761D01*
X118409523Y-74257142D01*
X119361904Y-73685714D02*
X119600000Y-74352380D01*
X119838095Y-73685714D01*
X120123809Y-73352380D02*
X120742857Y-73352380D01*
X120409523Y-73733333D01*
X120552380Y-73733333D01*
X120647619Y-73780952D01*
X120695238Y-73828571D01*
X120742857Y-73923809D01*
X120742857Y-74161904D01*
X120695238Y-74257142D01*
X120647619Y-74304761D01*
X120552380Y-74352380D01*
X120266666Y-74352380D01*
X120171428Y-74304761D01*
X120123809Y-74257142D01*
X119028571Y-77752380D02*
X118457142Y-77752380D01*
X118742857Y-77752380D02*
X118742857Y-76752380D01*
X118647619Y-76895238D01*
X118552380Y-76990476D01*
X118457142Y-77038095D01*
X119409523Y-76847619D02*
X119457142Y-76800000D01*
X119552380Y-76752380D01*
X119790476Y-76752380D01*
X119885714Y-76800000D01*
X119933333Y-76847619D01*
X119980952Y-76942857D01*
X119980952Y-77038095D01*
X119933333Y-77180952D01*
X119361904Y-77752380D01*
X119980952Y-77752380D01*
X120314285Y-77085714D02*
X120552380Y-77752380D01*
X120790476Y-77085714D01*
D11*
X126822500Y-92062742D02*
X126822500Y-92537258D01*
X125777500Y-92062742D02*
X125777500Y-92537258D01*
X123915580Y-92010000D02*
X123634420Y-92010000D01*
X123915580Y-90990000D02*
X123634420Y-90990000D01*
X123815580Y-83710000D02*
X123534420Y-83710000D01*
X123815580Y-82690000D02*
X123534420Y-82690000D01*
X139684420Y-78190000D02*
X139965580Y-78190000D01*
X139684420Y-79210000D02*
X139965580Y-79210000D01*
X136290000Y-75065580D02*
X136290000Y-74784420D01*
X137310000Y-75065580D02*
X137310000Y-74784420D01*
X123915580Y-89310000D02*
X123634420Y-89310000D01*
X123915580Y-88290000D02*
X123634420Y-88290000D01*
X123815580Y-81810000D02*
X123534420Y-81810000D01*
X123815580Y-80790000D02*
X123534420Y-80790000D01*
X139684420Y-79890000D02*
X139965580Y-79890000D01*
X139684420Y-80910000D02*
X139965580Y-80910000D01*
X105952742Y-74677500D02*
X106427258Y-74677500D01*
X105952742Y-75722500D02*
X106427258Y-75722500D01*
X115662258Y-87122500D02*
X115187742Y-87122500D01*
X115662258Y-86077500D02*
X115187742Y-86077500D01*
X114662742Y-92477500D02*
X115137258Y-92477500D01*
X114662742Y-93522500D02*
X115137258Y-93522500D01*
X113022500Y-87937742D02*
X113022500Y-88412258D01*
X111977500Y-87937742D02*
X111977500Y-88412258D01*
X134122500Y-92587742D02*
X134122500Y-93062258D01*
X133077500Y-92587742D02*
X133077500Y-93062258D01*
X124062742Y-78577500D02*
X124537258Y-78577500D01*
X124062742Y-79622500D02*
X124537258Y-79622500D01*
X124862258Y-76022500D02*
X124387742Y-76022500D01*
X124862258Y-74977500D02*
X124387742Y-74977500D01*
X119687742Y-84177500D02*
X120162258Y-84177500D01*
X119687742Y-85222500D02*
X120162258Y-85222500D01*
X120062258Y-93322500D02*
X119587742Y-93322500D01*
X120062258Y-92277500D02*
X119587742Y-92277500D01*
X120037258Y-90622500D02*
X119562742Y-90622500D01*
X120037258Y-89577500D02*
X119562742Y-89577500D01*
X120137258Y-87822500D02*
X119662742Y-87822500D01*
X120137258Y-86777500D02*
X119662742Y-86777500D01*
X123562742Y-85577500D02*
X124037258Y-85577500D01*
X123562742Y-86622500D02*
X124037258Y-86622500D01*
D12*
X108600000Y-80500000D02*
X108600000Y-80500000D01*
X108600000Y-80600000D02*
X108600000Y-80600000D01*
X102950000Y-85500000D02*
X102950000Y-82700000D01*
X109450000Y-85500000D02*
X109450000Y-82800000D01*
X107500000Y-82650000D02*
X104900000Y-82650000D01*
X108600000Y-80600000D02*
G75*
G02*
X108600000Y-80500000I0J50000D01*
G01*
X108600000Y-80500000D02*
G75*
G02*
X108600000Y-80600000I0J-50000D01*
G01*
D11*
X138970000Y-92070000D02*
X141630000Y-92070000D01*
X138970000Y-84390000D02*
X138970000Y-92070000D01*
X141630000Y-84390000D02*
X141630000Y-92070000D01*
X138970000Y-84390000D02*
X141630000Y-84390000D01*
X138970000Y-83120000D02*
X138970000Y-81790000D01*
X138970000Y-81790000D02*
X140300000Y-81790000D01*
D12*
X135330000Y-78230000D02*
X135330000Y-73030000D01*
X130190000Y-78230000D02*
X135330000Y-78230000D01*
X127590000Y-73030000D02*
X135330000Y-73030000D01*
X130190000Y-78230000D02*
X130190000Y-75630000D01*
X130190000Y-75630000D02*
X127590000Y-75630000D01*
X127590000Y-75630000D02*
X127590000Y-73030000D01*
X128920000Y-78230000D02*
X127590000Y-78230000D01*
X127590000Y-78230000D02*
X127590000Y-76900000D01*
X99330000Y-74130000D02*
X96670000Y-74130000D01*
X99330000Y-76730000D02*
X99330000Y-74130000D01*
X96670000Y-76730000D02*
X96670000Y-74130000D01*
X99330000Y-76730000D02*
X96670000Y-76730000D01*
X99330000Y-78000000D02*
X99330000Y-79330000D01*
X99330000Y-79330000D02*
X98000000Y-79330000D01*
X99330000Y-82250000D02*
X96670000Y-82250000D01*
X99330000Y-89930000D02*
X99330000Y-82250000D01*
X96670000Y-89930000D02*
X96670000Y-82250000D01*
X99330000Y-89930000D02*
X96670000Y-89930000D01*
X99330000Y-91200000D02*
X99330000Y-92530000D01*
X99330000Y-92530000D02*
X98000000Y-92530000D01*
X114940000Y-78020000D02*
X114940000Y-78950000D01*
X114940000Y-81180000D02*
X114940000Y-80250000D01*
X114940000Y-81180000D02*
X117100000Y-81180000D01*
X114940000Y-78020000D02*
X116400000Y-78020000D01*
X113750000Y-82700000D02*
X114850000Y-82700000D01*
X115200000Y-85650000D02*
X115200000Y-82750000D01*
X115600000Y-85650000D02*
X115200000Y-85650000D01*
X115600000Y-82750000D02*
X115600000Y-85650000D01*
X115200000Y-82750000D02*
X115600000Y-82750000D01*
X113850000Y-88750000D02*
X114950000Y-88750000D01*
X115300000Y-91700000D02*
X115300000Y-88800000D01*
X115700000Y-91700000D02*
X115300000Y-91700000D01*
X115700000Y-88800000D02*
X115700000Y-91700000D01*
X115300000Y-88800000D02*
X115700000Y-88800000D01*
X114385000Y-74312000D02*
X114385000Y-76688000D01*
X135400000Y-93910000D02*
X138285000Y-93910000D01*
X138285000Y-93910000D02*
X138285000Y-92090000D01*
X138285000Y-92090000D02*
X135400000Y-92090000D01*
X128062500Y-93710000D02*
X130947500Y-93710000D01*
X130947500Y-93710000D02*
X130947500Y-91890000D01*
X130947500Y-91890000D02*
X128062500Y-91890000D01*
X124062500Y-76290000D02*
X121177500Y-76290000D01*
X121177500Y-76290000D02*
X121177500Y-78110000D01*
X121177500Y-78110000D02*
X124062500Y-78110000D01*
X103630000Y-78998000D02*
X108670000Y-78998000D01*
X108670000Y-76402000D02*
X103630000Y-76402000D01*
X124062500Y-72890000D02*
X121177500Y-72890000D01*
X121177500Y-72890000D02*
X121177500Y-74710000D01*
X121177500Y-74710000D02*
X124062500Y-74710000D01*
X119749721Y-81390000D02*
X120075279Y-81390000D01*
X119749721Y-82410000D02*
X120075279Y-82410000D01*
X119724721Y-79390000D02*
X120050279Y-79390000D01*
X119724721Y-80410000D02*
X120050279Y-80410000D01*
X141300000Y-73500000D02*
X138000000Y-73500000D01*
X138000000Y-73500000D02*
X138000000Y-77500000D01*
X113450000Y-78000000D02*
X111750000Y-78000000D01*
X111750000Y-78000000D02*
X111750000Y-80550000D01*
X113450000Y-78000000D02*
X113450000Y-80550000D01*
X134891000Y-88929000D02*
X134891000Y-88704000D01*
X127641000Y-88929000D02*
X127641000Y-88604000D01*
X127641000Y-81679000D02*
X127641000Y-82004000D01*
X134891000Y-81679000D02*
X134891000Y-82004000D01*
X134891000Y-88929000D02*
X134566000Y-88929000D01*
X134891000Y-81679000D02*
X134566000Y-81679000D01*
X127641000Y-81679000D02*
X127966000Y-81679000D01*
X127641000Y-88929000D02*
X127966000Y-88929000D01*
X134891000Y-88704000D02*
X136316000Y-88704000D01*
X123950000Y-93616666D02*
X123716666Y-93283333D01*
X123550000Y-93616666D02*
X123550000Y-92916666D01*
X123816666Y-92916666D01*
X123883333Y-92950000D01*
X123916666Y-92983333D01*
X123950000Y-93050000D01*
X123950000Y-93150000D01*
X123916666Y-93216666D01*
X123883333Y-93250000D01*
X123816666Y-93283333D01*
X123550000Y-93283333D01*
X124616666Y-93616666D02*
X124216666Y-93616666D01*
X124416666Y-93616666D02*
X124416666Y-92916666D01*
X124350000Y-93016666D01*
X124283333Y-93083333D01*
X124216666Y-93116666D01*
X125216666Y-93150000D02*
X125216666Y-93616666D01*
X125050000Y-92883333D02*
X124883333Y-93383333D01*
X125316666Y-93383333D01*
X121383333Y-91750000D02*
X121350000Y-91783333D01*
X121250000Y-91816666D01*
X121183333Y-91816666D01*
X121083333Y-91783333D01*
X121016666Y-91716666D01*
X120983333Y-91650000D01*
X120950000Y-91516666D01*
X120950000Y-91416666D01*
X120983333Y-91283333D01*
X121016666Y-91216666D01*
X121083333Y-91150000D01*
X121183333Y-91116666D01*
X121250000Y-91116666D01*
X121350000Y-91150000D01*
X121383333Y-91183333D01*
X121716666Y-91816666D02*
X121850000Y-91816666D01*
X121916666Y-91783333D01*
X121950000Y-91750000D01*
X122016666Y-91650000D01*
X122050000Y-91516666D01*
X122050000Y-91250000D01*
X122016666Y-91183333D01*
X121983333Y-91150000D01*
X121916666Y-91116666D01*
X121783333Y-91116666D01*
X121716666Y-91150000D01*
X121683333Y-91183333D01*
X121650000Y-91250000D01*
X121650000Y-91416666D01*
X121683333Y-91483333D01*
X121716666Y-91516666D01*
X121783333Y-91550000D01*
X121916666Y-91550000D01*
X121983333Y-91516666D01*
X122016666Y-91483333D01*
X122050000Y-91416666D01*
X121283333Y-83450000D02*
X121250000Y-83483333D01*
X121150000Y-83516666D01*
X121083333Y-83516666D01*
X120983333Y-83483333D01*
X120916666Y-83416666D01*
X120883333Y-83350000D01*
X120850000Y-83216666D01*
X120850000Y-83116666D01*
X120883333Y-82983333D01*
X120916666Y-82916666D01*
X120983333Y-82850000D01*
X121083333Y-82816666D01*
X121150000Y-82816666D01*
X121250000Y-82850000D01*
X121283333Y-82883333D01*
X121683333Y-83116666D02*
X121616666Y-83083333D01*
X121583333Y-83050000D01*
X121550000Y-82983333D01*
X121550000Y-82950000D01*
X121583333Y-82883333D01*
X121616666Y-82850000D01*
X121683333Y-82816666D01*
X121816666Y-82816666D01*
X121883333Y-82850000D01*
X121916666Y-82883333D01*
X121950000Y-82950000D01*
X121950000Y-82983333D01*
X121916666Y-83050000D01*
X121883333Y-83083333D01*
X121816666Y-83116666D01*
X121683333Y-83116666D01*
X121616666Y-83150000D01*
X121583333Y-83183333D01*
X121550000Y-83250000D01*
X121550000Y-83383333D01*
X121583333Y-83450000D01*
X121616666Y-83483333D01*
X121683333Y-83516666D01*
X121816666Y-83516666D01*
X121883333Y-83483333D01*
X121916666Y-83450000D01*
X121950000Y-83383333D01*
X121950000Y-83250000D01*
X121916666Y-83183333D01*
X121883333Y-83150000D01*
X121816666Y-83116666D01*
X137508333Y-79350000D02*
X137475000Y-79383333D01*
X137375000Y-79416666D01*
X137308333Y-79416666D01*
X137208333Y-79383333D01*
X137141666Y-79316666D01*
X137108333Y-79250000D01*
X137075000Y-79116666D01*
X137075000Y-79016666D01*
X137108333Y-78883333D01*
X137141666Y-78816666D01*
X137208333Y-78750000D01*
X137308333Y-78716666D01*
X137375000Y-78716666D01*
X137475000Y-78750000D01*
X137508333Y-78783333D01*
X137741666Y-78716666D02*
X138208333Y-78716666D01*
X137908333Y-79416666D01*
X136683333Y-73150000D02*
X136650000Y-73183333D01*
X136550000Y-73216666D01*
X136483333Y-73216666D01*
X136383333Y-73183333D01*
X136316666Y-73116666D01*
X136283333Y-73050000D01*
X136250000Y-72916666D01*
X136250000Y-72816666D01*
X136283333Y-72683333D01*
X136316666Y-72616666D01*
X136383333Y-72550000D01*
X136483333Y-72516666D01*
X136550000Y-72516666D01*
X136650000Y-72550000D01*
X136683333Y-72583333D01*
X137283333Y-72516666D02*
X137150000Y-72516666D01*
X137083333Y-72550000D01*
X137050000Y-72583333D01*
X136983333Y-72683333D01*
X136950000Y-72816666D01*
X136950000Y-73083333D01*
X136983333Y-73150000D01*
X137016666Y-73183333D01*
X137083333Y-73216666D01*
X137216666Y-73216666D01*
X137283333Y-73183333D01*
X137316666Y-73150000D01*
X137350000Y-73083333D01*
X137350000Y-72916666D01*
X137316666Y-72850000D01*
X137283333Y-72816666D01*
X137216666Y-72783333D01*
X137083333Y-72783333D01*
X137016666Y-72816666D01*
X136983333Y-72850000D01*
X136950000Y-72916666D01*
X121383333Y-89050000D02*
X121350000Y-89083333D01*
X121250000Y-89116666D01*
X121183333Y-89116666D01*
X121083333Y-89083333D01*
X121016666Y-89016666D01*
X120983333Y-88950000D01*
X120950000Y-88816666D01*
X120950000Y-88716666D01*
X120983333Y-88583333D01*
X121016666Y-88516666D01*
X121083333Y-88450000D01*
X121183333Y-88416666D01*
X121250000Y-88416666D01*
X121350000Y-88450000D01*
X121383333Y-88483333D01*
X122016666Y-88416666D02*
X121683333Y-88416666D01*
X121650000Y-88750000D01*
X121683333Y-88716666D01*
X121750000Y-88683333D01*
X121916666Y-88683333D01*
X121983333Y-88716666D01*
X122016666Y-88750000D01*
X122050000Y-88816666D01*
X122050000Y-88983333D01*
X122016666Y-89050000D01*
X121983333Y-89083333D01*
X121916666Y-89116666D01*
X121750000Y-89116666D01*
X121683333Y-89083333D01*
X121650000Y-89050000D01*
X125783333Y-81550000D02*
X125750000Y-81583333D01*
X125650000Y-81616666D01*
X125583333Y-81616666D01*
X125483333Y-81583333D01*
X125416666Y-81516666D01*
X125383333Y-81450000D01*
X125350000Y-81316666D01*
X125350000Y-81216666D01*
X125383333Y-81083333D01*
X125416666Y-81016666D01*
X125483333Y-80950000D01*
X125583333Y-80916666D01*
X125650000Y-80916666D01*
X125750000Y-80950000D01*
X125783333Y-80983333D01*
X126383333Y-81150000D02*
X126383333Y-81616666D01*
X126216666Y-80883333D02*
X126050000Y-81383333D01*
X126483333Y-81383333D01*
X137483333Y-81150000D02*
X137450000Y-81183333D01*
X137350000Y-81216666D01*
X137283333Y-81216666D01*
X137183333Y-81183333D01*
X137116666Y-81116666D01*
X137083333Y-81050000D01*
X137050000Y-80916666D01*
X137050000Y-80816666D01*
X137083333Y-80683333D01*
X137116666Y-80616666D01*
X137183333Y-80550000D01*
X137283333Y-80516666D01*
X137350000Y-80516666D01*
X137450000Y-80550000D01*
X137483333Y-80583333D01*
X137716666Y-80516666D02*
X138150000Y-80516666D01*
X137916666Y-80783333D01*
X138016666Y-80783333D01*
X138083333Y-80816666D01*
X138116666Y-80850000D01*
X138150000Y-80916666D01*
X138150000Y-81083333D01*
X138116666Y-81150000D01*
X138083333Y-81183333D01*
X138016666Y-81216666D01*
X137816666Y-81216666D01*
X137750000Y-81183333D01*
X137716666Y-81150000D01*
X105740000Y-74086666D02*
X105506666Y-73753333D01*
X105340000Y-74086666D02*
X105340000Y-73386666D01*
X105606666Y-73386666D01*
X105673333Y-73420000D01*
X105706666Y-73453333D01*
X105740000Y-73520000D01*
X105740000Y-73620000D01*
X105706666Y-73686666D01*
X105673333Y-73720000D01*
X105606666Y-73753333D01*
X105340000Y-73753333D01*
X106406666Y-74086666D02*
X106006666Y-74086666D01*
X106206666Y-74086666D02*
X106206666Y-73386666D01*
X106140000Y-73486666D01*
X106073333Y-73553333D01*
X106006666Y-73586666D01*
X106673333Y-73453333D02*
X106706666Y-73420000D01*
X106773333Y-73386666D01*
X106940000Y-73386666D01*
X107006666Y-73420000D01*
X107040000Y-73453333D01*
X107073333Y-73520000D01*
X107073333Y-73586666D01*
X107040000Y-73686666D01*
X106640000Y-74086666D01*
X107073333Y-74086666D01*
X114350000Y-88116666D02*
X114116666Y-87783333D01*
X113950000Y-88116666D02*
X113950000Y-87416666D01*
X114216666Y-87416666D01*
X114283333Y-87450000D01*
X114316666Y-87483333D01*
X114350000Y-87550000D01*
X114350000Y-87650000D01*
X114316666Y-87716666D01*
X114283333Y-87750000D01*
X114216666Y-87783333D01*
X113950000Y-87783333D01*
X115016666Y-88116666D02*
X114616666Y-88116666D01*
X114816666Y-88116666D02*
X114816666Y-87416666D01*
X114750000Y-87516666D01*
X114683333Y-87583333D01*
X114616666Y-87616666D01*
X115450000Y-87416666D02*
X115516666Y-87416666D01*
X115583333Y-87450000D01*
X115616666Y-87483333D01*
X115650000Y-87550000D01*
X115683333Y-87683333D01*
X115683333Y-87850000D01*
X115650000Y-87983333D01*
X115616666Y-88050000D01*
X115583333Y-88083333D01*
X115516666Y-88116666D01*
X115450000Y-88116666D01*
X115383333Y-88083333D01*
X115350000Y-88050000D01*
X115316666Y-87983333D01*
X115283333Y-87850000D01*
X115283333Y-87683333D01*
X115316666Y-87550000D01*
X115350000Y-87483333D01*
X115383333Y-87450000D01*
X115450000Y-87416666D01*
X117083333Y-93316666D02*
X116850000Y-92983333D01*
X116683333Y-93316666D02*
X116683333Y-92616666D01*
X116950000Y-92616666D01*
X117016666Y-92650000D01*
X117050000Y-92683333D01*
X117083333Y-92750000D01*
X117083333Y-92850000D01*
X117050000Y-92916666D01*
X117016666Y-92950000D01*
X116950000Y-92983333D01*
X116683333Y-92983333D01*
X117416666Y-93316666D02*
X117550000Y-93316666D01*
X117616666Y-93283333D01*
X117650000Y-93250000D01*
X117716666Y-93150000D01*
X117750000Y-93016666D01*
X117750000Y-92750000D01*
X117716666Y-92683333D01*
X117683333Y-92650000D01*
X117616666Y-92616666D01*
X117483333Y-92616666D01*
X117416666Y-92650000D01*
X117383333Y-92683333D01*
X117350000Y-92750000D01*
X117350000Y-92916666D01*
X117383333Y-92983333D01*
X117416666Y-93016666D01*
X117483333Y-93050000D01*
X117616666Y-93050000D01*
X117683333Y-93016666D01*
X117716666Y-92983333D01*
X117750000Y-92916666D01*
X112383333Y-90516666D02*
X112150000Y-90183333D01*
X111983333Y-90516666D02*
X111983333Y-89816666D01*
X112250000Y-89816666D01*
X112316666Y-89850000D01*
X112350000Y-89883333D01*
X112383333Y-89950000D01*
X112383333Y-90050000D01*
X112350000Y-90116666D01*
X112316666Y-90150000D01*
X112250000Y-90183333D01*
X111983333Y-90183333D01*
X112783333Y-90116666D02*
X112716666Y-90083333D01*
X112683333Y-90050000D01*
X112650000Y-89983333D01*
X112650000Y-89950000D01*
X112683333Y-89883333D01*
X112716666Y-89850000D01*
X112783333Y-89816666D01*
X112916666Y-89816666D01*
X112983333Y-89850000D01*
X113016666Y-89883333D01*
X113050000Y-89950000D01*
X113050000Y-89983333D01*
X113016666Y-90050000D01*
X112983333Y-90083333D01*
X112916666Y-90116666D01*
X112783333Y-90116666D01*
X112716666Y-90150000D01*
X112683333Y-90183333D01*
X112650000Y-90250000D01*
X112650000Y-90383333D01*
X112683333Y-90450000D01*
X112716666Y-90483333D01*
X112783333Y-90516666D01*
X112916666Y-90516666D01*
X112983333Y-90483333D01*
X113016666Y-90450000D01*
X113050000Y-90383333D01*
X113050000Y-90250000D01*
X113016666Y-90183333D01*
X112983333Y-90150000D01*
X112916666Y-90116666D01*
X131550000Y-91566666D02*
X131316666Y-91233333D01*
X131150000Y-91566666D02*
X131150000Y-90866666D01*
X131416666Y-90866666D01*
X131483333Y-90900000D01*
X131516666Y-90933333D01*
X131550000Y-91000000D01*
X131550000Y-91100000D01*
X131516666Y-91166666D01*
X131483333Y-91200000D01*
X131416666Y-91233333D01*
X131150000Y-91233333D01*
X132216666Y-91566666D02*
X131816666Y-91566666D01*
X132016666Y-91566666D02*
X132016666Y-90866666D01*
X131950000Y-90966666D01*
X131883333Y-91033333D01*
X131816666Y-91066666D01*
X132850000Y-90866666D02*
X132516666Y-90866666D01*
X132483333Y-91200000D01*
X132516666Y-91166666D01*
X132583333Y-91133333D01*
X132750000Y-91133333D01*
X132816666Y-91166666D01*
X132850000Y-91200000D01*
X132883333Y-91266666D01*
X132883333Y-91433333D01*
X132850000Y-91500000D01*
X132816666Y-91533333D01*
X132750000Y-91566666D01*
X132583333Y-91566666D01*
X132516666Y-91533333D01*
X132483333Y-91500000D01*
X126350000Y-79416666D02*
X126116666Y-79083333D01*
X125950000Y-79416666D02*
X125950000Y-78716666D01*
X126216666Y-78716666D01*
X126283333Y-78750000D01*
X126316666Y-78783333D01*
X126350000Y-78850000D01*
X126350000Y-78950000D01*
X126316666Y-79016666D01*
X126283333Y-79050000D01*
X126216666Y-79083333D01*
X125950000Y-79083333D01*
X127016666Y-79416666D02*
X126616666Y-79416666D01*
X126816666Y-79416666D02*
X126816666Y-78716666D01*
X126750000Y-78816666D01*
X126683333Y-78883333D01*
X126616666Y-78916666D01*
X127250000Y-78716666D02*
X127683333Y-78716666D01*
X127450000Y-78983333D01*
X127550000Y-78983333D01*
X127616666Y-79016666D01*
X127650000Y-79050000D01*
X127683333Y-79116666D01*
X127683333Y-79283333D01*
X127650000Y-79350000D01*
X127616666Y-79383333D01*
X127550000Y-79416666D01*
X127350000Y-79416666D01*
X127283333Y-79383333D01*
X127250000Y-79350000D01*
X121550000Y-75816666D02*
X121316666Y-75483333D01*
X121150000Y-75816666D02*
X121150000Y-75116666D01*
X121416666Y-75116666D01*
X121483333Y-75150000D01*
X121516666Y-75183333D01*
X121550000Y-75250000D01*
X121550000Y-75350000D01*
X121516666Y-75416666D01*
X121483333Y-75450000D01*
X121416666Y-75483333D01*
X121150000Y-75483333D01*
X122216666Y-75816666D02*
X121816666Y-75816666D01*
X122016666Y-75816666D02*
X122016666Y-75116666D01*
X121950000Y-75216666D01*
X121883333Y-75283333D01*
X121816666Y-75316666D01*
X122883333Y-75816666D02*
X122483333Y-75816666D01*
X122683333Y-75816666D02*
X122683333Y-75116666D01*
X122616666Y-75216666D01*
X122550000Y-75283333D01*
X122483333Y-75316666D01*
X122083333Y-85016666D02*
X121850000Y-84683333D01*
X121683333Y-85016666D02*
X121683333Y-84316666D01*
X121950000Y-84316666D01*
X122016666Y-84350000D01*
X122050000Y-84383333D01*
X122083333Y-84450000D01*
X122083333Y-84550000D01*
X122050000Y-84616666D01*
X122016666Y-84650000D01*
X121950000Y-84683333D01*
X121683333Y-84683333D01*
X122716666Y-84316666D02*
X122383333Y-84316666D01*
X122350000Y-84650000D01*
X122383333Y-84616666D01*
X122450000Y-84583333D01*
X122616666Y-84583333D01*
X122683333Y-84616666D01*
X122716666Y-84650000D01*
X122750000Y-84716666D01*
X122750000Y-84883333D01*
X122716666Y-84950000D01*
X122683333Y-84983333D01*
X122616666Y-85016666D01*
X122450000Y-85016666D01*
X122383333Y-84983333D01*
X122350000Y-84950000D01*
X121883333Y-93116666D02*
X121650000Y-92783333D01*
X121483333Y-93116666D02*
X121483333Y-92416666D01*
X121750000Y-92416666D01*
X121816666Y-92450000D01*
X121850000Y-92483333D01*
X121883333Y-92550000D01*
X121883333Y-92650000D01*
X121850000Y-92716666D01*
X121816666Y-92750000D01*
X121750000Y-92783333D01*
X121483333Y-92783333D01*
X122150000Y-92483333D02*
X122183333Y-92450000D01*
X122250000Y-92416666D01*
X122416666Y-92416666D01*
X122483333Y-92450000D01*
X122516666Y-92483333D01*
X122550000Y-92550000D01*
X122550000Y-92616666D01*
X122516666Y-92716666D01*
X122116666Y-93116666D01*
X122550000Y-93116666D01*
X121983333Y-90416666D02*
X121750000Y-90083333D01*
X121583333Y-90416666D02*
X121583333Y-89716666D01*
X121850000Y-89716666D01*
X121916666Y-89750000D01*
X121950000Y-89783333D01*
X121983333Y-89850000D01*
X121983333Y-89950000D01*
X121950000Y-90016666D01*
X121916666Y-90050000D01*
X121850000Y-90083333D01*
X121583333Y-90083333D01*
X122583333Y-89950000D02*
X122583333Y-90416666D01*
X122416666Y-89683333D02*
X122250000Y-90183333D01*
X122683333Y-90183333D01*
X122083333Y-87616666D02*
X121850000Y-87283333D01*
X121683333Y-87616666D02*
X121683333Y-86916666D01*
X121950000Y-86916666D01*
X122016666Y-86950000D01*
X122050000Y-86983333D01*
X122083333Y-87050000D01*
X122083333Y-87150000D01*
X122050000Y-87216666D01*
X122016666Y-87250000D01*
X121950000Y-87283333D01*
X121683333Y-87283333D01*
X122316666Y-86916666D02*
X122750000Y-86916666D01*
X122516666Y-87183333D01*
X122616666Y-87183333D01*
X122683333Y-87216666D01*
X122716666Y-87250000D01*
X122750000Y-87316666D01*
X122750000Y-87483333D01*
X122716666Y-87550000D01*
X122683333Y-87583333D01*
X122616666Y-87616666D01*
X122416666Y-87616666D01*
X122350000Y-87583333D01*
X122316666Y-87550000D01*
X121383333Y-86416666D02*
X121150000Y-86083333D01*
X120983333Y-86416666D02*
X120983333Y-85716666D01*
X121250000Y-85716666D01*
X121316666Y-85750000D01*
X121350000Y-85783333D01*
X121383333Y-85850000D01*
X121383333Y-85950000D01*
X121350000Y-86016666D01*
X121316666Y-86050000D01*
X121250000Y-86083333D01*
X120983333Y-86083333D01*
X122050000Y-86416666D02*
X121650000Y-86416666D01*
X121850000Y-86416666D02*
X121850000Y-85716666D01*
X121783333Y-85816666D01*
X121716666Y-85883333D01*
X121650000Y-85916666D01*
X106133333Y-86733333D02*
X106066666Y-86700000D01*
X106000000Y-86633333D01*
X105900000Y-86533333D01*
X105833333Y-86500000D01*
X105766666Y-86500000D01*
X105800000Y-86666666D02*
X105733333Y-86633333D01*
X105666666Y-86566666D01*
X105633333Y-86433333D01*
X105633333Y-86200000D01*
X105666666Y-86066666D01*
X105733333Y-86000000D01*
X105800000Y-85966666D01*
X105933333Y-85966666D01*
X106000000Y-86000000D01*
X106066666Y-86066666D01*
X106100000Y-86200000D01*
X106100000Y-86433333D01*
X106066666Y-86566666D01*
X106000000Y-86633333D01*
X105933333Y-86666666D01*
X105800000Y-86666666D01*
X106333333Y-85966666D02*
X106766666Y-85966666D01*
X106533333Y-86233333D01*
X106633333Y-86233333D01*
X106700000Y-86266666D01*
X106733333Y-86300000D01*
X106766666Y-86366666D01*
X106766666Y-86533333D01*
X106733333Y-86600000D01*
X106700000Y-86633333D01*
X106633333Y-86666666D01*
X106433333Y-86666666D01*
X106366666Y-86633333D01*
X106333333Y-86600000D01*
X137466666Y-86016666D02*
X137466666Y-86516666D01*
X137433333Y-86616666D01*
X137366666Y-86683333D01*
X137266666Y-86716666D01*
X137200000Y-86716666D01*
X137733333Y-86016666D02*
X138166666Y-86016666D01*
X137933333Y-86283333D01*
X138033333Y-86283333D01*
X138100000Y-86316666D01*
X138133333Y-86350000D01*
X138166666Y-86416666D01*
X138166666Y-86583333D01*
X138133333Y-86650000D01*
X138100000Y-86683333D01*
X138033333Y-86716666D01*
X137833333Y-86716666D01*
X137766666Y-86683333D01*
X137733333Y-86650000D01*
X134486666Y-78916666D02*
X134486666Y-79416666D01*
X134453333Y-79516666D01*
X134386666Y-79583333D01*
X134286666Y-79616666D01*
X134220000Y-79616666D01*
X134786666Y-78983333D02*
X134820000Y-78950000D01*
X134886666Y-78916666D01*
X135053333Y-78916666D01*
X135120000Y-78950000D01*
X135153333Y-78983333D01*
X135186666Y-79050000D01*
X135186666Y-79116666D01*
X135153333Y-79216666D01*
X134753333Y-79616666D01*
X135186666Y-79616666D01*
X97766666Y-79946666D02*
X97766666Y-80446666D01*
X97733333Y-80546666D01*
X97666666Y-80613333D01*
X97566666Y-80646666D01*
X97500000Y-80646666D01*
X98400000Y-80180000D02*
X98400000Y-80646666D01*
X98233333Y-79913333D02*
X98066666Y-80413333D01*
X98500000Y-80413333D01*
X97766666Y-93146666D02*
X97766666Y-93646666D01*
X97733333Y-93746666D01*
X97666666Y-93813333D01*
X97566666Y-93846666D01*
X97500000Y-93846666D01*
X98466666Y-93846666D02*
X98066666Y-93846666D01*
X98266666Y-93846666D02*
X98266666Y-93146666D01*
X98200000Y-93246666D01*
X98133333Y-93313333D01*
X98066666Y-93346666D01*
X114866666Y-81416666D02*
X114866666Y-81983333D01*
X114900000Y-82050000D01*
X114933333Y-82083333D01*
X115000000Y-82116666D01*
X115133333Y-82116666D01*
X115200000Y-82083333D01*
X115233333Y-82050000D01*
X115266666Y-81983333D01*
X115266666Y-81416666D01*
X115566666Y-81483333D02*
X115600000Y-81450000D01*
X115666666Y-81416666D01*
X115833333Y-81416666D01*
X115900000Y-81450000D01*
X115933333Y-81483333D01*
X115966666Y-81550000D01*
X115966666Y-81616666D01*
X115933333Y-81716666D01*
X115533333Y-82116666D01*
X115966666Y-82116666D01*
X117133333Y-85983333D02*
X117066666Y-85950000D01*
X117000000Y-85883333D01*
X116900000Y-85783333D01*
X116833333Y-85750000D01*
X116766666Y-85750000D01*
X116800000Y-85916666D02*
X116733333Y-85883333D01*
X116666666Y-85816666D01*
X116633333Y-85683333D01*
X116633333Y-85450000D01*
X116666666Y-85316666D01*
X116733333Y-85250000D01*
X116800000Y-85216666D01*
X116933333Y-85216666D01*
X117000000Y-85250000D01*
X117066666Y-85316666D01*
X117100000Y-85450000D01*
X117100000Y-85683333D01*
X117066666Y-85816666D01*
X117000000Y-85883333D01*
X116933333Y-85916666D01*
X116800000Y-85916666D01*
X117366666Y-85283333D02*
X117400000Y-85250000D01*
X117466666Y-85216666D01*
X117633333Y-85216666D01*
X117700000Y-85250000D01*
X117733333Y-85283333D01*
X117766666Y-85350000D01*
X117766666Y-85416666D01*
X117733333Y-85516666D01*
X117333333Y-85916666D01*
X117766666Y-85916666D01*
X117033333Y-92083333D02*
X116966666Y-92050000D01*
X116900000Y-91983333D01*
X116800000Y-91883333D01*
X116733333Y-91850000D01*
X116666666Y-91850000D01*
X116700000Y-92016666D02*
X116633333Y-91983333D01*
X116566666Y-91916666D01*
X116533333Y-91783333D01*
X116533333Y-91550000D01*
X116566666Y-91416666D01*
X116633333Y-91350000D01*
X116700000Y-91316666D01*
X116833333Y-91316666D01*
X116900000Y-91350000D01*
X116966666Y-91416666D01*
X117000000Y-91550000D01*
X117000000Y-91783333D01*
X116966666Y-91916666D01*
X116900000Y-91983333D01*
X116833333Y-92016666D01*
X116700000Y-92016666D01*
X117666666Y-92016666D02*
X117266666Y-92016666D01*
X117466666Y-92016666D02*
X117466666Y-91316666D01*
X117400000Y-91416666D01*
X117333333Y-91483333D01*
X117266666Y-91516666D01*
X117251666Y-75550000D02*
X117018333Y-75550000D01*
X117018333Y-75916666D02*
X117018333Y-75216666D01*
X117351666Y-75216666D01*
X117985000Y-75916666D02*
X117585000Y-75916666D01*
X117785000Y-75916666D02*
X117785000Y-75216666D01*
X117718333Y-75316666D01*
X117651666Y-75383333D01*
X117585000Y-75416666D01*
X135550000Y-91916666D02*
X135550000Y-91216666D01*
X135716666Y-91216666D01*
X135816666Y-91250000D01*
X135883333Y-91316666D01*
X135916666Y-91383333D01*
X135950000Y-91516666D01*
X135950000Y-91616666D01*
X135916666Y-91750000D01*
X135883333Y-91816666D01*
X135816666Y-91883333D01*
X135716666Y-91916666D01*
X135550000Y-91916666D01*
X136616666Y-91916666D02*
X136216666Y-91916666D01*
X136416666Y-91916666D02*
X136416666Y-91216666D01*
X136350000Y-91316666D01*
X136283333Y-91383333D01*
X136216666Y-91416666D01*
X137050000Y-91216666D02*
X137116666Y-91216666D01*
X137183333Y-91250000D01*
X137216666Y-91283333D01*
X137250000Y-91350000D01*
X137283333Y-91483333D01*
X137283333Y-91650000D01*
X137250000Y-91783333D01*
X137216666Y-91850000D01*
X137183333Y-91883333D01*
X137116666Y-91916666D01*
X137050000Y-91916666D01*
X136983333Y-91883333D01*
X136950000Y-91850000D01*
X136916666Y-91783333D01*
X136883333Y-91650000D01*
X136883333Y-91483333D01*
X136916666Y-91350000D01*
X136950000Y-91283333D01*
X136983333Y-91250000D01*
X137050000Y-91216666D01*
X127183333Y-91716666D02*
X127183333Y-91016666D01*
X127350000Y-91016666D01*
X127450000Y-91050000D01*
X127516666Y-91116666D01*
X127550000Y-91183333D01*
X127583333Y-91316666D01*
X127583333Y-91416666D01*
X127550000Y-91550000D01*
X127516666Y-91616666D01*
X127450000Y-91683333D01*
X127350000Y-91716666D01*
X127183333Y-91716666D01*
X127916666Y-91716666D02*
X128050000Y-91716666D01*
X128116666Y-91683333D01*
X128150000Y-91650000D01*
X128216666Y-91550000D01*
X128250000Y-91416666D01*
X128250000Y-91150000D01*
X128216666Y-91083333D01*
X128183333Y-91050000D01*
X128116666Y-91016666D01*
X127983333Y-91016666D01*
X127916666Y-91050000D01*
X127883333Y-91083333D01*
X127850000Y-91150000D01*
X127850000Y-91316666D01*
X127883333Y-91383333D01*
X127916666Y-91416666D01*
X127983333Y-91450000D01*
X128116666Y-91450000D01*
X128183333Y-91416666D01*
X128216666Y-91383333D01*
X128250000Y-91316666D01*
X125245833Y-77516666D02*
X125245833Y-76816666D01*
X125412500Y-76816666D01*
X125512500Y-76850000D01*
X125579166Y-76916666D01*
X125612500Y-76983333D01*
X125645833Y-77116666D01*
X125645833Y-77216666D01*
X125612500Y-77350000D01*
X125579166Y-77416666D01*
X125512500Y-77483333D01*
X125412500Y-77516666D01*
X125245833Y-77516666D01*
X126045833Y-77116666D02*
X125979166Y-77083333D01*
X125945833Y-77050000D01*
X125912500Y-76983333D01*
X125912500Y-76950000D01*
X125945833Y-76883333D01*
X125979166Y-76850000D01*
X126045833Y-76816666D01*
X126179166Y-76816666D01*
X126245833Y-76850000D01*
X126279166Y-76883333D01*
X126312500Y-76950000D01*
X126312500Y-76983333D01*
X126279166Y-77050000D01*
X126245833Y-77083333D01*
X126179166Y-77116666D01*
X126045833Y-77116666D01*
X125979166Y-77150000D01*
X125945833Y-77183333D01*
X125912500Y-77250000D01*
X125912500Y-77383333D01*
X125945833Y-77450000D01*
X125979166Y-77483333D01*
X126045833Y-77516666D01*
X126179166Y-77516666D01*
X126245833Y-77483333D01*
X126279166Y-77450000D01*
X126312500Y-77383333D01*
X126312500Y-77250000D01*
X126279166Y-77183333D01*
X126245833Y-77150000D01*
X126179166Y-77116666D01*
X105633333Y-78016666D02*
X105633333Y-77316666D01*
X105800000Y-77316666D01*
X105900000Y-77350000D01*
X105966666Y-77416666D01*
X106000000Y-77483333D01*
X106033333Y-77616666D01*
X106033333Y-77716666D01*
X106000000Y-77850000D01*
X105966666Y-77916666D01*
X105900000Y-77983333D01*
X105800000Y-78016666D01*
X105633333Y-78016666D01*
X106266666Y-77316666D02*
X106733333Y-77316666D01*
X106433333Y-78016666D01*
X125245833Y-73216666D02*
X125245833Y-72516666D01*
X125412500Y-72516666D01*
X125512500Y-72550000D01*
X125579166Y-72616666D01*
X125612500Y-72683333D01*
X125645833Y-72816666D01*
X125645833Y-72916666D01*
X125612500Y-73050000D01*
X125579166Y-73116666D01*
X125512500Y-73183333D01*
X125412500Y-73216666D01*
X125245833Y-73216666D01*
X126245833Y-72516666D02*
X126112500Y-72516666D01*
X126045833Y-72550000D01*
X126012500Y-72583333D01*
X125945833Y-72683333D01*
X125912500Y-72816666D01*
X125912500Y-73083333D01*
X125945833Y-73150000D01*
X125979166Y-73183333D01*
X126045833Y-73216666D01*
X126179166Y-73216666D01*
X126245833Y-73183333D01*
X126279166Y-73150000D01*
X126312500Y-73083333D01*
X126312500Y-72916666D01*
X126279166Y-72850000D01*
X126245833Y-72816666D01*
X126179166Y-72783333D01*
X126045833Y-72783333D01*
X125979166Y-72816666D01*
X125945833Y-72850000D01*
X125912500Y-72916666D01*
X117583333Y-82150000D02*
X117550000Y-82183333D01*
X117450000Y-82216666D01*
X117383333Y-82216666D01*
X117283333Y-82183333D01*
X117216666Y-82116666D01*
X117183333Y-82050000D01*
X117150000Y-81916666D01*
X117150000Y-81816666D01*
X117183333Y-81683333D01*
X117216666Y-81616666D01*
X117283333Y-81550000D01*
X117383333Y-81516666D01*
X117450000Y-81516666D01*
X117550000Y-81550000D01*
X117583333Y-81583333D01*
X117850000Y-81583333D02*
X117883333Y-81550000D01*
X117950000Y-81516666D01*
X118116666Y-81516666D01*
X118183333Y-81550000D01*
X118216666Y-81583333D01*
X118250000Y-81650000D01*
X118250000Y-81716666D01*
X118216666Y-81816666D01*
X117816666Y-82216666D01*
X118250000Y-82216666D01*
X119783333Y-78850000D02*
X119750000Y-78883333D01*
X119650000Y-78916666D01*
X119583333Y-78916666D01*
X119483333Y-78883333D01*
X119416666Y-78816666D01*
X119383333Y-78750000D01*
X119350000Y-78616666D01*
X119350000Y-78516666D01*
X119383333Y-78383333D01*
X119416666Y-78316666D01*
X119483333Y-78250000D01*
X119583333Y-78216666D01*
X119650000Y-78216666D01*
X119750000Y-78250000D01*
X119783333Y-78283333D01*
X120450000Y-78916666D02*
X120050000Y-78916666D01*
X120250000Y-78916666D02*
X120250000Y-78216666D01*
X120183333Y-78316666D01*
X120116666Y-78383333D01*
X120050000Y-78416666D01*
X140366666Y-72783333D02*
X140366666Y-73116666D01*
X140133333Y-72416666D02*
X140366666Y-72783333D01*
X140600000Y-72416666D01*
X141200000Y-73116666D02*
X140800000Y-73116666D01*
X141000000Y-73116666D02*
X141000000Y-72416666D01*
X140933333Y-72516666D01*
X140866666Y-72583333D01*
X140800000Y-72616666D01*
X111983333Y-82116666D02*
X111983333Y-81416666D01*
X112150000Y-81416666D01*
X112250000Y-81450000D01*
X112316666Y-81516666D01*
X112350000Y-81583333D01*
X112383333Y-81716666D01*
X112383333Y-81816666D01*
X112350000Y-81950000D01*
X112316666Y-82016666D01*
X112250000Y-82083333D01*
X112150000Y-82116666D01*
X111983333Y-82116666D01*
X113050000Y-82116666D02*
X112650000Y-82116666D01*
X112850000Y-82116666D02*
X112850000Y-81416666D01*
X112783333Y-81516666D01*
X112716666Y-81583333D01*
X112650000Y-81616666D01*
X134966666Y-89316666D02*
X134966666Y-89883333D01*
X135000000Y-89950000D01*
X135033333Y-89983333D01*
X135100000Y-90016666D01*
X135233333Y-90016666D01*
X135300000Y-89983333D01*
X135333333Y-89950000D01*
X135366666Y-89883333D01*
X135366666Y-89316666D01*
X136066666Y-90016666D02*
X135666666Y-90016666D01*
X135866666Y-90016666D02*
X135866666Y-89316666D01*
X135800000Y-89416666D01*
X135733333Y-89483333D01*
X135666666Y-89516666D01*
%LPC*%
G36*
G01*
X126025000Y-92725000D02*
X126575000Y-92725000D01*
G75*
G02*
X126775000Y-92925000I0J-200000D01*
G01*
X126775000Y-93325000D01*
G75*
G02*
X126575000Y-93525000I-200000J0D01*
G01*
X126025000Y-93525000D01*
G75*
G02*
X125825000Y-93325000I0J200000D01*
G01*
X125825000Y-92925000D01*
G75*
G02*
X126025000Y-92725000I200000J0D01*
G01*
G37*
G36*
G01*
X126025000Y-91075000D02*
X126575000Y-91075000D01*
G75*
G02*
X126775000Y-91275000I0J-200000D01*
G01*
X126775000Y-91675000D01*
G75*
G02*
X126575000Y-91875000I-200000J0D01*
G01*
X126025000Y-91875000D01*
G75*
G02*
X125825000Y-91675000I0J200000D01*
G01*
X125825000Y-91275000D01*
G75*
G02*
X126025000Y-91075000I200000J0D01*
G01*
G37*
G36*
G01*
X123450000Y-91250000D02*
X123450000Y-91750000D01*
G75*
G02*
X123225000Y-91975000I-225000J0D01*
G01*
X122775000Y-91975000D01*
G75*
G02*
X122550000Y-91750000I0J225000D01*
G01*
X122550000Y-91250000D01*
G75*
G02*
X122775000Y-91025000I225000J0D01*
G01*
X123225000Y-91025000D01*
G75*
G02*
X123450000Y-91250000I0J-225000D01*
G01*
G37*
G36*
G01*
X125000000Y-91250000D02*
X125000000Y-91750000D01*
G75*
G02*
X124775000Y-91975000I-225000J0D01*
G01*
X124325000Y-91975000D01*
G75*
G02*
X124100000Y-91750000I0J225000D01*
G01*
X124100000Y-91250000D01*
G75*
G02*
X124325000Y-91025000I225000J0D01*
G01*
X124775000Y-91025000D01*
G75*
G02*
X125000000Y-91250000I0J-225000D01*
G01*
G37*
G36*
G01*
X123350000Y-82950000D02*
X123350000Y-83450000D01*
G75*
G02*
X123125000Y-83675000I-225000J0D01*
G01*
X122675000Y-83675000D01*
G75*
G02*
X122450000Y-83450000I0J225000D01*
G01*
X122450000Y-82950000D01*
G75*
G02*
X122675000Y-82725000I225000J0D01*
G01*
X123125000Y-82725000D01*
G75*
G02*
X123350000Y-82950000I0J-225000D01*
G01*
G37*
G36*
G01*
X124900000Y-82950000D02*
X124900000Y-83450000D01*
G75*
G02*
X124675000Y-83675000I-225000J0D01*
G01*
X124225000Y-83675000D01*
G75*
G02*
X124000000Y-83450000I0J225000D01*
G01*
X124000000Y-82950000D01*
G75*
G02*
X124225000Y-82725000I225000J0D01*
G01*
X124675000Y-82725000D01*
G75*
G02*
X124900000Y-82950000I0J-225000D01*
G01*
G37*
G36*
G01*
X140150000Y-78950000D02*
X140150000Y-78450000D01*
G75*
G02*
X140375000Y-78225000I225000J0D01*
G01*
X140825000Y-78225000D01*
G75*
G02*
X141050000Y-78450000I0J-225000D01*
G01*
X141050000Y-78950000D01*
G75*
G02*
X140825000Y-79175000I-225000J0D01*
G01*
X140375000Y-79175000D01*
G75*
G02*
X140150000Y-78950000I0J225000D01*
G01*
G37*
G36*
G01*
X138600000Y-78950000D02*
X138600000Y-78450000D01*
G75*
G02*
X138825000Y-78225000I225000J0D01*
G01*
X139275000Y-78225000D01*
G75*
G02*
X139500000Y-78450000I0J-225000D01*
G01*
X139500000Y-78950000D01*
G75*
G02*
X139275000Y-79175000I-225000J0D01*
G01*
X138825000Y-79175000D01*
G75*
G02*
X138600000Y-78950000I0J225000D01*
G01*
G37*
G36*
G01*
X137050000Y-74600000D02*
X136550000Y-74600000D01*
G75*
G02*
X136325000Y-74375000I0J225000D01*
G01*
X136325000Y-73925000D01*
G75*
G02*
X136550000Y-73700000I225000J0D01*
G01*
X137050000Y-73700000D01*
G75*
G02*
X137275000Y-73925000I0J-225000D01*
G01*
X137275000Y-74375000D01*
G75*
G02*
X137050000Y-74600000I-225000J0D01*
G01*
G37*
G36*
G01*
X137050000Y-76150000D02*
X136550000Y-76150000D01*
G75*
G02*
X136325000Y-75925000I0J225000D01*
G01*
X136325000Y-75475000D01*
G75*
G02*
X136550000Y-75250000I225000J0D01*
G01*
X137050000Y-75250000D01*
G75*
G02*
X137275000Y-75475000I0J-225000D01*
G01*
X137275000Y-75925000D01*
G75*
G02*
X137050000Y-76150000I-225000J0D01*
G01*
G37*
G36*
G01*
X123450000Y-88550000D02*
X123450000Y-89050000D01*
G75*
G02*
X123225000Y-89275000I-225000J0D01*
G01*
X122775000Y-89275000D01*
G75*
G02*
X122550000Y-89050000I0J225000D01*
G01*
X122550000Y-88550000D01*
G75*
G02*
X122775000Y-88325000I225000J0D01*
G01*
X123225000Y-88325000D01*
G75*
G02*
X123450000Y-88550000I0J-225000D01*
G01*
G37*
G36*
G01*
X125000000Y-88550000D02*
X125000000Y-89050000D01*
G75*
G02*
X124775000Y-89275000I-225000J0D01*
G01*
X124325000Y-89275000D01*
G75*
G02*
X124100000Y-89050000I0J225000D01*
G01*
X124100000Y-88550000D01*
G75*
G02*
X124325000Y-88325000I225000J0D01*
G01*
X124775000Y-88325000D01*
G75*
G02*
X125000000Y-88550000I0J-225000D01*
G01*
G37*
G36*
G01*
X123350000Y-81050000D02*
X123350000Y-81550000D01*
G75*
G02*
X123125000Y-81775000I-225000J0D01*
G01*
X122675000Y-81775000D01*
G75*
G02*
X122450000Y-81550000I0J225000D01*
G01*
X122450000Y-81050000D01*
G75*
G02*
X122675000Y-80825000I225000J0D01*
G01*
X123125000Y-80825000D01*
G75*
G02*
X123350000Y-81050000I0J-225000D01*
G01*
G37*
G36*
G01*
X124900000Y-81050000D02*
X124900000Y-81550000D01*
G75*
G02*
X124675000Y-81775000I-225000J0D01*
G01*
X124225000Y-81775000D01*
G75*
G02*
X124000000Y-81550000I0J225000D01*
G01*
X124000000Y-81050000D01*
G75*
G02*
X124225000Y-80825000I225000J0D01*
G01*
X124675000Y-80825000D01*
G75*
G02*
X124900000Y-81050000I0J-225000D01*
G01*
G37*
G36*
G01*
X140150000Y-80650000D02*
X140150000Y-80150000D01*
G75*
G02*
X140375000Y-79925000I225000J0D01*
G01*
X140825000Y-79925000D01*
G75*
G02*
X141050000Y-80150000I0J-225000D01*
G01*
X141050000Y-80650000D01*
G75*
G02*
X140825000Y-80875000I-225000J0D01*
G01*
X140375000Y-80875000D01*
G75*
G02*
X140150000Y-80650000I0J225000D01*
G01*
G37*
G36*
G01*
X138600000Y-80650000D02*
X138600000Y-80150000D01*
G75*
G02*
X138825000Y-79925000I225000J0D01*
G01*
X139275000Y-79925000D01*
G75*
G02*
X139500000Y-80150000I0J-225000D01*
G01*
X139500000Y-80650000D01*
G75*
G02*
X139275000Y-80875000I-225000J0D01*
G01*
X138825000Y-80875000D01*
G75*
G02*
X138600000Y-80650000I0J225000D01*
G01*
G37*
G36*
G01*
X106615000Y-75475000D02*
X106615000Y-74925000D01*
G75*
G02*
X106815000Y-74725000I200000J0D01*
G01*
X107215000Y-74725000D01*
G75*
G02*
X107415000Y-74925000I0J-200000D01*
G01*
X107415000Y-75475000D01*
G75*
G02*
X107215000Y-75675000I-200000J0D01*
G01*
X106815000Y-75675000D01*
G75*
G02*
X106615000Y-75475000I0J200000D01*
G01*
G37*
G36*
G01*
X104965000Y-75475000D02*
X104965000Y-74925000D01*
G75*
G02*
X105165000Y-74725000I200000J0D01*
G01*
X105565000Y-74725000D01*
G75*
G02*
X105765000Y-74925000I0J-200000D01*
G01*
X105765000Y-75475000D01*
G75*
G02*
X105565000Y-75675000I-200000J0D01*
G01*
X105165000Y-75675000D01*
G75*
G02*
X104965000Y-75475000I0J200000D01*
G01*
G37*
G36*
G01*
X115000000Y-86325000D02*
X115000000Y-86875000D01*
G75*
G02*
X114800000Y-87075000I-200000J0D01*
G01*
X114400000Y-87075000D01*
G75*
G02*
X114200000Y-86875000I0J200000D01*
G01*
X114200000Y-86325000D01*
G75*
G02*
X114400000Y-86125000I200000J0D01*
G01*
X114800000Y-86125000D01*
G75*
G02*
X115000000Y-86325000I0J-200000D01*
G01*
G37*
G36*
G01*
X116650000Y-86325000D02*
X116650000Y-86875000D01*
G75*
G02*
X116450000Y-87075000I-200000J0D01*
G01*
X116050000Y-87075000D01*
G75*
G02*
X115850000Y-86875000I0J200000D01*
G01*
X115850000Y-86325000D01*
G75*
G02*
X116050000Y-86125000I200000J0D01*
G01*
X116450000Y-86125000D01*
G75*
G02*
X116650000Y-86325000I0J-200000D01*
G01*
G37*
G36*
G01*
X115325000Y-93275000D02*
X115325000Y-92725000D01*
G75*
G02*
X115525000Y-92525000I200000J0D01*
G01*
X115925000Y-92525000D01*
G75*
G02*
X116125000Y-92725000I0J-200000D01*
G01*
X116125000Y-93275000D01*
G75*
G02*
X115925000Y-93475000I-200000J0D01*
G01*
X115525000Y-93475000D01*
G75*
G02*
X115325000Y-93275000I0J200000D01*
G01*
G37*
G36*
G01*
X113675000Y-93275000D02*
X113675000Y-92725000D01*
G75*
G02*
X113875000Y-92525000I200000J0D01*
G01*
X114275000Y-92525000D01*
G75*
G02*
X114475000Y-92725000I0J-200000D01*
G01*
X114475000Y-93275000D01*
G75*
G02*
X114275000Y-93475000I-200000J0D01*
G01*
X113875000Y-93475000D01*
G75*
G02*
X113675000Y-93275000I0J200000D01*
G01*
G37*
G36*
G01*
X112225000Y-88600000D02*
X112775000Y-88600000D01*
G75*
G02*
X112975000Y-88800000I0J-200000D01*
G01*
X112975000Y-89200000D01*
G75*
G02*
X112775000Y-89400000I-200000J0D01*
G01*
X112225000Y-89400000D01*
G75*
G02*
X112025000Y-89200000I0J200000D01*
G01*
X112025000Y-88800000D01*
G75*
G02*
X112225000Y-88600000I200000J0D01*
G01*
G37*
G36*
G01*
X112225000Y-86950000D02*
X112775000Y-86950000D01*
G75*
G02*
X112975000Y-87150000I0J-200000D01*
G01*
X112975000Y-87550000D01*
G75*
G02*
X112775000Y-87750000I-200000J0D01*
G01*
X112225000Y-87750000D01*
G75*
G02*
X112025000Y-87550000I0J200000D01*
G01*
X112025000Y-87150000D01*
G75*
G02*
X112225000Y-86950000I200000J0D01*
G01*
G37*
G36*
G01*
X133325000Y-93250000D02*
X133875000Y-93250000D01*
G75*
G02*
X134075000Y-93450000I0J-200000D01*
G01*
X134075000Y-93850000D01*
G75*
G02*
X133875000Y-94050000I-200000J0D01*
G01*
X133325000Y-94050000D01*
G75*
G02*
X133125000Y-93850000I0J200000D01*
G01*
X133125000Y-93450000D01*
G75*
G02*
X133325000Y-93250000I200000J0D01*
G01*
G37*
G36*
G01*
X133325000Y-91600000D02*
X133875000Y-91600000D01*
G75*
G02*
X134075000Y-91800000I0J-200000D01*
G01*
X134075000Y-92200000D01*
G75*
G02*
X133875000Y-92400000I-200000J0D01*
G01*
X133325000Y-92400000D01*
G75*
G02*
X133125000Y-92200000I0J200000D01*
G01*
X133125000Y-91800000D01*
G75*
G02*
X133325000Y-91600000I200000J0D01*
G01*
G37*
G36*
G01*
X124725000Y-79375000D02*
X124725000Y-78825000D01*
G75*
G02*
X124925000Y-78625000I200000J0D01*
G01*
X125325000Y-78625000D01*
G75*
G02*
X125525000Y-78825000I0J-200000D01*
G01*
X125525000Y-79375000D01*
G75*
G02*
X125325000Y-79575000I-200000J0D01*
G01*
X124925000Y-79575000D01*
G75*
G02*
X124725000Y-79375000I0J200000D01*
G01*
G37*
G36*
G01*
X123075000Y-79375000D02*
X123075000Y-78825000D01*
G75*
G02*
X123275000Y-78625000I200000J0D01*
G01*
X123675000Y-78625000D01*
G75*
G02*
X123875000Y-78825000I0J-200000D01*
G01*
X123875000Y-79375000D01*
G75*
G02*
X123675000Y-79575000I-200000J0D01*
G01*
X123275000Y-79575000D01*
G75*
G02*
X123075000Y-79375000I0J200000D01*
G01*
G37*
G36*
G01*
X124200000Y-75225000D02*
X124200000Y-75775000D01*
G75*
G02*
X124000000Y-75975000I-200000J0D01*
G01*
X123600000Y-75975000D01*
G75*
G02*
X123400000Y-75775000I0J200000D01*
G01*
X123400000Y-75225000D01*
G75*
G02*
X123600000Y-75025000I200000J0D01*
G01*
X124000000Y-75025000D01*
G75*
G02*
X124200000Y-75225000I0J-200000D01*
G01*
G37*
G36*
G01*
X125850000Y-75225000D02*
X125850000Y-75775000D01*
G75*
G02*
X125650000Y-75975000I-200000J0D01*
G01*
X125250000Y-75975000D01*
G75*
G02*
X125050000Y-75775000I0J200000D01*
G01*
X125050000Y-75225000D01*
G75*
G02*
X125250000Y-75025000I200000J0D01*
G01*
X125650000Y-75025000D01*
G75*
G02*
X125850000Y-75225000I0J-200000D01*
G01*
G37*
G36*
G01*
X120350000Y-84975000D02*
X120350000Y-84425000D01*
G75*
G02*
X120550000Y-84225000I200000J0D01*
G01*
X120950000Y-84225000D01*
G75*
G02*
X121150000Y-84425000I0J-200000D01*
G01*
X121150000Y-84975000D01*
G75*
G02*
X120950000Y-85175000I-200000J0D01*
G01*
X120550000Y-85175000D01*
G75*
G02*
X120350000Y-84975000I0J200000D01*
G01*
G37*
G36*
G01*
X118700000Y-84975000D02*
X118700000Y-84425000D01*
G75*
G02*
X118900000Y-84225000I200000J0D01*
G01*
X119300000Y-84225000D01*
G75*
G02*
X119500000Y-84425000I0J-200000D01*
G01*
X119500000Y-84975000D01*
G75*
G02*
X119300000Y-85175000I-200000J0D01*
G01*
X118900000Y-85175000D01*
G75*
G02*
X118700000Y-84975000I0J200000D01*
G01*
G37*
G36*
G01*
X119400000Y-92525000D02*
X119400000Y-93075000D01*
G75*
G02*
X119200000Y-93275000I-200000J0D01*
G01*
X118800000Y-93275000D01*
G75*
G02*
X118600000Y-93075000I0J200000D01*
G01*
X118600000Y-92525000D01*
G75*
G02*
X118800000Y-92325000I200000J0D01*
G01*
X119200000Y-92325000D01*
G75*
G02*
X119400000Y-92525000I0J-200000D01*
G01*
G37*
G36*
G01*
X121050000Y-92525000D02*
X121050000Y-93075000D01*
G75*
G02*
X120850000Y-93275000I-200000J0D01*
G01*
X120450000Y-93275000D01*
G75*
G02*
X120250000Y-93075000I0J200000D01*
G01*
X120250000Y-92525000D01*
G75*
G02*
X120450000Y-92325000I200000J0D01*
G01*
X120850000Y-92325000D01*
G75*
G02*
X121050000Y-92525000I0J-200000D01*
G01*
G37*
G36*
G01*
X119375000Y-89825000D02*
X119375000Y-90375000D01*
G75*
G02*
X119175000Y-90575000I-200000J0D01*
G01*
X118775000Y-90575000D01*
G75*
G02*
X118575000Y-90375000I0J200000D01*
G01*
X118575000Y-89825000D01*
G75*
G02*
X118775000Y-89625000I200000J0D01*
G01*
X119175000Y-89625000D01*
G75*
G02*
X119375000Y-89825000I0J-200000D01*
G01*
G37*
G36*
G01*
X121025000Y-89825000D02*
X121025000Y-90375000D01*
G75*
G02*
X120825000Y-90575000I-200000J0D01*
G01*
X120425000Y-90575000D01*
G75*
G02*
X120225000Y-90375000I0J200000D01*
G01*
X120225000Y-89825000D01*
G75*
G02*
X120425000Y-89625000I200000J0D01*
G01*
X120825000Y-89625000D01*
G75*
G02*
X121025000Y-89825000I0J-200000D01*
G01*
G37*
G36*
G01*
X119475000Y-87025000D02*
X119475000Y-87575000D01*
G75*
G02*
X119275000Y-87775000I-200000J0D01*
G01*
X118875000Y-87775000D01*
G75*
G02*
X118675000Y-87575000I0J200000D01*
G01*
X118675000Y-87025000D01*
G75*
G02*
X118875000Y-86825000I200000J0D01*
G01*
X119275000Y-86825000D01*
G75*
G02*
X119475000Y-87025000I0J-200000D01*
G01*
G37*
G36*
G01*
X121125000Y-87025000D02*
X121125000Y-87575000D01*
G75*
G02*
X120925000Y-87775000I-200000J0D01*
G01*
X120525000Y-87775000D01*
G75*
G02*
X120325000Y-87575000I0J200000D01*
G01*
X120325000Y-87025000D01*
G75*
G02*
X120525000Y-86825000I200000J0D01*
G01*
X120925000Y-86825000D01*
G75*
G02*
X121125000Y-87025000I0J-200000D01*
G01*
G37*
G36*
G01*
X124225000Y-86375000D02*
X124225000Y-85825000D01*
G75*
G02*
X124425000Y-85625000I200000J0D01*
G01*
X124825000Y-85625000D01*
G75*
G02*
X125025000Y-85825000I0J-200000D01*
G01*
X125025000Y-86375000D01*
G75*
G02*
X124825000Y-86575000I-200000J0D01*
G01*
X124425000Y-86575000D01*
G75*
G02*
X124225000Y-86375000I0J200000D01*
G01*
G37*
G36*
G01*
X122575000Y-86375000D02*
X122575000Y-85825000D01*
G75*
G02*
X122775000Y-85625000I200000J0D01*
G01*
X123175000Y-85625000D01*
G75*
G02*
X123375000Y-85825000I0J-200000D01*
G01*
X123375000Y-86375000D01*
G75*
G02*
X123175000Y-86575000I-200000J0D01*
G01*
X122775000Y-86575000D01*
G75*
G02*
X122575000Y-86375000I0J200000D01*
G01*
G37*
D13*
X103914000Y-82450000D03*
D14*
X106200000Y-88950000D03*
D13*
X108486000Y-82450000D03*
D15*
X140300000Y-90740000D03*
X140300000Y-88200000D03*
X140300000Y-85660000D03*
D16*
X140300000Y-83120000D03*
D15*
X134000000Y-74360000D03*
X134000000Y-76900000D03*
X131460000Y-74360000D03*
X131460000Y-76900000D03*
X128920000Y-74360000D03*
D16*
X128920000Y-76900000D03*
D15*
X98000000Y-75460000D03*
D16*
X98000000Y-78000000D03*
D15*
X98000000Y-83580000D03*
X98000000Y-86120000D03*
X98000000Y-88660000D03*
D16*
X98000000Y-91200000D03*
D17*
X114700000Y-79600000D03*
X116700000Y-78650000D03*
X116700000Y-80550000D03*
D18*
X116500000Y-84200000D03*
X114300000Y-85150000D03*
X114300000Y-83250000D03*
X116600000Y-90250000D03*
X114400000Y-91200000D03*
X114400000Y-89300000D03*
D19*
X115870000Y-75500000D03*
X112900000Y-75500000D03*
G36*
G01*
X136100000Y-92599999D02*
X136100000Y-93400001D01*
G75*
G02*
X135850001Y-93650000I-249999J0D01*
G01*
X135024999Y-93650000D01*
G75*
G02*
X134775000Y-93400001I0J249999D01*
G01*
X134775000Y-92599999D01*
G75*
G02*
X135024999Y-92350000I249999J0D01*
G01*
X135850001Y-92350000D01*
G75*
G02*
X136100000Y-92599999I0J-249999D01*
G01*
G37*
G36*
G01*
X138025000Y-92599999D02*
X138025000Y-93400001D01*
G75*
G02*
X137775001Y-93650000I-249999J0D01*
G01*
X136949999Y-93650000D01*
G75*
G02*
X136700000Y-93400001I0J249999D01*
G01*
X136700000Y-92599999D01*
G75*
G02*
X136949999Y-92350000I249999J0D01*
G01*
X137775001Y-92350000D01*
G75*
G02*
X138025000Y-92599999I0J-249999D01*
G01*
G37*
G36*
G01*
X128762500Y-92399999D02*
X128762500Y-93200001D01*
G75*
G02*
X128512501Y-93450000I-249999J0D01*
G01*
X127687499Y-93450000D01*
G75*
G02*
X127437500Y-93200001I0J249999D01*
G01*
X127437500Y-92399999D01*
G75*
G02*
X127687499Y-92150000I249999J0D01*
G01*
X128512501Y-92150000D01*
G75*
G02*
X128762500Y-92399999I0J-249999D01*
G01*
G37*
G36*
G01*
X130687500Y-92399999D02*
X130687500Y-93200001D01*
G75*
G02*
X130437501Y-93450000I-249999J0D01*
G01*
X129612499Y-93450000D01*
G75*
G02*
X129362500Y-93200001I0J249999D01*
G01*
X129362500Y-92399999D01*
G75*
G02*
X129612499Y-92150000I249999J0D01*
G01*
X130437501Y-92150000D01*
G75*
G02*
X130687500Y-92399999I0J-249999D01*
G01*
G37*
G36*
G01*
X123362500Y-77600001D02*
X123362500Y-76799999D01*
G75*
G02*
X123612499Y-76550000I249999J0D01*
G01*
X124437501Y-76550000D01*
G75*
G02*
X124687500Y-76799999I0J-249999D01*
G01*
X124687500Y-77600001D01*
G75*
G02*
X124437501Y-77850000I-249999J0D01*
G01*
X123612499Y-77850000D01*
G75*
G02*
X123362500Y-77600001I0J249999D01*
G01*
G37*
G36*
G01*
X121437500Y-77600001D02*
X121437500Y-76799999D01*
G75*
G02*
X121687499Y-76550000I249999J0D01*
G01*
X122512501Y-76550000D01*
G75*
G02*
X122762500Y-76799999I0J-249999D01*
G01*
X122762500Y-77600001D01*
G75*
G02*
X122512501Y-77850000I-249999J0D01*
G01*
X121687499Y-77850000D01*
G75*
G02*
X121437500Y-77600001I0J249999D01*
G01*
G37*
D20*
X108200000Y-77700000D03*
X104100000Y-77700000D03*
G36*
G01*
X123362500Y-74200001D02*
X123362500Y-73399999D01*
G75*
G02*
X123612499Y-73150000I249999J0D01*
G01*
X124437501Y-73150000D01*
G75*
G02*
X124687500Y-73399999I0J-249999D01*
G01*
X124687500Y-74200001D01*
G75*
G02*
X124437501Y-74450000I-249999J0D01*
G01*
X123612499Y-74450000D01*
G75*
G02*
X123362500Y-74200001I0J249999D01*
G01*
G37*
G36*
G01*
X121437500Y-74200001D02*
X121437500Y-73399999D01*
G75*
G02*
X121687499Y-73150000I249999J0D01*
G01*
X122512501Y-73150000D01*
G75*
G02*
X122762500Y-73399999I0J-249999D01*
G01*
X122762500Y-74200001D01*
G75*
G02*
X122512501Y-74450000I-249999J0D01*
G01*
X121687499Y-74450000D01*
G75*
G02*
X121437500Y-74200001I0J249999D01*
G01*
G37*
G36*
G01*
X120262500Y-82156250D02*
X120262500Y-81643750D01*
G75*
G02*
X120481250Y-81425000I218750J0D01*
G01*
X120918750Y-81425000D01*
G75*
G02*
X121137500Y-81643750I0J-218750D01*
G01*
X121137500Y-82156250D01*
G75*
G02*
X120918750Y-82375000I-218750J0D01*
G01*
X120481250Y-82375000D01*
G75*
G02*
X120262500Y-82156250I0J218750D01*
G01*
G37*
G36*
G01*
X118687500Y-82156250D02*
X118687500Y-81643750D01*
G75*
G02*
X118906250Y-81425000I218750J0D01*
G01*
X119343750Y-81425000D01*
G75*
G02*
X119562500Y-81643750I0J-218750D01*
G01*
X119562500Y-82156250D01*
G75*
G02*
X119343750Y-82375000I-218750J0D01*
G01*
X118906250Y-82375000D01*
G75*
G02*
X118687500Y-82156250I0J218750D01*
G01*
G37*
G36*
G01*
X120237500Y-80156250D02*
X120237500Y-79643750D01*
G75*
G02*
X120456250Y-79425000I218750J0D01*
G01*
X120893750Y-79425000D01*
G75*
G02*
X121112500Y-79643750I0J-218750D01*
G01*
X121112500Y-80156250D01*
G75*
G02*
X120893750Y-80375000I-218750J0D01*
G01*
X120456250Y-80375000D01*
G75*
G02*
X120237500Y-80156250I0J218750D01*
G01*
G37*
G36*
G01*
X118662500Y-80156250D02*
X118662500Y-79643750D01*
G75*
G02*
X118881250Y-79425000I218750J0D01*
G01*
X119318750Y-79425000D01*
G75*
G02*
X119537500Y-79643750I0J-218750D01*
G01*
X119537500Y-80156250D01*
G75*
G02*
X119318750Y-80375000I-218750J0D01*
G01*
X118881250Y-80375000D01*
G75*
G02*
X118662500Y-80156250I0J218750D01*
G01*
G37*
D21*
X140500000Y-74400000D03*
X140500000Y-76600000D03*
X138800000Y-76600000D03*
X138800000Y-74400000D03*
D22*
X112600000Y-80600000D03*
X112600000Y-78400000D03*
D23*
X134066000Y-89554000D03*
X133266000Y-89554000D03*
X132466000Y-89554000D03*
X131666000Y-89554000D03*
X130866000Y-89554000D03*
X130066000Y-89554000D03*
X129266000Y-89554000D03*
X128466000Y-89554000D03*
D24*
X127016000Y-88104000D03*
X127016000Y-87304000D03*
X127016000Y-86504000D03*
X127016000Y-85704000D03*
X127016000Y-84904000D03*
X127016000Y-84104000D03*
X127016000Y-83304000D03*
X127016000Y-82504000D03*
D23*
X128466000Y-81054000D03*
X129266000Y-81054000D03*
X130066000Y-81054000D03*
X130866000Y-81054000D03*
X131666000Y-81054000D03*
X132466000Y-81054000D03*
X133266000Y-81054000D03*
X134066000Y-81054000D03*
D24*
X135516000Y-82504000D03*
X135516000Y-83304000D03*
X135516000Y-84104000D03*
X135516000Y-84904000D03*
X135516000Y-85704000D03*
X135516000Y-86504000D03*
X135516000Y-87304000D03*
X135516000Y-88104000D03*
M02*
